<?xml version="1.0" standalone="no"?>
<!DOCTYPE svg PUBLIC "-//W3C//DTD SVG 1.1//EN" "http://www.w3.org/Graphics/SVG/1.1/DTD/svg11.dtd" >
<svg xmlns="http://www.w3.org/2000/svg" xmlns:xlink="http://www.w3.org/1999/xlink" version="1.1">
<metadata>
Created by FontForge 20150318 at Sun Jul 26 11:19:01 2015
 By uniteet7
Copyright (c) 2010 by Letterhead Studio. All rights reserved.
</metadata>
<defs>
<font id="ConquerorSansMedium" horiz-adv-x="550" >
  <font-face 
    font-family="ConquerorSansMedium"
    font-weight="500"
    font-stretch="normal"
    units-per-em="1000"
    panose-1="2 0 6 3 5 0 0 2 0 3"
    ascent="750"
    descent="-250"
    x-height="472"
    cap-height="700"
    bbox="-81 -296 1073 944"
    underline-thickness="50"
    underline-position="-50"
    unicode-range="U+0020-FB02"
  />
<missing-glyph horiz-adv-x="0" 
 />
    <glyph glyph-name="fi" unicode="fi" horiz-adv-x="513" 
d="M268 715q47 0 87 -8t71.5 -32t31.5 -61q0 -23 -19.5 -35t-45.5 -12q-33 0 -50 26q-18 5 -25 22q-29 11 -43 11q-29 0 -49 -12.5t-20 -38.5v-103h242v-472h-122v382h-120v-382h-123v382h-62v90h62v85q0 56 30 93.5t69.5 51t85.5 13.5z" />
    <glyph glyph-name="fl" unicode="fl" horiz-adv-x="511" 
d="M448 700v-700h-122v382h-120v-382h-122v382h-63v90h63v92q0 82 42 116.5t103 34.5q56 0 123 -15h96zM206 472h120v141q-47 13 -73 13q-47 0 -47 -51v-103z" />
    <glyph glyph-name=".notdef" horiz-adv-x="0" 
 />
    <glyph glyph-name=".null" horiz-adv-x="0" 
 />
    <glyph glyph-name="nonmarkingreturn" horiz-adv-x="333" 
 />
    <glyph glyph-name="space" unicode=" " horiz-adv-x="269" 
 />
    <glyph glyph-name="exclam" unicode="!" horiz-adv-x="254" 
d="M167 200h-78l-36 500h148zM58 63q0 28 20.5 48.5t48.5 20.5t48 -20.5t20 -48.5t-20 -48t-48 -20t-48.5 20t-20.5 48z" />
    <glyph glyph-name="quotedbl" unicode="&#x22;" horiz-adv-x="457" 
d="M413 654q0 -28 -33 -67l-122 -148l-42 29l78 192q21 52 61 52q23 0 40.5 -15.5t17.5 -42.5zM243 654q0 -14 -4 -24.5t-9 -17.5t-20 -25l-122 -148l-42 29q11 28 24 60t29 71.5t25 60.5q21 52 61 52q23 0 40.5 -15.5t17.5 -42.5z" />
    <glyph glyph-name="numbersign" unicode="#" horiz-adv-x="717" 
d="M673 409h-146l-41 -119h146v-71h-169l-73 -219h-77l73 219h-142l-72 -219h-78l74 219h-125v71h150l39 119h-140v71h164l77 220h79l-78 -220h142l75 220h78l-78 -220h122v-71zM310 409l-41 -119h140l42 119h-141z" />
    <glyph glyph-name="dollar" unicode="$" horiz-adv-x="578" 
d="M527 205q0 -92 -60.5 -154.5t-180.5 -64.5l-10 -70h-79l11 77q-84 19 -160 79l57 96q59 -45 120 -64q2 14 13 89.5t17 116.5q-39 15 -65.5 29t-54.5 37.5t-42.5 57.5t-14.5 78q0 89 56.5 145t179.5 57l9 63h79l-11 -71q61 -11 119 -40l-46 -100q-50 21 -89 30l-27 -185
q40 -15 66.5 -29.5t55 -38t43 -58.5t14.5 -80zM409 185q0 56 -80 95q-4 -27 -9 -59t-10 -69.5t-8 -58.5q49 1 78 24.5t29 67.5zM192 528q0 -31 21 -51t61 -39l24 170q-45 0 -75.5 -19t-30.5 -61z" />
    <glyph glyph-name="percent" unicode="%" horiz-adv-x="751" 
d="M703 700l-560 -700h-96l560 700h96zM357 548q0 -68 -42 -111.5t-105 -43.5t-104 44.5t-41 110.5q0 76 40 116.5t105 40.5q64 0 105.5 -41.5t41.5 -115.5zM280 548q0 93 -70 93q-66 0 -66 -93q0 -92 66 -92q34 0 52 25t18 67zM686 151q0 -68 -42.5 -112t-104.5 -44
q-63 0 -104 44.5t-41 111.5q0 75 39.5 115.5t105.5 40.5q64 0 105.5 -41.5t41.5 -114.5zM609 151q0 93 -70 93q-66 0 -66 -93q0 -92 66 -92q34 0 52 24.5t18 67.5z" />
    <glyph glyph-name="ampersand" unicode="&#x26;" horiz-adv-x="736" 
d="M522 0l-37 49q-82 -63 -203 -63q-105 0 -168.5 61t-63.5 153q0 77 35 127t120 87q-56 78 -56 143q0 70 50.5 113.5t137.5 43.5q95 0 201 -53l-51 -95q-87 42 -156 42q-27 0 -42 -14.5t-15 -35.5q0 -37 57 -108l174 -221q48 92 52 217h109q-9 -191 -90 -307l111 -139h-165
zM313 92q59 0 108 41l-155 202q-46 -18 -71 -53.5t-25 -74.5q0 -55 42 -85t101 -30z" />
    <glyph glyph-name="quotesingle" unicode="'" horiz-adv-x="287" 
d="M243 654q0 -14 -4 -24.5t-9 -17.5t-20 -25l-122 -148l-42 29q11 28 24 60t29 71.5t25 60.5q21 52 61 52q23 0 40.5 -15.5t17.5 -42.5z" />
    <glyph glyph-name="parenleft" unicode="(" horiz-adv-x="397" 
d="M161 261q0 -132 55 -225t170 -181l-44 -75q-295 170 -295 481t295 481l44 -74q-115 -88 -170 -181.5t-55 -225.5z" />
    <glyph glyph-name="parenright" unicode=")" horiz-adv-x="397" 
d="M240 261q0 132 -54.5 225.5t-169.5 181.5l43 74q295 -170 295 -481t-295 -481l-43 75q115 88 169.5 181t54.5 225z" />
    <glyph glyph-name="asterisk" unicode="*" horiz-adv-x="438" 
d="M398 539l-119 -29l79 -97l-72 -52l-66 107l-68 -107l-72 52l78 97l-118 29l24 86l118 -42l-8 122h88l-7 -122l117 42z" />
    <glyph glyph-name="plus" unicode="+" horiz-adv-x="640" 
d="M590 257h-233v-233h-75v233h-232v75h232v232h75v-232h233v-75z" />
    <glyph glyph-name="comma" unicode="," horiz-adv-x="232" 
d="M50 63q0 27 20.5 48t47.5 21q32 0 54 -22.5t22 -59.5q0 -73 -113 -212l-44 25l71 133q-25 4 -41.5 23t-16.5 44z" />
    <glyph glyph-name="hyphen" unicode="-" horiz-adv-x="290" 
d="M260 213h-230v80h230v-80z" />
    <glyph glyph-name="period" unicode="." horiz-adv-x="232" 
d="M47 63q0 28 20.5 48.5t48.5 20.5t48 -20.5t20 -48.5t-20 -48t-48 -20t-48.5 20t-20.5 48z" />
    <glyph glyph-name="slash" unicode="/" horiz-adv-x="498" 
d="M74 -200h-75l424 922h76z" />
    <glyph glyph-name="zero" unicode="0" 
d="M527 350q0 -166 -64 -265.5t-188 -99.5q-83 0 -141 49.5t-84.5 130t-26.5 185.5q0 166 64 265.5t188 99.5q83 0 141 -49.5t84.5 -130t26.5 -185.5zM386 350q0 138 -25 197.5t-86 59.5t-86 -59.5t-25 -197.5t25 -198t86 -60t86 60t25 198z" />
    <glyph glyph-name="one" unicode="1" 
d="M463 0h-336v107h100v431l-98 -54l-43 78l210 138h67v-593h100v-107z" />
    <glyph glyph-name="two" unicode="2" 
d="M496 0h-428v50l218 291q67 89 67 155q0 97 -108 97q-57 0 -125 -63q-25 28 -73 84q56 52 112.5 76.5t127.5 24.5q104 0 158 -53.5t54 -129.5q0 -62 -24.5 -117.5t-73.5 -120.5l-130 -175h225v-119z" />
    <glyph glyph-name="three" unicode="3" 
d="M301 715q49 0 85.5 -14.5t55.5 -39t28 -49.5t9 -52q0 -63 -38 -112t-107 -75q79 -8 124.5 -52t45.5 -112q0 -93 -70.5 -158.5t-199.5 -65.5q-100 0 -189 59l48 96q79 -44 130 -44q53 0 95.5 28.5t42.5 87.5q0 43 -29.5 63.5t-74.5 20.5q-24 0 -54 -10q-5 15 -17.5 45
t-17.5 45q93 39 136 74t43 81q0 32 -20 51t-57 19q-72 0 -138 -66l-68 80q103 100 237 100z" />
    <glyph glyph-name="four" unicode="4" 
d="M534 265v-101h-90v-164h-136v164h-291v64l338 488h89v-451h90zM153 265h155v224z" />
    <glyph glyph-name="five" unicode="5" 
d="M241 -12q-109 0 -194 55l48 94q82 -42 136 -42q55 0 98 31.5t43 96.5q0 58 -34.5 86.5t-93.5 28.5q-45 0 -83 -20l-59 53l64 329h326v-108h-234l-28 -152q34 4 54 4q92 0 155 -59t63 -157q0 -41 -13 -80.5t-41 -76.5t-81.5 -60t-125.5 -23z" />
    <glyph glyph-name="six" unicode="6" 
d="M510 222q0 -105 -64.5 -171t-164.5 -66q-129 0 -185 84.5t-56 245.5q0 196 63 298t208 102q103 0 175 -57l-55 -90q-53 39 -116 39q-62 0 -96 -44t-41 -160q64 41 128 41q102 0 153 -61.5t51 -160.5zM384 219q0 61 -30.5 93t-79.5 32q-18 0 -47.5 -11.5t-49.5 -25.5v-31
q0 -96 20.5 -143t81.5 -47q49 0 77 36t28 97z" />
    <glyph glyph-name="seven" unicode="7" 
d="M244 0h-137l235 587h-291v113h455v-49z" />
    <glyph glyph-name="eight" unicode="8" 
d="M275 413q40 0 64.5 27t24.5 77q0 100 -89 100t-89 -100q0 -50 24.5 -77t64.5 -27zM275 82q106 0 106 115t-106 115t-106 -115t106 -115zM275 -15q-100 0 -170 53t-70 157q0 120 115 173q-47 21 -70.5 62.5t-23.5 91.5q0 89 57.5 141t161.5 52t161.5 -52t57.5 -141
q0 -50 -23.5 -91.5t-70.5 -62.5q115 -53 115 -173q0 -104 -70 -157t-170 -53z" />
    <glyph glyph-name="nine" unicode="9" 
d="M39 477q0 105 63 171.5t163 66.5q132 0 188.5 -87.5t56.5 -255.5q0 -188 -63.5 -287.5t-204.5 -99.5q-100 0 -176 56l54 90q53 -39 116 -39t96.5 44t39.5 160q-67 -41 -127 -41q-102 0 -154 62.5t-52 159.5zM165 480q0 -61 31 -93t80 -32q17 0 46.5 12t49.5 25v54
q0 82 -23.5 124.5t-80.5 42.5q-49 0 -76 -35.5t-27 -97.5z" />
    <glyph glyph-name="colon" unicode=":" horiz-adv-x="232" 
d="M184 340q0 -28 -20 -48t-48 -20t-48.5 20t-20.5 48t20.5 48.5t48.5 20.5t48 -20.5t20 -48.5zM184 63q0 -28 -20 -48t-48 -20t-48.5 20t-20.5 48t20.5 48.5t48.5 20.5t48 -20.5t20 -48.5z" />
    <glyph glyph-name="semicolon" unicode=";" horiz-adv-x="249" 
d="M57 340q0 28 20.5 48.5t48.5 20.5t48 -20.5t20 -48.5t-20 -48t-48 -20t-48.5 20t-20.5 48zM57 63q0 27 20.5 48t48.5 21q32 0 54 -22.5t22 -59.5q0 -72 -114 -212l-44 25l71 133q-24 4 -41 23t-17 44z" />
    <glyph glyph-name="less" unicode="&#x3c;" horiz-adv-x="519" 
d="M28 296l441 254v-87l-290 -167l290 -167v-87z" />
    <glyph glyph-name="equal" unicode="=" horiz-adv-x="640" 
d="M589 163h-539v75h539v-75zM589 335h-539v75h539v-75z" />
    <glyph glyph-name="greater" unicode="&#x3e;" horiz-adv-x="519" 
d="M489 296l-441 -254v87l290 167l-290 167v87z" />
    <glyph glyph-name="question" unicode="?" horiz-adv-x="463" 
d="M218 700q58 0 99.5 -17t60.5 -45t27 -53t8 -51q0 -46 -20.5 -80.5t-49.5 -55t-57.5 -40.5t-49 -48t-20.5 -66q0 -25 6 -44h-78q-25 40 -25 83q0 38 18 68.5t44.5 50t52.5 37t44 40t18 49.5q0 35 -25.5 51.5t-54.5 16.5q-64 0 -136 -32l-37 96q91 40 175 40zM114 63
q0 28 20.5 48.5t48.5 20.5t48 -20.5t20 -48.5t-20 -48t-48 -20t-48.5 20t-20.5 48z" />
    <glyph glyph-name="at" unicode="@" horiz-adv-x="824" 
d="M479 320q-86 -5 -142 -67.5t-56 -119.5q0 -31 8 -42t26 -11q49 0 106 82.5t58 157.5zM790 283q0 -60 -20 -109t-52.5 -80.5t-75 -53.5t-85 -31t-84.5 -9v145q-94 -150 -195 -150q-45 0 -72 32.5t-27 97.5q0 106 114.5 193t285.5 87v-315q51 11 92.5 67t41.5 120
q0 97 -69.5 142.5t-177.5 45.5q-62 0 -122.5 -19t-114 -56.5t-86.5 -102t-33 -146.5q0 -72 22.5 -123.5t61 -78.5t80 -38.5t87.5 -11.5q57 0 132 17t131 47l23 -66q-54 -27 -136 -49t-147 -22q-158 0 -243.5 86.5t-85.5 235.5q0 114 62 205.5t160 140.5t210 49
q150 0 236.5 -67t86.5 -183z" />
    <glyph glyph-name="A" unicode="A" horiz-adv-x="671" 
d="M256 700h159l241 -700h-141l-56 165h-259l-56 -165h-129zM330 548l-94 -275h179z" />
    <glyph glyph-name="B" unicode="B" horiz-adv-x="612" 
d="M564 197q0 -67 -35 -113t-84 -65t-106 -19h-249v700h243q54 0 99 -15.5t77.5 -56t32.5 -100.5q0 -57 -34.5 -102t-96.5 -62q70 -12 111.5 -55.5t41.5 -111.5zM428 206q0 105 -124 105h-78v-210h78q124 0 124 105zM405 506q0 49 -26.5 70.5t-80.5 21.5h-72v-186h72
q107 0 107 94z" />
    <glyph glyph-name="C" unicode="C" horiz-adv-x="674" 
d="M391 715q133 0 235 -46l-45 -109q-95 38 -179 38q-95 0 -155.5 -67.5t-60.5 -181.5q0 -118 60 -181.5t156 -63.5q81 0 198 75l55 -99q-131 -95 -265 -95q-171 0 -260.5 99.5t-89.5 264.5t92 265.5t259 100.5z" />
    <glyph glyph-name="D" unicode="D" horiz-adv-x="706" 
d="M520 350q0 123 -50 182.5t-161 59.5h-83v-485h83q111 0 161 60t50 183zM90 700h238q72 0 130.5 -20.5t96.5 -54.5t64 -80t37.5 -94.5t11.5 -100.5q0 -66 -18.5 -125.5t-57 -111.5t-106.5 -82.5t-158 -30.5h-238v700z" />
    <glyph glyph-name="E" unicode="E" horiz-adv-x="541" 
d="M462 414v-107h-236v-200h270v-107h-406v700h395v-108h-259v-178h236z" />
    <glyph glyph-name="F" unicode="F" horiz-adv-x="499" 
d="M485 587h-259v-183h236v-113h-236v-291h-136v700h395v-113z" />
    <glyph glyph-name="G" unicode="G" horiz-adv-x="688" 
d="M391 715q133 0 235 -46l-45 -109q-95 38 -179 38q-95 0 -155.5 -67.5t-60.5 -181.5q0 -118 60.5 -182t155.5 -64q58 0 127 36v198h128v-258q-20 -16 -49.5 -33.5t-93 -39t-124.5 -21.5q-171 0 -260.5 99.5t-89.5 264.5t92 265.5t259 100.5z" />
    <glyph glyph-name="H" unicode="H" horiz-adv-x="767" 
d="M677 0h-136v303h-315v-303h-136v700h136v-280h315v280h136v-700z" />
    <glyph glyph-name="I" unicode="I" horiz-adv-x="316" 
d="M226 0h-136v700h136v-700z" />
    <glyph glyph-name="J" unicode="J" horiz-adv-x="326" 
d="M236 56q0 -133 -69 -192t-208 -59v107q31 0 52 4t43.5 17.5t34 44t11.5 78.5v644h136v-644z" />
    <glyph glyph-name="K" unicode="K" horiz-adv-x="685" 
d="M655 0h-167l-194 302h-68v-302h-136v700h136v-280h63l213 280h164l-255 -333z" />
    <glyph glyph-name="L" unicode="L" horiz-adv-x="547" 
d="M525 112v-112h-435v700h136v-588h299z" />
    <glyph glyph-name="M" unicode="M" horiz-adv-x="955" 
d="M875 0h-137l-22 534l-190 -534h-117l-184 533l-27 -533h-118l33 700h195l167 -496l179 496h189z" />
    <glyph glyph-name="N" unicode="N" horiz-adv-x="776" 
d="M685 700v-700h-105l-370 460v-460h-120v700h105l370 -461v461h120z" />
    <glyph glyph-name="O" unicode="O" horiz-adv-x="777" 
d="M176 350q0 -121 58 -189.5t152 -68.5t152 68.5t58 189.5t-58 189t-152 68t-152 -68t-58 -189zM40 350q0 157 92.5 261t253.5 104t253.5 -104t92.5 -261t-92.5 -261t-253.5 -104t-253.5 104t-92.5 261z" />
    <glyph glyph-name="P" unicode="P" horiz-adv-x="590" 
d="M226 592v-230h62q65 0 98.5 30t33.5 87q0 113 -132 113h-62zM226 257v-257h-136v700h229q100 0 171 -58.5t71 -162.5q0 -108 -70 -165t-171 -57h-94z" />
    <glyph glyph-name="Q" unicode="Q" horiz-adv-x="792" 
d="M47 350q0 161 92 263t255 102t254.5 -102.5t91.5 -262.5q0 -115 -49 -202.5t-139 -128.5l255 -97l-44 -105l-480 183q-113 32 -174.5 125.5t-61.5 224.5zM184 350q0 -125 57.5 -191.5t152.5 -66.5t152.5 66.5t57.5 191.5t-57.5 191t-152.5 66q-96 0 -153 -66t-57 -191z
" />
    <glyph glyph-name="R" unicode="R" horiz-adv-x="642" 
d="M218 257v-257h-136v700h217q48 0 92.5 -12t84 -37t63.5 -70t24 -104q0 -73 -35 -123t-94 -73l164 -281h-154l-145 257h-81zM218 590v-228h75q62 0 95.5 29.5t33.5 85.5q0 55 -33.5 84t-95.5 29h-75z" />
    <glyph glyph-name="S" unicode="S" horiz-adv-x="571" 
d="M535 205q0 -92 -67.5 -155.5t-192.5 -63.5q-62 0 -128 25.5t-111 60.5l56 104q39 -29 94.5 -52t103.5 -23q106 0 106 84q0 33 -34 57.5t-82.5 44t-97 44t-82.5 70.5t-34 111q0 90 62 146t192 56q47 0 103 -14t94 -34l-45 -109q-37 17 -89 29.5t-90 12.5
q-45 0 -69.5 -15.5t-24.5 -55.5q0 -31 34.5 -53.5t84 -41t99 -42.5t84 -71.5t34.5 -114.5z" />
    <glyph glyph-name="T" unicode="T" horiz-adv-x="601" 
d="M586 700v-118h-218v-582h-135v582h-218v118h571z" />
    <glyph glyph-name="U" unicode="U" horiz-adv-x="746" 
d="M373 -15q-131 0 -207 67t-76 197v451h136v-451q0 -69 35.5 -108t111.5 -39q146 0 146 147v451h137v-451q0 -130 -76 -197t-207 -67z" />
    <glyph glyph-name="V" unicode="V" horiz-adv-x="708" 
d="M15 700h147q24 -60 90.5 -226t103.5 -256l198 482h139l-287 -700h-104z" />
    <glyph glyph-name="W" unicode="W" horiz-adv-x="966" 
d="M533 700l155 -445l134 445h129l-212 -700h-103l-156 447l-156 -447h-97l-212 700h138l133 -450l155 450h92z" />
    <glyph glyph-name="X" unicode="X" horiz-adv-x="654" 
d="M627 700l-218 -347l223 -353h-163l-150 244l-150 -244h-142l217 346l-222 354h161l151 -245l151 245h142z" />
    <glyph glyph-name="Y" unicode="Y" horiz-adv-x="639" 
d="M387 250v-250h-136v252l-236 448h145l165 -316l167 316h132z" />
    <glyph glyph-name="Z" unicode="Z" horiz-adv-x="619" 
d="M578 0h-542v45l339 537h-316v118h524v-46l-335 -537h330v-117z" />
    <glyph glyph-name="bracketleft" unicode="[" horiz-adv-x="280" 
d="M259 -220h-212v960h212v-83h-113v-795h113v-82z" />
    <glyph glyph-name="backslash" unicode="\" horiz-adv-x="498" 
d="M-1 722h75l425 -922h-76z" />
    <glyph glyph-name="bracketright" unicode="]" horiz-adv-x="282" 
d="M23 740h212v-960h-212v83h113v794h-113v83z" />
    <glyph glyph-name="asciicircum" unicode="^" horiz-adv-x="474" 
d="M449 547h-93l-119 124l-120 -124h-92l182 193h60z" />
    <glyph glyph-name="underscore" unicode="_" horiz-adv-x="532" 
d="M532 -103h-532v75h532v-75z" />
    <glyph glyph-name="grave" unicode="`" horiz-adv-x="316" 
d="M200 545l-155 165h125l103 -165h-73z" />
    <glyph glyph-name="a" unicode="a" horiz-adv-x="512" 
d="M334 0v65q-81 -76 -163 -76q-63 0 -101.5 33t-38.5 96q0 89 78 131t225 48q0 35 -6.5 56t-20.5 30t-26.5 11.5t-35.5 2.5q-71 0 -162 -38l-28 85q43 19 105.5 31.5t116.5 12.5q179 0 179 -196v-292h-122zM214 80q48 0 120 66v75q-88 -4 -135 -24t-47 -65q0 -52 62 -52z
" />
    <glyph glyph-name="b" unicode="b" horiz-adv-x="585" 
d="M275 -15q-109 0 -213 71v644h122v-262q71 50 152 50q85 0 148 -66.5t63 -169.5q0 -130 -77.5 -198.5t-194.5 -68.5zM291 391q-56 0 -107 -44v-244q35 -26 83 -26q157 0 157 168q0 41 -14.5 71.5t-37 45.5t-43 22t-38.5 7z" />
    <glyph glyph-name="c" unicode="c" horiz-adv-x="500" 
d="M432 137l45 -74q-109 -78 -202 -78q-103 0 -169 63t-66 189q0 121 74 186t170 65q74 0 172 -26l-25 -90q-73 20 -121 20q-144 0 -144 -155q0 -76 37.5 -114t103.5 -38q43 0 125 52z" />
    <glyph glyph-name="d" unicode="d" horiz-adv-x="593" 
d="M407 155v200q-51 36 -108 36q-23 0 -44 -6.5t-43 -22t-35 -47.5t-13 -78q0 -147 125 -147q57 0 118 65zM530 0h-123v65q-72 -80 -157 -80q-87 0 -148.5 62.5t-61.5 189.5q0 63 21.5 113.5t56 79t73.5 43.5t78 15q69 0 138 -38v250h123v-700z" />
    <glyph glyph-name="e" unicode="e" horiz-adv-x="507" 
d="M35 226q0 126 67.5 194t161.5 68q213 0 213 -262h-322q2 -79 41 -112.5t109 -33.5q58 0 136 52l37 -71q-32 -23 -52.5 -35.5t-62 -26.5t-83.5 -14q-109 0 -177 62.5t-68 178.5zM270 402q-80 0 -109 -104h206q-5 104 -97 104z" />
    <glyph glyph-name="f" unicode="f" horiz-adv-x="341" 
d="M206 0h-122v382h-63v90h63v92q0 82 39.5 116.5t100.5 34.5q74 0 159 -26l-29 -87q-70 24 -106 24q-42 0 -42 -51v-103h120v-90h-120v-382z" />
    <glyph glyph-name="g" unicode="g" horiz-adv-x="531" 
d="M504 424l-72 -23q33 -40 33 -92q0 -39 -15 -70.5t-37 -52t-58.5 -37t-68.5 -26.5t-78 -20v-6q142 -6 207.5 -45t65.5 -99q0 -73 -73 -118t-177 -45q-108 0 -157 36t-49 90q0 71 119 125l-90 13v64q76 20 121 35q-68 22 -99.5 59t-31.5 97q0 83 58 131t152 48
q57 0 103 -23l147 50v-91zM161 309q0 -46 24 -74.5t69 -28.5t69.5 28.5t24.5 74.5q0 42 -25 71t-69 29t-68.5 -29t-24.5 -71zM234 -127q65 0 101.5 20.5t36.5 54.5q0 53 -118 70q-50 -15 -82.5 -34.5t-42.5 -33.5t-10 -26q0 -23 29.5 -37t85.5 -14z" />
    <glyph glyph-name="h" unicode="h" horiz-adv-x="586" 
d="M184 700v-285q74 71 157 71t136 -54.5t53 -156.5v-275h-123v263q0 65 -29 93t-73 28q-28 0 -64.5 -16t-56.5 -39v-329h-122v700h122z" />
    <glyph glyph-name="i" unicode="i" horiz-adv-x="247" 
d="M51 621q0 29 21 50.5t50 21.5q30 0 51 -21.5t21 -50.5q0 -28 -21 -48.5t-51 -20.5q-29 0 -50 20.5t-21 48.5zM184 472v-472h-122v472h122z" />
    <glyph glyph-name="j" unicode="j" horiz-adv-x="247" 
d="M184 472v-456q0 -61 -20.5 -105t-56 -65.5t-72.5 -31t-81 -9.5v92q108 0 108 119v456h122zM51 621q0 29 21 50.5t50 21.5q30 0 51 -21.5t21 -50.5q0 -28 -21 -48.5t-51 -20.5q-29 0 -50 20.5t-21 48.5z" />
    <glyph glyph-name="k" unicode="k" horiz-adv-x="528" 
d="M515 472l-196 -196l192 -276h-141l-134 194l-52 -53v-141h-122v700h122v-431l190 203h141z" />
    <glyph glyph-name="l" unicode="l" horiz-adv-x="247" 
d="M184 700v-700h-122v700h122z" />
    <glyph glyph-name="m" unicode="m" horiz-adv-x="852" 
d="M491 325v-325h-122v273q0 65 -24 87.5t-64 22.5q-29 0 -55.5 -17.5t-41.5 -44.5v-321h-122v472h122v-58q17 24 52.5 49t79.5 25q92 0 145 -80q80 80 162 80t128.5 -54.5t46.5 -150.5v-283h-123v273q0 65 -24 87.5t-64 22.5q-24 0 -53.5 -18.5t-42.5 -39.5z" />
    <glyph glyph-name="n" unicode="n" horiz-adv-x="586" 
d="M184 472v-57q71 71 157 71q83 0 136 -54.5t53 -156.5v-275h-123v263q0 65 -29 93t-73 28q-28 0 -64.5 -16t-56.5 -39v-329h-122v472h122z" />
    <glyph glyph-name="o" unicode="o" horiz-adv-x="577" 
d="M420 236q0 79 -34.5 122.5t-96.5 43.5t-97 -43.5t-35 -121.5q0 -79 35 -122.5t97 -43.5t96.5 43.5t34.5 121.5zM542 236q0 -119 -70.5 -185t-182.5 -66t-183 66.5t-71 185.5t71 185t183 66t182.5 -66.5t70.5 -185.5z" />
    <glyph glyph-name="p" unicode="p" horiz-adv-x="580" 
d="M421 242q0 44 -13 75t-35 45t-41.5 19.5t-40.5 5.5q-54 0 -107 -51v-229q36 -32 102 -32q22 0 41.5 5.5t43 21t37 51.5t13.5 89zM62 -195v667h122v-59q21 27 65 51.5t91 24.5q83 0 144 -61.5t61 -182.5q0 -66 -21 -117.5t-55 -81.5t-73 -45.5t-79 -15.5q-76 0 -133 37
v-217h-122z" />
    <glyph glyph-name="q" unicode="q" horiz-adv-x="568" 
d="M384 121v258q-22 13 -64 13q-67 0 -114 -37t-47 -121q0 -47 13.5 -80t34.5 -47.5t38.5 -20.5t34.5 -6q59 0 104 41zM384 -195v230q-56 -50 -133 -50q-89 0 -152.5 64.5t-63.5 184.5q0 65 25.5 115.5t67.5 80t91 44t100 14.5q42 0 83 -11l104 42v-714h-122z" />
    <glyph glyph-name="r" unicode="r" horiz-adv-x="390" 
d="M184 472v-142q22 69 63.5 106t110.5 52l25 -105q-118 -33 -158.5 -90.5t-40.5 -170.5v-122h-122v472h122z" />
    <glyph glyph-name="s" unicode="s" horiz-adv-x="474" 
d="M438 145q0 -44 -19 -77t-49.5 -50t-62.5 -25t-66 -8q-113 0 -205 65l43 85q84 -56 156 -56q83 0 83 47q0 20 -19.5 34t-48.5 20.5t-62.5 18.5t-62.5 26t-48.5 44t-19.5 72q0 64 49 106t136 42q92 0 181 -35l-30 -90q-88 34 -165 34q-56 0 -56 -43q0 -21 27.5 -34.5
t66.5 -24t78 -25t66.5 -47t27.5 -79.5z" />
    <glyph glyph-name="t" unicode="t" horiz-adv-x="384" 
d="M336 115l29 -76q-86 -47 -149 -47q-121 0 -121 144v246h-80v12l182 207h21v-129h142v-90h-142v-233q0 -56 40 -56q22 0 78 22z" />
    <glyph glyph-name="u" unicode="u" horiz-adv-x="568" 
d="M178 207q0 -67 25 -88.5t72 -21.5q54 0 109 64v311h122v-472h-122v72q-26 -30 -69 -56.5t-88 -26.5q-171 0 -171 206v277h122v-265z" />
    <glyph glyph-name="v" unicode="v" horiz-adv-x="535" 
d="M13 472h129l133 -327l137 327h113l-212 -472h-90z" />
    <glyph glyph-name="w" unicode="w" horiz-adv-x="736" 
d="M13 472h127l99 -292l94 292h86l104 -290l87 290h112l-157 -472h-84l-109 279l-99 -279h-88z" />
    <glyph glyph-name="x" unicode="x" horiz-adv-x="506" 
d="M341 0l-97 153l-101 -153h-122l162 234l-158 238h136l97 -151l103 151h123l-164 -231l164 -241h-143z" />
    <glyph glyph-name="y" unicode="y" horiz-adv-x="536" 
d="M274 146l133 326h117l-282 -667h-117l86 200l-200 467h132z" />
    <glyph glyph-name="z" unicode="z" horiz-adv-x="486" 
d="M443 0h-408v47l233 327h-225v98h408v-44l-233 -331h225v-97z" />
    <glyph glyph-name="braceleft" unicode="{" horiz-adv-x="353" 
d="M126 260q66 -28 89.5 -75.5t23.5 -127.5v-110q0 -53 21.5 -75t70.5 -22v-72q-195 5 -195 191q0 22 0.5 65t0.5 67q0 117 -90 128v62q90 8 90 128q0 24 -0.5 67t-0.5 65q0 100 51 145t144 47v-72q-49 -1 -70.5 -21t-21.5 -77v-110q0 -80 -23.5 -127.5t-89.5 -75.5z" />
    <glyph glyph-name="bar" unicode="|" horiz-adv-x="175" 
d="M125 -296h-75v1036h75v-1036z" />
    <glyph glyph-name="braceright" unicode="}" horiz-adv-x="353" 
d="M231 260q-65 28 -89 75.5t-24 127.5v110q0 54 -22.5 75.5t-72.5 22.5v72q199 -5 199 -192q0 -22 -0.5 -65t-0.5 -67q0 -120 90 -128v-62q-90 -11 -90 -128q0 -24 0.5 -67t0.5 -65q0 -186 -199 -191v72q50 0 72.5 20.5t22.5 76.5v110q0 79 24 127t89 76z" />
    <glyph glyph-name="asciitilde" unicode="~" horiz-adv-x="651" 
d="M606 297q-69 -45 -98.5 -59t-71.5 -14q-40 0 -111.5 35t-110.5 35q-42 0 -72.5 -13t-96.5 -58v73q58 42 92.5 57.5t77.5 15.5q40 0 111.5 -35t110.5 -35q42 0 72.5 13t96.5 58v-73z" />
    <glyph glyph-name="uni00A0" unicode="&#xa0;" horiz-adv-x="269" 
 />
    <glyph glyph-name="exclamdown" unicode="&#xa1;" horiz-adv-x="254" 
d="M87 495h78l36 -500h-148zM196 632q0 -28 -20.5 -48.5t-48.5 -20.5t-48 20.5t-20 48.5t20 48t48 20t48.5 -20t20.5 -48z" />
    <glyph glyph-name="cent" unicode="&#xa2;" horiz-adv-x="500" 
d="M373 556l-11 -74q39 -6 94 -20l-25 -90q-47 13 -82 17l-45 -304q46 0 128 52l45 -74q-99 -72 -187 -77l-10 -70h-79l11 76q-78 17 -125 78.5t-47 166.5q0 121 74 186t170 65l10 68h79zM166 237q0 -97 62 -134l41 285q-103 -20 -103 -151z" />
    <glyph glyph-name="sterling" unicode="&#xa3;" horiz-adv-x="571" 
d="M49 284v88h72l24 119q11 54 24.5 90.5t38 69t64 48t95.5 15.5t174 -25l-28 -102q-129 27 -166 27q-36 0 -57 -46.5t-48 -195.5h180v-88h-198l-34 -173q52 22 117 22q35 0 77 -6l149 -25l-24 -119q-10 2 -56.5 11.5t-65 13t-53.5 9t-60 8t-46 2.5q-62 0 -106 -27h-72
l55 284h-56z" />
    <glyph glyph-name="currency" unicode="&#xa4;" horiz-adv-x="269" 
 />
    <glyph glyph-name="yen" unicode="&#xa5;" horiz-adv-x="639" 
d="M600 118h-213v-118h-136v118h-212v81h212v46l-11 29h-201v81h158l-182 345h145l165 -316l167 316h132l-182 -345h158v-81h-201q-11 -27 -12 -31v-44h213v-81z" />
    <glyph glyph-name="brokenbar" unicode="&#xa6;" horiz-adv-x="175" 
d="M125 -195h-75v340h75v-340zM125 400h-75v340h75v-340z" />
    <glyph glyph-name="section" unicode="&#xa7;" horiz-adv-x="505" 
d="M456 289q0 -90 -80 -146q29 -40 29 -84q0 -73 -52.5 -123.5t-144.5 -50.5q-64 0 -149 59l46 80q78 -48 115 -48q39 0 61.5 18.5t22.5 50.5q0 23 -18.5 45.5t-46 40t-60 40t-60 45.5t-46 57t-18.5 73q0 85 75 139q-29 32 -29 89q0 65 43.5 103t121.5 38q67 0 161 -38
l-41 -88q-87 38 -125 38q-58 0 -58 -43q0 -20 18.5 -40t47 -37t61 -40t61 -46.5t47 -58t18.5 -73.5zM353 265q0 24 -16 47.5t-34 38t-55 40.5t-56 42q-36 -29 -36 -64q0 -24 15.5 -46.5t34.5 -37t54 -40t56 -43.5q37 25 37 63z" />
    <glyph glyph-name="dieresis" unicode="&#xa8;" horiz-adv-x="516" 
d="M381 554q-26 0 -46 19.5t-20 45.5q0 28 20 48.5t46 20.5q28 0 48 -20t20 -49q0 -26 -20 -45.5t-48 -19.5zM174 554q-26 0 -46 19.5t-20 45.5q0 28 20 48.5t46 20.5q29 0 49 -20t20 -49q0 -27 -20 -46t-49 -19z" />
    <glyph glyph-name="copyright" unicode="&#xa9;" horiz-adv-x="823" 
d="M50 351q0 150 106 256t256 106q149 0 255 -106t106 -256q0 -149 -106 -255t-255 -106q-150 0 -256 106t-106 255zM417 577q78 0 142 -28l-29 -68q-59 24 -106 24q-60 0 -97 -42t-37 -113q0 -73 36.5 -112.5t97.5 -39.5q52 0 122 47l35 -62q-83 -59 -164 -59
q-107 0 -162.5 62t-55.5 164q0 103 57 165t161 62zM99 351q0 -129 91.5 -220.5t221.5 -91.5q128 0 219.5 91.5t91.5 220.5t-91.5 220.5t-219.5 91.5q-130 0 -221.5 -91.5t-91.5 -220.5z" />
    <glyph glyph-name="ordfeminine" unicode="&#xaa;" horiz-adv-x="428" 
d="M278 335v47q-60 -56 -122 -56q-48 0 -77 25t-29 73q0 126 228 134q0 46 -15.5 58.5t-48.5 12.5q-60 0 -124 -28l-21 66q78 34 172 34q25 0 46.5 -6t43.5 -20.5t34.5 -45t12.5 -74.5v-220h-100zM194 398q34 0 84 46v56q-130 -5 -130 -64q0 -38 46 -38z" />
    <glyph glyph-name="guillemotleft" unicode="&#xab;" horiz-adv-x="433" 
d="M169 230l151 -192l-50 -44l-220 236l220 236l50 -45zM329 230l90 -112l-44 -40l-139 152l139 152l44 -40z" />
    <glyph glyph-name="logicalnot" unicode="&#xac;" horiz-adv-x="637" 
d="M587 89h-75v121h-462v75h537v-196z" />
    <glyph glyph-name="uni00AD" unicode="&#xad;" horiz-adv-x="290" 
d="M260 213h-230v80h230v-80z" />
    <glyph glyph-name="registered" unicode="&#xae;" horiz-adv-x="478" 
d="M443 520q0 -85 -59.5 -144.5t-144.5 -59.5t-144.5 59.5t-59.5 144.5t59.5 144.5t144.5 59.5t144.5 -59.5t59.5 -144.5zM216 492v-90h-47v243h80q35 0 61 -20.5t26 -56.5q0 -51 -48 -68l61 -98h-55l-52 90h-26zM216 607v-78h24q47 0 47 38q0 40 -47 40h-24zM406 520
q0 70 -48.5 118.5t-118.5 48.5t-119 -48.5t-49 -118.5t48.5 -119t119.5 -49q70 0 118.5 49t48.5 119z" />
    <glyph glyph-name="macron" unicode="&#xaf;" horiz-adv-x="375" 
d="M325 584h-275v80h275v-80z" />
    <glyph glyph-name="degree" unicode="&#xb0;" horiz-adv-x="298" 
d="M37 632q0 46 32.5 78.5t79.5 32.5t79 -32.5t32 -78.5q0 -47 -32.5 -79.5t-78.5 -32.5q-47 0 -79.5 33t-32.5 79zM84 632q0 -25 19 -43.5t45 -18.5q25 0 43 18.5t18 43.5q0 26 -18 44.5t-43 18.5q-26 0 -45 -18.5t-19 -44.5z" />
    <glyph glyph-name="plusminus" unicode="&#xb1;" horiz-adv-x="640" 
d="M357 556v-171h232v-75h-232v-173h-75v173h-232v75h232v171h75zM589 23h-539v75h539v-75z" />
    <glyph glyph-name="twosuperior" unicode="&#xb2;" horiz-adv-x="366" 
d="M313 335h-247v29q24 28 68.5 83t50.5 63q32 40 32 69q0 44 -55 44q-32 0 -65 -28l-45 51q63 54 140 54q59 0 89.5 -28t30.5 -68q0 -17 -5.5 -36t-11 -31.5t-21.5 -35t-22 -30.5t-29 -34.5t-27 -31.5h117v-70z" />
    <glyph glyph-name="threesuperior" unicode="&#xb3;" horiz-adv-x="369" 
d="M198 700q54 0 78 -24.5t24 -56.5t-21.5 -57t-60.5 -38q45 -3 70.5 -24.5t25.5 -57.5q0 -46 -40.5 -80.5t-115.5 -34.5q-58 0 -105 30l27 57q41 -20 71 -20q27 0 49.5 12.5t22.5 38.5q0 37 -51 37q-16 0 -32 -5q-2 9 -8 25.5t-9 24.5q48 18 69.5 34t21.5 37q0 32 -39 32
q-37 0 -72 -30l-40 47q58 53 135 53z" />
    <glyph glyph-name="acute" unicode="&#xb4;" horiz-adv-x="504" 
d="M378 710l-156 -165h-72l102 165h126z" />
    <glyph glyph-name="uni00B5" unicode="&#xb5;" horiz-adv-x="391" 
d="M29 199h61v75h-61v81h61v345h217q106 0 180 -54.5t74 -161.5t-69 -158.5t-172 -51.5h-94v-75h211v-82h-211v-117h-136v117h-61v82zM288 355q64 0 98 33t34 91q0 113 -132 113h-62v-237h62z" />
    <glyph glyph-name="paragraph" unicode="&#xb6;" horiz-adv-x="566" 
d="M263 -146v486q-100 0 -162.5 45t-62.5 137q0 49 23 85.5t59 55.5t72 28t71 9h234v-846h-85v756h-64v-756h-85z" />
    <glyph glyph-name="periodcentered" unicode="&#xb7;" horiz-adv-x="232" 
d="M47 283q0 28 20.5 48.5t48.5 20.5t48 -20.5t20 -48.5t-20 -48t-48 -20t-48.5 20t-20.5 48z" />
    <glyph glyph-name="cedilla" unicode="&#xb8;" horiz-adv-x="250" 
d="M39 -199v44q20 -6 51 -6q45 0 45 29q0 26 -42 31l-34 4l36 97h76l-26 -62q32 -5 52 -23t20 -43q0 -35 -31 -58.5t-81 -23.5q-33 0 -66 11z" />
    <glyph glyph-name="onesuperior" unicode="&#xb9;" horiz-adv-x="328" 
d="M275 335h-197v63h54v200l-50 -27l-30 48l125 81h44v-302h54v-63z" />
    <glyph glyph-name="ordmasculine" unicode="&#xba;" horiz-adv-x="488" 
d="M338 512q0 58 -25 89.5t-69 31.5t-69 -31.5t-25 -88.5q0 -58 25 -90t69 -32t69 31.5t25 89.5zM438 512q0 -88 -54 -138t-140 -50t-140 50.5t-54 138.5t54 138t140 50q85 0 139.5 -50.5t54.5 -138.5z" />
    <glyph glyph-name="guillemotright" unicode="&#xbb;" horiz-adv-x="428" 
d="M104 230l-90 111l43 41l139 -152l-139 -153l-43 41zM264 230l-152 191l51 45l220 -236l-220 -236l-51 44z" />
    <glyph glyph-name="onequarter" unicode="&#xbc;" horiz-adv-x="776" 
d="M699 137v-60h-49v-77h-88v77h-161v39l184 250h65v-229h49zM483 137h79v106zM718 700l-560 -700h-96l560 700h96zM284 335h-197v63h54v200l-50 -27l-30 48l125 81h44v-302h54v-63z" />
    <glyph glyph-name="onehalf" unicode="&#xbd;" horiz-adv-x="813" 
d="M718 700l-560 -700h-96l560 700h96zM284 335h-197v63h54v200l-50 -27q-3 5 -9.5 14.5t-11.5 17.5t-9 16q17 10 124 81h45v-302h54v-63zM763 0h-247v29q24 28 68.5 83t50.5 63q32 40 32 69q0 44 -54 44q-34 0 -65 -28l-46 51q63 54 141 54q58 0 88.5 -28t30.5 -68
q0 -17 -5.5 -36t-11 -31.5t-21.5 -35t-22 -30.5t-29 -34.5t-27 -31.5h117v-70z" />
    <glyph glyph-name="threequarters" unicode="&#xbe;" horiz-adv-x="783" 
d="M707 136v-59h-49v-77h-89v77h-160v39l183 250h66v-230h49zM490 136h79v107zM725 700l-559 -700h-96l560 700h95zM198 700q54 0 78 -24.5t24 -56.5t-22 -57t-61 -38q45 -3 70.5 -24.5t25.5 -57.5q0 -46 -40 -80.5t-115 -34.5q-59 0 -106 30q18 38 28 57q41 -20 71 -20
q27 0 49 12.5t22 38.5q0 37 -51 37q-16 0 -31 -5l-18 50q48 18 70 34t22 37q0 14 -10.5 23t-29.5 9q-36 0 -72 -30l-40 47q58 53 136 53z" />
    <glyph glyph-name="questiondown" unicode="&#xbf;" horiz-adv-x="463" 
d="M241 -5q-58 0 -99.5 17t-60.5 45t-27 53t-8 51q0 46 20.5 80.5t49 55t57.5 40.5t49.5 48t20.5 66q0 25 -6 44h78q25 -40 25 -83q0 -33 -13 -59.5t-33 -43.5t-42.5 -34.5t-42.5 -31t-33 -33.5t-13 -43q0 -35 25.5 -51.5t54.5 -16.5q64 0 136 32l37 -96q-91 -40 -175 -40z
M345 632q0 -28 -20.5 -48.5t-48.5 -20.5t-48 20.5t-20 48.5t20 48t48 20t48.5 -20t20.5 -48z" />
    <glyph glyph-name="Agrave" unicode="&#xc0;" horiz-adv-x="671" 
d="M256 700h159l241 -700h-141l-56 165h-259l-56 -165h-129zM330 548l-94 -275h179zM376 773l-155 165h125l103 -165h-73z" />
    <glyph glyph-name="Aacute" unicode="&#xc1;" horiz-adv-x="671" 
d="M256 700h159l241 -700h-141l-56 165h-259l-56 -165h-129zM330 548l-94 -275h179zM449 938l-156 -165h-72l102 165h126z" />
    <glyph glyph-name="Acircumflex" unicode="&#xc2;" horiz-adv-x="671" 
d="M256 700h159l241 -700h-141l-56 165h-259l-56 -165h-129zM330 548l-94 -275h179zM395 938l121 -165h-73l-108 99l-108 -99h-72l120 165h120z" />
    <glyph glyph-name="Atilde" unicode="&#xc3;" horiz-adv-x="671" 
d="M256 700h159l241 -700h-141l-56 165h-259l-56 -165h-129zM330 548l-94 -275h179zM398 870q27 0 46 13.5t41 47.5l23 -74q-42 -67 -111 -67q-34 0 -68.5 25t-56.5 25q-27 0 -46.5 -13.5t-41.5 -47.5l-22 74q42 67 111 67q33 0 68 -25t57 -25z" />
    <glyph glyph-name="Adieresis" unicode="&#xc4;" horiz-adv-x="671" 
d="M256 700h159l241 -700h-141l-56 165h-259l-56 -165h-129zM330 548l-94 -275h179zM438 782q-26 0 -46 19.5t-20 45.5q0 28 20 48.5t46 20.5q28 0 48 -20t20 -49q0 -26 -20 -45.5t-48 -19.5zM231 782q-26 0 -46 19.5t-20 45.5q0 28 20 48.5t46 20.5q29 0 49 -20t20 -49
q0 -27 -20 -46t-49 -19z" />
    <glyph glyph-name="Aring" unicode="&#xc5;" horiz-adv-x="671" 
d="M256 700h159l241 -700h-141l-56 165h-259l-56 -165h-129zM330 548l-94 -275h179zM248 857q0 37 25.5 62t62.5 25t62 -25t25 -62t-25 -62.5t-62 -25.5t-62.5 25.5t-25.5 62.5zM296 857q0 -16 11.5 -27t27.5 -11t26.5 11t10.5 27t-10.5 27t-26.5 11q-17 0 -28 -11t-11 -27z
" />
    <glyph glyph-name="AE" unicode="&#xc6;" horiz-adv-x="919" 
d="M840 414v-108h-250q10 -49 41 -199h242v-107h-359l-33 165h-258q-27 -55 -79 -165h-129q278 579 337 700h511v-108h-331q28 -142 35 -178h273zM405 547q-103 -215 -132 -274h186z" />
    <glyph glyph-name="Ccedilla" unicode="&#xc7;" horiz-adv-x="674" 
d="M295 -199v44q20 -6 51 -6q45 0 45 29q0 26 -42 31l-34 4l31 84q-150 13 -228 110.5t-78 251.5q0 165 92 265.5t259 100.5q133 0 235 -46l-45 -109q-95 38 -179 38q-95 0 -155.5 -67.5t-60.5 -181.5q0 -118 60 -181.5t156 -63.5q81 0 198 75l55 -99q-116 -83 -234 -93
l-20 -49q32 -5 52 -23t20 -43q0 -35 -31 -58.5t-81 -23.5q-33 0 -66 11z" />
    <glyph glyph-name="Egrave" unicode="&#xc8;" horiz-adv-x="541" 
d="M462 414v-107h-236v-200h270v-107h-406v700h395v-108h-259v-178h236zM311 773l-155 165h125l103 -165h-73z" />
    <glyph glyph-name="Eacute" unicode="&#xc9;" horiz-adv-x="541" 
d="M462 414v-107h-236v-200h270v-107h-406v700h395v-108h-259v-178h236zM384 938l-156 -165h-72l102 165h126z" />
    <glyph glyph-name="Ecircumflex" unicode="&#xca;" horiz-adv-x="541" 
d="M462 414v-107h-236v-200h270v-107h-406v700h395v-108h-259v-178h236zM330 938l121 -165h-73l-108 99l-108 -99h-72l120 165h120z" />
    <glyph glyph-name="Edieresis" unicode="&#xcb;" horiz-adv-x="541" 
d="M462 414v-107h-236v-200h270v-107h-406v700h395v-108h-259v-178h236zM373 782q-26 0 -46 19.5t-20 45.5q0 28 20 48.5t46 20.5q28 0 48 -20t20 -49q0 -26 -20 -45.5t-48 -19.5zM166 782q-26 0 -46 19.5t-20 45.5q0 28 20 48.5t46 20.5q29 0 49 -20t20 -49q0 -27 -20 -46
t-49 -19z" />
    <glyph glyph-name="Igrave" unicode="&#xcc;" horiz-adv-x="316" 
d="M226 0h-136v700h136v-700zM199 773l-155 165h125l103 -165h-73z" />
    <glyph glyph-name="Iacute" unicode="&#xcd;" horiz-adv-x="316" 
d="M226 0h-136v700h136v-700zM272 938l-156 -165h-72l102 165h126z" />
    <glyph glyph-name="Icircumflex" unicode="&#xce;" horiz-adv-x="316" 
d="M226 0h-136v700h136v-700zM218 938l121 -165h-73l-108 99l-108 -99h-72l120 165h120z" />
    <glyph glyph-name="Idieresis" unicode="&#xcf;" horiz-adv-x="316" 
d="M226 0h-136v700h136v-700zM225 787q-22 0 -38 17.5t-16 42.5q0 26 16 45t38 19q24 0 40 -19t16 -45q0 -25 -16 -42.5t-40 -17.5zM89 787q-22 0 -38.5 17.5t-16.5 42.5t16.5 44.5t38.5 19.5q23 0 39.5 -19t16.5 -45q0 -25 -16.5 -42.5t-39.5 -17.5z" />
    <glyph glyph-name="Eth" unicode="&#xd0;" horiz-adv-x="706" 
d="M90 700h237q72 0 130.5 -20.5t97 -54.5t64.5 -80t37.5 -94.5t11.5 -100.5t-11 -100.5t-37 -94.5t-64.5 -80t-97 -54.5t-131.5 -20.5h-237v307h-60v85h60v308zM327 307h-101v-200h83q111 0 161 60t50 183q0 122 -50 182t-161 60h-83v-200h101v-85z" />
    <glyph glyph-name="Ntilde" unicode="&#xd1;" horiz-adv-x="776" 
d="M685 700v-700h-105l-370 460v-460h-120v700h105l370 -461v461h120zM451 870q27 0 46 13.5t41 47.5l23 -74q-42 -67 -111 -67q-34 0 -69 25t-56 25q-27 0 -46.5 -13.5t-41.5 -47.5l-22 74q42 67 111 67q34 0 69 -25t56 -25z" />
    <glyph glyph-name="Ograve" unicode="&#xd2;" horiz-adv-x="777" 
d="M176 350q0 -121 58 -189.5t152 -68.5t152 68.5t58 189.5t-58 189t-152 68t-152 -68t-58 -189zM40 350q0 157 92.5 261t253.5 104t253.5 -104t92.5 -261t-92.5 -261t-253.5 -104t-253.5 104t-92.5 261zM429 773l-155 165h125l103 -165h-73z" />
    <glyph glyph-name="Oacute" unicode="&#xd3;" horiz-adv-x="777" 
d="M176 350q0 -121 58 -189.5t152 -68.5t152 68.5t58 189.5t-58 189t-152 68t-152 -68t-58 -189zM40 350q0 157 92.5 261t253.5 104t253.5 -104t92.5 -261t-92.5 -261t-253.5 -104t-253.5 104t-92.5 261zM502 938l-156 -165h-72l102 165h126z" />
    <glyph glyph-name="Ocircumflex" unicode="&#xd4;" horiz-adv-x="777" 
d="M176 350q0 -121 58 -189.5t152 -68.5t152 68.5t58 189.5t-58 189t-152 68t-152 -68t-58 -189zM40 350q0 157 92.5 261t253.5 104t253.5 -104t92.5 -261t-92.5 -261t-253.5 -104t-253.5 104t-92.5 261zM448 938l121 -165h-73l-108 99l-108 -99h-72l120 165h120z" />
    <glyph glyph-name="Otilde" unicode="&#xd5;" horiz-adv-x="777" 
d="M176 350q0 -121 58 -189.5t152 -68.5t152 68.5t58 189.5t-58 189t-152 68t-152 -68t-58 -189zM40 350q0 157 92.5 261t253.5 104t253.5 -104t92.5 -261t-92.5 -261t-253.5 -104t-253.5 104t-92.5 261zM451 870q27 0 46 13.5t41 47.5l23 -74q-42 -67 -111 -67
q-34 0 -69 25t-56 25q-27 0 -46.5 -13.5t-41.5 -47.5l-22 74q42 67 111 67q34 0 69 -25t56 -25z" />
    <glyph glyph-name="Odieresis" unicode="&#xd6;" horiz-adv-x="777" 
d="M176 350q0 -121 58 -189.5t152 -68.5t152 68.5t58 189.5t-58 189t-152 68t-152 -68t-58 -189zM40 350q0 157 92.5 261t253.5 104t253.5 -104t92.5 -261t-92.5 -261t-253.5 -104t-253.5 104t-92.5 261zM491 782q-26 0 -46 19.5t-20 45.5q0 28 20 48.5t46 20.5q28 0 48 -20
t20 -49q0 -26 -20 -45.5t-48 -19.5zM284 782q-26 0 -46 19.5t-20 45.5q0 28 20 48.5t46 20.5q29 0 49 -20t20 -49q0 -27 -20 -46t-49 -19z" />
    <glyph glyph-name="multiply" unicode="&#xd7;" horiz-adv-x="640" 
d="M514 46l-195 195l-194 -195l-53 54l195 194q-33 32 -195 194l53 53q162 -162 194 -195l195 196l53 -54l-195 -194l195 -195z" />
    <glyph glyph-name="Oslash" unicode="&#xd8;" horiz-adv-x="777" 
d="M386 -15q-96 0 -171 39l-16 -24h-91l46 68q-114 102 -114 282q0 157 92.5 261t253.5 104q96 0 173 -41l18 26h91l-48 -71q112 -103 112 -279q0 -157 -92.5 -261t-253.5 -104zM224 173l270 404q-46 30 -108 30q-94 0 -152 -68t-58 -189q0 -110 48 -177zM386 92
q94 0 152 68.5t58 189.5q0 107 -47 174q-23 -34 -120 -180t-149 -224q44 -28 106 -28z" />
    <glyph glyph-name="Ugrave" unicode="&#xd9;" horiz-adv-x="746" 
d="M373 -15q-131 0 -207 67t-76 197v451h136v-451q0 -69 35.5 -108t111.5 -39q146 0 146 147v451h137v-451q0 -130 -76 -197t-207 -67zM414 773l-155 165h125l103 -165h-73z" />
    <glyph glyph-name="Uacute" unicode="&#xda;" horiz-adv-x="746" 
d="M373 -15q-131 0 -207 67t-76 197v451h136v-451q0 -69 35.5 -108t111.5 -39q146 0 146 147v451h137v-451q0 -130 -76 -197t-207 -67zM487 938l-156 -165h-72l102 165h126z" />
    <glyph glyph-name="Ucircumflex" unicode="&#xdb;" horiz-adv-x="746" 
d="M373 -15q-131 0 -207 67t-76 197v451h136v-451q0 -69 35.5 -108t111.5 -39q146 0 146 147v451h137v-451q0 -130 -76 -197t-207 -67zM432 938l121 -165h-73l-108 99l-108 -99h-72l120 165h120z" />
    <glyph glyph-name="Udieresis" unicode="&#xdc;" horiz-adv-x="746" 
d="M373 -15q-131 0 -207 67t-76 197v451h136v-451q0 -69 35.5 -108t111.5 -39q146 0 146 147v451h137v-451q0 -130 -76 -197t-207 -67zM475 782q-26 0 -46 19.5t-20 45.5q0 28 20 48.5t46 20.5q28 0 48 -20t20 -49q0 -26 -20 -45.5t-48 -19.5zM268 782q-26 0 -46 19.5
t-20 45.5q0 28 20 48.5t46 20.5q29 0 49 -20t20 -49q0 -27 -20 -46t-49 -19z" />
    <glyph glyph-name="Yacute" unicode="&#xdd;" horiz-adv-x="639" 
d="M387 250v-250h-136v252l-236 448h145l165 -316l167 316h132zM433 938l-156 -165h-72l102 165h126z" />
    <glyph glyph-name="Thorn" unicode="&#xde;" horiz-adv-x="590" 
d="M226 137v-137h-136v711h136v-132h93q100 0 171 -58t71 -163q0 -108 -70 -164.5t-171 -56.5h-94zM226 472v-230h62q65 0 98.5 30t33.5 86q0 114 -132 114h-62z" />
    <glyph glyph-name="germandbls" unicode="&#xdf;" horiz-adv-x="594" 
d="M62 0v416q0 42 3 83q8 92 75 154t161 62q107 0 154 -45.5t47 -109.5q0 -38 -17.5 -65t-42.5 -42t-50 -28t-42.5 -30t-17.5 -40q0 -20 23.5 -34t56.5 -26t66 -28t56.5 -48.5t23.5 -79.5q0 -71 -52.5 -112.5t-137.5 -41.5q-90 0 -167 65q6 10 47 77q38 -32 63 -43.5
t58 -11.5q34 0 56.5 14.5t22.5 40.5t-22 42t-54 26.5t-64 24t-54 45.5t-22 81q0 40 16.5 68t40 43t47 28t40 31t16.5 43q0 67 -89 67q-50 0 -84 -37t-34 -106v-483h-123z" />
    <glyph glyph-name="agrave" unicode="&#xe0;" horiz-adv-x="512" 
d="M334 0v65q-81 -76 -163 -76q-63 0 -101.5 33t-38.5 96q0 89 78 131t225 48q0 35 -6.5 56t-20.5 30t-26.5 11.5t-35.5 2.5q-71 0 -162 -38l-28 85q43 19 105.5 31.5t116.5 12.5q179 0 179 -196v-292h-122zM214 80q48 0 120 66v75q-88 -4 -135 -24t-47 -65q0 -52 62 -52z
M297 545l-155 165h125l103 -165h-73z" />
    <glyph glyph-name="aacute" unicode="&#xe1;" horiz-adv-x="512" 
d="M334 0v65q-81 -76 -163 -76q-63 0 -101.5 33t-38.5 96q0 89 78 131t225 48q0 35 -6.5 56t-20.5 30t-26.5 11.5t-35.5 2.5q-71 0 -162 -38l-28 85q43 19 105.5 31.5t116.5 12.5q179 0 179 -196v-292h-122zM214 80q48 0 120 66v75q-88 -4 -135 -24t-47 -65q0 -52 62 -52z
M390 710l-156 -165h-72l102 165h126z" />
    <glyph glyph-name="acircumflex" unicode="&#xe2;" horiz-adv-x="512" 
d="M334 0v65q-81 -76 -163 -76q-63 0 -101.5 33t-38.5 96q0 89 78 131t225 48q0 35 -6.5 56t-20.5 30t-26.5 11.5t-35.5 2.5q-71 0 -162 -38l-28 85q43 19 105.5 31.5t116.5 12.5q179 0 179 -196v-292h-122zM214 80q48 0 120 66v75q-88 -4 -135 -24t-47 -65q0 -52 62 -52z
M315 710l121 -165h-73l-108 99l-108 -99h-72l120 165h120z" />
    <glyph glyph-name="atilde" unicode="&#xe3;" horiz-adv-x="512" 
d="M334 0v65q-81 -76 -163 -76q-63 0 -101.5 33t-38.5 96q0 89 78 131t225 48q0 35 -6.5 56t-20.5 30t-26.5 11.5t-35.5 2.5q-71 0 -162 -38l-28 85q43 19 105.5 31.5t116.5 12.5q179 0 179 -196v-292h-122zM214 80q48 0 120 66v75q-88 -4 -135 -24t-47 -65q0 -52 62 -52z
M319 642q27 0 46 13.5t41 47.5l23 -74q-42 -67 -111 -67q-34 0 -69 25t-56 25q-27 0 -46.5 -13.5t-41.5 -47.5l-22 74q42 67 111 67q34 0 69 -25t56 -25z" />
    <glyph glyph-name="adieresis" unicode="&#xe4;" horiz-adv-x="512" 
d="M334 0v65q-81 -76 -163 -76q-63 0 -101.5 33t-38.5 96q0 89 78 131t225 48q0 35 -6.5 56t-20.5 30t-26.5 11.5t-35.5 2.5q-71 0 -162 -38l-28 85q43 19 105.5 31.5t116.5 12.5q179 0 179 -196v-292h-122zM214 80q48 0 120 66v75q-88 -4 -135 -24t-47 -65q0 -52 62 -52z
M359 554q-26 0 -46 19.5t-20 45.5q0 28 20 48.5t46 20.5q28 0 48 -20t20 -49q0 -26 -20 -45.5t-48 -19.5zM152 554q-26 0 -46 19.5t-20 45.5q0 28 20 48.5t46 20.5q29 0 49 -20t20 -49q0 -27 -20 -46t-49 -19z" />
    <glyph glyph-name="aring" unicode="&#xe5;" horiz-adv-x="512" 
d="M334 0v65q-81 -76 -163 -76q-63 0 -101.5 33t-38.5 96q0 89 78 131t225 48q0 35 -6.5 56t-20.5 30t-26.5 11.5t-35.5 2.5q-71 0 -162 -38l-28 85q43 19 105.5 31.5t116.5 12.5q179 0 179 -196v-292h-122zM214 80q48 0 120 66v75q-88 -4 -135 -24t-47 -65q0 -52 62 -52z
M168 629q0 37 25.5 62t62.5 25t62 -25t25 -62t-25 -62.5t-62 -25.5t-62.5 25.5t-25.5 62.5zM216 629q0 -16 11.5 -27t27.5 -11t26.5 11t10.5 27t-10.5 27t-26.5 11q-17 0 -28 -11t-11 -27z" />
    <glyph glyph-name="ae" unicode="&#xe6;" horiz-adv-x="807" 
d="M277 488q92 0 138 -65q61 65 149 65q213 0 213 -262h-323q2 -80 41.5 -113t109.5 -33q58 0 136 52l37 -71q-34 -24 -53 -35.5t-61 -26t-84 -14.5q-136 0 -201 99q-42 -46 -98.5 -70.5t-101.5 -24.5q-69 0 -108.5 32.5t-39.5 96.5q0 89 78 131t225 48q0 35 -6.5 56
t-20.5 30t-26.5 11.5t-35.5 2.5q-71 0 -162 -38l-28 85q43 19 105.5 31.5t116.5 12.5zM214 80q28 0 66 19.5t64 49.5q-9 33 -10 72q-88 -4 -135 -24t-47 -65q0 -52 62 -52zM570 402q-87 0 -115 -104h212q-5 104 -97 104z" />
    <glyph glyph-name="ccedilla" unicode="&#xe7;" horiz-adv-x="500" 
d="M174 -199v44q20 -6 51 -6q45 0 45 29q0 26 -42 31l-34 4l32 86q-84 14 -135 76t-51 172q0 121 74 186t170 65q74 0 172 -26l-25 -90q-73 20 -121 20q-144 0 -144 -155q0 -76 37.5 -114t103.5 -38q43 0 125 52l45 -74q-95 -67 -177 -76l-20 -49q32 -5 52 -23t20 -43
q0 -35 -31 -58.5t-81 -23.5q-33 0 -66 11z" />
    <glyph glyph-name="egrave" unicode="&#xe8;" horiz-adv-x="507" 
d="M35 226q0 126 67.5 194t161.5 68q213 0 213 -262h-322q2 -79 41 -112.5t109 -33.5q58 0 136 52l37 -71q-32 -23 -52.5 -35.5t-62 -26.5t-83.5 -14q-109 0 -177 62.5t-68 178.5zM270 402q-80 0 -109 -104h206q-5 104 -97 104zM294 545l-155 165h125l103 -165h-73z" />
    <glyph glyph-name="eacute" unicode="&#xe9;" horiz-adv-x="507" 
d="M35 226q0 126 67.5 194t161.5 68q213 0 213 -262h-322q2 -79 41 -112.5t109 -33.5q58 0 136 52l37 -71q-32 -23 -52.5 -35.5t-62 -26.5t-83.5 -14q-109 0 -177 62.5t-68 178.5zM270 402q-80 0 -109 -104h206q-5 104 -97 104zM368 710l-156 -165h-72l102 165h126z" />
    <glyph glyph-name="ecircumflex" unicode="&#xea;" horiz-adv-x="507" 
d="M35 226q0 126 67.5 194t161.5 68q213 0 213 -262h-322q2 -79 41 -112.5t109 -33.5q58 0 136 52l37 -71q-32 -23 -52.5 -35.5t-62 -26.5t-83.5 -14q-109 0 -177 62.5t-68 178.5zM270 402q-80 0 -109 -104h206q-5 104 -97 104zM313 710l121 -165h-73l-108 99l-108 -99h-72
l120 165h120z" />
    <glyph glyph-name="edieresis" unicode="&#xeb;" horiz-adv-x="507" 
d="M35 226q0 126 67.5 194t161.5 68q213 0 213 -262h-322q2 -79 41 -112.5t109 -33.5q58 0 136 52l37 -71q-32 -23 -52.5 -35.5t-62 -26.5t-83.5 -14q-109 0 -177 62.5t-68 178.5zM270 402q-80 0 -109 -104h206q-5 104 -97 104zM356 554q-26 0 -46 19.5t-20 45.5
q0 28 20 48.5t46 20.5q28 0 48 -20t20 -49q0 -26 -20 -45.5t-48 -19.5zM149 554q-26 0 -46 19.5t-20 45.5q0 28 20 48.5t46 20.5q29 0 49 -20t20 -49q0 -27 -20 -46t-49 -19z" />
    <glyph glyph-name="igrave" unicode="&#xec;" horiz-adv-x="247" 
d="M184 472v-472h-122v472h122zM165 545l-155 165h125l103 -165h-73z" />
    <glyph glyph-name="iacute" unicode="&#xed;" horiz-adv-x="247" 
d="M184 472v-472h-122v472h122zM238 710l-156 -165h-72l102 165h126z" />
    <glyph glyph-name="icircumflex" unicode="&#xee;" horiz-adv-x="247" 
d="M184 472v-472h-122v472h122zM183 710l121 -165h-73l-108 99l-108 -99h-72l120 165h120z" />
    <glyph glyph-name="idieresis" unicode="&#xef;" horiz-adv-x="247" 
d="M184 472v-472h-122v472h122zM191 555q-22 0 -38 18t-16 43t16 44t38 19q24 0 40 -18.5t16 -44.5t-16 -43.5t-40 -17.5zM54 555q-21 0 -37.5 18t-16.5 43t16.5 44t37.5 19q24 0 40.5 -18.5t16.5 -44.5t-16.5 -43.5t-40.5 -17.5z" />
    <glyph glyph-name="eth" unicode="&#xf0;" horiz-adv-x="571" 
d="M294 755l-20 -63q127 -41 194.5 -145.5t67.5 -264.5q0 -128 -75 -212.5t-182 -84.5q-109 0 -175.5 64.5t-66.5 179.5q0 122 76.5 190.5t190.5 68.5q45 0 77 -11q-30 89 -136 129l-24 -75l-74 23l23 71q-27 6 -66 6v86q56 -2 94 -8l21 68zM414 272q0 66 -19 114
q-35 11 -79 11q-72 0 -114 -49.5t-42 -127.5q0 -71 32.5 -110t91.5 -39q61 0 95.5 58t34.5 143z" />
    <glyph glyph-name="ntilde" unicode="&#xf1;" horiz-adv-x="586" 
d="M184 472v-57q71 71 157 71q83 0 136 -54.5t53 -156.5v-275h-123v263q0 65 -29 93t-73 28q-28 0 -64.5 -16t-56.5 -39v-329h-122v472h122zM356 642q27 0 46 13.5t41 47.5l23 -74q-42 -67 -111 -67q-33 0 -68 25t-57 25q-27 0 -46.5 -13.5t-41.5 -47.5l-22 74q42 67 111 67
q33 0 68 -25t57 -25z" />
    <glyph glyph-name="ograve" unicode="&#xf2;" horiz-adv-x="577" 
d="M420 236q0 79 -34.5 122.5t-96.5 43.5t-97 -43.5t-35 -121.5q0 -79 35 -122.5t97 -43.5t96.5 43.5t34.5 121.5zM542 236q0 -119 -70.5 -185t-182.5 -66t-183 66.5t-71 185.5t71 185t183 66t182.5 -66.5t70.5 -185.5zM329 545l-155 165h125l103 -165h-73z" />
    <glyph glyph-name="oacute" unicode="&#xf3;" horiz-adv-x="577" 
d="M420 236q0 79 -34.5 122.5t-96.5 43.5t-97 -43.5t-35 -121.5q0 -79 35 -122.5t97 -43.5t96.5 43.5t34.5 121.5zM542 236q0 -119 -70.5 -185t-182.5 -66t-183 66.5t-71 185.5t71 185t183 66t182.5 -66.5t70.5 -185.5zM402 710l-156 -165h-72l102 165h126z" />
    <glyph glyph-name="ocircumflex" unicode="&#xf4;" horiz-adv-x="577" 
d="M420 236q0 79 -34.5 122.5t-96.5 43.5t-97 -43.5t-35 -121.5q0 -79 35 -122.5t97 -43.5t96.5 43.5t34.5 121.5zM542 236q0 -119 -70.5 -185t-182.5 -66t-183 66.5t-71 185.5t71 185t183 66t182.5 -66.5t70.5 -185.5zM348 710l121 -165h-73l-108 99l-108 -99h-72l120 165
h120z" />
    <glyph glyph-name="otilde" unicode="&#xf5;" horiz-adv-x="577" 
d="M420 236q0 79 -34.5 122.5t-96.5 43.5t-97 -43.5t-35 -121.5q0 -79 35 -122.5t97 -43.5t96.5 43.5t34.5 121.5zM542 236q0 -119 -70.5 -185t-182.5 -66t-183 66.5t-71 185.5t71 185t183 66t182.5 -66.5t70.5 -185.5zM351 642q27 0 46 13.5t41 47.5l23 -74
q-42 -67 -111 -67q-34 0 -69 25t-56 25q-27 0 -46.5 -13.5t-41.5 -47.5l-22 74q42 67 111 67q34 0 69 -25t56 -25z" />
    <glyph glyph-name="odieresis" unicode="&#xf6;" horiz-adv-x="577" 
d="M420 236q0 79 -34.5 122.5t-96.5 43.5t-97 -43.5t-35 -121.5q0 -79 35 -122.5t97 -43.5t96.5 43.5t34.5 121.5zM542 236q0 -119 -70.5 -185t-182.5 -66t-183 66.5t-71 185.5t71 185t183 66t182.5 -66.5t70.5 -185.5zM391 554q-26 0 -46 19.5t-20 45.5q0 28 20 48.5
t46 20.5q28 0 48 -20t20 -49q0 -26 -20 -45.5t-48 -19.5zM184 554q-26 0 -46 19.5t-20 45.5q0 28 20 48.5t46 20.5q29 0 49 -20t20 -49q0 -27 -20 -46t-49 -19z" />
    <glyph glyph-name="divide" unicode="&#xf7;" horiz-adv-x="640" 
d="M256 445q0 27 19 46t45 19q28 0 47 -19t19 -46t-19 -45.5t-47 -18.5q-26 0 -45 18.5t-19 45.5zM590 249h-540v75h540v-75zM256 128q0 27 19 46t45 19q28 0 47 -19t19 -46t-19 -45.5t-47 -18.5q-26 0 -45 18.5t-19 45.5z" />
    <glyph glyph-name="oslash" unicode="&#xf8;" horiz-adv-x="577" 
d="M288 -15q-84 0 -145 38l-20 -23h-91l59 67q-56 67 -56 170q0 118 70.5 184.5t182.5 66.5q80 0 141 -35l17 19h91l-55 -63q60 -66 60 -173q0 -119 -71 -185t-183 -66zM288 71q62 0 97 43t35 122q0 50 -15 86l-197 -225q32 -26 80 -26zM157 237q0 -47 12 -81l194 222
q-31 23 -75 23q-62 0 -96.5 -43t-34.5 -121z" />
    <glyph glyph-name="ugrave" unicode="&#xf9;" horiz-adv-x="568" 
d="M178 207q0 -67 25 -88.5t72 -21.5q54 0 109 64v311h122v-472h-122v72q-26 -30 -69 -56.5t-88 -26.5q-171 0 -171 206v277h122v-265zM325 545l-155 165h125l103 -165h-73z" />
    <glyph glyph-name="uacute" unicode="&#xfa;" horiz-adv-x="568" 
d="M178 207q0 -67 25 -88.5t72 -21.5q54 0 109 64v311h122v-472h-122v72q-26 -30 -69 -56.5t-88 -26.5q-171 0 -171 206v277h122v-265zM398 710l-156 -165h-72l102 165h126z" />
    <glyph glyph-name="ucircumflex" unicode="&#xfb;" horiz-adv-x="568" 
d="M178 207q0 -67 25 -88.5t72 -21.5q54 0 109 64v311h122v-472h-122v72q-26 -30 -69 -56.5t-88 -26.5q-171 0 -171 206v277h122v-265zM343 710l121 -165h-73l-108 99l-108 -99h-72l120 165h120z" />
    <glyph glyph-name="udieresis" unicode="&#xfc;" horiz-adv-x="568" 
d="M178 207q0 -67 25 -88.5t72 -21.5q54 0 109 64v311h122v-472h-122v72q-26 -30 -69 -56.5t-88 -26.5q-171 0 -171 206v277h122v-265zM386 554q-26 0 -46 19.5t-20 45.5q0 28 20 48.5t46 20.5q28 0 48 -20t20 -49q0 -26 -20 -45.5t-48 -19.5zM179 554q-26 0 -46 19.5
t-20 45.5q0 28 20 48.5t46 20.5q29 0 49 -20t20 -49q0 -27 -20 -46t-49 -19z" />
    <glyph glyph-name="yacute" unicode="&#xfd;" horiz-adv-x="536" 
d="M274 146l133 326h117l-282 -667h-117l86 200l-200 467h132zM382 710l-156 -165h-72l102 165h126z" />
    <glyph glyph-name="thorn" unicode="&#xfe;" horiz-adv-x="580" 
d="M421 242q0 76 -40.5 111.5t-87.5 35.5q-56 0 -109 -44v-238q36 -32 102 -32q22 0 41.5 5.5t43 21t37 51.5t13.5 89zM545 245q0 -66 -21 -117.5t-55 -81.5t-73 -45.5t-79 -15.5q-76 0 -133 37v-217h-122v895h122v-270q67 59 148 59q85 0 149 -68.5t64 -175.5z" />
    <glyph glyph-name="ydieresis" unicode="&#xff;" horiz-adv-x="536" 
d="M274 146l133 326h117l-282 -667h-117l86 200l-200 467h132zM371 554q-26 0 -46 19.5t-20 45.5q0 28 20 48.5t46 20.5q28 0 48 -20t20 -49q0 -26 -20 -45.5t-48 -19.5zM164 554q-26 0 -46 19.5t-20 45.5q0 28 20 48.5t46 20.5q29 0 49 -20t20 -49q0 -27 -20 -46t-49 -19z
" />
    <glyph glyph-name="Amacron" unicode="&#x100;" horiz-adv-x="671" 
d="M256 700h159l241 -700h-141l-56 165h-259l-56 -165h-129zM330 548l-94 -275h179zM473 812h-275v80h275v-80z" />
    <glyph glyph-name="amacron" unicode="&#x101;" horiz-adv-x="512" 
d="M334 0v65q-81 -76 -163 -76q-63 0 -101.5 33t-38.5 96q0 89 78 131t225 48q0 35 -6.5 56t-20.5 30t-26.5 11.5t-35.5 2.5q-71 0 -162 -38l-28 85q43 19 105.5 31.5t116.5 12.5q179 0 179 -196v-292h-122zM214 80q48 0 120 66v75q-88 -4 -135 -24t-47 -65q0 -52 62 -52z
M393 584h-275v80h275v-80z" />
    <glyph glyph-name="Aogonek" unicode="&#x104;" horiz-adv-x="671" 
d="M575 0h-60l-56 165h-259l-56 -165h-129l241 700h159l241 -700q-87 -57 -87 -109q0 -36 44 -36q23 0 43 6v-44q-42 -27 -90 -27q-40 0 -60 25.5t-20 54.5q0 70 89 130zM330 548l-94 -275h179z" />
    <glyph glyph-name="aogonek" unicode="&#x105;" horiz-adv-x="512" 
d="M334 0v65q-81 -76 -163 -76q-63 0 -101.5 33t-38.5 96q0 89 78 131t225 48q0 35 -6.5 56t-20.5 30t-26.5 11.5t-35.5 2.5q-71 0 -162 -38l-28 85q43 19 105.5 31.5t116.5 12.5q179 0 179 -196v-292q-87 -57 -87 -109q0 -36 44 -36q23 0 43 6v-44q-42 -27 -90 -27
q-40 0 -60 25.5t-20 54.5q0 70 89 130h-41zM214 80q48 0 120 66v75q-88 -4 -135 -24t-47 -65q0 -52 62 -52z" />
    <glyph glyph-name="Cacute" unicode="&#x106;" horiz-adv-x="674" 
d="M391 715q133 0 235 -46l-45 -109q-95 38 -179 38q-95 0 -155.5 -67.5t-60.5 -181.5q0 -118 60 -181.5t156 -63.5q81 0 198 75l55 -99q-131 -95 -265 -95q-171 0 -260.5 99.5t-89.5 264.5t92 265.5t259 100.5zM451 938l-156 -165h-72l102 165h126z" />
    <glyph glyph-name="cacute" unicode="&#x107;" horiz-adv-x="500" 
d="M432 137l45 -74q-109 -78 -202 -78q-103 0 -169 63t-66 189q0 121 74 186t170 65q74 0 172 -26l-25 -90q-73 20 -121 20q-144 0 -144 -155q0 -76 37.5 -114t103.5 -38q43 0 125 52zM364 710l-156 -165h-72l102 165h126z" />
    <glyph glyph-name="Ccaron" unicode="&#x10c;" horiz-adv-x="674" 
d="M391 715q133 0 235 -46l-45 -109q-95 38 -179 38q-95 0 -155.5 -67.5t-60.5 -181.5q0 -118 60 -181.5t156 -63.5q81 0 198 75l55 -99q-131 -95 -265 -95q-171 0 -260.5 99.5t-89.5 264.5t92 265.5t259 100.5zM517 938l-120 -165h-121l-120 165h73l108 -100l108 100h72z
" />
    <glyph glyph-name="ccaron" unicode="&#x10d;" horiz-adv-x="500" 
d="M432 137l45 -74q-109 -78 -202 -78q-103 0 -169 63t-66 189q0 121 74 186t170 65q74 0 172 -26l-25 -90q-73 20 -121 20q-144 0 -144 -155q0 -76 37.5 -114t103.5 -38q43 0 125 52zM430 710l-120 -165h-121l-120 165h73l108 -100l108 100h72z" />
    <glyph glyph-name="Dcaron" unicode="&#x10e;" horiz-adv-x="706" 
d="M520 350q0 123 -50 182.5t-161 59.5h-83v-485h83q111 0 161 60t50 183zM90 700h238q72 0 130.5 -20.5t96.5 -54.5t64 -80t37.5 -94.5t11.5 -100.5q0 -66 -18.5 -125.5t-57 -111.5t-106.5 -82.5t-158 -30.5h-238v700zM533 938l-120 -165h-121l-120 165h73l108 -100
l108 100h72z" />
    <glyph glyph-name="dcaron" unicode="&#x10f;" horiz-adv-x="734" 
d="M407 155v200q-51 36 -108 36q-23 0 -44 -6.5t-43 -22t-35 -47.5t-13 -78q0 -147 125 -147q57 0 118 65zM530 0h-123v65q-72 -80 -157 -80q-87 0 -148.5 62.5t-61.5 189.5q0 63 21.5 113.5t56 79t73.5 43.5t78 15q69 0 138 -38v250h123v-700zM582 653q0 26 21 46.5
t48 20.5q32 0 54 -22.5t22 -58.5q0 -10 -2.5 -21t-6 -20.5t-9.5 -21t-11 -20.5t-13.5 -20.5t-13.5 -18.5t-14 -17.5t-12.5 -14.5t-11 -12.5t-8.5 -9.5l-43 25l58 102q-24 3 -41 21t-17 42z" />
    <glyph glyph-name="Dcroat" unicode="&#x110;" horiz-adv-x="706" 
d="M90 700h237q72 0 130.5 -20.5t97 -54.5t64.5 -80t37.5 -94.5t11.5 -100.5t-11 -100.5t-37 -94.5t-64.5 -80t-97 -54.5t-131.5 -20.5h-237v307h-60v85h60v308zM327 307h-101v-200h83q111 0 161 60t50 183q0 122 -50 182t-161 60h-83v-200h101v-85z" />
    <glyph glyph-name="dcroat" unicode="&#x111;" horiz-adv-x="593" 
d="M530 0h-123v65q-72 -80 -157 -80q-87 0 -148.5 62.5t-61.5 189.5q0 63 21.5 113.5t56 79t73.5 43.5t78 15q69 0 138 -38v85h-134v80h134v85h123v-85h60v-80h-60v-535zM407 155v200q-51 36 -108 36q-23 0 -44 -6.5t-43 -22t-35 -47.5t-13 -78q0 -147 125 -147q57 0 118 65
z" />
    <glyph glyph-name="Emacron" unicode="&#x112;" horiz-adv-x="541" 
d="M462 414v-107h-236v-200h270v-107h-406v700h395v-108h-259v-178h236zM408 812h-275v80h275v-80z" />
    <glyph glyph-name="emacron" unicode="&#x113;" horiz-adv-x="507" 
d="M35 226q0 126 67.5 194t161.5 68q213 0 213 -262h-322q2 -79 41 -112.5t109 -33.5q58 0 136 52l37 -71q-32 -23 -52.5 -35.5t-62 -26.5t-83.5 -14q-109 0 -177 62.5t-68 178.5zM270 402q-80 0 -109 -104h206q-5 104 -97 104zM391 584h-275v80h275v-80z" />
    <glyph glyph-name="Edotaccent" unicode="&#x116;" horiz-adv-x="541" 
d="M462 414v-107h-236v-200h270v-107h-406v700h395v-108h-259v-178h236zM270 782q-27 0 -47 19.5t-20 45.5q0 28 20 48.5t47 20.5q28 0 48 -20t20 -49q0 -26 -20 -45.5t-48 -19.5z" />
    <glyph glyph-name="edotaccent" unicode="&#x117;" horiz-adv-x="507" 
d="M35 226q0 126 67.5 194t161.5 68q213 0 213 -262h-322q2 -79 41 -112.5t109 -33.5q58 0 136 52l37 -71q-32 -23 -52.5 -35.5t-62 -26.5t-83.5 -14q-109 0 -177 62.5t-68 178.5zM270 402q-80 0 -109 -104h206q-5 104 -97 104zM253 554q-27 0 -47 19.5t-20 45.5
q0 28 20 48.5t47 20.5q28 0 48 -20t20 -49q0 -26 -20 -45.5t-48 -19.5z" />
    <glyph glyph-name="Eogonek" unicode="&#x118;" horiz-adv-x="541" 
d="M415 0h-325v700h395v-108h-259v-178h236v-107h-236v-200h270v-107q-87 -57 -87 -109q0 -36 44 -36q23 0 43 6v-44q-42 -27 -90 -27q-40 0 -60 25.5t-20 54.5q0 70 89 130z" />
    <glyph glyph-name="eogonek" unicode="&#x119;" horiz-adv-x="507" 
d="M35 226q0 126 67.5 194t161.5 68q213 0 213 -262h-322q2 -79 41 -112.5t109 -33.5q58 0 136 52l37 -71q-32 -23 -52.5 -35.5t-62 -26.5t-83.5 -14q-109 0 -177 62.5t-68 178.5zM270 402q-80 0 -109 -104h206q-5 104 -97 104zM397 0h81q-87 -57 -87 -109q0 -36 44 -36
q24 0 43 6v-44q-42 -27 -90 -27q-40 0 -60 25.5t-20 54.5q0 70 89 130z" />
    <glyph glyph-name="Ecaron" unicode="&#x11a;" horiz-adv-x="541" 
d="M462 414v-107h-236v-200h270v-107h-406v700h395v-108h-259v-178h236zM451 938l-120 -165h-121l-120 165h73l108 -100l108 100h72z" />
    <glyph glyph-name="ecaron" unicode="&#x11b;" horiz-adv-x="507" 
d="M35 226q0 126 67.5 194t161.5 68q213 0 213 -262h-322q2 -79 41 -112.5t109 -33.5q58 0 136 52l37 -71q-32 -23 -52.5 -35.5t-62 -26.5t-83.5 -14q-109 0 -177 62.5t-68 178.5zM270 402q-80 0 -109 -104h206q-5 104 -97 104zM434 710l-120 -165h-121l-120 165h73
l108 -100l108 100h72z" />
    <glyph glyph-name="Gcommaaccent" unicode="&#x122;" horiz-adv-x="688" 
d="M391 715q133 0 235 -46l-45 -109q-95 38 -179 38q-95 0 -155.5 -67.5t-60.5 -181.5q0 -118 60.5 -182t155.5 -64q58 0 127 36v198h128v-258q-20 -16 -49.5 -33.5t-93 -39t-124.5 -21.5q-171 0 -260.5 99.5t-89.5 264.5t92 265.5t259 100.5zM271 -87q0 26 21 46.5t48 20.5
q32 0 54 -22.5t22 -58.5q0 -10 -2.5 -21t-6 -20.5t-9.5 -21t-11 -20.5t-13.5 -20.5t-13.5 -18.5t-14 -17.5t-12.5 -14.5t-11 -12.5t-8.5 -9.5l-43 25l58 102q-24 3 -41 21t-17 42z" />
    <glyph glyph-name="gcommaaccent" unicode="&#x123;" horiz-adv-x="531" 
d="M504 424l-72 -23q33 -40 33 -92q0 -39 -15 -70.5t-37 -52t-58.5 -37t-68.5 -26.5t-78 -20v-6q142 -6 207.5 -45t65.5 -99q0 -73 -73 -118t-177 -45q-108 0 -157 36t-49 90q0 71 119 125l-90 13v64q76 20 121 35q-68 22 -99.5 59t-31.5 97q0 83 58 131t152 48
q57 0 103 -23l147 50v-91zM161 309q0 -46 24 -74.5t69 -28.5t69.5 28.5t24.5 74.5q0 42 -25 71t-69 29t-68.5 -29t-24.5 -71zM234 -127q65 0 101.5 20.5t36.5 54.5q0 53 -118 70q-50 -15 -82.5 -34.5t-42.5 -33.5t-10 -26q0 -23 29.5 -37t85.5 -14zM333 597q0 -26 -21 -46.5
t-48 -20.5q-32 0 -54 22.5t-22 58.5q0 10 2.5 21t6 20.5t9.5 21t11 20.5t13.5 20.5t13.5 18.5t14 17.5t12.5 14.5t11 12.5t8.5 9.5l43 -25l-58 -102q24 -3 41 -21t17 -42z" />
    <glyph glyph-name="Imacron" unicode="&#x12a;" horiz-adv-x="316" 
d="M226 0h-136v700h136v-700zM296 812h-275v80h275v-80z" />
    <glyph glyph-name="imacron" unicode="&#x12b;" horiz-adv-x="247" 
d="M184 472v-472h-122v472h122zM261 584h-275v80h275v-80z" />
    <glyph glyph-name="Iogonek" unicode="&#x12e;" horiz-adv-x="316" 
d="M145 0h-55v700h136v-700q-87 -57 -87 -109q0 -36 44 -36q24 0 43 6v-44q-42 -27 -90 -27q-40 0 -60 25.5t-20 54.5q0 70 89 130z" />
    <glyph glyph-name="iogonek" unicode="&#x12f;" horiz-adv-x="247" 
d="M103 0h-41v472h122v-472q-87 -57 -87 -109q0 -36 44 -36q23 0 43 6v-44q-42 -27 -90 -27q-40 0 -60 25.5t-20 54.5q0 70 89 130zM51 621q0 29 21 50.5t50 21.5q30 0 51 -21.5t21 -50.5q0 -28 -21 -48.5t-51 -20.5q-29 0 -50 20.5t-21 48.5z" />
    <glyph glyph-name="dotlessi" unicode="&#x131;" horiz-adv-x="247" 
d="M184 472v-472h-122v472h122z" />
    <glyph glyph-name="Kcommaaccent" unicode="&#x136;" horiz-adv-x="685" 
d="M655 0h-167l-194 302h-68v-302h-136v700h136v-280h63l213 280h164l-255 -333zM270 -87q0 26 21 46.5t48 20.5q32 0 54 -22.5t22 -58.5q0 -10 -2.5 -21t-6 -20.5t-9.5 -21t-11 -20.5t-13.5 -20.5t-13.5 -18.5t-14 -17.5t-12.5 -14.5t-11 -12.5t-8.5 -9.5l-43 25l58 102
q-24 3 -41 21t-17 42z" />
    <glyph glyph-name="kcommaaccent" unicode="&#x137;" horiz-adv-x="528" 
d="M515 472l-196 -196l192 -276h-141l-134 194l-52 -53v-141h-122v700h122v-431l190 203h141zM191 -87q0 26 21 46.5t48 20.5q32 0 54 -22.5t22 -58.5q0 -10 -2.5 -21t-6 -20.5t-9.5 -21t-11 -20.5t-13.5 -20.5t-13.5 -18.5t-14 -17.5t-12.5 -14.5t-11 -12.5t-8.5 -9.5
l-43 25l58 102q-24 3 -41 21t-17 42z" />
    <glyph glyph-name="Lacute" unicode="&#x139;" horiz-adv-x="547" 
d="M525 112v-112h-435v700h136v-588h299zM402 938l-156 -165h-72l102 165h126z" />
    <glyph glyph-name="lacute" unicode="&#x13a;" horiz-adv-x="247" 
d="M184 700v-700h-122v700h122zM251 934l-156 -165h-72l102 165h126z" />
    <glyph glyph-name="Lcommaaccent" unicode="&#x13b;" horiz-adv-x="547" 
d="M525 112v-112h-435v700h136v-588h299zM201 -87q0 26 21 46.5t48 20.5q32 0 54 -22.5t22 -58.5q0 -10 -2.5 -21t-6 -20.5t-9.5 -21t-11 -20.5t-13.5 -20.5t-13.5 -18.5t-14 -17.5t-12.5 -14.5t-11 -12.5t-8.5 -9.5l-43 25l58 102q-24 3 -41 21t-17 42z" />
    <glyph glyph-name="lcommaaccent" unicode="&#x13c;" horiz-adv-x="247" 
d="M184 700v-700h-122v700h122zM51 -87q0 26 21 46.5t48 20.5q32 0 54 -22.5t22 -58.5q0 -10 -2.5 -21t-6 -20.5t-9.5 -21t-11 -20.5t-13.5 -20.5t-13.5 -18.5t-14 -17.5t-12.5 -14.5t-11 -12.5t-8.5 -9.5l-43 25l58 102q-24 3 -41 21t-17 42z" />
    <glyph glyph-name="Lcaron" unicode="&#x13d;" horiz-adv-x="547" 
d="M525 112v-112h-435v700h136v-588h299zM295 653q0 26 21 46.5t48 20.5q32 0 54 -22.5t22 -58.5q0 -10 -2.5 -21t-6 -20.5t-9.5 -21t-11 -20.5t-13.5 -20.5t-13.5 -18.5t-14 -17.5t-12.5 -14.5t-11 -12.5t-8.5 -9.5l-43 25l58 102q-24 3 -41 21t-17 42z" />
    <glyph glyph-name="lcaron" unicode="&#x13e;" horiz-adv-x="389" 
d="M184 700v-700h-122v700h122zM236 653q0 26 21 46.5t48 20.5q32 0 54 -22.5t22 -58.5q0 -10 -2.5 -21t-6 -20.5t-9.5 -21t-11 -20.5t-13.5 -20.5t-13.5 -18.5t-14 -17.5t-12.5 -14.5t-11 -12.5t-8.5 -9.5l-43 25l58 102q-24 3 -41 21t-17 42z" />
    <glyph glyph-name="Lslash" unicode="&#x141;" horiz-adv-x="547" 
d="M351 392l-125 -73v-207h300v-112h-436v240l-54 -31l-41 71l95 55v365h136v-286l84 49z" />
    <glyph glyph-name="lslash" unicode="&#x142;" horiz-adv-x="247" 
d="M282 317l-98 -57v-260h-122v190l-52 -30l-41 71l93 54v415h122v-345l57 33z" />
    <glyph glyph-name="Nacute" unicode="&#x143;" horiz-adv-x="776" 
d="M685 700v-700h-105l-370 460v-460h-120v700h105l370 -461v461h120zM502 938l-156 -165h-72l102 165h126z" />
    <glyph glyph-name="nacute" unicode="&#x144;" horiz-adv-x="586" 
d="M184 472v-57q71 71 157 71q83 0 136 -54.5t53 -156.5v-275h-123v263q0 65 -29 93t-73 28q-28 0 -64.5 -16t-56.5 -39v-329h-122v472h122zM407 710l-156 -165h-72l102 165h126z" />
    <glyph glyph-name="Ncommaaccent" unicode="&#x145;" horiz-adv-x="776" 
d="M685 700v-700h-105l-370 460v-460h-120v700h105l370 -461v461h120zM315 -87q0 26 21 46.5t48 20.5q32 0 54 -22.5t22 -58.5q0 -10 -2.5 -21t-6 -20.5t-9.5 -21t-11 -20.5t-13.5 -20.5t-13.5 -18.5t-14 -17.5t-12.5 -14.5t-11 -12.5t-8.5 -9.5l-43 25l58 102q-24 3 -41 21
t-17 42z" />
    <glyph glyph-name="ncommaaccent" unicode="&#x146;" horiz-adv-x="586" 
d="M184 472v-57q71 71 157 71q83 0 136 -54.5t53 -156.5v-275h-123v263q0 65 -29 93t-73 28q-28 0 -64.5 -16t-56.5 -39v-329h-122v472h122zM220 -87q0 26 21 46.5t48 20.5q32 0 54 -22.5t22 -58.5q0 -10 -2.5 -21t-6 -20.5t-9.5 -21t-11 -20.5t-13.5 -20.5t-13.5 -18.5
t-14 -17.5t-12.5 -14.5t-11 -12.5t-8.5 -9.5l-43 25l58 102q-24 3 -41 21t-17 42z" />
    <glyph glyph-name="Ncaron" unicode="&#x147;" horiz-adv-x="776" 
d="M685 700v-700h-105l-370 460v-460h-120v700h105l370 -461v461h120zM568 938l-120 -165h-121l-120 165h73l108 -100l108 100h72z" />
    <glyph glyph-name="ncaron" unicode="&#x148;" horiz-adv-x="586" 
d="M184 472v-57q71 71 157 71q83 0 136 -54.5t53 -156.5v-275h-123v263q0 65 -29 93t-73 28q-28 0 -64.5 -16t-56.5 -39v-329h-122v472h122zM473 710l-120 -165h-121l-120 165h73l108 -100l108 100h72z" />
    <glyph glyph-name="Omacron" unicode="&#x14c;" horiz-adv-x="777" 
d="M176 350q0 -121 58 -189.5t152 -68.5t152 68.5t58 189.5t-58 189t-152 68t-152 -68t-58 -189zM40 350q0 157 92.5 261t253.5 104t253.5 -104t92.5 -261t-92.5 -261t-253.5 -104t-253.5 104t-92.5 261zM526 812h-275v80h275v-80z" />
    <glyph glyph-name="omacron" unicode="&#x14d;" horiz-adv-x="577" 
d="M420 236q0 79 -34.5 122.5t-96.5 43.5t-97 -43.5t-35 -121.5q0 -79 35 -122.5t97 -43.5t96.5 43.5t34.5 121.5zM542 236q0 -119 -70.5 -185t-182.5 -66t-183 66.5t-71 185.5t71 185t183 66t182.5 -66.5t70.5 -185.5zM426 584h-275v80h275v-80z" />
    <glyph glyph-name="Ohungarumlaut" unicode="&#x150;" horiz-adv-x="777" 
d="M176 350q0 -121 58 -189.5t152 -68.5t152 68.5t58 189.5t-58 189t-152 68t-152 -68t-58 -189zM40 350q0 157 92.5 261t253.5 104t253.5 -104t92.5 -261t-92.5 -261t-253.5 -104t-253.5 104t-92.5 261zM419 938l-155 -165h-73l103 165h125zM585 938l-156 -165h-72l103 165
h125z" />
    <glyph glyph-name="ohungarumlaut" unicode="&#x151;" horiz-adv-x="577" 
d="M420 236q0 79 -34.5 122.5t-96.5 43.5t-97 -43.5t-35 -121.5q0 -79 35 -122.5t97 -43.5t96.5 43.5t34.5 121.5zM542 236q0 -119 -70.5 -185t-182.5 -66t-183 66.5t-71 185.5t71 185t183 66t182.5 -66.5t70.5 -185.5zM319 710l-155 -165h-73l103 165h125zM485 710
l-156 -165h-72l103 165h125z" />
    <glyph glyph-name="OE" unicode="&#x152;" horiz-adv-x="1046" 
d="M968 414v-108h-237v-199h270v-107h-406v60q-85 -75 -209 -75q-161 0 -253.5 104t-92.5 261t92.5 261t253.5 104q125 0 209 -76v61h395v-108h-259v-178h237zM386 92q94 0 152 68.5t58 189.5t-58 189t-152 68t-152 -68t-58 -189t58 -189.5t152 -68.5z" />
    <glyph glyph-name="oe" unicode="&#x153;" horiz-adv-x="893" 
d="M288 -15q-112 0 -182.5 66.5t-70.5 185.5q0 118 70.5 184.5t182.5 66.5q123 0 190 -81q63 81 173 81q213 0 213 -262h-325q4 -146 152 -146q58 0 136 52l37 -71q-32 -23 -52.5 -35t-62 -26.5t-83.5 -14.5q-121 0 -187 81q-66 -81 -191 -81zM288 71q62 0 97 43t35 122
q0 78 -35 121.5t-97 43.5t-96.5 -43t-34.5 -121q0 -79 34.5 -122.5t96.5 -43.5zM656 402q-82 0 -111 -104h209q-5 104 -98 104z" />
    <glyph glyph-name="Racute" unicode="&#x154;" horiz-adv-x="642" 
d="M218 257v-257h-136v700h217q48 0 92.5 -12t84 -37t63.5 -70t24 -104q0 -73 -35 -123t-94 -73l164 -281h-154l-145 257h-81zM218 590v-228h75q62 0 95.5 29.5t33.5 85.5q0 55 -33.5 84t-95.5 29h-75zM435 938l-156 -165h-72l102 165h126z" />
    <glyph glyph-name="racute" unicode="&#x155;" horiz-adv-x="390" 
d="M184 472v-142q22 69 63.5 106t110.5 52l25 -105q-118 -33 -158.5 -90.5t-40.5 -170.5v-122h-122v472h122zM309 710l-156 -165h-72l102 165h126z" />
    <glyph glyph-name="Rcommaaccent" unicode="&#x156;" horiz-adv-x="642" 
d="M218 257v-257h-136v700h217q48 0 92.5 -12t84 -37t63.5 -70t24 -104q0 -73 -35 -123t-94 -73l164 -281h-154l-145 257h-81zM218 590v-228h75q62 0 95.5 29.5t33.5 85.5q0 55 -33.5 84t-95.5 29h-75zM248 -87q0 26 21 46.5t48 20.5q32 0 54 -22.5t22 -58.5q0 -10 -2.5 -21
t-6 -20.5t-9.5 -21t-11 -20.5t-13.5 -20.5t-13.5 -18.5t-14 -17.5t-12.5 -14.5t-11 -12.5t-8.5 -9.5l-43 25l58 102q-24 3 -41 21t-17 42z" />
    <glyph glyph-name="rcommaaccent" unicode="&#x157;" horiz-adv-x="390" 
d="M184 472v-142q22 69 63.5 106t110.5 52l25 -105q-118 -33 -158.5 -90.5t-40.5 -170.5v-122h-122v472h122zM122 -87q0 26 21 46.5t48 20.5q32 0 54 -22.5t22 -58.5q0 -10 -2.5 -21t-6 -20.5t-9.5 -21t-11 -20.5t-13.5 -20.5t-13.5 -18.5t-14 -17.5t-12.5 -14.5t-11 -12.5
t-8.5 -9.5l-43 25l58 102q-24 3 -41 21t-17 42z" />
    <glyph glyph-name="Rcaron" unicode="&#x158;" horiz-adv-x="642" 
d="M218 257v-257h-136v700h217q48 0 92.5 -12t84 -37t63.5 -70t24 -104q0 -73 -35 -123t-94 -73l164 -281h-154l-145 257h-81zM218 590v-228h75q62 0 95.5 29.5t33.5 85.5q0 55 -33.5 84t-95.5 29h-75zM501 938l-120 -165h-121l-120 165h73l108 -100l108 100h72z" />
    <glyph glyph-name="rcaron" unicode="&#x159;" horiz-adv-x="390" 
d="M184 472v-142q22 69 63.5 106t110.5 52l25 -105q-118 -33 -158.5 -90.5t-40.5 -170.5v-122h-122v472h122zM376 710l-120 -165h-121l-120 165h73l108 -100l108 100h72z" />
    <glyph glyph-name="Sacute" unicode="&#x15a;" horiz-adv-x="571" 
d="M535 205q0 -92 -67.5 -155.5t-192.5 -63.5q-62 0 -128 25.5t-111 60.5l56 104q39 -29 94.5 -52t103.5 -23q106 0 106 84q0 33 -34 57.5t-82.5 44t-97 44t-82.5 70.5t-34 111q0 90 62 146t192 56q47 0 103 -14t94 -34l-45 -109q-37 17 -89 29.5t-90 12.5
q-45 0 -69.5 -15.5t-24.5 -55.5q0 -31 34.5 -53.5t84 -41t99 -42.5t84 -71.5t34.5 -114.5zM399 938l-156 -165h-72l102 165h126z" />
    <glyph glyph-name="sacute" unicode="&#x15b;" horiz-adv-x="474" 
d="M438 145q0 -44 -19 -77t-49.5 -50t-62.5 -25t-66 -8q-113 0 -205 65l43 85q84 -56 156 -56q83 0 83 47q0 20 -19.5 34t-48.5 20.5t-62.5 18.5t-62.5 26t-48.5 44t-19.5 72q0 64 49 106t136 42q92 0 181 -35l-30 -90q-88 34 -165 34q-56 0 -56 -43q0 -21 27.5 -34.5
t66.5 -24t78 -25t66.5 -47t27.5 -79.5zM351 710l-156 -165h-72l102 165h126z" />
    <glyph glyph-name="Scaron" unicode="&#x160;" horiz-adv-x="571" 
d="M535 205q0 -92 -67.5 -155.5t-192.5 -63.5q-62 0 -128 25.5t-111 60.5l56 104q39 -29 94.5 -52t103.5 -23q106 0 106 84q0 33 -34 57.5t-82.5 44t-97 44t-82.5 70.5t-34 111q0 90 62 146t192 56q47 0 103 -14t94 -34l-45 -109q-37 17 -89 29.5t-90 12.5
q-45 0 -69.5 -15.5t-24.5 -55.5q0 -31 34.5 -53.5t84 -41t99 -42.5t84 -71.5t34.5 -114.5zM486 938l-120 -165h-121l-120 165h73l108 -100l108 100h72z" />
    <glyph glyph-name="scaron" unicode="&#x161;" horiz-adv-x="474" 
d="M438 145q0 -44 -19 -77t-49.5 -50t-62.5 -25t-66 -8q-113 0 -205 65l43 85q84 -56 156 -56q83 0 83 47q0 20 -19.5 34t-48.5 20.5t-62.5 18.5t-62.5 26t-48.5 44t-19.5 72q0 64 49 106t136 42q92 0 181 -35l-30 -90q-88 34 -165 34q-56 0 -56 -43q0 -21 27.5 -34.5
t66.5 -24t78 -25t66.5 -47t27.5 -79.5zM418 710l-120 -165h-121l-120 165h73l108 -100l108 100h72z" />
    <glyph glyph-name="Tcaron" unicode="&#x164;" horiz-adv-x="601" 
d="M586 700v-118h-218v-582h-135v582h-218v118h571zM481 938l-120 -165h-121l-120 165h73l108 -100l108 100h72z" />
    <glyph glyph-name="tcaron" unicode="&#x165;" horiz-adv-x="511" 
d="M336 115l29 -76q-86 -47 -149 -47q-121 0 -121 144v246h-80v12l182 207h21v-129h142v-90h-142v-233q0 -56 40 -56q22 0 78 22zM380 653q0 26 21 46.5t48 20.5q32 0 54 -22.5t22 -58.5q0 -10 -2.5 -21t-6 -20.5t-9.5 -21t-11 -20.5t-13.5 -20.5t-13.5 -18.5t-14 -17.5
t-12.5 -14.5t-11 -12.5t-8.5 -9.5l-43 25l58 102q-24 3 -41 21t-17 42z" />
    <glyph glyph-name="Umacron" unicode="&#x16a;" horiz-adv-x="746" 
d="M373 -15q-131 0 -207 67t-76 197v451h136v-451q0 -69 35.5 -108t111.5 -39q146 0 146 147v451h137v-451q0 -130 -76 -197t-207 -67zM510 812h-275v80h275v-80z" />
    <glyph glyph-name="umacron" unicode="&#x16b;" horiz-adv-x="568" 
d="M178 207q0 -67 25 -88.5t72 -21.5q54 0 109 64v311h122v-472h-122v72q-26 -30 -69 -56.5t-88 -26.5q-171 0 -171 206v277h122v-265zM421 584h-275v80h275v-80z" />
    <glyph glyph-name="Uring" unicode="&#x16e;" horiz-adv-x="746" 
d="M373 -15q-131 0 -207 67t-76 197v451h136v-451q0 -69 35.5 -108t111.5 -39q146 0 146 147v451h137v-451q0 -130 -76 -197t-207 -67zM285 857q0 37 25.5 62t62.5 25t62 -25t25 -62t-25 -62.5t-62 -25.5t-62.5 25.5t-25.5 62.5zM333 857q0 -16 11.5 -27t27.5 -11t26.5 11
t10.5 27t-10.5 27t-26.5 11q-17 0 -28 -11t-11 -27z" />
    <glyph glyph-name="uring" unicode="&#x16f;" horiz-adv-x="568" 
d="M178 207q0 -67 25 -88.5t72 -21.5q54 0 109 64v311h122v-472h-122v72q-26 -30 -69 -56.5t-88 -26.5q-171 0 -171 206v277h122v-265zM196 629q0 37 25.5 62t62.5 25t62 -25t25 -62t-25 -62.5t-62 -25.5t-62.5 25.5t-25.5 62.5zM244 629q0 -16 11.5 -27t27.5 -11t26.5 11
t10.5 27t-10.5 27t-26.5 11q-17 0 -28 -11t-11 -27z" />
    <glyph glyph-name="Uhungarumlaut" unicode="&#x170;" horiz-adv-x="746" 
d="M373 -15q-131 0 -207 67t-76 197v451h136v-451q0 -69 35.5 -108t111.5 -39q146 0 146 147v451h137v-451q0 -130 -76 -197t-207 -67zM404 938l-155 -165h-73l103 165h125zM570 938l-156 -165h-72l103 165h125z" />
    <glyph glyph-name="uhungarumlaut" unicode="&#x171;" horiz-adv-x="568" 
d="M178 207q0 -67 25 -88.5t72 -21.5q54 0 109 64v311h122v-472h-122v72q-26 -30 -69 -56.5t-88 -26.5q-171 0 -171 206v277h122v-265zM315 710l-155 -165h-73l103 165h125zM481 710l-156 -165h-72l103 165h125z" />
    <glyph glyph-name="Uogonek" unicode="&#x172;" horiz-adv-x="746" 
d="M373 -15q-131 0 -207 67t-76 197v451h136v-451q0 -69 35.5 -108t111.5 -39q146 0 146 147v451h137v-451q0 -100 -46 -163t-129 -87q-85 -56 -85 -108q0 -36 44 -36q23 0 43 6v-44q-42 -27 -90 -27q-40 0 -60 25.5t-20 54.5q0 61 68 115h-8z" />
    <glyph glyph-name="uogonek" unicode="&#x173;" horiz-adv-x="568" 
d="M425 0h-41v72q-26 -30 -69 -56.5t-88 -26.5q-171 0 -171 206v277h122v-265q0 -67 25 -88.5t72 -21.5q54 0 109 64v311h122v-472q-87 -57 -87 -109q0 -36 44 -36q23 0 43 6v-44q-42 -27 -90 -27q-40 0 -60 25.5t-20 54.5q0 70 89 130z" />
    <glyph glyph-name="Ydieresis" unicode="&#x178;" horiz-adv-x="639" 
d="M387 250v-250h-136v252l-236 448h145l165 -316l167 316h132zM422 782q-26 0 -46 19.5t-20 45.5q0 28 20 48.5t46 20.5q28 0 48 -20t20 -49q0 -26 -20 -45.5t-48 -19.5zM215 782q-26 0 -46 19.5t-20 45.5q0 28 20 48.5t46 20.5q29 0 49 -20t20 -49q0 -27 -20 -46t-49 -19z
" />
    <glyph glyph-name="Zacute" unicode="&#x179;" horiz-adv-x="619" 
d="M578 0h-542v45l339 537h-316v118h524v-46l-335 -537h330v-117zM423 938l-156 -165h-72l102 165h126z" />
    <glyph glyph-name="zacute" unicode="&#x17a;" horiz-adv-x="486" 
d="M443 0h-408v47l233 327h-225v98h408v-44l-233 -331h225v-97zM357 710l-156 -165h-72l102 165h126z" />
    <glyph glyph-name="Zdotaccent" unicode="&#x17b;" horiz-adv-x="619" 
d="M578 0h-542v45l339 537h-316v118h524v-46l-335 -537h330v-117zM309 782q-27 0 -47 19.5t-20 45.5q0 28 20 48.5t47 20.5q28 0 48 -20t20 -49q0 -26 -20 -45.5t-48 -19.5z" />
    <glyph glyph-name="zdotaccent" unicode="&#x17c;" horiz-adv-x="486" 
d="M443 0h-408v47l233 327h-225v98h408v-44l-233 -331h225v-97zM242 554q-27 0 -47 19.5t-20 45.5q0 28 20 48.5t47 20.5q28 0 48 -20t20 -49q0 -26 -20 -45.5t-48 -19.5z" />
    <glyph glyph-name="Zcaron" unicode="&#x17d;" horiz-adv-x="619" 
d="M578 0h-542v45l339 537h-316v118h524v-46l-335 -537h330v-117zM490 938l-120 -165h-121l-120 165h73l108 -100l108 100h72z" />
    <glyph glyph-name="zcaron" unicode="&#x17e;" horiz-adv-x="486" 
d="M443 0h-408v47l233 327h-225v98h408v-44l-233 -331h225v-97zM424 710l-120 -165h-121l-120 165h73l108 -100l108 100h72z" />
    <glyph glyph-name="florin" unicode="&#x192;" horiz-adv-x="450" 
d="M410 382h-132l-94 -464q-14 -66 -37.5 -109.5t-59.5 -66t-74.5 -30.5t-93.5 -8v90q47 1 71.5 9.5t43 38.5t30.5 91l92 449h-48v90h65l24 127q28 151 164 151q56 0 178 -37l-34 -84q-106 34 -125 34q-47 0 -56 -49l-27 -142h113v-90z" />
    <glyph glyph-name="circumflex" unicode="&#x2c6;" horiz-adv-x="445" 
d="M285 710l121 -165h-73l-108 99l-108 -99h-72l120 165h120z" />
    <glyph glyph-name="caron" unicode="&#x2c7;" horiz-adv-x="534" 
d="M428 710l-120 -165h-121l-120 165h73l108 -100l108 100h72z" />
    <glyph glyph-name="breve" unicode="&#x2d8;" horiz-adv-x="450" 
d="M225 551q-53 0 -90 14t-85 45l36 69q41 -25 71 -36t68 -11q64 0 138 47l37 -69q-47 -31 -84.5 -45t-90.5 -14z" />
    <glyph glyph-name="dotaccent" unicode="&#x2d9;" horiz-adv-x="240" 
d="M119 554q-27 0 -47 19.5t-20 45.5q0 28 20 48.5t47 20.5q28 0 48 -20t20 -49q0 -26 -20 -45.5t-48 -19.5z" />
    <glyph glyph-name="ring" unicode="&#x2da;" horiz-adv-x="273" 
d="M43 629q0 37 25.5 62t62.5 25t62 -25t25 -62t-25 -62.5t-62 -25.5t-62.5 25.5t-25.5 62.5zM91 629q0 -16 11.5 -27t27.5 -11t26.5 11t10.5 27t-10.5 27t-26.5 11q-17 0 -28 -11t-11 -27z" />
    <glyph glyph-name="ogonek" unicode="&#x2db;" horiz-adv-x="241" 
d="M110 0h81q-87 -57 -87 -109q0 -36 44 -36q24 0 43 6v-44q-42 -27 -90 -27q-40 0 -60 25.5t-20 54.5q0 70 89 130z" />
    <glyph glyph-name="tilde" unicode="&#x2dc;" horiz-adv-x="446" 
d="M286 642q27 0 46 13.5t41 47.5l23 -74q-42 -67 -111 -67q-33 0 -68 25t-57 25q-27 0 -46.5 -13.5t-41.5 -47.5l-22 74q42 67 111 67q34 0 68.5 -25t56.5 -25z" />
    <glyph glyph-name="hungarumlaut" unicode="&#x2dd;" horiz-adv-x="489" 
d="M275 710l-155 -165h-73l103 165h125zM441 710l-156 -165h-72l103 165h125z" />
    <glyph glyph-name="afii10023" unicode="&#x401;" horiz-adv-x="551" 
d="M393 754q-25 0 -43.5 18t-18.5 43t18.5 44t43.5 19q27 0 45.5 -18.5t18.5 -44.5q0 -25 -18.5 -43t-45.5 -18zM196 754q-25 0 -43.5 18t-18.5 43t18.5 44t43.5 19q26 0 44.5 -18.5t18.5 -44.5q0 -25 -18.5 -43t-44.5 -18zM462 414v-107h-236v-200h270v-107h-406v700h395
v-108h-259v-178h236z" />
    <glyph glyph-name="afii10051" unicode="&#x402;" horiz-adv-x="757" 
d="M616 700v-118h-233v-187q67 50 144 50q191 0 191 -219v-196q0 -250 -280 -250v107q34 0 54 3.5t43.5 16t35 43.5t11.5 80v195q0 54 -28.5 78t-72.5 24q-41 0 -98 -40v-287h-135v582h-233v118h601z" />
    <glyph glyph-name="afii10052" unicode="&#x403;" horiz-adv-x="501" 
d="M226 587v-587h-136v700h395v-113h-259zM425 938l-156 -165h-72l102 165h126z" />
    <glyph glyph-name="afii10053" unicode="&#x404;" horiz-adv-x="680" 
d="M391 715q133 0 235 -46l-45 -109q-95 38 -179 38q-78 0 -135.5 -50t-73.5 -134h312v-107h-316q10 -99 68 -151t145 -52q81 0 198 75l55 -99q-131 -95 -265 -95q-171 0 -260.5 99.5t-89.5 264.5t92 265.5t259 100.5z" />
    <glyph glyph-name="afii10054" unicode="&#x405;" horiz-adv-x="571" 
d="M535 205q0 -92 -67.5 -155.5t-192.5 -63.5q-62 0 -128 25.5t-111 60.5l56 104q39 -29 94.5 -52t103.5 -23q106 0 106 84q0 33 -34 57.5t-82.5 44t-97 44t-82.5 70.5t-34 111q0 90 62 146t192 56q47 0 103 -14t94 -34l-45 -109q-37 17 -89 29.5t-90 12.5
q-45 0 -69.5 -15.5t-24.5 -55.5q0 -31 34.5 -53.5t84 -41t99 -42.5t84 -71.5t34.5 -114.5z" />
    <glyph glyph-name="afii10055" unicode="&#x406;" horiz-adv-x="309" 
d="M226 0h-136v700h136v-700z" />
    <glyph glyph-name="afii10056" unicode="&#x407;" horiz-adv-x="316" 
d="M233 749q-21 0 -37 15.5t-16 36.5q0 22 16 38.5t37 16.5q23 0 39.5 -16.5t16.5 -38.5t-16.5 -37t-39.5 -15zM83 749q-21 0 -37.5 15.5t-16.5 36.5q0 22 16.5 38.5t37.5 16.5q23 0 39 -16.5t16 -38.5t-16 -37t-39 -15zM226 0h-136v700h136v-700z" />
    <glyph glyph-name="afii10057" unicode="&#x408;" horiz-adv-x="319" 
d="M236 82q0 -133 -69.5 -192.5t-208.5 -59.5v108q32 0 53 4t43.5 17.5t34 44t11.5 78.5v618h136v-618z" />
    <glyph glyph-name="afii10058" unicode="&#x409;" horiz-adv-x="967" 
d="M620 700v-263h81q102 0 172.5 -55.5t70.5 -163.5q0 -104 -72 -161t-172 -57h-217v582h-175q-8 -220 -33.5 -341t-79 -183.5t-151.5 -78.5l-36 107q31 6 55 22.5t41 38.5t29.5 63.5t20.5 82.5t14 111t9 132.5t7 163.5h436zM620 332v-227h54q62 0 95.5 29t33.5 84
q0 56 -33.5 85t-95.5 29h-54z" />
    <glyph glyph-name="afii10059" unicode="&#x40a;" horiz-adv-x="987" 
d="M640 700v-272h81q103 0 173 -53.5t70 -160.5q0 -104 -71 -159t-172 -55h-218v322h-287v-322h-136v700h136v-273h287v273h137zM640 323v-218h54q62 0 95.5 27.5t33.5 81.5q0 109 -129 109h-54z" />
    <glyph glyph-name="afii10060" unicode="&#x40b;" horiz-adv-x="757" 
d="M718 0h-136v225q0 54 -28.5 78t-72.5 24q-41 0 -98 -40v-287h-135v582h-233v118h601v-118h-233v-187q1 0 11.5 7t22 13.5t28.5 13.5t38.5 11.5t43.5 4.5q82 0 136.5 -50.5t54.5 -169.5v-225z" />
    <glyph glyph-name="afii10061" unicode="&#x40c;" horiz-adv-x="679" 
d="M653 0h-165l-194 302h-68v-302h-136v700h136v-280h63l213 280h161l-257 -333zM503 938l-156 -165h-72l102 165h126z" />
    <glyph glyph-name="afii10062" unicode="&#x40e;" horiz-adv-x="664" 
d="M329 767q-115 0 -244 51l33 95q111 -51 211 -51q95 0 212 51l33 -95q-129 -51 -245 -51zM204 0l78 174l-268 526h148l190 -371l167 371h133l-317 -700h-131z" />
    <glyph glyph-name="afii10145" unicode="&#x40f;" horiz-adv-x="787" 
d="M100 700h136v-593h315v593h136v-700h-225l-21 -177h-98l-18 177h-225v700z" />
    <glyph glyph-name="afii10017" unicode="&#x410;" horiz-adv-x="671" 
d="M256 700h159l241 -700h-141l-56 165h-259l-56 -165h-129zM330 548l-94 -275h179z" />
    <glyph glyph-name="afii10018" unicode="&#x411;" horiz-adv-x="593" 
d="M553 215q0 -103 -72 -159t-169 -56h-227v700h407v-108h-271v-162h85q99 0 173 -54.5t74 -160.5zM412 215q0 56 -34 85t-98 29h-59v-228h59q64 0 98 29.5t34 84.5z" />
    <glyph glyph-name="afii10019" unicode="&#x412;" horiz-adv-x="604" 
d="M564 197q0 -67 -35 -113t-84 -65t-106 -19h-249v700h243q54 0 99 -15.5t77.5 -56t32.5 -100.5q0 -57 -34.5 -102t-96.5 -62q70 -12 111.5 -55.5t41.5 -111.5zM428 206q0 105 -124 105h-78v-210h78q124 0 124 105zM405 506q0 49 -26.5 70.5t-80.5 21.5h-72v-186h72
q107 0 107 94z" />
    <glyph glyph-name="afii10020" unicode="&#x413;" horiz-adv-x="501" 
d="M226 587v-587h-136v700h395v-113h-259z" />
    <glyph glyph-name="afii10021" unicode="&#x414;" horiz-adv-x="787" 
d="M216 700h443v-588h85v-289h-103l-23 177h-467l-24 -177h-102v289h68q74 123 94.5 232t28.5 356zM523 112v475h-188q-14 -342 -110 -475h298z" />
    <glyph glyph-name="afii10022" unicode="&#x415;" horiz-adv-x="541" 
d="M462 414v-107h-236v-200h270v-107h-406v700h395v-108h-259v-178h236z" />
    <glyph glyph-name="afii10024" unicode="&#x416;" horiz-adv-x="1021" 
d="M649 302h-71v-302h-136v302h-71l-175 -302h-166l232 367l-242 333h155l196 -280h71v280h136v-280h71l197 280h155l-242 -333l231 -367h-165z" />
    <glyph glyph-name="afii10025" unicode="&#x417;" horiz-adv-x="546" 
d="M510 192q0 -96 -69 -151.5t-173 -55.5q-144 0 -251 95l66 92q45 -37 82.5 -53.5t83.5 -16.5t84 30t38 73q0 105 -138 105h-69v103h72q62 0 100 27t38 76q0 40 -26.5 63t-71.5 23q-85 0 -175 -38l-36 106q101 45 221 45q97 0 157.5 -44.5t60.5 -134.5q0 -66 -43.5 -112
t-106.5 -62q73 -12 114.5 -56.5t41.5 -113.5z" />
    <glyph glyph-name="afii10026" unicode="&#x418;" horiz-adv-x="781" 
d="M226 201l314 499h151v-700h-136v498l-314 -498h-151v700h136v-499z" />
    <glyph glyph-name="afii10027" unicode="&#x419;" horiz-adv-x="781" 
d="M390 767q-115 0 -244 51l33 95q111 -51 211 -51q95 0 212 51l33 -95q-129 -51 -245 -51zM226 201l314 499h151v-700h-136v498l-314 -498h-151v700h136v-499z" />
    <glyph glyph-name="afii10028" unicode="&#x41a;" horiz-adv-x="679" 
d="M653 0h-165l-194 302h-68v-302h-136v700h136v-280h63l213 280h161l-257 -333z" />
    <glyph glyph-name="afii10029" unicode="&#x41b;" horiz-adv-x="740" 
d="M655 700v-700h-137v582h-210q-5 -152 -17.5 -253.5t-31.5 -168t-53.5 -104t-74 -53.5t-102.5 -24l-35 107q46 7 74.5 24t50.5 53t34 108t19 170.5t12 258.5h471z" />
    <glyph glyph-name="afii10030" unicode="&#x41c;" horiz-adv-x="955" 
d="M875 0h-137l-22 534l-190 -534h-117l-184 533l-27 -533h-118l33 700h195l167 -496l179 496h189z" />
    <glyph glyph-name="afii10031" unicode="&#x41d;" horiz-adv-x="767" 
d="M677 0h-136v303h-315v-303h-136v700h136v-280h315v280h136v-700z" />
    <glyph glyph-name="afii10032" unicode="&#x41e;" horiz-adv-x="772" 
d="M176 350q0 -121 58 -189.5t152 -68.5t152 68.5t58 189.5t-58 189t-152 68t-152 -68t-58 -189zM40 350q0 157 92.5 261t253.5 104t253.5 -104t92.5 -261t-92.5 -261t-253.5 -104t-253.5 104t-92.5 261z" />
    <glyph glyph-name="afii10033" unicode="&#x41f;" horiz-adv-x="767" 
d="M677 0h-136v582h-315v-582h-136v700h587v-700z" />
    <glyph glyph-name="afii10034" unicode="&#x420;" horiz-adv-x="590" 
d="M226 592v-230h62q65 0 98.5 30t33.5 87q0 113 -132 113h-62zM226 257v-257h-136v700h229q100 0 171 -58.5t71 -162.5q0 -108 -70 -165t-171 -57h-94z" />
    <glyph glyph-name="afii10035" unicode="&#x421;" horiz-adv-x="674" 
d="M391 715q135 0 240 -46l-42 -110q-106 39 -187 39q-95 0 -155.5 -67.5t-60.5 -181.5q0 -118 60 -181.5t156 -63.5q81 0 198 75l55 -99q-131 -95 -265 -95q-171 0 -260.5 99.5t-89.5 264.5t92 265.5t259 100.5z" />
    <glyph glyph-name="afii10036" unicode="&#x422;" horiz-adv-x="601" 
d="M586 700v-118h-218v-582h-135v582h-218v118h571z" />
    <glyph glyph-name="afii10037" unicode="&#x423;" horiz-adv-x="657" 
d="M205 0l79 176l-269 524h148l189 -371l167 371h133l-317 -700h-130z" />
    <glyph glyph-name="afii10038" unicode="&#x424;" horiz-adv-x="848" 
d="M805 378q0 -139 -83.5 -208t-229.5 -69v-101h-136v101q-146 0 -230 69t-84 208t84 208t230 69v91h136v-91q146 0 229.5 -69t83.5 -208zM674 378q0 101 -46 136.5t-136 35.5v-344q90 0 136 35.5t46 136.5zM356 206v344q-90 0 -136 -35.5t-46 -136.5t46 -136.5t136 -35.5z
" />
    <glyph glyph-name="afii10039" unicode="&#x425;" horiz-adv-x="654" 
d="M627 700l-218 -347l223 -353h-163l-150 244l-150 -244h-142l217 346l-222 354h161l151 -245l151 245h142z" />
    <glyph glyph-name="afii10040" unicode="&#x426;" horiz-adv-x="810" 
d="M677 117h85v-294h-102l-24 177h-546v700h136v-583h315v583h136v-583z" />
    <glyph glyph-name="afii10041" unicode="&#x427;" horiz-adv-x="667" 
d="M441 0v278q-98 -42 -191 -42q-95 0 -149.5 54t-54.5 163v247h136v-247q0 -103 106 -103q78 0 153 35v315h136v-700h-136z" />
    <glyph glyph-name="afii10042" unicode="&#x428;" horiz-adv-x="1069" 
d="M978 0h-888v700h136v-583h240v583h136v-583h240v583h136v-700z" />
    <glyph glyph-name="afii10043" unicode="&#x429;" horiz-adv-x="1116" 
d="M1073 -177h-102l-24 177h-847v700h136v-583h240v583h136v-583h240v583h136v-583h85v-294z" />
    <glyph glyph-name="afii10044" unicode="&#x42a;" horiz-adv-x="651" 
d="M296 700v-263h89q102 0 172.5 -55.5t70.5 -163.5q0 -104 -72 -161t-172 -57h-224v587h-160v113h296zM296 332v-227h62q62 0 95.5 29t33.5 84q0 56 -33.5 85t-95.5 29h-62z" />
    <glyph glyph-name="afii10045" unicode="&#x42b;" horiz-adv-x="856" 
d="M765 700v-700h-136v700h136zM226 332v-227h62q62 0 95.5 29t33.5 84q0 56 -33.5 85t-95.5 29h-62zM226 700v-263h89q102 0 172.5 -55.5t70.5 -163.5q0 -104 -72 -161t-172 -57h-224v700h136z" />
    <glyph glyph-name="afii10046" unicode="&#x42c;" horiz-adv-x="583" 
d="M226 332v-227h64q63 0 96.5 29t33.5 84q0 56 -33.5 85t-96.5 29h-64zM226 700v-263h91q102 0 173 -55.5t71 -163.5q0 -104 -72 -161t-172 -57h-227v700h136z" />
    <glyph glyph-name="afii10047" unicode="&#x42d;" horiz-adv-x="680" 
d="M285 715q171 0 261 -100t90 -266q0 -165 -90 -264.5t-261 -99.5q-60 0 -123.5 22t-92.5 40t-48 33l53 94q115 -75 199 -75q88 0 145.5 54t67.5 153h-316v105h315q-14 88 -68.5 138.5t-142.5 50.5t-182 -37l-43 106q103 46 236 46z" />
    <glyph glyph-name="afii10048" unicode="&#x42e;" horiz-adv-x="1051" 
d="M675 -15q-148 0 -234.5 87.5t-99.5 227.5h-115v-300h-136v700h136v-283h118q18 131 104 214.5t227 83.5q108 0 185.5 -50t114 -131.5t36.5 -183.5t-36.5 -183.5t-114 -131.5t-185.5 -50zM675 92q93 0 146.5 68t53.5 190t-53.5 189.5t-146.5 67.5t-146.5 -67.5
t-53.5 -189.5q0 -123 53.5 -190.5t146.5 -67.5z" />
    <glyph glyph-name="afii10049" unicode="&#x42f;" horiz-adv-x="652" 
d="M425 0v257h-88l-150 -257h-154l168 281q-58 23 -93 73t-35 123q0 105 72.5 164t169.5 59h247v-700h-137zM425 362v228h-82q-62 0 -95.5 -29t-33.5 -84q0 -56 33.5 -85.5t95.5 -29.5h82z" />
    <glyph glyph-name="afii10065" unicode="&#x430;" horiz-adv-x="519" 
d="M334 0v67q-84 -78 -163 -78q-63 0 -101.5 33t-38.5 96q0 88 79.5 129t223.5 50q0 35 -6.5 56t-20.5 30t-26.5 11.5t-35.5 2.5q-71 0 -162 -38l-28 85q43 19 105.5 31.5t116.5 12.5q179 0 179 -196v-292h-122zM214 80q48 0 120 66v77q-87 -4 -134.5 -24.5t-47.5 -66.5
q0 -52 62 -52z" />
    <glyph glyph-name="afii10066" unicode="&#x431;" horiz-adv-x="583" 
d="M546 245q0 -117 -75 -188.5t-179 -71.5q-255 0 -255 331q0 49 5.5 89.5t14.5 73t27 58.5t36.5 46t49 36.5t58.5 28t72.5 22.5t83 19t96.5 18l14 -100l-234 -54q-54 -13 -80 -52t-31 -108q79 70 192 70q82 0 143.5 -58t61.5 -160zM421 219q0 68 -32.5 108t-96.5 40
q-33 0 -69 -15.5t-62 -41.5v-34q0 -109 32 -155t99 -46q60 0 94.5 39.5t34.5 104.5z" />
    <glyph glyph-name="afii10067" unicode="&#x432;" horiz-adv-x="500" 
d="M275 81q68 0 68 62q0 56 -62 59h-96v-121h90zM268 390h-83v-112h83q63 0 63 56t-63 56zM347 245q117 -17 117 -115q0 -66 -48.5 -98t-123.5 -32h-229v472h224q164 0 164 -117q0 -44 -26.5 -73t-77.5 -37z" />
    <glyph glyph-name="afii10068" unicode="&#x433;" horiz-adv-x="409" 
d="M186 0h-122v472h333v-98h-211v-374z" />
    <glyph glyph-name="afii10069" unicode="&#x434;" horiz-adv-x="581" 
d="M371 95v282h-125q-9 -117 -25 -180.5t-53 -101.5h203zM461 0h-349l-16 -133h-84v228h43q50 53 68 133t23 244h348v-377h67v-228h-83z" />
    <glyph glyph-name="afii10070" unicode="&#x435;" horiz-adv-x="507" 
d="M35 226q0 126 67.5 194t161.5 68q213 0 213 -262h-322q2 -79 41 -112.5t109 -33.5q58 0 136 52l37 -71q-32 -23 -52.5 -35.5t-62 -26.5t-83.5 -14q-109 0 -177 62.5t-68 178.5zM270 402q-80 0 -109 -104h206q-5 104 -97 104z" />
    <glyph glyph-name="afii10072" unicode="&#x436;" horiz-adv-x="771" 
d="M22 472h126l118 -181h58v181h122v-181h58l119 181h126l-152 -223l163 -249h-139l-122 193h-53v-193h-122v193h-52l-122 -193h-139l162 249z" />
    <glyph glyph-name="afii10073" unicode="&#x437;" horiz-adv-x="447" 
d="M222 -15q-65 0 -108.5 18.5t-89.5 54.5l45 76q80 -59 139 -59q34 0 55.5 17t21.5 51q0 62 -79 62h-61v77h61q35 0 57 18.5t22 43.5q0 23 -19.5 38.5t-48.5 15.5q-77 0 -135 -27l-23 88q96 29 181 29q72 0 117.5 -29.5t45.5 -89.5q0 -46 -28.5 -79.5t-91.5 -43.5
q128 -16 128 -121q0 -66 -55 -103t-134 -37z" />
    <glyph glyph-name="afii10074" unicode="&#x438;" horiz-adv-x="583" 
d="M184 159l208 313h128v-472h-122v313l-208 -313h-128v472h122v-313z" />
    <glyph glyph-name="afii10075" unicode="&#x439;" horiz-adv-x="585" 
d="M292 642q88 0 169 47l34 -83q-110 -48 -203 -48q-95 0 -202 48l34 83q78 -47 168 -47zM185 159l208 313h128v-472h-122v313l-207 -313h-129v472h122v-313z" />
    <glyph glyph-name="afii10076" unicode="&#x43a;" horiz-adv-x="518" 
d="M184 472v-181h60l124 181h132l-154 -217l160 -255h-142l-115 196h-65v-196h-122v472h122z" />
    <glyph glyph-name="afii10077" unicode="&#x43b;" horiz-adv-x="549" 
d="M486 0h-122v377h-138q-3 -86 -9 -142t-18.5 -104.5t-33.5 -76.5t-53 -45.5t-79 -23.5l-29 101q74 11 97 92.5t27 293.5h358v-472z" />
    <glyph glyph-name="afii10078" unicode="&#x43c;" horiz-adv-x="693" 
d="M633 0h-120l-16 346l-107 -346h-91l-119 346l-13 -346h-107l16 472h174l100 -301l90 301h177z" />
    <glyph glyph-name="afii10079" unicode="&#x43d;" horiz-adv-x="578" 
d="M393 0v195h-209v-195h-122v472h122v-180h209v180h122v-472h-122z" />
    <glyph glyph-name="afii10080" unicode="&#x43e;" horiz-adv-x="577" 
d="M420 236q0 79 -34.5 122.5t-96.5 43.5t-97 -43.5t-35 -121.5q0 -79 35 -122.5t97 -43.5t96.5 43.5t34.5 121.5zM542 236q0 -119 -70.5 -185t-182.5 -66t-183 66.5t-71 185.5t71 185t183 66t182.5 -66.5t70.5 -185.5z" />
    <glyph glyph-name="afii10081" unicode="&#x43f;" horiz-adv-x="580" 
d="M394 0v372h-209v-372h-122v472h453v-472h-122z" />
    <glyph glyph-name="afii10082" unicode="&#x440;" horiz-adv-x="580" 
d="M421 242q0 44 -13 75t-35 45t-41.5 19.5t-40.5 5.5q-54 0 -107 -51v-229q36 -32 102 -32q22 0 41.5 5.5t43 21t37 51.5t13.5 89zM62 -195v667h122v-59q21 27 65 51.5t91 24.5q83 0 144 -61.5t61 -182.5q0 -66 -21 -117.5t-55 -81.5t-73 -45.5t-79 -15.5q-76 0 -133 37
v-217h-122z" />
    <glyph glyph-name="afii10083" unicode="&#x441;" horiz-adv-x="498" 
d="M429 137l45 -74q-109 -78 -202 -78q-103 0 -169 63.5t-66 188.5q0 121 74 186t171 65q74 0 172 -26l-26 -91q-86 21 -123 21q-141 0 -141 -155q0 -76 37 -114t103 -38q45 0 125 52z" />
    <glyph glyph-name="afii10084" unicode="&#x442;" horiz-adv-x="464" 
d="M450 374h-157v-374h-123v374h-157v98h437v-98z" />
    <glyph glyph-name="afii10085" unicode="&#x443;" horiz-adv-x="541" 
d="M275 148l135 324h117l-282 -667h-117l86 200l-201 467h133z" />
    <glyph glyph-name="afii10086" unicode="&#x444;" horiz-adv-x="734" 
d="M428 643v-166q130 0 199 -61.5t69 -176.5t-69.5 -179t-198.5 -64v-191h-122v191q-130 0 -199.5 63.5t-69.5 179.5q0 115 69.5 176.5t199.5 61.5v166h122zM157 239q0 -82 34.5 -120.5t114.5 -38.5v312q-81 0 -115 -36t-34 -117zM577 239q0 81 -34.5 117t-114.5 36v-312
q80 0 114.5 38.5t34.5 120.5z" />
    <glyph glyph-name="afii10087" unicode="&#x445;" horiz-adv-x="501" 
d="M338 0l-97 153l-100 -153h-123l163 234l-159 238h136l98 -151l102 151h123l-164 -231l165 -241h-144z" />
    <glyph glyph-name="afii10088" unicode="&#x446;" horiz-adv-x="620" 
d="M498 0h-420v472h122v-380h209v380h122v-380h67v-225h-84z" />
    <glyph glyph-name="afii10089" unicode="&#x447;" horiz-adv-x="514" 
d="M26 314v158h122v-153q0 -38 16 -57.5t57 -19.5q46 0 108 26v204h122v-472h-122v191q-28 -16 -72.5 -28t-83.5 -12q-74 0 -110.5 43.5t-36.5 119.5z" />
    <glyph glyph-name="afii10090" unicode="&#x448;" horiz-adv-x="795" 
d="M732 0h-668v472h122v-377h151v377h122v-377h151v377h122v-472z" />
    <glyph glyph-name="afii10091" unicode="&#x449;" horiz-adv-x="820" 
d="M699 0h-635v472h122v-377h151v377h122v-377h151v377h122v-377h67v-228h-84z" />
    <glyph glyph-name="afii10092" unicode="&#x44a;" horiz-adv-x="530" 
d="M0 472h239v-160h97q75 0 123.5 -42t48.5 -114q0 -71 -48.5 -113.5t-123.5 -42.5h-219v374h-117v98zM387 156q0 42 -26.5 56t-71.5 14h-50v-140h72q76 0 76 70z" />
    <glyph glyph-name="afii10093" unicode="&#x44b;" horiz-adv-x="690" 
d="M62 472h122v-160h94q75 0 122.5 -42t47.5 -114t-47.5 -114t-122.5 -42h-216v472zM627 0h-123v472h123v-472zM330 156q0 42 -26 56t-70 14h-50v-140h72q74 0 74 70z" />
    <glyph glyph-name="afii10094" unicode="&#x44c;" horiz-adv-x="475" 
d="M62 472h122v-160h97q75 0 123.5 -42t48.5 -114q0 -71 -48.5 -113.5t-123.5 -42.5h-219v472zM332 156q0 42 -26.5 56t-71.5 14h-50v-140h72q76 0 76 70z" />
    <glyph glyph-name="afii10095" unicode="&#x44d;" horiz-adv-x="510" 
d="M24 56l44 74q76 -51 130 -51q58 0 97 30.5t47 90.5h-233v86h232q-14 110 -132 110q-73 0 -137 -19l-23 89q87 22 183 22q100 0 169 -64.5t69 -186.5q0 -64 -21.5 -113.5t-58 -79t-81 -44.5t-94.5 -15q-98 0 -191 71z" />
    <glyph glyph-name="afii10096" unicode="&#x44e;" horiz-adv-x="792" 
d="M757 237q0 -114 -63.5 -183t-175.5 -69q-102 0 -164 57.5t-73 155.5h-95v-198h-122v472h122v-182h97q15 91 76 144.5t159 53.5q112 0 175.5 -69t63.5 -182zM637 237q0 161 -119 161q-56 0 -88 -39.5t-32 -121.5q0 -83 32 -122.5t88 -39.5q119 0 119 162z" />
    <glyph glyph-name="afii10097" unicode="&#x44f;" horiz-adv-x="514" 
d="M23 0l135 179q-98 28 -98 141q0 43 17 74t46.5 47.5t62 23.5t69.5 7h195v-472h-122v159h-50l-112 -159h-143zM328 385h-70q-78 0 -78 -70q0 -32 20 -50.5t58 -18.5h70v139z" />
    <glyph glyph-name="afii10071" unicode="&#x451;" horiz-adv-x="516" 
d="M174 554q-26 0 -46 19.5t-20 45.5q0 28 20 48.5t46 20.5q29 0 49 -20.5t20 -48.5q0 -27 -20 -46t-49 -19zM381 554q-27 0 -47 19.5t-20 45.5q0 28 20 48.5t47 20.5q28 0 48 -20.5t20 -48.5q0 -26 -20 -45.5t-48 -19.5zM40 226q0 126 67.5 194t161.5 68q213 0 213 -262
h-322q2 -79 41 -112.5t109 -33.5q58 0 136 52l37 -71q-32 -23 -52.5 -35.5t-62 -26.5t-83.5 -14q-109 0 -177 62.5t-68 178.5zM275 402q-80 0 -109 -104h206q-5 104 -97 104z" />
    <glyph glyph-name="afii10099" unicode="&#x452;" horiz-adv-x="594" 
d="M527 275v-259q0 -61 -20.5 -104.5t-56 -65.5t-73 -31.5t-81.5 -9.5v93q109 0 109 118v247q0 66 -30 93.5t-72 27.5q-29 0 -65 -16t-56 -39v-329h-122v535h-60v80h60v85h122v-85h134v-80h-134v-120q71 71 156 71t137 -55.5t52 -155.5z" />
    <glyph glyph-name="afii10100" unicode="&#x453;" horiz-adv-x="409" 
d="M186 0h-122v472h333v-98h-211v-374zM369 710l-156 -165h-72l102 165h126z" />
    <glyph glyph-name="afii10101" unicode="&#x454;" horiz-adv-x="500" 
d="M435 134l45 -76q-104 -73 -205 -73q-104 0 -172 63.5t-68 188.5q0 120 76 185.5t173 65.5q83 0 172 -23l-23 -89q-79 21 -123 21q-121 0 -144 -111h230v-86h-231q9 -60 46 -89.5t96 -29.5q52 0 128 53z" />
    <glyph glyph-name="afii10102" unicode="&#x455;" horiz-adv-x="474" 
d="M438 145q0 -44 -19 -77t-49.5 -50t-62.5 -25t-66 -8q-113 0 -205 65l43 85q84 -56 156 -56q83 0 83 47q0 20 -19.5 34t-48.5 20.5t-62.5 18.5t-62.5 26t-48.5 44t-19.5 72q0 64 49 106t136 42q92 0 181 -35l-30 -90q-88 34 -165 34q-56 0 -56 -43q0 -21 27.5 -34.5
t66.5 -24t78 -25t66.5 -47t27.5 -79.5z" />
    <glyph glyph-name="afii10103" unicode="&#x456;" horiz-adv-x="257" 
d="M51 616q0 29 21 50.5t50 21.5q30 0 51 -21.5t21 -50.5q0 -28 -21 -48.5t-51 -20.5q-29 0 -50 20.5t-21 48.5zM184 464v-464h-122v464h122z" />
    <glyph glyph-name="afii10104" unicode="&#x457;" horiz-adv-x="247" 
d="M184 472v-472h-122v472h122zM194 537q-23 0 -40 16.5t-17 39.5q0 24 17 42t40 18q24 0 41.5 -18t17.5 -42q0 -23 -17 -39.5t-42 -16.5zM51 537q-23 0 -40 16.5t-17 39.5q0 24 17 42t40 18q25 0 42.5 -18t17.5 -42q0 -23 -17.5 -39.5t-42.5 -16.5z" />
    <glyph glyph-name="afii10105" unicode="&#x458;" horiz-adv-x="247" 
d="M184 464v-471q0 -59 -21.5 -102.5t-56.5 -66.5t-73 -33.5t-79 -10.5v92q108 0 108 121v471h122zM51 616q0 29 21 50.5t50 21.5q30 0 51 -21.5t21 -50.5q0 -28 -21 -48.5t-51 -20.5q-29 0 -50 20.5t-21 48.5z" />
    <glyph glyph-name="afii10106" unicode="&#x459;" horiz-adv-x="774" 
d="M139 472h352v-160h86q75 0 124 -42t49 -114q0 -71 -49 -113.5t-124 -42.5h-208v377h-131q-4 -87 -9.5 -142.5t-18 -104.5t-33.5 -76.5t-53.5 -45t-79.5 -23.5l-28 101q75 11 97.5 92.5t25.5 293.5zM629 156q0 35 -21 52.5t-53 17.5h-64v-140h64q74 0 74 70z" />
    <glyph glyph-name="afii10107" unicode="&#x45a;" horiz-adv-x="782" 
d="M379 0v218h-194v-218h-122v472h122v-168h194v168h122v-168h87q75 0 123.5 -40.5t48.5 -111.5q0 -69 -48.5 -110.5t-123.5 -41.5h-209zM639 152q0 66 -74 66h-64v-132h64q74 0 74 66z" />
    <glyph glyph-name="afii10108" unicode="&#x45b;" horiz-adv-x="646" 
d="M234 700v-85h135v-80h-135v-120q74 71 157 71t136 -54.5t53 -156.5v-275h-123v263q0 65 -29 93t-73 28q-28 0 -64.5 -16t-56.5 -39v-329h-122v535h-60v80h60v85h122z" />
    <glyph glyph-name="afii10109" unicode="&#x45c;" horiz-adv-x="518" 
d="M184 472v-181h60l124 181h132l-154 -217l160 -255h-142l-115 196h-65v-196h-122v472h122zM413 710l-156 -165h-72l102 165h126z" />
    <glyph glyph-name="afii10110" unicode="&#x45e;" horiz-adv-x="552" 
d="M276 642q88 0 169 47l34 -83q-110 -48 -203 -48q-95 0 -202 48l34 83q78 -47 168 -47zM281 149l134 323h117l-288 -680h-117l89 209l-198 471h133z" />
    <glyph glyph-name="afii10193" unicode="&#x45f;" horiz-adv-x="608" 
d="M200 472v-380h209v380h122v-472h-170l-17 -133h-80l-17 133h-169v472h122z" />
    <glyph glyph-name="afii10050" unicode="&#x490;" horiz-adv-x="515" 
d="M226 587v-587h-136v700h294l31 127h70v-240h-259z" />
    <glyph glyph-name="afii10098" unicode="&#x491;" horiz-adv-x="409" 
d="M186 0h-122v472h252l15 99h66v-197h-211v-374z" />
    <glyph glyph-name="endash" unicode="&#x2013;" horiz-adv-x="540" 
d="M510 221h-480v75h480v-75z" />
    <glyph glyph-name="emdash" unicode="&#x2014;" horiz-adv-x="784" 
d="M754 221h-724v75h724v-75z" />
    <glyph glyph-name="quoteleft" unicode="&#x2018;" horiz-adv-x="249" 
d="M192 476q0 -27 -20.5 -48t-48.5 -21q-32 0 -54 23t-22 60q0 71 114 211l41 -23l-68 -135q25 -4 41.5 -22.5t16.5 -44.5z" />
    <glyph glyph-name="quoteright" unicode="&#x2019;" horiz-adv-x="249" 
d="M57 631q0 27 20.5 48t48.5 21q32 0 54 -22.5t22 -59.5q0 -72 -114 -212l-41 23l68 135q-24 4 -41 23t-17 44z" />
    <glyph glyph-name="quotesinglbase" unicode="&#x201a;" horiz-adv-x="232" 
d="M50 63q0 27 20.5 48t47.5 21q32 0 54 -22.5t22 -59.5q0 -73 -113 -212l-44 25l71 133q-25 4 -41.5 23t-16.5 44z" />
    <glyph glyph-name="quotedblleft" unicode="&#x201c;" horiz-adv-x="424" 
d="M367 476q0 -27 -20.5 -48t-48.5 -21q-32 0 -54 23t-22 60q0 71 114 211l41 -23l-68 -135q25 -4 41.5 -22.5t16.5 -44.5zM192 476q0 -27 -20.5 -48t-48.5 -21q-32 0 -54 23t-22 60q0 71 114 211l41 -23l-68 -135q25 -4 41.5 -22.5t16.5 -44.5z" />
    <glyph glyph-name="quotedblright" unicode="&#x201d;" horiz-adv-x="424" 
d="M232 631q0 27 20.5 48t48.5 21q32 0 54 -22.5t22 -59.5q0 -72 -114 -212l-41 23l68 135q-24 4 -41 23t-17 44zM57 631q0 27 20.5 48t48.5 21q32 0 54 -22.5t22 -59.5q0 -72 -114 -212l-41 23l68 135q-24 4 -41 23t-17 44z" />
    <glyph glyph-name="quotedblbase" unicode="&#x201e;" horiz-adv-x="424" 
d="M232 63q0 27 20.5 48t48.5 21q32 0 54 -22.5t22 -59.5q0 -72 -114 -212l-41 23l68 135q-24 4 -41 23t-17 44zM57 63q0 27 20.5 48t48.5 21q32 0 54 -22.5t22 -59.5q0 -72 -114 -212l-41 23l68 135q-24 4 -41 23t-17 44z" />
    <glyph glyph-name="dagger" unicode="&#x2020;" horiz-adv-x="421" 
d="M161 700h99l-8 -163h124v-84h-122l29 -370l-73 -87l-72 87l29 370h-122v84h124z" />
    <glyph glyph-name="daggerdbl" unicode="&#x2021;" horiz-adv-x="373" 
d="M165 383l2 75h-122v84h124q-6 108 -8 158h99q-6 -108 -8 -158h124v-84h-122q0 -12 0.5 -37t0.5 -38h121v-84h-118l25 -216q-59 -72 -73 -87l-72 87q16 144 25 216h-118v84h120z" />
    <glyph glyph-name="bullet" unicode="&#x2022;" horiz-adv-x="372" 
d="M324 323q0 -58 -40 -98t-98 -40t-98.5 40t-40.5 98t40.5 98.5t98.5 40.5t98 -40.5t40 -98.5z" />
    <glyph glyph-name="ellipsis" unicode="&#x2026;" horiz-adv-x="743" 
d="M558 63q0 28 20.5 48.5t48.5 20.5t48 -20.5t20 -48.5t-20 -48t-48 -20t-48.5 20t-20.5 48zM303 63q0 28 20.5 48.5t48.5 20.5t48 -20.5t20 -48.5t-20 -48t-48 -20t-48.5 20t-20.5 48zM47 63q0 28 20.5 48.5t48.5 20.5t48 -20.5t20 -48.5t-20 -48t-48 -20t-48.5 20
t-20.5 48z" />
    <glyph glyph-name="perthousand" unicode="&#x2030;" horiz-adv-x="1081" 
d="M1033 151q0 -68 -42 -112t-105 -44t-104 45t-41 111q0 75 40 115.5t105 40.5q64 0 105.5 -41.5t41.5 -114.5zM956 151q0 93 -70 93q-66 0 -66 -93q0 -92 66 -92q34 0 52 24.5t18 67.5zM703 700l-560 -700h-96l560 700h96zM357 548q0 -68 -42 -111.5t-105 -43.5t-104 44.5
t-41 110.5q0 76 40 116.5t105 40.5q64 0 105.5 -41.5t41.5 -115.5zM280 548q0 93 -70 93q-66 0 -66 -93q0 -92 66 -92q34 0 52 25t18 67zM686 151q0 -68 -42.5 -112t-104.5 -44q-63 0 -104 44.5t-41 111.5q0 75 39.5 115.5t105.5 40.5q64 0 105.5 -41.5t41.5 -114.5z
M609 151q0 93 -70 93q-66 0 -66 -93q0 -92 66 -92q34 0 52 24.5t18 67.5z" />
    <glyph glyph-name="guilsinglleft" unicode="&#x2039;" horiz-adv-x="335" 
d="M169 230l151 -192l-50 -44l-220 236l220 236l50 -45z" />
    <glyph glyph-name="guilsinglright" unicode="&#x203a;" horiz-adv-x="330" 
d="M166 230l-151 191l50 45l220 -236q-146 -158 -220 -236q-2 2 -50 44z" />
    <glyph glyph-name="fraction" unicode="&#x2044;" horiz-adv-x="751" 
d="M703 700l-560 -700h-96l560 700h96z" />
    <glyph glyph-name="Euro" unicode="&#x20ac;" horiz-adv-x="714" 
d="M413 715q128 0 233 -46l-42 -107q-104 38 -180 38q-68 0 -119.5 -36t-75.5 -101h332q-6 -19 -25 -82h-326q-1 -11 -1 -32v-26h311l-25 -82h-269q23 -69 75 -104.5t124 -35.5q83 0 197 76l55 -97q-131 -95 -264 -95q-141 0 -227 68t-113 188h-51v82h41q-1 9 -1 26
q0 21 1 32h-41v82h53q29 117 116 184.5t222 67.5z" />
    <glyph glyph-name="afii61352" unicode="&#x2116;" horiz-adv-x="1084" 
d="M1047 378q0 -67 -41.5 -110t-103.5 -43t-102 44t-40 109q0 74 39 114t103 40q63 0 104 -41t41 -113zM972 378q0 41 -18 64.5t-52 23.5q-65 0 -65 -88q0 -87 65 -87q34 0 52 24t18 63zM1050 101h-294v70h294v-70zM685 700v-700h-105l-370 460v-460h-120v700h105l370 -461
v461h120z" />
    <glyph glyph-name="trademark" unicode="&#x2122;" horiz-adv-x="914" 
d="M371 623h-124v-293h-96v293h-124v77h344v-77zM883 330h-103l-13 271l-99 -271h-77l-99 270l-11 -270h-79l14 370h125l94 -263l92 263h141z" />
    <glyph glyph-name="partialdiff" unicode="&#x2202;" horiz-adv-x="569" 
d="M415 308q0 47 -10 78q-35 11 -78 11q-78 0 -125.5 -57.5t-47.5 -144.5q0 -60 29 -92t82 -32q68 0 109 70.5t41 166.5zM396 477q-19 79 -83.5 115t-167.5 46v86q188 -3 290.5 -108.5t102.5 -298.5q0 -142 -84.5 -237t-200.5 -95q-100 0 -161 56t-61 154q0 138 85 215.5
t208 77.5q42 0 72 -11z" />
    <glyph glyph-name="uni2206" unicode="&#x2206;" horiz-adv-x="739" 
d="M699 0h-659q49 118 146.5 355t146.5 355h41zM345 549l-192 -474h406q-39 84 -110.5 243.5t-103.5 230.5z" />
    <glyph glyph-name="minus" unicode="&#x2212;" horiz-adv-x="640" 
d="M590 257h-540v75h540v-75z" />
    <glyph glyph-name="radical" unicode="&#x221a;" horiz-adv-x="615" 
d="M615 702h-118l-183 -739h-97l-136 390h-81v83h160l107 -326l165 675h183v-83z" />
    <glyph glyph-name="infinity" unicode="&#x221e;" horiz-adv-x="823" 
d="M773 289q0 -77 -47.5 -122.5t-125.5 -45.5q-98 0 -188 109q-92 -109 -188 -109q-79 0 -126.5 45.5t-47.5 122.5t48 122.5t126 45.5q98 0 188 -110q90 110 188 110q78 0 125.5 -45.5t47.5 -122.5zM224 381q-43 0 -70.5 -23.5t-27.5 -68.5q0 -46 27.5 -69.5t70.5 -23.5
q39 0 66 20.5t71 72.5q-29 34 -45 49.5t-40.5 29t-51.5 13.5zM697 289q0 45 -27.5 68.5t-69.5 23.5q-27 0 -51 -13t-39 -28t-48 -51q29 -33 45.5 -49.5t41.5 -30t51 -13.5q42 0 69.5 23.5t27.5 69.5z" />
    <glyph glyph-name="approxequal" unicode="&#x2248;" horiz-adv-x="712" 
d="M662 293v-84q-61 -53 -97 -67t-83 -14q-37 0 -125.5 36.5t-126.5 36.5q-45 0 -86.5 -19t-93.5 -62v84q88 73 180 73q39 0 128 -36.5t124 -36.5q43 0 79 17t101 72zM662 463v-84q-61 -53 -97 -67t-83 -14q-37 0 -125.5 36.5t-126.5 36.5q-45 0 -86.5 -19t-93.5 -62v84
q88 73 180 73q39 0 128 -36.5t124 -36.5q43 0 79 17t101 72z" />
    <glyph glyph-name="notequal" unicode="&#x2260;" horiz-adv-x="640" 
d="M340 410l64 130l69 -33l-49 -97h165v-75h-201l-49 -97h250v-75h-286l-70 -141l-66 33l52 108h-169v75h206l47 97h-253v75h290z" />
    <glyph glyph-name="lessequal" unicode="&#x2264;" horiz-adv-x="523" 
d="M28 213v87l445 -255v-87zM473 85l-451 261l451 260v-87l-301 -173l301 -174v-87z" />
    <glyph glyph-name="greaterequal" unicode="&#x2265;" horiz-adv-x="523" 
d="M472 300v-87l-445 -255v87zM479 346l-452 -261v87l302 174l-302 173v87z" />
    <glyph glyph-name="lozenge" unicode="&#x25ca;" horiz-adv-x="509" 
d="M254 700l212 -350l-212 -350q-44 71 -213 350q169 279 213 350zM254 144l124 206l-124 206l-125 -206q57 -95 125 -206z" />
    <glyph glyph-name="one.onum" 
d="M227 330l-99 -54l-42 74l209 137h67v-387h100v-100h-336v100h101v230z" />
    <glyph glyph-name="zero.onum" 
d="M275 -15q-123 0 -185 73t-62 178t62 178t185 73t184.5 -73t61.5 -178t-61.5 -178t-184.5 -73zM275 90q113 0 113 146t-113 146q-114 0 -114 -146t114 -146z" />
    <glyph glyph-name="two.onum" 
d="M489 0h-413v56q144 108 199 163t55 93q0 28 -18 49t-52 21q-53 0 -141 -69l-59 78q105 96 231 96q91 0 139 -42.5t48 -99.5q0 -64 -36.5 -114.5t-141.5 -128.5h189v-102z" />
    <glyph glyph-name="three.onum" 
d="M298 487q94 0 136.5 -44.5t42.5 -103.5q0 -117 -148 -173q81 -7 128 -51t47 -112q0 -91 -70 -152t-200 -61q-99 0 -189 60l48 96q79 -44 130 -44q34 0 62.5 8t52 33t23.5 65q0 39 -27 61.5t-69 22.5q-32 0 -62 -10l-35 87q44 18 62.5 26t46.5 22.5t39 25.5t20 27.5
t9 35.5q0 31 -20.5 49t-56.5 18q-72 0 -138 -66l-68 80q103 100 236 100z" />
    <glyph glyph-name="four.onum" 
d="M534 99v-99h-90v-138l-136 -72v210h-286v59l331 413h91v-373h90zM158 99h150v190z" />
    <glyph glyph-name="five.onum" 
d="M241 -210q-108 0 -194 56l48 94q80 -41 136 -41q57 0 100 28t43 91q0 57 -32.5 85.5t-90.5 28.5q-50 0 -88 -20l-58 52l61 308h326v-108h-234l-26 -131q28 5 54 5q92 0 155 -59.5t63 -157.5q0 -40 -13.5 -78t-42 -74t-82 -57.5t-125.5 -21.5z" />
    <glyph glyph-name="seven.onum" 
d="M243 -224l-125 34l224 549h-291v113h455v-49z" />
    <glyph glyph-name="eight.onum" 
d="M275 413q40 0 64.5 27t24.5 77q0 100 -89 100t-89 -100q0 -50 24.5 -77t64.5 -27zM275 82q106 0 106 115t-106 115t-106 -115t106 -115zM275 -15q-100 0 -170 53t-70 157q0 120 115 173q-47 21 -70.5 62.5t-23.5 91.5q0 89 57.5 141t161.5 52t161.5 -52t57.5 -141
q0 -50 -23.5 -91.5t-70.5 -62.5q115 -53 115 -173q0 -104 -70 -157t-170 -53z" />
    <glyph glyph-name="nine.onum" 
d="M39 247q0 105 63 171.5t163 66.5q132 0 188.5 -87.5t56.5 -255.5q0 -352 -268 -352q-99 0 -176 57l54 90q53 -39 116 -39q53 0 91.5 40t44.5 128q-66 -41 -127 -41q-101 0 -153.5 62.5t-52.5 159.5zM165 251q0 -61 31 -93t80 -32q19 0 47.5 11t48.5 25v54
q0 82 -23.5 124.5t-80.5 42.5q-49 0 -76 -35.5t-27 -96.5z" />
    <glyph glyph-name="six.onum" 
d="M510 222q0 -105 -64.5 -171t-164.5 -66q-129 0 -185 84.5t-56 245.5q0 196 63 298t208 102q103 0 175 -57l-55 -90q-53 39 -116 39q-62 0 -96 -44t-41 -160q59 41 128 41q102 0 153 -61.5t51 -160.5zM384 219q0 61 -30.5 93t-79.5 32q-18 0 -47.5 -11.5t-49.5 -25.5v-31
q0 -96 20.5 -143t81.5 -47q49 0 77 36t28 97z" />
    <glyph glyph-name="commaaccent" horiz-adv-x="269" 
d="M68 -87q0 26 21 46.5t48 20.5q32 0 54 -22.5t22 -58.5q0 -10 -2.5 -21t-6 -20.5t-9.5 -21t-11 -20.5t-13.5 -20.5t-13.5 -18.5t-14 -17.5t-12.5 -14.5t-11 -12.5t-8.5 -9.5l-43 25l58 102q-24 3 -41 21t-17 42z" />
    </font>
</defs>
</svg>
