<?xml version="1.0" standalone="no"?>
<!DOCTYPE svg PUBLIC "-//W3C//DTD SVG 1.1//EN" "http://www.w3.org/Graphics/SVG/1.1/DTD/svg11.dtd" >
<svg>
<metadata>
Created by FontForge 20090622 at Wed Aug  5 09:20:55 2015
 By deploy user
Copyright (c) 2010 by Letterhead Studio. All rights reserved.
</metadata>
<defs>
<font id="ConquerorSans-UltraLight" horiz-adv-x="500" >
  <font-face 
    font-family="Conqueror Sans UltraLight"
    font-weight="250"
    font-stretch="normal"
    units-per-em="1000"
    panose-1="2 0 5 3 3 0 0 2 0 3"
    ascent="750"
    descent="-250"
    x-height="472"
    cap-height="700"
    bbox="-62 -296 980 935"
    underline-thickness="50"
    underline-position="-50"
    unicode-range="U+0020-U+FB02"
  />
<missing-glyph horiz-adv-x="110" 
 />
    <glyph glyph-name="fi" unicode="fi" horiz-adv-x="411" 
d="M226 715q63 0 98.5 -26t35.5 -70q0 -17 -13 -30t-31 -13q-17 0 -30 13t-13 30q0 22 15 25q-22 25 -61 25q-32 0 -60 -21t-28 -55v-121h207v-472h-58v418h-149v-418h-59v418h-60v54h60v94q0 74 44 111.5t102 37.5z" />
    <glyph glyph-name="fl" unicode="fl" horiz-adv-x="410" 
d="M346 700v-700h-58v417h-150v-417h-58v417h-60v55h60v94q0 147 138 147q30 0 128 -13zM138 472h150v181q-44 12 -76 12q-30 0 -52 -19t-22 -54v-120z" />
    <glyph glyph-name=".notdef" horiz-adv-x="110" 
 />
    <glyph glyph-name=".null" horiz-adv-x="0" 
 />
    <glyph glyph-name="nonmarkingreturn" horiz-adv-x="333" 
 />
    <glyph glyph-name="space" unicode=" " horiz-adv-x="275" 
 />
    <glyph glyph-name="exclam" unicode="!" horiz-adv-x="201" 
d="M50 45q0 20 15.5 35.5t35.5 15.5t35 -15.5t15 -35.5t-15 -35t-35 -15t-35.5 15t-15.5 35zM120 171h-36l-26 529h86z" />
    <glyph glyph-name="quotedbl" unicode="&#x22;" horiz-adv-x="415" 
d="M365 671q0 -21 -14 -38l-127 -155l-22 14l75 179q16 41 46 41q16 0 29 -10t13 -31zM217 671q0 -21 -14 -38l-127 -155l-22 14l75 179q16 41 46 41q16 0 29 -10t13 -31z" />
    <glyph glyph-name="numbersign" unicode="#" horiz-adv-x="694" 
d="M644 426h-140l-53 -152h151v-41h-163l-78 -233h-47l78 233h-167l-77 -233h-46l79 233h-131v41h144l51 152h-145v41h158l83 233h47l-83 -233h168l80 233h46l-82 -233h127v-41zM292 426l-53 -152h165l54 152h-166z" />
    <glyph glyph-name="dollar" unicode="$" 
d="M221 -84h-45l11 76q-66 13 -147 70l31 51q73 -48 126 -61l41 286q-39 18 -62 31.5t-50.5 36.5t-40.5 53t-13 68q0 82 53 135t168 53l9 62h45l-10 -67q53 -8 111 -34l-26 -56q-66 24 -94 29l-39 -262q40 -19 64 -33t52 -38t41.5 -56.5t13.5 -73.5q0 -85 -56.5 -143
t-162.5 -58q-2 0 -5.5 0.5t-4.5 0.5zM396 178q0 49 -30 80.5t-86 59.5l-40 -273q73 0 114.5 34t41.5 99zM133 537q0 -46 29.5 -74.5t85.5 -56.5l37 248q-61 0 -106.5 -28.5t-45.5 -88.5z" />
    <glyph glyph-name="percent" unicode="%" horiz-adv-x="645" 
d="M538 148q0 111 -85 111q-83 0 -83 -111t83 -111q85 0 85 111zM584 148q0 -68 -35.5 -110.5t-95.5 -42.5t-94.5 42t-34.5 111q0 72 34 112.5t95 40.5t96 -40.5t35 -112.5zM321 551q0 -68 -35.5 -110.5t-94.5 -42.5q-61 0 -95.5 42t-34.5 111q0 72 34.5 112.5t95.5 40.5
q60 0 95 -40.5t35 -112.5zM276 551q0 111 -85 111q-83 0 -83 -111t83 -111q85 0 85 111zM595 700l-493 -700h-52l493 700h52z" />
    <glyph glyph-name="ampersand" unicode="&#x26;" horiz-adv-x="666" 
d="M262 -15q-88 0 -150 63t-62 152q0 73 36.5 122t125.5 89q-73 99 -73 157q0 70 45 108.5t122 38.5q90 0 159 -40l-27 -55q-79 36 -143 36q-48 0 -71 -23t-23 -61q0 -21 12.5 -47.5t25.5 -44.5l37 -49l202 -257q62 110 62 254h60q0 -179 -84 -303l99 -125h-86l-57 73
q-86 -88 -210 -88zM285 41q86 0 153 77l-191 249q-66 -25 -100.5 -71t-34.5 -96q0 -72 50.5 -115.5t122.5 -43.5z" />
    <glyph glyph-name="quotesingle" unicode="'" horiz-adv-x="267" 
d="M217 671q0 -21 -14 -38l-127 -155l-22 14l75 179q16 41 46 41q16 0 29 -10t13 -31z" />
    <glyph glyph-name="parenleft" unicode="(" horiz-adv-x="369" 
d="M110 269q0 -137 59.5 -238t179.5 -192l-25 -41q-274 170 -274 471t274 471l25 -41q-120 -91 -179.5 -192t-59.5 -238z" />
    <glyph glyph-name="parenright" unicode=")" horiz-adv-x="369" 
d="M259 269q0 137 -59.5 238t-179.5 192l25 41q274 -170 274 -471t-274 -471l-25 41q120 91 179.5 192t59.5 238z" />
    <glyph glyph-name="asterisk" unicode="*" horiz-adv-x="418" 
d="M372 563l-130 -36l84 -107l-42 -31l-75 114l-75 -114l-42 31l84 107l-130 36l16 50l127 -48l-6 135h52l-7 -135l128 48z" />
    <glyph glyph-name="plus" unicode="+" horiz-adv-x="640" 
d="M590 271h-247v-247h-46v247h-247v46h247v247h46v-247h247v-46z" />
    <glyph glyph-name="comma" unicode="," horiz-adv-x="206" 
d="M160 31q0 -50 -92 -168l-31 18l61 114q-20 2 -33.5 16t-13.5 34t15.5 35.5t35.5 15.5q25 0 41.5 -17.5t16.5 -47.5z" />
    <glyph glyph-name="hyphen" unicode="-" horiz-adv-x="290" 
d="M260 231h-230v46h230v-46z" />
    <glyph glyph-name="period" unicode="." horiz-adv-x="201" 
d="M50 45q0 20 15.5 35.5t35.5 15.5t35 -15.5t15 -35.5t-15 -35t-35 -15t-35.5 15t-15.5 35z" />
    <glyph glyph-name="slash" unicode="/" horiz-adv-x="478" 
d="M53 -200h-53l425 922h53z" />
    <glyph glyph-name="zero" unicode="0" 
d="M470 350q0 -165 -53 -265t-167 -100t-167 100t-53 265t53 265t167 100t167 -100t53 -265zM403 350q0 156 -37.5 230.5t-115.5 74.5t-115.5 -74.5t-37.5 -230.5t37.5 -230.5t115.5 -74.5t115.5 74.5t37.5 230.5z" />
    <glyph glyph-name="one" unicode="1" 
d="M398 0h-264v60h100v546l-107 -70l-26 43l173 121h24v-640h100v-60z" />
    <glyph glyph-name="two" unicode="2" 
d="M444 0h-374v23l224 310q82 112 82 195q0 128 -134 128q-76 0 -148 -77l-39 45q88 91 201 91q93 0 140 -51t47 -127q0 -61 -25 -115.5t-70 -116.5l-175 -241h271v-64z" />
    <glyph glyph-name="three" unicode="3" 
d="M275 715q82 0 119.5 -47t37.5 -106q0 -62 -38 -111t-103 -78q75 -10 119.5 -57.5t44.5 -113.5q0 -90 -60.5 -153.5t-170.5 -63.5q-92 0 -182 60l30 53q74 -53 149 -53q69 0 117.5 42t48.5 114q0 53 -41 88t-99 35q-27 0 -55 -12l-25 54q101 42 151 87.5t50 100.5
q0 42 -24.5 71.5t-82.5 29.5q-85 0 -152 -81l-40 45q45 46 91 71t115 25z" />
    <glyph glyph-name="four" unicode="4" 
d="M473 249v-58h-87v-191h-64v191h-290v26l331 497h23v-465h87zM118 249h204v309z" />
    <glyph glyph-name="five" unicode="5" 
d="M218 -15q-87 0 -170 55l31 54q41 -26 69.5 -37.5t66.5 -11.5q29 0 57.5 9t55.5 28t43.5 54.5t16.5 83.5q0 69 -39 113.5t-108 44.5q-70 0 -104 -35l-40 30l62 327h286v-60h-237l-42 -222q31 20 86 20q87 0 143.5 -58.5t56.5 -156.5q0 -28 -5.5 -57t-22 -62.5t-41 -59
t-67.5 -42.5t-98 -17z" />
    <glyph glyph-name="six" unicode="6" 
d="M453 220q0 -108 -56.5 -171.5t-145.5 -63.5q-60 0 -101 23.5t-63 69t-31 101t-9 130.5q0 68 6 123.5t22 110t42 91t69.5 59t101.5 22.5q91 0 146 -46l-32 -52q-47 38 -116 38q-89 0 -126.5 -66t-45.5 -208q67 61 149 61q96 0 143 -61.5t47 -160.5zM392 219
q0 166 -137 166q-69 0 -144 -65v-36q0 -116 31.5 -177.5t107.5 -61.5q73 0 107.5 50t34.5 124z" />
    <glyph glyph-name="seven" unicode="7" 
d="M172 0h-65l261 640h-312v60h393v-22z" />
    <glyph glyph-name="eight" unicode="8" 
d="M250 -15q-82 0 -144.5 51.5t-62.5 151.5q0 61 31 108t85 69q-43 19 -70 64t-27 92q0 90 53.5 142t134.5 52t134.5 -52t53.5 -142q0 -47 -27 -92t-70 -64q54 -22 85 -69t31 -108q0 -100 -62.5 -151.5t-144.5 -51.5zM250 333q-63 0 -103 -38.5t-40 -106.5q0 -36 10.5 -63
t25.5 -42t35.5 -24t37.5 -11.5t34 -2.5t34 2.5t37.5 11.5t35.5 24t25.5 42t10.5 63q0 68 -40 106.5t-103 38.5zM250 655q-57 0 -90.5 -35.5t-33.5 -98.5q0 -58 35.5 -93t88.5 -35t88.5 35t35.5 93q0 63 -33.5 98.5t-90.5 35.5z" />
    <glyph glyph-name="nine" unicode="9" 
d="M46 480q0 108 56 171.5t145 63.5q49 0 85.5 -16.5t59.5 -45t36.5 -71.5t19 -90.5t5.5 -108.5q0 -67 -6 -121.5t-22 -107.5t-42 -89t-69 -58t-101 -22q-88 0 -146 45q26 45 31 52q46 -37 117 -37q89 0 127 66t44 208q-68 -62 -149 -62q-95 0 -143 62.5t-48 160.5zM108 481
q0 -75 32.5 -121t104.5 -46q68 0 143 65v46q0 230 -140 230q-73 0 -106.5 -49.5t-33.5 -124.5z" />
    <glyph glyph-name="colon" unicode=":" horiz-adv-x="201" 
d="M50 349q0 20 15.5 35.5t35.5 15.5t35 -15.5t15 -35.5t-15 -35t-35 -15t-35.5 15t-15.5 35zM50 45q0 20 15.5 35.5t35.5 15.5t35 -15.5t15 -35.5t-15 -35t-35 -15t-35.5 15t-15.5 35z" />
    <glyph glyph-name="semicolon" unicode=";" horiz-adv-x="214" 
d="M55 349q0 20 15.5 35.5t35.5 15.5q21 0 35.5 -15t14.5 -36q0 -20 -14.5 -35t-35.5 -15q-20 0 -35.5 15t-15.5 35zM164 31q0 -50 -92 -168l-31 18l61 114q-20 2 -33.5 16t-13.5 34t15.5 35.5t35.5 15.5q25 0 41.5 -17.5t16.5 -47.5z" />
    <glyph glyph-name="less" unicode="&#x3c;" horiz-adv-x="519" 
d="M469 43l-439 253l439 253v-54l-346 -199l346 -199v-54z" />
    <glyph glyph-name="equal" unicode="=" horiz-adv-x="640" 
d="M590 175h-540v46h540v-46zM590 347h-540v46h540v-46z" />
    <glyph glyph-name="greater" unicode="&#x3e;" horiz-adv-x="519" 
d="M489 296l-439 -253v54l345 199l-345 199v54z" />
    <glyph glyph-name="question" unicode="?" horiz-adv-x="405" 
d="M355 542q0 -43 -19.5 -78t-47.5 -59l-56.5 -48t-48 -57.5t-19.5 -75.5q0 -25 7 -53h-36q-24 42 -24 83q0 37 19 70.5t46 58.5l53.5 49t45.5 52t19 56q0 49 -28 74.5t-74 25.5q-60 0 -132 -33l-22 56q85 37 152 37q49 0 84.5 -17.5t51.5 -44.5t22.5 -50.5t6.5 -45.5z
M104 45q0 20 15.5 35.5t35.5 15.5q21 0 35.5 -15t14.5 -36q0 -20 -14.5 -35t-35.5 -15q-20 0 -35.5 15t-15.5 35z" />
    <glyph glyph-name="at" unicode="@" horiz-adv-x="824" 
d="M500 349q-106 0 -178.5 -75.5t-72.5 -143.5q0 -42 15 -62t37 -20q53 0 100.5 55.5t72 124t26.5 121.5zM779 282q0 -70 -25.5 -126t-66.5 -89t-88.5 -50t-97.5 -17v188q-32 -85 -87 -139t-121 -54q-42 0 -70 31.5t-28 103.5q0 108 103.5 192.5t256.5 84.5v-349
q63 9 118 68t55 154q0 56 -22.5 97t-61 63.5t-82 32.5t-92.5 10q-67 0 -132 -21.5t-120 -62.5t-89 -108t-34 -150q0 -140 76 -207.5t191 -67.5q60 0 133.5 17.5t125.5 48.5l16 -49q-63 -32 -138.5 -49.5t-136.5 -17.5q-151 0 -234 87.5t-83 237.5q0 113 61.5 204.5
t158 139.5t205.5 48q144 0 226.5 -67.5t82.5 -183.5z" />
    <glyph glyph-name="A" unicode="A" horiz-adv-x="590" 
d="M253 700h84l241 -700h-68l-70 203h-293l-71 -203h-64zM294 630l-127 -367h252z" />
    <glyph glyph-name="B" unicode="B" horiz-adv-x="532" 
d="M485 191q0 -92 -60 -141.5t-146 -49.5h-201v700h201q78 0 131 -43.5t53 -125.5q0 -56 -30.5 -102.5t-86.5 -64.5q61 -14 100 -61t39 -112zM421 191q0 67 -43 104t-112 37h-124v-272h124q71 0 113 32.5t42 98.5zM398 521q0 119 -140 119h-116v-248h116q67 0 103.5 33.5
t36.5 95.5z" />
    <glyph glyph-name="C" unicode="C" horiz-adv-x="615" 
d="M370 715q106 0 191 -38l-24 -59q-50 20 -84 28.5t-83 8.5q-121 0 -191.5 -84t-70.5 -221q0 -143 69.5 -224t192.5 -81q49 0 92.5 19.5t98.5 56.5l28 -51q-110 -85 -219 -85q-161 0 -245.5 101t-84.5 264q0 102 35 183t111.5 131.5t183.5 50.5z" />
    <glyph glyph-name="D" unicode="D" horiz-adv-x="627" 
d="M78 700h201q66 0 119.5 -21t88 -56t57.5 -81t33 -94t10 -98t-10 -98t-33 -94t-57.5 -81t-88 -56t-119.5 -21h-201v700zM142 60h122q129 0 192 77t63 213t-63 213t-192 77h-122v-580z" />
    <glyph glyph-name="E" unicode="E" horiz-adv-x="469" 
d="M391 392v-60h-249v-272h284v-60h-348v700h337v-60h-273v-248h249z" />
    <glyph glyph-name="F" unicode="F" horiz-adv-x="428" 
d="M391 390v-60h-249v-330h-64v700h337v-60h-273v-250h249z" />
    <glyph glyph-name="G" unicode="G" horiz-adv-x="650" 
d="M370 715q120 0 206 -37l-24 -59q-101 36 -182 36q-112 0 -187 -85.5t-75 -219.5q0 -140 74 -222.5t188 -82.5q82 0 174 57v229h70v-257q-36 -24 -60.5 -38.5t-78 -32.5t-105.5 -18q-161 0 -245.5 101t-84.5 264q0 102 35 183t111.5 131.5t183.5 50.5z" />
    <glyph glyph-name="H" unicode="H" horiz-adv-x="670" 
d="M592 0h-64v332h-386v-332h-64v700h64v-308h386v308h64v-700z" />
    <glyph glyph-name="I" unicode="I" horiz-adv-x="220" 
d="M142 0h-64v700h64v-700z" />
    <glyph glyph-name="J" unicode="J" horiz-adv-x="250" 
d="M108 34v666h64v-666q0 -112 -50.5 -168.5t-161.5 -59.5v59q32 1 55 7t46 23t35 52t12 87z" />
    <glyph glyph-name="K" unicode="K" horiz-adv-x="567" 
d="M540 0h-79l-216 332h-103v-332h-64v700h64v-308h96l219 308h78l-238 -334z" />
    <glyph glyph-name="L" unicode="L" horiz-adv-x="470" 
d="M453 60v-60h-375v700h64v-640h311z" />
    <glyph glyph-name="M" unicode="M" horiz-adv-x="843" 
d="M775 0h-65l-24 637l-240 -637h-52l-233 637l-31 -637h-62l38 700h100l217 -591l225 591h97z" />
    <glyph glyph-name="N" unicode="N" horiz-adv-x="696" 
d="M618 700v-700h-47l-433 575v-575h-60v700h47l433 -576v576h60z" />
    <glyph glyph-name="O" unicode="O" horiz-adv-x="736" 
d="M368 -15q-151 0 -239.5 107.5t-88.5 257.5t88.5 257.5t239.5 107.5t239.5 -107.5t88.5 -257.5t-88.5 -257.5t-239.5 -107.5zM368 45q114 0 189 84.5t75 220.5t-75 220.5t-189 84.5t-189 -84.5t-75 -220.5q0 -135 75.5 -220t188.5 -85z" />
    <glyph glyph-name="P" unicode="P" horiz-adv-x="495" 
d="M142 640v-297h90q79 0 122.5 39.5t43.5 107.5q0 69 -44 109.5t-122 40.5h-90zM142 283v-283h-64v700h172q88 0 153 -56.5t65 -153.5t-65 -152t-153 -55h-108z" />
    <glyph glyph-name="Q" unicode="Q" horiz-adv-x="744" 
d="M44 350q0 152 88 258.5t240 106.5t240 -106.5t88 -258.5q0 -129 -65.5 -228.5t-180.5 -124.5l293 -112l-24 -56l-445 169q-110 35 -172 131t-62 221zM636 350q0 138 -74.5 221.5t-189.5 83.5t-189.5 -83.5t-74.5 -221.5t75 -221.5t189 -83.5q115 0 189.5 83.5t74.5 221.5
z" />
    <glyph glyph-name="R" unicode="R" horiz-adv-x="540" 
d="M138 289v-289h-64v700h182q88 0 153 -57.5t65 -155.5q0 -68 -37 -115t-99 -72l174 -300h-74l-168 289h-132zM138 640v-291h100q80 0 123 35.5t43 102.5q0 69 -44 111t-122 42h-100z" />
    <glyph glyph-name="S" unicode="S" horiz-adv-x="502" 
d="M468 186q0 -85 -59.5 -143t-168.5 -58q-94 0 -204 77l31 51q101 -68 182 -68q68 0 107.5 35.5t39.5 97.5q0 41 -24.5 72.5t-61.5 49.5l-80 39.5t-80 42.5t-61.5 58.5t-24.5 86.5q0 81 57 134.5t172 53.5q77 0 161 -39l-26 -59q-87 35 -151 35q-62 0 -103 -29t-41 -86
q0 -45 34.5 -77.5t83.5 -54t98.5 -46t84 -68t34.5 -105.5z" />
    <glyph glyph-name="T" unicode="T" horiz-adv-x="558" 
d="M540 700v-60h-229v-640h-64v640h-229v60h522z" />
    <glyph glyph-name="U" unicode="U" horiz-adv-x="657" 
d="M329 45q97 0 143 48.5t46 127.5v480h64v-480q0 -114 -68 -175t-185 -61t-185.5 61t-68.5 175v480h64v-480q0 -78 47 -127t143 -49z" />
    <glyph glyph-name="V" unicode="V" horiz-adv-x="644" 
d="M12 700h71l239 -588l243 588h67l-288 -700h-44z" />
    <glyph glyph-name="W" unicode="W" horiz-adv-x="891" 
d="M427 700h39l183 -557l165 557h64l-207 -700h-41l-185 559l-185 -559h-41l-207 700h69l164 -558z" />
    <glyph glyph-name="X" unicode="X" horiz-adv-x="573" 
d="M101 0h-71l218 348l-220 352h76l183 -292l184 292h71l-220 -348l222 -352h-76l-184 291z" />
    <glyph glyph-name="Y" unicode="Y" horiz-adv-x="551" 
d="M12 700h71l194 -373l194 373h68l-232 -443v-257h-64v258z" />
    <glyph glyph-name="Z" unicode="Z" horiz-adv-x="551" 
d="M512 0h-481v26l390 614h-364v60h463v-26l-390 -614h382v-60z" />
    <glyph glyph-name="bracketleft" unicode="[" horiz-adv-x="239" 
d="M219 -196h-169v936h169v-52h-113v-832h113v-52z" />
    <glyph glyph-name="backslash" unicode="\" horiz-adv-x="478" 
d="M478 -176h-53l-425 898h53z" />
    <glyph glyph-name="bracketright" unicode="]" horiz-adv-x="239" 
d="M189 -196h-169v52h113v832h-113v52h169v-936z" />
    <glyph glyph-name="asciicircum" unicode="^" horiz-adv-x="466" 
d="M426 549h-58l-135 141l-135 -141h-58l183 191h20z" />
    <glyph glyph-name="underscore" unicode="_" horiz-adv-x="532" 
d="M532 -84h-532v46h532v-46z" />
    <glyph glyph-name="grave" unicode="`" horiz-adv-x="278" 
d="M192 544l-131 162h74l98 -162h-41z" />
    <glyph glyph-name="a" unicode="a" horiz-adv-x="466" 
d="M348 0v75q-90 -86 -180 -86q-57 0 -93.5 34.5t-36.5 91.5q0 165 310 180q0 82 -31 110.5t-86 28.5q-63 0 -147 -30l-17 52q92 32 174 32q165 0 165 -201v-287h-58zM183 42q67 0 165 92v111q-72 -3 -126 -15.5t-90 -40.5t-36 -70q0 -35 23 -56t64 -21z" />
    <glyph glyph-name="b" unicode="b" horiz-adv-x="525" 
d="M230 -15q-77 0 -166 49v666h58v-266q72 54 149 54q92 0 153 -68t61 -168q0 -125 -72.5 -196t-182.5 -71zM224 39q202 0 202 211q0 48 -16.5 85.5t-42.5 57.5t-53.5 30t-53.5 10q-74 0 -138 -57v-309q48 -28 102 -28z" />
    <glyph glyph-name="c" unicode="c" horiz-adv-x="470" 
d="M421 98l27 -46q-96 -67 -179 -67q-102 0 -165.5 63t-63.5 188q0 116 68.5 184t169.5 68q66 0 142 -19l-13 -54q-71 19 -128 19q-84 0 -131 -50t-47 -148q0 -92 46 -144t122 -52q69 0 152 58z" />
    <glyph glyph-name="d" unicode="d" horiz-adv-x="532" 
d="M468 0h-58v67q-76 -82 -163 -82q-86 0 -146.5 64t-60.5 188q0 116 69 183.5t156 67.5q79 0 145 -39v251h58v-700zM410 127v261q-36 25 -65.5 35.5t-71.5 10.5q-21 0 -43 -5.5t-46 -20t-42.5 -35.5t-30.5 -56.5t-12 -79.5q0 -97 44 -146.5t113 -49.5q78 0 154 86z" />
    <glyph glyph-name="e" unicode="e" horiz-adv-x="478" 
d="M446 241h-346q0 -201 175 -201q58 0 131 53q4 -9 13.5 -23.5t12.5 -21.5q-26 -19 -43.5 -30t-51 -22t-68.5 -11q-98 0 -163.5 61.5t-65.5 179.5q0 126 64.5 194t146.5 68q195 0 195 -247zM254 433q-124 0 -150 -145h282q-4 69 -34 107t-98 38z" />
    <glyph glyph-name="f" unicode="f" horiz-adv-x="276" 
d="M139 0h-59v418h-60v54h60v106q0 137 118 137q45 0 116 -19l-17 -52q-63 20 -96 20q-62 0 -62 -66v-126h117v-54h-117v-418z" />
    <glyph glyph-name="g" unicode="g" horiz-adv-x="485" 
d="M454 454l-81 -30q49 -42 49 -113q0 -179 -259 -226v-4q280 -10 280 -136q0 -67 -62.5 -111t-163.5 -44q-95 0 -139 38t-44 87q0 41 31 69t101 56l-93 12v48q130 30 169 45l-1 6q-83 0 -132.5 44t-49.5 116q0 75 51.5 126t129.5 51q53 0 94 -25l120 46v-55zM117 311
q0 -56 32.5 -89.5t90.5 -33.5q59 0 91.5 32.5t32.5 90.5q0 52 -33 89t-91 37q-57 0 -90 -37t-33 -89zM217 -160q78 0 123 26.5t45 71.5q0 35 -32.5 56t-114.5 31q-149 -45 -149 -108q0 -34 33.5 -55.5t94.5 -21.5z" />
    <glyph glyph-name="h" unicode="h" horiz-adv-x="516" 
d="M122 700v-285q74 71 156 71q76 0 128.5 -53.5t52.5 -158.5v-274h-58v274q0 78 -38.5 117.5t-94.5 39.5q-35 0 -78 -22t-68 -53v-356h-58v700h58z" />
    <glyph glyph-name="i" unicode="i" horiz-adv-x="186" 
d="M92 592q-17 0 -30 13t-13 30q0 18 13 31t30 13q19 0 31.5 -13t12.5 -31q0 -17 -13 -30t-31 -13zM123 472v-472h-58v472h58z" />
    <glyph glyph-name="j" unicode="j" horiz-adv-x="192" 
d="M128 472v-466q0 -190 -170 -200v54q60 5 86 40.5t26 105.5v466h58zM98 592q-17 0 -30 13t-13 30q0 18 13 31t30 13q19 0 31.5 -13t12.5 -31q0 -17 -13 -30t-31 -13z" />
    <glyph glyph-name="k" unicode="k" horiz-adv-x="444" 
d="M426 472l-187 -194l182 -278h-68l-155 235l-76 -79v-156h-58v700h58v-474l233 246h71z" />
    <glyph glyph-name="l" unicode="l" horiz-adv-x="186" 
d="M122 700v-700h-58v700h58z" />
    <glyph glyph-name="m" unicode="m" horiz-adv-x="777" 
d="M422 352v-352h-59v299q0 40 -12 69t-31.5 42t-37 18t-35.5 5q-37 0 -71.5 -23.5t-53.5 -59.5v-350h-58v472h58v-60q52 75 133 75q50 0 83 -20t62 -61q71 81 154 81q71 0 118.5 -50t47.5 -138v-299h-58v299q0 40 -12 69t-31.5 42t-37 18t-35.5 5q-38 0 -71.5 -25
t-52.5 -56z" />
    <glyph glyph-name="n" unicode="n" horiz-adv-x="516" 
d="M122 472v-57q74 71 156 71q76 0 128.5 -53.5t52.5 -158.5v-274h-58v274q0 78 -38.5 117.5t-94.5 39.5q-36 0 -78.5 -21t-67.5 -54v-356h-58v472h58z" />
    <glyph glyph-name="o" unicode="o" horiz-adv-x="536" 
d="M268 -15q-101 0 -164.5 65.5t-63.5 185.5t63.5 185.5t164.5 65.5t164.5 -65.5t63.5 -185.5t-63.5 -185.5t-164.5 -65.5zM268 37q75 0 122.5 50t47.5 149t-47.5 149t-122.5 50t-122.5 -50t-47.5 -149q0 -98 47.5 -148.5t122.5 -50.5z" />
    <glyph glyph-name="p" unicode="p" horiz-adv-x="521" 
d="M64 472h58v-61q21 25 66 51t94 26q78 0 138.5 -62t60.5 -181q0 -65 -20.5 -117t-53.5 -82t-70 -45.5t-75 -15.5q-81 0 -140 35v-215h-58v667zM122 359v-285q47 -39 126 -39q28 0 55.5 10t55.5 31.5t45.5 65.5t17.5 103q0 99 -46.5 143.5t-112.5 44.5q-75 0 -141 -74z" />
    <glyph glyph-name="q" unicode="q" horiz-adv-x="507" 
d="M385 88v328q-30 20 -73 20q-32 0 -66.5 -10.5t-69 -31.5t-56.5 -62t-22 -95q0 -57 18.5 -99t46.5 -62t52.5 -29t44.5 -9q70 0 125 50zM385 -195v229q-54 -49 -129 -49q-87 0 -151.5 66.5t-64.5 183.5q0 82 42 141.5t101 85.5t125 26q38 0 77 -13l58 44v-714h-58z" />
    <glyph glyph-name="r" unicode="r" horiz-adv-x="320" 
d="M122 472v-148q20 72 60 109t113 55l15 -52q-188 -57 -188 -237v-199h-58v472h58z" />
    <glyph glyph-name="s" unicode="s" horiz-adv-x="410" 
d="M376 135q0 -45 -18.5 -77t-47.5 -46.5t-54 -20.5t-49 -6q-86 0 -173 66l26 48q78 -60 143 -60q114 0 114 86q0 33 -26.5 54.5t-64.5 33t-75.5 25t-64 41.5t-26.5 72q0 63 42 100.5t116 37.5q67 0 146 -33l-19 -51q-76 32 -137 32q-48 0 -70 -23t-22 -58q0 -31 27 -50
t65 -30.5t76 -25t65 -42t27 -73.5z" />
    <glyph glyph-name="t" unicode="t" horiz-adv-x="341" 
d="M300 85l20 -48q-86 -42 -133 -42q-28 0 -46.5 11.5t-27 33.5t-11 43t-2.5 50v286h-80v53h80v74l53 45h5v-119h159v-53h-159v-293q0 -42 10.5 -57.5t40.5 -15.5q29 0 91 32z" />
    <glyph glyph-name="u" unicode="u" horiz-adv-x="492" 
d="M428 472v-472h-58v76q-76 -87 -156 -87q-78 0 -117.5 48t-39.5 159v276h58v-276q0 -86 28 -117.5t89 -31.5q71 0 138 84v341h58z" />
    <glyph glyph-name="v" unicode="v" horiz-adv-x="467" 
d="M12 472h65l159 -376l160 376h61l-207 -472h-34z" />
    <glyph glyph-name="w" unicode="w" horiz-adv-x="661" 
d="M348 472l123 -348l116 348h61l-161 -472h-32l-124 342l-119 -342h-32l-168 472h62l124 -350l117 350h33z" />
    <glyph glyph-name="x" unicode="x" horiz-adv-x="433" 
d="M337 0l-124 185l-129 -185h-64l162 232l-160 240h67l128 -190l132 190h64l-165 -236l160 -236h-71z" />
    <glyph glyph-name="y" unicode="y" horiz-adv-x="475" 
d="M12 472h63l164 -391l164 391h60l-282 -667h-60l86 202z" />
    <glyph glyph-name="z" unicode="z" horiz-adv-x="467" 
d="M410 0h-370v21l281 397h-273v54h369v-20l-282 -398h275v-54z" />
    <glyph glyph-name="braceleft" unicode="{" horiz-adv-x="309" 
d="M86 272q62 -21 80 -66t18 -133v-110q0 -64 25 -89t80 -25v-46q-80 0 -120.5 43.5t-40.5 144.5v128q0 40 -9 67.5t-25 39.5t-27.5 16.5t-28.5 6.5v46q17 2 28.5 6.5t27.5 16.5t25 39.5t9 67.5v128q0 101 40.5 144.5t120.5 43.5v-46q-55 0 -80 -25t-25 -89v-110
q0 -88 -18 -133t-80 -66z" />
    <glyph glyph-name="bar" unicode="|" horiz-adv-x="146" 
d="M96 -296h-46v1036h46v-1036z" />
    <glyph glyph-name="braceright" unicode="}" horiz-adv-x="309" 
d="M223 272q-62 21 -80 66t-18 133v110q0 64 -25 89t-80 25v46q80 0 120.5 -43.5t40.5 -144.5v-128q0 -40 9 -67.5t25 -39.5t27.5 -16.5t28.5 -6.5v-46q-17 -2 -28.5 -6.5t-27.5 -16.5t-25 -39.5t-9 -67.5v-128q0 -101 -40.5 -144.5t-120.5 -43.5v46q55 0 80 25t25 89v110
q0 88 18 133t80 66z" />
    <glyph glyph-name="asciitilde" unicode="~" horiz-adv-x="651" 
d="M606 312q-69 -45 -98.5 -59t-71.5 -14q-40 0 -111.5 35t-110.5 35q-42 0 -72.5 -13t-96.5 -58v44q56 41 91.5 57t78.5 16q39 0 111 -35t111 -35q42 0 72.5 13t96.5 58v-44z" />
    <glyph glyph-name="uni00A0" unicode="&#xa0;" horiz-adv-x="275" 
 />
    <glyph glyph-name="exclamdown" unicode="&#xa1;" horiz-adv-x="201" 
d="M150 650q0 -20 -15.5 -35.5t-35.5 -15.5t-35 15.5t-15 35.5t15 35t35 15t35.5 -15t15.5 -35zM80 524h36l26 -529h-86z" />
    <glyph glyph-name="cent" unicode="&#xa2;" horiz-adv-x="470" 
d="M331 556l-11 -71q33 -2 99 -16l-13 -54q-51 13 -94 17l-58 -391q5 -1 15 -1q68 0 151 58l28 -47q-95 -65 -181 -65q-14 0 -21 1l-10 -71h-45l11 77q-75 17 -118.5 78t-43.5 165q0 115 67.5 182.5t168.5 69.5l10 68h45zM101 236q0 -74 29 -122.5t80 -65.5l57 385
q-78 -2 -122 -52.5t-44 -144.5z" />
    <glyph glyph-name="sterling" unicode="&#xa3;" 
d="M40 308v56h68l25 127q21 109 68 166.5t136 57.5q45 0 133 -16l-12 -61q-91 18 -140 18q-43 0 -73.5 -40t-50.5 -142l-23 -110h184v-56h-195l-48 -243q56 24 126 24q31 0 71 -7l146 -26l-12 -68l-161 33q-42 6 -92 6q-62 0 -110 -27h-42l59 308h-57z" />
    <glyph glyph-name="currency" unicode="&#xa4;" 
d="M148 287v-68h215v-52h-215v-167h-64v167h-54v52h54v68h-54v52h54v361h172q88 0 153 -56.5t65 -153.5t-64.5 -150t-153.5 -53h-108zM148 640v-301h90q78 0 122 41t44 110q0 68 -44 109t-122 41h-90z" />
    <glyph glyph-name="yen" unicode="&#xa5;" horiz-adv-x="551" 
d="M504 145h-197v-145h-63v145h-196v46h196v68l-11 20h-185v46h160l-196 375h71l194 -372l195 372h67l-197 -375h162v-46h-186l-11 -21v-67h197v-46z" />
    <glyph glyph-name="brokenbar" unicode="&#xa6;" horiz-adv-x="146" 
d="M96 -235h-46v380h46v-380zM96 360h-46v380h46v-380z" />
    <glyph glyph-name="section" unicode="&#xa7;" horiz-adv-x="470" 
d="M405 283q0 -81 -72 -141q41 -44 41 -94q0 -71 -48 -117t-132 -46q-62 0 -129 47l28 46q64 -41 112 -41q50 0 81 26.5t31 68.5q0 34 -25.5 65t-61.5 57l-72 53.5t-61.5 65t-25.5 80.5q0 75 71 136q-36 39 -36 91q0 60 38.5 97.5t110.5 37.5q50 0 121 -25l-21 -52
q-62 24 -104 24q-85 0 -85 -72q0 -30 24.5 -58t60 -52.5l70.5 -51t59.5 -64t24.5 -81.5zM211 436q-34 -2 -54 -18.5t-24 -30t-4 -26.5q0 -24 10.5 -45.5t38 -46.5t48 -41t67.5 -49q54 36 54 88q0 25 -8.5 45.5t-31.5 43.5t-40 37t-56 43z" />
    <glyph glyph-name="dieresis" unicode="&#xa8;" horiz-adv-x="478" 
d="M168 576q-17 0 -30 13t-13 30q0 19 12.5 31.5t30.5 12.5q19 0 31.5 -12.5t12.5 -31.5q0 -17 -13 -30t-31 -13zM354 576q-17 0 -30 13t-13 30q0 19 12.5 31.5t30.5 12.5q19 0 31.5 -12.5t12.5 -31.5q0 -17 -13 -30t-31 -13z" />
    <glyph glyph-name="copyright" unicode="&#xa9;" horiz-adv-x="823" 
d="M50 351q0 150 106 256t256 106q149 0 255 -106t106 -256q0 -149 -106 -255t-255 -106q-150 0 -256 106t-106 255zM419 578q72 0 132 -27l-18 -43q-68 26 -114 26q-71 0 -119.5 -46t-48.5 -137q0 -96 47.5 -139t120.5 -43q56 0 133 52l22 -38q-8 -6 -22.5 -16t-55.5 -26
t-77 -16q-106 0 -162 61t-56 165q0 101 56.5 164t161.5 63zM87 351q0 -133 96 -228.5t229 -95.5t228.5 95.5t95.5 228.5q0 134 -95 229.5t-229 95.5t-229.5 -95.5t-95.5 -229.5z" />
    <glyph glyph-name="ordfeminine" unicode="&#xaa;" horiz-adv-x="407" 
d="M294 335v54q-66 -62 -133 -62q-44 0 -72.5 27t-28.5 70q0 125 234 135q-1 57 -23 76t-61 19q-44 0 -114 -24l-14 45q67 25 137 25q60 0 94 -32.5t34 -113.5v-219h-53zM175 372q51 0 119 64v83q-181 -7 -181 -91q0 -25 16.5 -40.5t45.5 -15.5z" />
    <glyph glyph-name="guillemotleft" unicode="&#xab;" horiz-adv-x="404" 
d="M263 230l107 -126l-25 -24l-140 150l140 150l25 -24zM122 230l172 -205l-29 -26l-215 231l215 231l29 -26z" />
    <glyph glyph-name="logicalnot" unicode="&#xac;" horiz-adv-x="639" 
d="M589 89h-46v144h-493v46h539v-190z" />
    <glyph glyph-name="uni00AD" unicode="&#xad;" horiz-adv-x="290" 
d="M260 231h-230v46h230v-46z" />
    <glyph glyph-name="registered" unicode="&#xae;" horiz-adv-x="478" 
d="M438 520q0 -82 -58 -140.5t-141 -58.5t-141 58.5t-58 140.5t58 140.5t141 58.5t141 -58.5t58 -140.5zM209 497v-97h-31v247h60q36 0 60 -18.5t24 -55.5q0 -53 -49 -70l64 -103h-35l-60 97h-33zM209 619v-94h27q26 0 40 13t14 35q0 46 -54 46h-27zM408 520q0 71 -49 120
t-120 49t-120 -49t-49 -120t49 -120.5t120 -49.5t120 49.5t49 120.5z" />
    <glyph glyph-name="macron" unicode="&#xaf;" horiz-adv-x="360" 
d="M310 594h-260v53h260v-53z" />
    <glyph glyph-name="degree" unicode="&#xb0;" horiz-adv-x="296" 
d="M40 632q0 45 31.5 76.5t76.5 31.5t76.5 -31.5t31.5 -76.5t-31.5 -76.5t-76.5 -31.5t-76.5 31.5t-31.5 76.5zM72 632q0 -30 22 -51.5t53 -21.5q29 0 51 21.5t22 51.5q0 31 -22 53t-51 22q-31 0 -53 -22t-22 -53z" />
    <glyph glyph-name="plusminus" unicode="&#xb1;" horiz-adv-x="640" 
d="M343 554v-186h247v-46h-247v-187h-46v187h-247v46h247v186h46zM590 34h-540v46h540v-46z" />
    <glyph glyph-name="twosuperior" unicode="&#xb2;" horiz-adv-x="352" 
d="M286 335h-210v16l119 156q40 54 40 90q0 60 -66 60q-41 0 -76 -38l-27 32q52 49 115 49q51 0 77 -27.5t26 -67.5q0 -51 -48 -114l-87 -114h137v-42z" />
    <glyph glyph-name="threesuperior" unicode="&#xb3;" horiz-adv-x="350" 
d="M190 700q47 0 67.5 -24.5t20.5 -57.5q0 -61 -70 -92q38 -6 60 -29.5t22 -56.5q0 -47 -33.5 -80t-95.5 -33q-49 0 -101 33l19 35q41 -27 80 -27q34 0 58 19t24 53q0 24 -19.5 39.5t-47.5 15.5q-18 0 -32 -7l-15 35q104 40 104 88q0 19 -12 33t-40 14q-39 0 -79 -40l-26 30
q54 52 116 52z" />
    <glyph glyph-name="acute" unicode="&#xb4;" horiz-adv-x="318" 
d="M270 706l-131 -162h-41l98 162h74z" />
    <glyph glyph-name="uni00B5" unicode="&#xb5;" 
d="M148 287v-68h215v-52h-215v-167h-64v167h-54v52h54v68h-54v52h54v361h172q88 0 153 -56.5t65 -153.5t-64.5 -150t-153.5 -53h-108zM148 640v-301h90q78 0 122 41t44 110q0 68 -44 109t-122 41h-90z" />
    <glyph glyph-name="paragraph" unicode="&#xb6;" horiz-adv-x="449" 
d="M243 -146v536q-89 0 -143 38.5t-54 119.5q0 42 19.5 73t51 47.5t63 24t63.5 7.5h144v-846h-46v788h-52v-788h-46z" />
    <glyph glyph-name="periodcentered" unicode="&#xb7;" horiz-adv-x="201" 
d="M50 271q0 20 15.5 35.5t35.5 15.5t35 -15.5t15 -35.5t-15 -35t-35 -15t-35.5 15t-15.5 35z" />
    <glyph glyph-name="cedilla" unicode="&#xb8;" horiz-adv-x="235" 
d="M43 -193v32q16 -5 46 -5q24 0 38 9.5t14 25.5q0 30 -50 38l-26 3l33 90h49l-26 -61q35 -5 54.5 -22.5t19.5 -41.5q0 -31 -28 -53.5t-69 -22.5q-26 0 -55 8z" />
    <glyph glyph-name="onesuperior" unicode="&#xb9;" horiz-adv-x="340" 
d="M256 335h-152v40h52v263l-53 -35l-19 31l99 67h21v-326h52v-40z" />
    <glyph glyph-name="ordmasculine" unicode="&#xba;" horiz-adv-x="470" 
d="M235 324q-79 0 -127.5 48.5t-48.5 139.5t48.5 139.5t127.5 48.5q78 0 127 -48.5t49 -139.5t-49 -139.5t-127 -48.5zM235 368q54 0 88.5 36t34.5 108t-34.5 108.5t-88.5 36.5q-55 0 -89 -36t-34 -109q0 -72 34 -108t89 -36z" />
    <glyph glyph-name="guillemotright" unicode="&#xbb;" horiz-adv-x="404" 
d="M110 24l172 206l-172 205l29 26l215 -231l-215 -231zM34 104l107 126l-107 126l25 24l140 -150l-140 -150z" />
    <glyph glyph-name="onequarter" unicode="&#xbc;" horiz-adv-x="724" 
d="M668 700l-560 -700h-52l560 700h52zM261 335h-153v40h53v263l-53 -35l-20 31l100 67h21v-326h52v-40zM645 129v-37h-46v-92h-47v92h-154v19l175 253h26v-235h46zM453 129h99v145z" />
    <glyph glyph-name="onehalf" unicode="&#xbd;" horiz-adv-x="744" 
d="M668 700l-560 -700h-52l560 700h52zM261 335h-153v40h53v263l-53 -35l-20 31l100 67h21v-326h52v-40zM680 0h-211v16l119 156q40 51 40 90q0 60 -66 60q-40 0 -76 -38l-27 32q54 49 115 49q51 0 77.5 -27.5t26.5 -67.5q0 -51 -48 -114l-87 -114h137v-42z" />
    <glyph glyph-name="threequarters" unicode="&#xbe;" horiz-adv-x="728" 
d="M649 129v-37h-46v-92h-47v92h-154v19l175 253h26v-235h46zM457 129h99v145zM672 700l-560 -700h-52l560 700h52zM190 700q47 0 67.5 -24.5t20.5 -57.5q0 -61 -70 -92q38 -6 60 -29.5t22 -56.5q0 -47 -33.5 -80t-95.5 -33q-49 0 -101 33l19 35q41 -27 80 -27q34 0 58 19
t24 53q0 24 -19.5 39.5t-47.5 15.5q-18 0 -32 -7l-15 35q104 40 104 88q0 19 -12 33t-40 14q-39 0 -79 -40l-26 30q54 52 116 52z" />
    <glyph glyph-name="questiondown" unicode="&#xbf;" horiz-adv-x="405" 
d="M43 153q0 43 19.5 78t47.5 59l56.5 48t48 57.5t19.5 75.5q0 25 -7 53h36q24 -42 24 -83q0 -37 -19 -70.5t-45.5 -58.5l-53.5 -49t-46 -52t-19 -56q0 -49 28 -74.5t74 -25.5q60 0 132 33l22 -56q-85 -37 -152 -37q-49 0 -84.5 17.5t-51.5 44.5t-22.5 50.5t-6.5 45.5z
M294 650q0 -20 -15.5 -35.5t-35.5 -15.5q-21 0 -35.5 15t-14.5 36q0 20 14.5 35t35.5 15q20 0 35.5 -15t15.5 -35z" />
    <glyph glyph-name="Agrave" unicode="&#xc0;" horiz-adv-x="590" 
d="M253 700h84l241 -700h-68l-70 203h-293l-71 -203h-64zM294 630l-127 -367h252zM340 772l-131 162h74l98 -162h-41z" />
    <glyph glyph-name="Aacute" unicode="&#xc1;" horiz-adv-x="590" 
d="M253 700h84l241 -700h-68l-70 203h-293l-71 -203h-64zM294 630l-127 -367h252zM381 934l-131 -162h-41l98 162h74z" />
    <glyph glyph-name="Acircumflex" unicode="&#xc2;" horiz-adv-x="590" 
d="M253 700h84l241 -700h-68l-70 203h-293l-71 -203h-64zM294 630l-127 -367h252zM332 934l112 -162h-41l-108 117l-108 -117h-41l112 162h74z" />
    <glyph glyph-name="Atilde" unicode="&#xc3;" horiz-adv-x="590" 
d="M253 700h84l241 -700h-68l-70 203h-293l-71 -203h-64zM294 630l-127 -367h252zM358 853q26 0 43.5 10.5t37.5 39.5l18 -43q-21 -30 -43.5 -44.5t-56.5 -14.5q-33 0 -68.5 25t-56.5 25q-26 0 -43.5 -10.5t-37.5 -39.5l-18 43q21 30 43.5 44.5t56.5 14.5q33 0 68 -25
t57 -25z" />
    <glyph glyph-name="Adieresis" unicode="&#xc4;" horiz-adv-x="590" 
d="M253 700h84l241 -700h-68l-70 203h-293l-71 -203h-64zM294 630l-127 -367h252zM201 804q-17 0 -30 13t-13 30q0 19 13 31.5t30 12.5q19 0 31.5 -12.5t12.5 -31.5q0 -17 -12.5 -30t-31.5 -13zM387 804q-17 0 -30 13t-13 30q0 19 13 31.5t30 12.5q19 0 31.5 -12.5
t12.5 -31.5q0 -17 -12.5 -30t-31.5 -13z" />
    <glyph glyph-name="Aring" unicode="&#xc5;" horiz-adv-x="590" 
d="M253 700h84l241 -700h-68l-70 203h-293l-71 -203h-64zM294 630l-127 -367h252zM214 850q0 34 23.5 57t57.5 23t57 -23t23 -57t-23 -57.5t-57 -23.5t-57.5 23.5t-23.5 57.5zM250 850q0 -18 12.5 -30.5t31.5 -12.5q18 0 30 12.5t12 30.5q0 19 -12 31t-30 12
q-19 0 -31.5 -12t-12.5 -31z" />
    <glyph glyph-name="AE" unicode="&#xc6;" horiz-adv-x="847" 
d="M769 392v-60h-259l55 -272h239v-60h-295l-40 203h-294l-99 -203h-64l341 700h440v-60h-344l49 -248h271zM385 630l-180 -367h252z" />
    <glyph glyph-name="Ccedilla" unicode="&#xc7;" horiz-adv-x="615" 
d="M247 -193v32q16 -5 46 -5q24 0 38 9.5t14 25.5q0 30 -50 38l-26 3l29 81q-127 22 -192.5 118.5t-65.5 240.5q0 102 35 183t111.5 131.5t183.5 50.5q106 0 191 -38l-24 -59q-50 20 -84 28.5t-83 8.5q-121 0 -191.5 -84t-70.5 -221q0 -143 69.5 -224t192.5 -81
q49 0 92.5 19.5t98.5 56.5l28 -51q-110 -85 -219 -85q-5 0 -13 0.5t-12 0.5l-20 -47q35 -5 54.5 -22.5t19.5 -41.5q0 -31 -28 -53.5t-69 -22.5q-26 0 -55 8z" />
    <glyph glyph-name="Egrave" unicode="&#xc8;" horiz-adv-x="469" 
d="M391 392v-60h-249v-272h284v-60h-348v700h337v-60h-273v-248h249zM279 772l-131 162h74l98 -162h-41z" />
    <glyph glyph-name="Eacute" unicode="&#xc9;" horiz-adv-x="469" 
d="M391 392v-60h-249v-272h284v-60h-348v700h337v-60h-273v-248h249zM320 934l-131 -162h-41l98 162h74z" />
    <glyph glyph-name="Ecircumflex" unicode="&#xca;" horiz-adv-x="469" 
d="M391 392v-60h-249v-272h284v-60h-348v700h337v-60h-273v-248h249zM271 934l112 -162h-41l-108 117l-108 -117h-41l112 162h74z" />
    <glyph glyph-name="Edieresis" unicode="&#xcb;" horiz-adv-x="469" 
d="M391 392v-60h-249v-272h284v-60h-348v700h337v-60h-273v-248h249zM161 804q-17 0 -30 13t-13 30q0 19 13 31.5t30 12.5q19 0 31.5 -12.5t12.5 -31.5q0 -17 -12.5 -30t-31.5 -13zM347 804q-17 0 -30 13t-13 30q0 19 13 31.5t30 12.5q19 0 31.5 -12.5t12.5 -31.5
q0 -17 -12.5 -30t-31.5 -13z" />
    <glyph glyph-name="Igrave" unicode="&#xcc;" horiz-adv-x="220" 
d="M142 0h-64v700h64v-700zM155 772l-131 162h74l98 -162h-41z" />
    <glyph glyph-name="Iacute" unicode="&#xcd;" horiz-adv-x="220" 
d="M142 0h-64v700h64v-700zM196 934l-131 -162h-41l98 162h74z" />
    <glyph glyph-name="Icircumflex" unicode="&#xce;" horiz-adv-x="220" 
d="M142 0h-64v700h64v-700zM147 934l112 -162h-41l-108 117l-108 -117h-41l112 162h74z" />
    <glyph glyph-name="Idieresis" unicode="&#xcf;" horiz-adv-x="235" 
d="M148 0h-64v700h64v-700zM165 791q-14 0 -24.5 10.5t-10.5 24.5q0 15 10.5 26t24.5 11q15 0 25.5 -11t10.5 -26q0 -14 -10.5 -24.5t-25.5 -10.5zM69 791q-13 0 -24 10.5t-11 24.5q0 15 11 26t24 11q16 0 26.5 -11t10.5 -26q0 -14 -10.5 -24.5t-26.5 -10.5z" />
    <glyph glyph-name="Eth" unicode="&#xd0;" horiz-adv-x="627" 
d="M78 700h201q66 0 119.5 -21.5t88 -56t57.5 -81t33 -94t10 -97.5t-10 -98t-33 -94t-57.5 -81t-88 -56t-119.5 -21h-201v327h-60v46h60v327zM142 60h122q128 0 191.5 77t63.5 213q0 135 -63.5 212.5t-191.5 77.5h-122v-267h148v-46h-148v-267z" />
    <glyph glyph-name="Ntilde" unicode="&#xd1;" horiz-adv-x="696" 
d="M618 700v-700h-47l-433 575v-575h-60v700h47l433 -576v576h60zM411 853q26 0 43.5 10.5t37.5 39.5l18 -43q-21 -30 -43.5 -44.5t-56.5 -14.5q-33 0 -68.5 25t-56.5 25q-26 0 -43.5 -10.5t-37.5 -39.5l-18 43q21 30 43.5 44.5t56.5 14.5t69 -25t56 -25z" />
    <glyph glyph-name="Ograve" unicode="&#xd2;" horiz-adv-x="736" 
d="M368 -15q-151 0 -239.5 107.5t-88.5 257.5t88.5 257.5t239.5 107.5t239.5 -107.5t88.5 -257.5t-88.5 -257.5t-239.5 -107.5zM368 45q114 0 189 84.5t75 220.5t-75 220.5t-189 84.5t-189 -84.5t-75 -220.5q0 -135 75.5 -220t188.5 -85zM413 772l-131 162h74l98 -162h-41z
" />
    <glyph glyph-name="Oacute" unicode="&#xd3;" horiz-adv-x="736" 
d="M368 -15q-151 0 -239.5 107.5t-88.5 257.5t88.5 257.5t239.5 107.5t239.5 -107.5t88.5 -257.5t-88.5 -257.5t-239.5 -107.5zM368 45q114 0 189 84.5t75 220.5t-75 220.5t-189 84.5t-189 -84.5t-75 -220.5q0 -135 75.5 -220t188.5 -85zM454 934l-131 -162h-41l98 162h74z
" />
    <glyph glyph-name="Ocircumflex" unicode="&#xd4;" horiz-adv-x="736" 
d="M368 -15q-151 0 -239.5 107.5t-88.5 257.5t88.5 257.5t239.5 107.5t239.5 -107.5t88.5 -257.5t-88.5 -257.5t-239.5 -107.5zM368 45q114 0 189 84.5t75 220.5t-75 220.5t-189 84.5t-189 -84.5t-75 -220.5q0 -135 75.5 -220t188.5 -85zM405 934l112 -162h-41l-108 117
l-108 -117h-41l112 162h74z" />
    <glyph glyph-name="Otilde" unicode="&#xd5;" horiz-adv-x="736" 
d="M368 -15q-151 0 -239.5 107.5t-88.5 257.5t88.5 257.5t239.5 107.5t239.5 -107.5t88.5 -257.5t-88.5 -257.5t-239.5 -107.5zM368 45q114 0 189 84.5t75 220.5t-75 220.5t-189 84.5t-189 -84.5t-75 -220.5q0 -135 75.5 -220t188.5 -85zM431 853q26 0 43.5 10.5t37.5 39.5
l18 -43q-21 -30 -43.5 -44.5t-56.5 -14.5t-69 25t-56 25q-26 0 -43.5 -10.5t-37.5 -39.5l-18 43q21 30 43.5 44.5t56.5 14.5t69 -25t56 -25z" />
    <glyph glyph-name="Odieresis" unicode="&#xd6;" horiz-adv-x="736" 
d="M368 -15q-151 0 -239.5 107.5t-88.5 257.5t88.5 257.5t239.5 107.5t239.5 -107.5t88.5 -257.5t-88.5 -257.5t-239.5 -107.5zM368 45q114 0 189 84.5t75 220.5t-75 220.5t-189 84.5t-189 -84.5t-75 -220.5q0 -135 75.5 -220t188.5 -85zM274 804q-17 0 -30 13t-13 30
q0 19 12.5 31.5t30.5 12.5q19 0 31.5 -12.5t12.5 -31.5q0 -17 -13 -30t-31 -13zM460 804q-17 0 -30 13t-13 30q0 19 12.5 31.5t30.5 12.5q19 0 31.5 -12.5t12.5 -31.5q0 -17 -13 -30t-31 -13z" />
    <glyph glyph-name="multiply" unicode="&#xd7;" horiz-adv-x="640" 
d="M524 56l-204 206l-204 -206l-34 34l206 204l-206 204l34 34l204 -206l204 206l34 -34l-206 -204l206 -204z" />
    <glyph glyph-name="Oslash" unicode="&#xd8;" horiz-adv-x="736" 
d="M164 0h-53l43 65q-55 51 -84.5 125.5t-29.5 159.5q0 97 37 178.5t113 134t178 52.5q101 0 178 -53l25 38h53l-43 -66q56 -51 85.5 -125.5t29.5 -158.5q0 -151 -88.5 -258t-239.5 -107q-103 0 -179 52q-3 -4 -25 -37zM368 45q114 0 189 84.5t75 220.5q0 143 -86 231
l-323 -491q64 -45 145 -45zM104 350q0 -144 85 -231l323 491q-64 45 -144 45q-114 0 -189 -85t-75 -220z" />
    <glyph glyph-name="Ugrave" unicode="&#xd9;" horiz-adv-x="657" 
d="M329 45q97 0 143 48.5t46 127.5v480h64v-480q0 -114 -68 -175t-185 -61t-185.5 61t-68.5 175v480h64v-480q0 -78 47 -127t143 -49zM373 772l-131 162h74l98 -162h-41z" />
    <glyph glyph-name="Uacute" unicode="&#xda;" horiz-adv-x="657" 
d="M329 45q97 0 143 48.5t46 127.5v480h64v-480q0 -114 -68 -175t-185 -61t-185.5 61t-68.5 175v480h64v-480q0 -78 47 -127t143 -49zM414 934l-131 -162h-41l98 162h74z" />
    <glyph glyph-name="Ucircumflex" unicode="&#xdb;" horiz-adv-x="657" 
d="M329 45q97 0 143 48.5t46 127.5v480h64v-480q0 -114 -68 -175t-185 -61t-185.5 61t-68.5 175v480h64v-480q0 -78 47 -127t143 -49zM365 934l112 -162h-41l-108 117l-108 -117h-41l112 162h74z" />
    <glyph glyph-name="Udieresis" unicode="&#xdc;" horiz-adv-x="657" 
d="M329 45q97 0 143 48.5t46 127.5v480h64v-480q0 -114 -68 -175t-185 -61t-185.5 61t-68.5 175v480h64v-480q0 -78 47 -127t143 -49zM235 804q-17 0 -30 13t-13 30q0 19 13 31.5t30 12.5q19 0 31.5 -12.5t12.5 -31.5q0 -17 -12.5 -30t-31.5 -13zM421 804q-17 0 -30 13
t-13 30q0 19 13 31.5t30 12.5q19 0 31.5 -12.5t12.5 -31.5q0 -17 -12.5 -30t-31.5 -13z" />
    <glyph glyph-name="Yacute" unicode="&#xdd;" horiz-adv-x="551" 
d="M12 700h71l194 -373l194 373h68l-232 -443v-257h-64v258zM361 934l-131 -162h-41l98 162h74z" />
    <glyph glyph-name="Thorn" unicode="&#xde;" horiz-adv-x="495" 
d="M142 156v-156h-64v715h64v-142h108q88 0 153 -56.5t65 -153.5t-65 -152t-153 -55h-108zM142 513v-297h90q79 0 122.5 39.5t43.5 107.5q0 69 -44 109.5t-122 40.5h-90z" />
    <glyph glyph-name="germandbls" unicode="&#xdf;" horiz-adv-x="518" 
d="M77 0v482q0 65 17.5 112.5t47 72.5t61 36.5t65.5 11.5q84 0 122.5 -42t38.5 -100q0 -37 -17.5 -63t-43 -40.5l-51 -28t-43 -34.5t-17.5 -51q0 -29 23.5 -48.5t57 -31.5t67 -26.5t57 -44.5t23.5 -74q0 -40 -15.5 -70.5t-40 -46t-50 -22.5t-51.5 -7q-74 0 -153 66l28 43
q36 -31 61.5 -45t58.5 -14q106 0 106 90q0 34 -23 55.5t-55.5 33t-64.5 25t-55 41.5t-23 71q0 39 17.5 67t42.5 43t50 28.5t42.5 34t17.5 49.5q0 41 -26.5 67.5t-82.5 26.5q-22 0 -42.5 -7t-43.5 -25t-37 -57.5t-14 -96.5v-481h-55z" />
    <glyph glyph-name="agrave" unicode="&#xe0;" horiz-adv-x="466" 
d="M348 0v75q-90 -86 -180 -86q-57 0 -93.5 34.5t-36.5 91.5q0 165 310 180q0 82 -31 110.5t-86 28.5q-63 0 -147 -30l-17 52q92 32 174 32q165 0 165 -201v-287h-58zM183 42q67 0 165 92v111q-72 -3 -126 -15.5t-90 -40.5t-36 -70q0 -35 23 -56t64 -21zM278 544l-131 162
h74l98 -162h-41z" />
    <glyph glyph-name="aacute" unicode="&#xe1;" horiz-adv-x="466" 
d="M348 0v75q-90 -86 -180 -86q-57 0 -93.5 34.5t-36.5 91.5q0 165 310 180q0 82 -31 110.5t-86 28.5q-63 0 -147 -30l-17 52q92 32 174 32q165 0 165 -201v-287h-58zM183 42q67 0 165 92v111q-72 -3 -126 -15.5t-90 -40.5t-36 -70q0 -35 23 -56t64 -21zM319 706l-131 -162
h-41l98 162h74z" />
    <glyph glyph-name="acircumflex" unicode="&#xe2;" horiz-adv-x="466" 
d="M348 0v75q-90 -86 -180 -86q-57 0 -93.5 34.5t-36.5 91.5q0 165 310 180q0 82 -31 110.5t-86 28.5q-63 0 -147 -30l-17 52q92 32 174 32q165 0 165 -201v-287h-58zM183 42q67 0 165 92v111q-72 -3 -126 -15.5t-90 -40.5t-36 -70q0 -35 23 -56t64 -21zM270 706l112 -162
h-41l-108 117l-108 -117h-41l112 162h74z" />
    <glyph glyph-name="atilde" unicode="&#xe3;" horiz-adv-x="466" 
d="M348 0v75q-90 -86 -180 -86q-57 0 -93.5 34.5t-36.5 91.5q0 165 310 180q0 82 -31 110.5t-86 28.5q-63 0 -147 -30l-17 52q92 32 174 32q165 0 165 -201v-287h-58zM183 42q67 0 165 92v111q-72 -3 -126 -15.5t-90 -40.5t-36 -70q0 -35 23 -56t64 -21zM296 625
q26 0 43.5 10.5t37.5 39.5l18 -43q-21 -30 -43.5 -44.5t-56.5 -14.5q-33 0 -68 25t-57 25q-26 0 -43.5 -10.5t-37.5 -39.5l-18 43q21 30 43.5 44.5t56.5 14.5q33 0 68 -25t57 -25z" />
    <glyph glyph-name="adieresis" unicode="&#xe4;" horiz-adv-x="466" 
d="M348 0v75q-90 -86 -180 -86q-57 0 -93.5 34.5t-36.5 91.5q0 165 310 180q0 82 -31 110.5t-86 28.5q-63 0 -147 -30l-17 52q92 32 174 32q165 0 165 -201v-287h-58zM183 42q67 0 165 92v111q-72 -3 -126 -15.5t-90 -40.5t-36 -70q0 -35 23 -56t64 -21zM140 576
q-17 0 -30 13t-13 30q0 19 12.5 31.5t30.5 12.5q19 0 31.5 -12.5t12.5 -31.5q0 -17 -13 -30t-31 -13zM326 576q-17 0 -30 13t-13 30q0 19 12.5 31.5t30.5 12.5q19 0 31.5 -12.5t12.5 -31.5q0 -17 -13 -30t-31 -13z" />
    <glyph glyph-name="aring" unicode="&#xe5;" horiz-adv-x="466" 
d="M348 0v75q-90 -86 -180 -86q-57 0 -93.5 34.5t-36.5 91.5q0 165 310 180q0 82 -31 110.5t-86 28.5q-63 0 -147 -30l-17 52q92 32 174 32q165 0 165 -201v-287h-58zM183 42q67 0 165 92v111q-72 -3 -126 -15.5t-90 -40.5t-36 -70q0 -35 23 -56t64 -21zM152 622
q0 34 23.5 57t57.5 23t57 -23t23 -57t-23 -57.5t-57 -23.5t-57.5 23.5t-23.5 57.5zM188 622q0 -18 12.5 -30.5t31.5 -12.5q18 0 30 12.5t12 30.5q0 19 -12 31t-30 12q-19 0 -31.5 -12t-12.5 -31z" />
    <glyph glyph-name="ae" unicode="&#xe6;" horiz-adv-x="786" 
d="M755 241h-348q0 -201 176 -201q60 0 131 53l26 -45q-26 -19 -43.5 -30t-51 -22t-68.5 -11q-135 0 -195 108q-108 -104 -210 -104q-60 0 -97 34.5t-37 91.5q0 164 310 179q0 82 -31 110.5t-86 28.5q-69 0 -148 -30l-17 53q92 30 167 30q122 0 157 -102q29 52 74.5 78
t94.5 26q196 0 196 -247zM183 42q37 0 88.5 29t88.5 68q-12 38 -12 105q-112 -4 -182 -34t-70 -91q0 -35 23 -56t64 -21zM562 433q-55 0 -97 -33.5t-56 -111.5h285q-4 69 -34 107t-98 38z" />
    <glyph glyph-name="ccedilla" unicode="&#xe7;" horiz-adv-x="470" 
d="M175 -193v32q16 -5 46 -5q24 0 38 9.5t14 25.5q0 30 -50 38l-26 3l28 78q-85 13 -135 75t-50 173q0 116 68.5 184t169.5 68q66 0 142 -19l-13 -54q-71 19 -128 19q-84 0 -131 -50t-47 -148q0 -92 46 -144t122 -52q69 0 152 58l27 -46q-94 -66 -176 -67l-19 -46
q35 -5 54.5 -22.5t19.5 -41.5q0 -31 -28 -53.5t-69 -22.5q-26 0 -55 8z" />
    <glyph glyph-name="egrave" unicode="&#xe8;" horiz-adv-x="478" 
d="M446 241h-346q0 -201 175 -201q58 0 131 53q4 -9 13.5 -23.5t12.5 -21.5q-26 -19 -43.5 -30t-51 -22t-68.5 -11q-98 0 -163.5 61.5t-65.5 179.5q0 126 64.5 194t146.5 68q195 0 195 -247zM254 433q-124 0 -150 -145h282q-4 69 -34 107t-98 38zM284 544l-131 162h74
l98 -162h-41z" />
    <glyph glyph-name="eacute" unicode="&#xe9;" horiz-adv-x="478" 
d="M446 241h-346q0 -201 175 -201q58 0 131 53q4 -9 13.5 -23.5t12.5 -21.5q-26 -19 -43.5 -30t-51 -22t-68.5 -11q-98 0 -163.5 61.5t-65.5 179.5q0 126 64.5 194t146.5 68q195 0 195 -247zM254 433q-124 0 -150 -145h282q-4 69 -34 107t-98 38zM325 706l-131 -162h-41
l98 162h74z" />
    <glyph glyph-name="ecircumflex" unicode="&#xea;" horiz-adv-x="478" 
d="M446 241h-346q0 -201 175 -201q58 0 131 53q4 -9 13.5 -23.5t12.5 -21.5q-26 -19 -43.5 -30t-51 -22t-68.5 -11q-98 0 -163.5 61.5t-65.5 179.5q0 126 64.5 194t146.5 68q195 0 195 -247zM254 433q-124 0 -150 -145h282q-4 69 -34 107t-98 38zM276 706l112 -162h-41
l-108 117l-108 -117h-41l112 162h74z" />
    <glyph glyph-name="edieresis" unicode="&#xeb;" horiz-adv-x="478" 
d="M446 241h-346q0 -201 175 -201q58 0 131 53q4 -9 13.5 -23.5t12.5 -21.5q-26 -19 -43.5 -30t-51 -22t-68.5 -11q-98 0 -163.5 61.5t-65.5 179.5q0 126 64.5 194t146.5 68q195 0 195 -247zM254 433q-124 0 -150 -145h282q-4 69 -34 107t-98 38zM166 576q-17 0 -30 13
t-13 30q0 19 12.5 31.5t30.5 12.5q19 0 31.5 -12.5t12.5 -31.5q0 -17 -13 -30t-31 -13zM352 576q-17 0 -30 13t-13 30q0 19 12.5 31.5t30.5 12.5q19 0 31.5 -12.5t12.5 -31.5q0 -17 -13 -30t-31 -13z" />
    <glyph glyph-name="igrave" unicode="&#xec;" horiz-adv-x="186" 
d="M123 472v-472h-58v472h58zM138 544l-131 162h74l98 -162h-41z" />
    <glyph glyph-name="iacute" unicode="&#xed;" horiz-adv-x="186" 
d="M123 472v-472h-58v472h58zM179 706l-131 -162h-41l98 162h74z" />
    <glyph glyph-name="icircumflex" unicode="&#xee;" horiz-adv-x="186" 
d="M123 472v-472h-58v472h58zM130 706l112 -162h-41l-108 117l-108 -117h-41l112 162h74z" />
    <glyph glyph-name="idieresis" unicode="&#xef;" horiz-adv-x="198" 
d="M147 589q-14 0 -24.5 10.5t-10.5 24.5q0 15 10.5 26t24.5 11q15 0 25.5 -11t10.5 -26q0 -14 -10.5 -24.5t-25.5 -10.5zM50 589q-13 0 -24 10.5t-11 24.5q0 15 11 26t24 11q16 0 26.5 -11t10.5 -26q0 -14 -10.5 -24.5t-26.5 -10.5zM128 472v-472h-58v472h58z" />
    <glyph glyph-name="eth" unicode="&#xf0;" horiz-adv-x="520" 
d="M266 758l-20 -63q117 -42 175.5 -148t58.5 -258q0 -135 -65.5 -219.5t-166.5 -84.5q-90 0 -149 63t-59 176q0 128 67.5 196t174.5 68q61 0 109 -24q-39 134 -162 181l-25 -79l-47 15l25 77q-40 10 -79 11v51q51 -2 96 -12l21 64zM420 289q0 65 -16 118q-61 28 -116 28
q-96 0 -142.5 -59t-46.5 -154q0 -85 44 -135t109 -50q76 0 122 71.5t46 180.5z" />
    <glyph glyph-name="ntilde" unicode="&#xf1;" horiz-adv-x="516" 
d="M122 472v-57q74 71 156 71q76 0 128.5 -53.5t52.5 -158.5v-274h-58v274q0 78 -38.5 117.5t-94.5 39.5q-36 0 -78.5 -21t-67.5 -54v-356h-58v472h58zM321 625q26 0 43.5 10.5t37.5 39.5l18 -43q-21 -30 -43.5 -44.5t-56.5 -14.5t-68.5 25t-56.5 25q-26 0 -43.5 -10.5
t-37.5 -39.5l-18 43q21 30 43.5 44.5t56.5 14.5t69 -25t56 -25z" />
    <glyph glyph-name="ograve" unicode="&#xf2;" horiz-adv-x="536" 
d="M268 -15q-101 0 -164.5 65.5t-63.5 185.5t63.5 185.5t164.5 65.5t164.5 -65.5t63.5 -185.5t-63.5 -185.5t-164.5 -65.5zM268 37q75 0 122.5 50t47.5 149t-47.5 149t-122.5 50t-122.5 -50t-47.5 -149q0 -98 47.5 -148.5t122.5 -50.5zM313 544l-131 162h74l98 -162h-41z
" />
    <glyph glyph-name="oacute" unicode="&#xf3;" horiz-adv-x="536" 
d="M268 -15q-101 0 -164.5 65.5t-63.5 185.5t63.5 185.5t164.5 65.5t164.5 -65.5t63.5 -185.5t-63.5 -185.5t-164.5 -65.5zM268 37q75 0 122.5 50t47.5 149t-47.5 149t-122.5 50t-122.5 -50t-47.5 -149q0 -98 47.5 -148.5t122.5 -50.5zM354 706l-131 -162h-41l98 162h74z
" />
    <glyph glyph-name="ocircumflex" unicode="&#xf4;" horiz-adv-x="536" 
d="M268 -15q-101 0 -164.5 65.5t-63.5 185.5t63.5 185.5t164.5 65.5t164.5 -65.5t63.5 -185.5t-63.5 -185.5t-164.5 -65.5zM268 37q75 0 122.5 50t47.5 149t-47.5 149t-122.5 50t-122.5 -50t-47.5 -149q0 -98 47.5 -148.5t122.5 -50.5zM305 706l112 -162h-41l-108 117
l-108 -117h-41l112 162h74z" />
    <glyph glyph-name="otilde" unicode="&#xf5;" horiz-adv-x="536" 
d="M268 -15q-101 0 -164.5 65.5t-63.5 185.5t63.5 185.5t164.5 65.5t164.5 -65.5t63.5 -185.5t-63.5 -185.5t-164.5 -65.5zM268 37q75 0 122.5 50t47.5 149t-47.5 149t-122.5 50t-122.5 -50t-47.5 -149q0 -98 47.5 -148.5t122.5 -50.5zM331 625q26 0 43.5 10.5t37.5 39.5
l18 -43q-21 -30 -43.5 -44.5t-56.5 -14.5t-69 25t-56 25q-26 0 -43.5 -10.5t-37.5 -39.5l-18 43q21 30 43.5 44.5t56.5 14.5q33 0 68.5 -25t56.5 -25z" />
    <glyph glyph-name="odieresis" unicode="&#xf6;" horiz-adv-x="536" 
d="M268 -15q-101 0 -164.5 65.5t-63.5 185.5t63.5 185.5t164.5 65.5t164.5 -65.5t63.5 -185.5t-63.5 -185.5t-164.5 -65.5zM268 37q75 0 122.5 50t47.5 149t-47.5 149t-122.5 50t-122.5 -50t-47.5 -149q0 -98 47.5 -148.5t122.5 -50.5zM174 576q-17 0 -30 13t-13 30
q0 19 12.5 31.5t30.5 12.5q19 0 31.5 -12.5t12.5 -31.5q0 -17 -13 -30t-31 -13zM360 576q-17 0 -30 13t-13 30q0 19 12.5 31.5t30.5 12.5q19 0 31.5 -12.5t12.5 -31.5q0 -17 -13 -30t-31 -13z" />
    <glyph glyph-name="divide" unicode="&#xf7;" horiz-adv-x="640" 
d="M368 128q0 -20 -14 -33.5t-33 -13.5q-20 0 -34 14t-14 33t14 33t34 14q19 0 33 -13.5t14 -33.5zM368 440q0 -20 -14 -34t-33 -14t-33.5 14t-14.5 34q0 19 14 33t34 14q19 0 33 -13.5t14 -33.5zM590 261h-540v46h540v-46z" />
    <glyph glyph-name="oslash" unicode="&#xf8;" horiz-adv-x="536" 
d="M87 0h-57l58 67q-48 63 -48 169q0 121 63 186t165 65q86 0 146 -49l30 34h58l-58 -65q52 -65 52 -171q0 -120 -63.5 -185.5t-164.5 -65.5q-89 0 -150 50zM437 236q0 76 -31 127l-251 -286q44 -40 113 -40q75 0 122 50t47 149zM268 435q-75 0 -122.5 -50t-47.5 -149
q0 -75 29 -125l251 285q-45 39 -110 39z" />
    <glyph glyph-name="ugrave" unicode="&#xf9;" horiz-adv-x="492" 
d="M428 472v-472h-58v76q-76 -87 -156 -87q-78 0 -117.5 48t-39.5 159v276h58v-276q0 -86 28 -117.5t89 -31.5q71 0 138 84v341h58zM291 544l-131 162h74l98 -162h-41z" />
    <glyph glyph-name="uacute" unicode="&#xfa;" horiz-adv-x="492" 
d="M428 472v-472h-58v76q-76 -87 -156 -87q-78 0 -117.5 48t-39.5 159v276h58v-276q0 -86 28 -117.5t89 -31.5q71 0 138 84v341h58zM332 706l-131 -162h-41l98 162h74z" />
    <glyph glyph-name="ucircumflex" unicode="&#xfb;" horiz-adv-x="492" 
d="M428 472v-472h-58v76q-76 -87 -156 -87q-78 0 -117.5 48t-39.5 159v276h58v-276q0 -86 28 -117.5t89 -31.5q71 0 138 84v341h58zM283 706l112 -162h-41l-108 117l-108 -117h-41l112 162h74z" />
    <glyph glyph-name="udieresis" unicode="&#xfc;" horiz-adv-x="492" 
d="M428 472v-472h-58v76q-76 -87 -156 -87q-78 0 -117.5 48t-39.5 159v276h58v-276q0 -86 28 -117.5t89 -31.5q71 0 138 84v341h58zM153 576q-17 0 -30 13t-13 30q0 19 13 31.5t30 12.5q19 0 31.5 -12.5t12.5 -31.5q0 -17 -12.5 -30t-31.5 -13zM339 576q-17 0 -30 13t-13 30
q0 19 13 31.5t30 12.5q19 0 31.5 -12.5t12.5 -31.5q0 -17 -12.5 -30t-31.5 -13z" />
    <glyph glyph-name="yacute" unicode="&#xfd;" horiz-adv-x="475" 
d="M12 472h63l164 -391l164 391h60l-282 -667h-60l86 202zM323 706l-131 -162h-41l98 162h74z" />
    <glyph glyph-name="thorn" unicode="&#xfe;" horiz-adv-x="521" 
d="M422 245q0 95 -46.5 142.5t-110.5 47.5q-77 0 -143 -71v-290q47 -39 126 -39q28 0 55.5 10t55.5 31.5t45.5 65.5t17.5 103zM481 245q0 -65 -20.5 -117t-53.5 -82t-70 -45.5t-75 -15.5q-81 0 -140 35v-215h-58v895h58v-280q25 25 67 46.5t89 21.5q83 0 143 -64.5
t60 -178.5z" />
    <glyph glyph-name="ydieresis" unicode="&#xff;" horiz-adv-x="475" 
d="M12 472h63l164 -391l164 391h60l-282 -667h-60l86 202zM144 576q-17 0 -30 13t-13 30q0 19 12.5 31.5t30.5 12.5q19 0 31.5 -12.5t12.5 -31.5q0 -17 -13 -30t-31 -13zM330 576q-17 0 -30 13t-13 30q0 19 12.5 31.5t30.5 12.5q19 0 31.5 -12.5t12.5 -31.5q0 -17 -13 -30
t-31 -13z" />
    <glyph glyph-name="Amacron" unicode="&#x100;" horiz-adv-x="590" 
d="M253 700h84l241 -700h-68l-70 203h-293l-71 -203h-64zM294 630l-127 -367h252zM425 822h-260v53h260v-53z" />
    <glyph glyph-name="amacron" unicode="&#x101;" horiz-adv-x="466" 
d="M348 0v75q-90 -86 -180 -86q-57 0 -93.5 34.5t-36.5 91.5q0 165 310 180q0 82 -31 110.5t-86 28.5q-63 0 -147 -30l-17 52q92 32 174 32q165 0 165 -201v-287h-58zM183 42q67 0 165 92v111q-72 -3 -126 -15.5t-90 -40.5t-36 -70q0 -35 23 -56t64 -21zM363 594h-260v53
h260v-53z" />
    <glyph glyph-name="Aogonek" unicode="&#x104;" horiz-adv-x="590" 
d="M519 0h-9l-70 203h-293l-71 -203h-64l241 700h84l241 -700h-1q-89 -57 -89 -111q0 -37 42 -37q26 0 47 8v-32q-32 -21 -73 -21q-37 0 -54.5 22t-17.5 49q0 56 87 122zM294 630l-127 -367h252z" />
    <glyph glyph-name="aogonek" unicode="&#x105;" horiz-adv-x="466" 
d="M348 0v75q-90 -86 -180 -86q-57 0 -93.5 34.5t-36.5 91.5q0 165 310 180q0 82 -31 110.5t-86 28.5q-63 0 -147 -30l-17 52q92 32 174 32q165 0 165 -201v-287q-89 -57 -89 -111q0 -37 42 -37q26 0 47 8v-32q-32 -21 -73 -21q-37 0 -54.5 22t-17.5 49q0 56 87 122zM183 42
q67 0 165 92v111q-72 -3 -126 -15.5t-90 -40.5t-36 -70q0 -35 23 -56t64 -21z" />
    <glyph glyph-name="Cacute" unicode="&#x106;" horiz-adv-x="615" 
d="M370 715q106 0 191 -38l-24 -59q-50 20 -84 28.5t-83 8.5q-121 0 -191.5 -84t-70.5 -221q0 -143 69.5 -224t192.5 -81q49 0 92.5 19.5t98.5 56.5l28 -51q-110 -85 -219 -85q-161 0 -245.5 101t-84.5 264q0 102 35 183t111.5 131.5t183.5 50.5zM393 934l-131 -162h-41
l98 162h74z" />
    <glyph glyph-name="cacute" unicode="&#x107;" horiz-adv-x="470" 
d="M421 98l27 -46q-96 -67 -179 -67q-102 0 -165.5 63t-63.5 188q0 116 68.5 184t169.5 68q66 0 142 -19l-13 -54q-71 19 -128 19q-84 0 -131 -50t-47 -148q0 -92 46 -144t122 -52q69 0 152 58zM321 706l-131 -162h-41l98 162h74z" />
    <glyph glyph-name="Ccaron" unicode="&#x10c;" horiz-adv-x="615" 
d="M370 715q106 0 191 -38l-24 -59q-50 20 -84 28.5t-83 8.5q-121 0 -191.5 -84t-70.5 -221q0 -143 69.5 -224t192.5 -81q49 0 92.5 19.5t98.5 56.5l28 -51q-110 -85 -219 -85q-161 0 -245.5 101t-84.5 264q0 102 35 183t111.5 131.5t183.5 50.5zM456 934l-112 -162h-74
l-112 162h41l108 -117l108 117h41z" />
    <glyph glyph-name="ccaron" unicode="&#x10d;" horiz-adv-x="470" 
d="M421 98l27 -46q-96 -67 -179 -67q-102 0 -165.5 63t-63.5 188q0 116 68.5 184t169.5 68q66 0 142 -19l-13 -54q-71 19 -128 19q-84 0 -131 -50t-47 -148q0 -92 46 -144t122 -52q69 0 152 58zM384 706l-112 -162h-74l-112 162h41l108 -117l108 117h41z" />
    <glyph glyph-name="Dcaron" unicode="&#x10e;" horiz-adv-x="627" 
d="M78 700h201q66 0 119.5 -21t88 -56t57.5 -81t33 -94t10 -98t-10 -98t-33 -94t-57.5 -81t-88 -56t-119.5 -21h-201v700zM142 60h122q129 0 192 77t63 213t-63 213t-192 77h-122v-580zM462 934l-112 -162h-74l-112 162h41l108 -117l108 117h41z" />
    <glyph glyph-name="dcaron" unicode="&#x10f;" horiz-adv-x="642" 
d="M468 0h-58v67q-76 -82 -163 -82q-86 0 -146.5 64t-60.5 188q0 116 69 183.5t156 67.5q79 0 145 -39v251h58v-700zM410 127v261q-36 25 -65.5 35.5t-71.5 10.5q-21 0 -43 -5.5t-46 -20t-42.5 -35.5t-30.5 -56.5t-12 -79.5q0 -97 44 -146.5t113 -49.5q78 0 154 86zM632 640
q0 -44 -80 -140l-27 15l50 92q-18 2 -30.5 14.5t-12.5 31.5q0 18 14 32.5t33 14.5q22 0 37.5 -16t15.5 -44z" />
    <glyph glyph-name="Dcroat" unicode="&#x110;" horiz-adv-x="627" 
d="M78 700h201q66 0 119.5 -21.5t88 -56t57.5 -81t33 -94t10 -97.5t-10 -98t-33 -94t-57.5 -81t-88 -56t-119.5 -21h-201v327h-60v46h60v327zM142 60h122q128 0 191.5 77t63.5 213q0 135 -63.5 212.5t-191.5 77.5h-122v-267h148v-46h-148v-267z" />
    <glyph glyph-name="dcroat" unicode="&#x111;" horiz-adv-x="532" 
d="M468 0h-58v67q-76 -82 -163 -82q-86 0 -146.5 64t-60.5 188q0 116 69 183.5t156 67.5q79 0 145 -39v102h-163v49h163v100h58v-100h60v-49h-60v-551zM410 127v261q-36 25 -65.5 35.5t-71.5 10.5q-21 0 -43 -5.5t-46 -20t-42.5 -35.5t-30.5 -56.5t-12 -79.5
q0 -97 44 -146.5t113 -49.5q78 0 154 86z" />
    <glyph glyph-name="Emacron" unicode="&#x112;" horiz-adv-x="469" 
d="M391 392v-60h-249v-272h284v-60h-348v700h337v-60h-273v-248h249zM364 822h-260v53h260v-53z" />
    <glyph glyph-name="emacron" unicode="&#x113;" horiz-adv-x="478" 
d="M446 241h-346q0 -201 175 -201q58 0 131 53q4 -9 13.5 -23.5t12.5 -21.5q-26 -19 -43.5 -30t-51 -22t-68.5 -11q-98 0 -163.5 61.5t-65.5 179.5q0 126 64.5 194t146.5 68q195 0 195 -247zM254 433q-124 0 -150 -145h282q-4 69 -34 107t-98 38zM369 594h-260v53h260v-53z
" />
    <glyph glyph-name="Edotaccent" unicode="&#x116;" horiz-adv-x="469" 
d="M391 392v-60h-249v-272h284v-60h-348v700h337v-60h-273v-248h249zM234 794q-20 0 -35 14.5t-15 34.5q0 22 15 37t35 15q22 0 36.5 -15t14.5 -37q0 -20 -14.5 -34.5t-36.5 -14.5z" />
    <glyph glyph-name="edotaccent" unicode="&#x117;" horiz-adv-x="478" 
d="M446 241h-346q0 -201 175 -201q58 0 131 53q4 -9 13.5 -23.5t12.5 -21.5q-26 -19 -43.5 -30t-51 -22t-68.5 -11q-98 0 -163.5 61.5t-65.5 179.5q0 126 64.5 194t146.5 68q195 0 195 -247zM254 433q-124 0 -150 -145h282q-4 69 -34 107t-98 38zM238 566q-20 0 -35 14.5
t-15 34.5q0 22 15 37t35 15q22 0 36.5 -15t14.5 -37q0 -20 -14.5 -34.5t-36.5 -14.5z" />
    <glyph glyph-name="Eogonek" unicode="&#x118;" horiz-adv-x="469" 
d="M368 0h-290v700h337v-60h-273v-248h249v-60h-249v-272h284v-60q-89 -57 -89 -111q0 -37 42 -37q26 0 47 8v-32q-32 -21 -73 -21q-37 0 -54.5 22t-17.5 49q0 56 87 122z" />
    <glyph glyph-name="eogonek" unicode="&#x119;" horiz-adv-x="478" 
d="M446 241h-346q0 -201 175 -201q58 0 131 53q4 -9 13.5 -23.5t12.5 -21.5q-47 -35 -84 -49q-87 -56 -87 -110q0 -37 42 -37q26 0 47 8v-32q-32 -21 -73 -21q-37 0 -54.5 22t-17.5 49q0 50 68 107h-4q-98 0 -163.5 61.5t-65.5 179.5q0 126 64.5 194t146.5 68
q195 0 195 -247zM254 433q-124 0 -150 -145h282q-4 69 -34 107t-98 38z" />
    <glyph glyph-name="Ecaron" unicode="&#x11a;" horiz-adv-x="469" 
d="M391 392v-60h-249v-272h284v-60h-348v700h337v-60h-273v-248h249zM383 934l-112 -162h-74l-112 162h41l108 -117l108 117h41z" />
    <glyph glyph-name="ecaron" unicode="&#x11b;" horiz-adv-x="478" 
d="M446 241h-346q0 -201 175 -201q58 0 131 53q4 -9 13.5 -23.5t12.5 -21.5q-26 -19 -43.5 -30t-51 -22t-68.5 -11q-98 0 -163.5 61.5t-65.5 179.5q0 126 64.5 194t146.5 68q195 0 195 -247zM254 433q-124 0 -150 -145h282q-4 69 -34 107t-98 38zM388 706l-112 -162h-74
l-112 162h41l108 -117l108 117h41z" />
    <glyph glyph-name="Gcommaaccent" unicode="&#x122;" horiz-adv-x="650" 
d="M370 715q120 0 206 -37l-24 -59q-101 36 -182 36q-112 0 -187 -85.5t-75 -219.5q0 -140 74 -222.5t188 -82.5q82 0 174 57v229h70v-257q-36 -24 -60.5 -38.5t-78 -32.5t-105.5 -18q-161 0 -245.5 101t-84.5 264q0 102 35 183t111.5 131.5t183.5 50.5zM378 -100
q0 -44 -80 -140l-27 15l50 92q-18 2 -30.5 14.5t-12.5 31.5q0 18 14 32.5t33 14.5q22 0 37.5 -16t15.5 -44z" />
    <glyph glyph-name="gcommaaccent" unicode="&#x123;" horiz-adv-x="485" 
d="M454 454l-81 -30q49 -42 49 -113q0 -179 -259 -226v-4q280 -10 280 -136q0 -67 -62.5 -111t-163.5 -44q-95 0 -139 38t-44 87q0 41 31 69t101 56l-93 12v48q87 17 158 51q-20 0 -39 7q-67 8 -100 49t-33 104q0 75 51.5 126t129.5 51q53 0 94 -25l120 46v-55zM117 311
q0 -56 32.5 -89.5t90.5 -33.5q59 0 91.5 32.5t32.5 90.5q0 52 -33 89t-91 37q-57 0 -90 -37t-33 -89zM217 -160q78 0 123 26.5t45 71.5q0 35 -32.5 56t-114.5 31q-149 -45 -149 -108q0 -34 33.5 -55.5t94.5 -21.5zM193 610q0 44 80 140l27 -15l-50 -92q18 -2 30.5 -14.5
t12.5 -31.5q0 -18 -14 -32.5t-33 -14.5q-22 0 -37.5 16t-15.5 44z" />
    <glyph glyph-name="Imacron" unicode="&#x12a;" horiz-adv-x="220" 
d="M142 0h-64v700h64v-700zM240 822h-260v53h260v-53z" />
    <glyph glyph-name="imacron" unicode="&#x12b;" horiz-adv-x="186" 
d="M123 472v-472h-58v472h58zM223 594h-260v53h260v-53z" />
    <glyph glyph-name="Iogonek" unicode="&#x12e;" horiz-adv-x="220" 
d="M84 0h-6v700h64v-700q-89 -57 -89 -111q0 -37 42 -37q26 0 47 8v-32q-32 -21 -73 -21q-37 0 -54.5 22t-17.5 49q0 56 87 122z" />
    <glyph glyph-name="iogonek" unicode="&#x12f;" horiz-adv-x="186" 
d="M108 0h-43v472h58v-472h43q-89 -57 -89 -111q0 -37 42 -37q26 0 47 8v-32q-32 -21 -73 -21q-37 0 -54.5 22t-17.5 49q0 56 87 122zM92 592q-17 0 -30 13t-13 30q0 18 13 31t30 13q19 0 31.5 -13t12.5 -31q0 -17 -13 -30t-31 -13z" />
    <glyph glyph-name="dotlessi" unicode="&#x131;" horiz-adv-x="186" 
d="M123 472v-472h-58v472h58z" />
    <glyph glyph-name="Kcommaaccent" unicode="&#x136;" horiz-adv-x="567" 
d="M540 0h-79l-216 332h-103v-332h-64v700h64v-308h96l219 308h78l-238 -334zM337 -100q0 -44 -80 -140l-27 15l50 92q-18 2 -30.5 14.5t-12.5 31.5q0 18 14 32.5t33 14.5q22 0 37.5 -16t15.5 -44z" />
    <glyph glyph-name="kcommaaccent" unicode="&#x137;" horiz-adv-x="444" 
d="M426 472l-187 -194l182 -278h-68l-155 235l-76 -79v-156h-58v700h58v-474l233 246h71zM275 -100q0 -44 -80 -140l-27 15l50 92q-18 2 -30.5 14.5t-12.5 31.5q0 18 14 32.5t33 14.5q22 0 37.5 -16t15.5 -44z" />
    <glyph glyph-name="Lacute" unicode="&#x139;" horiz-adv-x="470" 
d="M453 60v-60h-375v700h64v-640h311zM323 934l-131 -162h-41l98 162h74z" />
    <glyph glyph-name="lacute" unicode="&#x13a;" horiz-adv-x="186" 
d="M122 700v-700h-58v700h58zM199 935l-131 -162h-41l98 162h74z" />
    <glyph glyph-name="Lcommaaccent" unicode="&#x13b;" horiz-adv-x="470" 
d="M453 60v-60h-375v700h64v-640h311zM288 -100q0 -44 -80 -140l-27 15l50 92q-18 2 -30.5 14.5t-12.5 31.5q0 18 14 32.5t33 14.5q22 0 37.5 -16t15.5 -44z" />
    <glyph glyph-name="lcommaaccent" unicode="&#x13c;" horiz-adv-x="186" 
d="M122 700v-700h-58v700h58zM147 -100q0 -44 -80 -140l-27 15l50 92q-18 2 -30.5 14.5t-12.5 31.5q0 18 14 32.5t33 14.5q22 0 37.5 -16t15.5 -44z" />
    <glyph glyph-name="Lcaron" unicode="&#x13d;" horiz-adv-x="470" 
d="M453 60v-60h-375v700h64v-640h311zM340 640q0 -44 -80 -140l-27 15l50 92q-18 2 -30.5 14.5t-12.5 31.5q0 18 14 32.5t33 14.5q22 0 37.5 -16t15.5 -44z" />
    <glyph glyph-name="lcaron" unicode="&#x13e;" horiz-adv-x="292" 
d="M122 700v-700h-58v700h58zM282 640q0 -44 -80 -140l-27 15l50 92q-18 2 -30.5 14.5t-12.5 31.5q0 18 14 32.5t33 14.5q22 0 37.5 -16t15.5 -44z" />
    <glyph glyph-name="Lslash" unicode="&#x141;" horiz-adv-x="470" 
d="M253 375l-111 -65v-250h311v-60h-375v272l-56 -32l-23 39l79 46v375h64v-338l88 52z" />
    <glyph glyph-name="lslash" unicode="&#x142;" horiz-adv-x="186" 
d="M209 318l-87 -50v-268h-58v234l-59 -35l-23 39l82 48v414h58v-380l64 37z" />
    <glyph glyph-name="Nacute" unicode="&#x143;" horiz-adv-x="696" 
d="M618 700v-700h-47l-433 575v-575h-60v700h47l433 -576v576h60zM434 934l-131 -162h-41l98 162h74z" />
    <glyph glyph-name="nacute" unicode="&#x144;" horiz-adv-x="516" 
d="M122 472v-57q74 71 156 71q76 0 128.5 -53.5t52.5 -158.5v-274h-58v274q0 78 -38.5 117.5t-94.5 39.5q-36 0 -78.5 -21t-67.5 -54v-356h-58v472h58zM344 706l-131 -162h-41l98 162h74z" />
    <glyph glyph-name="Ncommaaccent" unicode="&#x145;" horiz-adv-x="696" 
d="M618 700v-700h-47l-433 575v-575h-60v700h47l433 -576v576h60zM401 -100q0 -44 -80 -140l-27 15l50 92q-18 2 -30.5 14.5t-12.5 31.5q0 18 14 32.5t33 14.5q22 0 37.5 -16t15.5 -44z" />
    <glyph glyph-name="ncommaaccent" unicode="&#x146;" horiz-adv-x="516" 
d="M122 472v-57q74 71 156 71q76 0 128.5 -53.5t52.5 -158.5v-274h-58v274q0 78 -38.5 117.5t-94.5 39.5q-36 0 -78.5 -21t-67.5 -54v-356h-58v472h58zM311 -100q0 -44 -80 -140l-27 15l50 92q-18 2 -30.5 14.5t-12.5 31.5q0 18 14 32.5t33 14.5q22 0 37.5 -16t15.5 -44z
" />
    <glyph glyph-name="Ncaron" unicode="&#x147;" horiz-adv-x="696" 
d="M618 700v-700h-47l-433 575v-575h-60v700h47l433 -576v576h60zM497 934l-112 -162h-74l-112 162h41l108 -117l108 117h41z" />
    <glyph glyph-name="ncaron" unicode="&#x148;" horiz-adv-x="516" 
d="M122 472v-57q74 71 156 71q76 0 128.5 -53.5t52.5 -158.5v-274h-58v274q0 78 -38.5 117.5t-94.5 39.5q-36 0 -78.5 -21t-67.5 -54v-356h-58v472h58zM407 706l-112 -162h-74l-112 162h41l108 -117l108 117h41z" />
    <glyph glyph-name="Omacron" unicode="&#x14c;" horiz-adv-x="736" 
d="M368 -15q-151 0 -239.5 107.5t-88.5 257.5t88.5 257.5t239.5 107.5t239.5 -107.5t88.5 -257.5t-88.5 -257.5t-239.5 -107.5zM368 45q114 0 189 84.5t75 220.5t-75 220.5t-189 84.5t-189 -84.5t-75 -220.5q0 -135 75.5 -220t188.5 -85zM498 822h-260v53h260v-53z" />
    <glyph glyph-name="omacron" unicode="&#x14d;" horiz-adv-x="536" 
d="M268 -15q-101 0 -164.5 65.5t-63.5 185.5t63.5 185.5t164.5 65.5t164.5 -65.5t63.5 -185.5t-63.5 -185.5t-164.5 -65.5zM268 37q75 0 122.5 50t47.5 149t-47.5 149t-122.5 50t-122.5 -50t-47.5 -149q0 -98 47.5 -148.5t122.5 -50.5zM398 594h-260v53h260v-53z" />
    <glyph glyph-name="Ohungarumlaut" unicode="&#x150;" horiz-adv-x="736" 
d="M368 -15q-151 0 -239.5 107.5t-88.5 257.5t88.5 257.5t239.5 107.5t239.5 -107.5t88.5 -257.5t-88.5 -257.5t-239.5 -107.5zM368 45q114 0 189 84.5t75 220.5t-75 220.5t-189 84.5t-189 -84.5t-75 -220.5q0 -135 75.5 -220t188.5 -85zM342 772l89 162h86l-134 -162h-41z
M218 772l89 162h86l-134 -162h-41z" />
    <glyph glyph-name="ohungarumlaut" unicode="&#x151;" horiz-adv-x="536" 
d="M268 -15q-101 0 -164.5 65.5t-63.5 185.5t63.5 185.5t164.5 65.5t164.5 -65.5t63.5 -185.5t-63.5 -185.5t-164.5 -65.5zM268 37q75 0 122.5 50t47.5 149t-47.5 149t-122.5 50t-122.5 -50t-47.5 -149q0 -98 47.5 -148.5t122.5 -50.5zM242 544l89 162h86l-134 -162h-41z
M118 544l89 162h86l-134 -162h-41z" />
    <glyph glyph-name="OE" unicode="&#x152;" horiz-adv-x="1023" 
d="M945 392v-60h-249v-272h284v-60h-348v132q-42 -68 -109.5 -107.5t-154.5 -39.5q-151 0 -239.5 107.5t-88.5 257.5t88.5 257.5t239.5 107.5q87 0 154.5 -40t109.5 -108v133h337v-60h-273v-248h249zM368 45q114 0 189 84.5t75 220.5t-75 220.5t-189 84.5t-189 -84.5
t-75 -220.5q0 -135 75.5 -220t188.5 -85z" />
    <glyph glyph-name="oe" unicode="&#x153;" horiz-adv-x="876" 
d="M845 241h-348q0 -201 176 -201q60 0 131 53q4 -6 13 -21.5t13 -23.5q-26 -19 -43.5 -30t-51 -22t-68.5 -11q-65 0 -118.5 30t-81.5 88q-28 -58 -80 -88t-119 -30q-102 0 -165 65t-63 186t63 186t165 65q68 0 120 -31t79 -90q28 60 78 91t104 31q196 0 196 -247zM268 435
q-75 0 -122.5 -50t-47.5 -149t47.5 -149t122.5 -50t122 50t47 149t-47.5 149t-121.5 50zM652 433q-55 0 -96 -33.5t-55 -111.5h283q-4 69 -34 107t-98 38z" />
    <glyph glyph-name="Racute" unicode="&#x154;" horiz-adv-x="540" 
d="M138 289v-289h-64v700h182q88 0 153 -57.5t65 -155.5q0 -68 -37 -115t-99 -72l174 -300h-74l-168 289h-132zM138 640v-291h100q80 0 123 35.5t43 102.5q0 69 -44 111t-122 42h-100zM356 934l-131 -162h-41l98 162h74z" />
    <glyph glyph-name="racute" unicode="&#x155;" horiz-adv-x="320" 
d="M122 472v-148q20 72 60 109t113 55l15 -52q-188 -57 -188 -237v-199h-58v472h58zM246 706l-131 -162h-41l98 162h74z" />
    <glyph glyph-name="Rcommaaccent" unicode="&#x156;" horiz-adv-x="540" 
d="M138 289v-289h-64v700h182q88 0 153 -57.5t65 -155.5q0 -68 -37 -115t-99 -72l174 -300h-74l-168 289h-132zM138 640v-291h100q80 0 123 35.5t43 102.5q0 69 -44 111t-122 42h-100zM323 -100q0 -44 -80 -140l-27 15l50 92q-18 2 -30.5 14.5t-12.5 31.5q0 18 14 32.5
t33 14.5q22 0 37.5 -16t15.5 -44z" />
    <glyph glyph-name="rcommaaccent" unicode="&#x157;" horiz-adv-x="320" 
d="M122 472v-148q20 72 60 109t113 55l15 -52q-188 -57 -188 -237v-199h-58v472h58zM213 -100q0 -44 -80 -140l-27 15l50 92q-18 2 -30.5 14.5t-12.5 31.5q0 18 14 32.5t33 14.5q22 0 37.5 -16t15.5 -44z" />
    <glyph glyph-name="Rcaron" unicode="&#x158;" horiz-adv-x="540" 
d="M138 289v-289h-64v700h182q88 0 153 -57.5t65 -155.5q0 -68 -37 -115t-99 -72l174 -300h-74l-168 289h-132zM138 640v-291h100q80 0 123 35.5t43 102.5q0 69 -44 111t-122 42h-100zM419 934l-112 -162h-74l-112 162h41l108 -117l108 117h41z" />
    <glyph glyph-name="rcaron" unicode="&#x159;" horiz-adv-x="320" 
d="M122 472v-148q20 72 60 109t113 55l15 -52q-188 -57 -188 -237v-199h-58v472h58zM309 706l-112 -162h-74l-112 162h41l108 -117l108 117h41z" />
    <glyph glyph-name="Sacute" unicode="&#x15a;" horiz-adv-x="502" 
d="M468 186q0 -85 -59.5 -143t-168.5 -58q-94 0 -204 77l31 51q101 -68 182 -68q68 0 107.5 35.5t39.5 97.5q0 41 -24.5 72.5t-61.5 49.5l-80 39.5t-80 42.5t-61.5 58.5t-24.5 86.5q0 81 57 134.5t172 53.5q77 0 161 -39l-26 -59q-87 35 -151 35q-62 0 -103 -29t-41 -86
q0 -45 34.5 -77.5t83.5 -54t98.5 -46t84 -68t34.5 -105.5zM337 934l-131 -162h-41l98 162h74z" />
    <glyph glyph-name="sacute" unicode="&#x15b;" horiz-adv-x="410" 
d="M376 135q0 -45 -18.5 -77t-47.5 -46.5t-54 -20.5t-49 -6q-86 0 -173 66l26 48q78 -60 143 -60q114 0 114 86q0 33 -26.5 54.5t-64.5 33t-75.5 25t-64 41.5t-26.5 72q0 63 42 100.5t116 37.5q67 0 146 -33l-19 -51q-76 32 -137 32q-48 0 -70 -23t-22 -58q0 -31 27 -50
t65 -30.5t76 -25t65 -42t27 -73.5zM291 706l-131 -162h-41l98 162h74z" />
    <glyph glyph-name="Scaron" unicode="&#x160;" horiz-adv-x="502" 
d="M468 186q0 -85 -59.5 -143t-168.5 -58q-94 0 -204 77l31 51q101 -68 182 -68q68 0 107.5 35.5t39.5 97.5q0 41 -24.5 72.5t-61.5 49.5l-80 39.5t-80 42.5t-61.5 58.5t-24.5 86.5q0 81 57 134.5t172 53.5q77 0 161 -39l-26 -59q-87 35 -151 35q-62 0 -103 -29t-41 -86
q0 -45 34.5 -77.5t83.5 -54t98.5 -46t84 -68t34.5 -105.5zM400 934l-112 -162h-74l-112 162h41l108 -117l108 117h41z" />
    <glyph glyph-name="scaron" unicode="&#x161;" horiz-adv-x="410" 
d="M376 135q0 -45 -18.5 -77t-47.5 -46.5t-54 -20.5t-49 -6q-86 0 -173 66l26 48q78 -60 143 -60q114 0 114 86q0 33 -26.5 54.5t-64.5 33t-75.5 25t-64 41.5t-26.5 72q0 63 42 100.5t116 37.5q67 0 146 -33l-19 -51q-76 32 -137 32q-48 0 -70 -23t-22 -58q0 -31 27 -50
t65 -30.5t76 -25t65 -42t27 -73.5zM354 706l-112 -162h-74l-112 162h41l108 -117l108 117h41z" />
    <glyph glyph-name="Tcaron" unicode="&#x164;" horiz-adv-x="558" 
d="M540 700v-60h-229v-640h-64v640h-229v60h522zM428 934l-112 -162h-74l-112 162h41l108 -117l108 117h41z" />
    <glyph glyph-name="tcaron" unicode="&#x165;" horiz-adv-x="419" 
d="M429 634q0 -44 -80 -140l-27 15l50 92q-18 2 -30.5 14.5t-12.5 31.5q0 18 14 32.5t33 14.5q22 0 37.5 -16t15.5 -44zM300 85l20 -48q-86 -42 -133 -42q-28 0 -46.5 11.5t-27 33.5t-11 43t-2.5 50v286h-80v53h80v74l53 45h5v-119h159v-53h-159v-293q0 -42 10.5 -57.5
t40.5 -15.5q29 0 91 32z" />
    <glyph glyph-name="Umacron" unicode="&#x16a;" horiz-adv-x="657" 
d="M329 45q97 0 143 48.5t46 127.5v480h64v-480q0 -114 -68 -175t-185 -61t-185.5 61t-68.5 175v480h64v-480q0 -78 47 -127t143 -49zM458 822h-260v53h260v-53z" />
    <glyph glyph-name="umacron" unicode="&#x16b;" horiz-adv-x="492" 
d="M428 472v-472h-58v76q-76 -87 -156 -87q-78 0 -117.5 48t-39.5 159v276h58v-276q0 -86 28 -117.5t89 -31.5q71 0 138 84v341h58zM376 594h-260v53h260v-53z" />
    <glyph glyph-name="Uring" unicode="&#x16e;" horiz-adv-x="657" 
d="M329 45q97 0 143 48.5t46 127.5v480h64v-480q0 -114 -68 -175t-185 -61t-185.5 61t-68.5 175v480h64v-480q0 -78 47 -127t143 -49zM248 850q0 34 23.5 57t57.5 23t57 -23t23 -57t-23 -57.5t-57 -23.5t-57.5 23.5t-23.5 57.5zM284 850q0 -18 12.5 -30.5t31.5 -12.5
q18 0 30 12.5t12 30.5q0 19 -12 31t-30 12q-19 0 -31.5 -12t-12.5 -31z" />
    <glyph glyph-name="uring" unicode="&#x16f;" horiz-adv-x="492" 
d="M428 472v-472h-58v76q-76 -87 -156 -87q-78 0 -117.5 48t-39.5 159v276h58v-276q0 -86 28 -117.5t89 -31.5q71 0 138 84v341h58zM165 622q0 34 23.5 57t57.5 23t57 -23t23 -57t-23 -57.5t-57 -23.5t-57.5 23.5t-23.5 57.5zM201 622q0 -18 12.5 -30.5t31.5 -12.5
q18 0 30 12.5t12 30.5q0 19 -12 31t-30 12q-19 0 -31.5 -12t-12.5 -31z" />
    <glyph glyph-name="Uhungarumlaut" unicode="&#x170;" horiz-adv-x="657" 
d="M329 45q97 0 143 48.5t46 127.5v480h64v-480q0 -114 -68 -175t-185 -61t-185.5 61t-68.5 175v480h64v-480q0 -78 47 -127t143 -49zM303 772l89 162h86l-134 -162h-41zM179 772l89 162h86l-134 -162h-41z" />
    <glyph glyph-name="uhungarumlaut" unicode="&#x171;" horiz-adv-x="492" 
d="M428 472v-472h-58v76q-76 -87 -156 -87q-78 0 -117.5 48t-39.5 159v276h58v-276q0 -86 28 -117.5t89 -31.5q71 0 138 84v341h58zM220 544l89 162h86l-134 -162h-41zM96 544l89 162h86l-134 -162h-41z" />
    <glyph glyph-name="Uogonek" unicode="&#x172;" horiz-adv-x="657" 
d="M329 45q97 0 143 48.5t46 127.5v480h64v-480q0 -86 -39.5 -142.5t-111.5 -78.5q-88 -57 -88 -111q0 -37 42 -37q26 0 47 8v-32q-32 -21 -73 -21q-37 0 -54.5 22t-17.5 49q0 55 73 109q-20 -2 -31 -2q-117 0 -185.5 61t-68.5 175v480h64v-480q0 -78 47 -127t143 -49z" />
    <glyph glyph-name="uogonek" unicode="&#x173;" horiz-adv-x="492" 
d="M370 0v76q-76 -87 -156 -87q-78 0 -117.5 48t-39.5 159v276h58v-276q0 -86 28 -117.5t89 -31.5q71 0 138 84v341h58v-472q-89 -57 -89 -111q0 -37 42 -37q26 0 47 8v-32q-32 -21 -73 -21q-37 0 -54.5 22t-17.5 49q0 56 87 122z" />
    <glyph glyph-name="Ydieresis" unicode="&#x178;" horiz-adv-x="551" 
d="M12 700h71l194 -373l194 373h68l-232 -443v-257h-64v258zM182 804q-17 0 -30 13t-13 30q0 19 12.5 31.5t30.5 12.5q19 0 31.5 -12.5t12.5 -31.5q0 -17 -13 -30t-31 -13zM368 804q-17 0 -30 13t-13 30q0 19 12.5 31.5t30.5 12.5q19 0 31.5 -12.5t12.5 -31.5q0 -17 -13 -30
t-31 -13z" />
    <glyph glyph-name="Zacute" unicode="&#x179;" horiz-adv-x="551" 
d="M512 0h-481v26l390 614h-364v60h463v-26l-390 -614h382v-60zM361 934l-131 -162h-41l98 162h74z" />
    <glyph glyph-name="zacute" unicode="&#x17a;" horiz-adv-x="467" 
d="M410 0h-370v21l281 397h-273v54h369v-20l-282 -398h275v-54zM319 706l-131 -162h-41l98 162h74z" />
    <glyph glyph-name="Zdotaccent" unicode="&#x17b;" horiz-adv-x="551" 
d="M512 0h-481v26l390 614h-364v60h463v-26l-390 -614h382v-60zM275 794q-20 0 -35 14.5t-15 34.5q0 22 15 37t35 15q22 0 36.5 -15t14.5 -37q0 -20 -14.5 -34.5t-36.5 -14.5z" />
    <glyph glyph-name="zdotaccent" unicode="&#x17c;" horiz-adv-x="467" 
d="M410 0h-370v21l281 397h-273v54h369v-20l-282 -398h275v-54zM233 566q-20 0 -35 14.5t-15 34.5q0 22 15 37t35 15q22 0 36.5 -15t14.5 -37q0 -20 -14.5 -34.5t-36.5 -14.5z" />
    <glyph glyph-name="Zcaron" unicode="&#x17d;" horiz-adv-x="551" 
d="M512 0h-481v26l390 614h-364v60h463v-26l-390 -614h382v-60zM424 934l-112 -162h-74l-112 162h41l108 -117l108 117h41z" />
    <glyph glyph-name="zcaron" unicode="&#x17e;" horiz-adv-x="467" 
d="M410 0h-370v21l281 397h-273v54h369v-20l-282 -398h275v-54zM382 706l-112 -162h-74l-112 162h41l108 -117l108 117h41z" />
    <glyph glyph-name="florin" unicode="&#x192;" horiz-adv-x="428" 
d="M384 405h-140l-89 -430q-26 -125 -73.5 -167.5t-143.5 -42.5v56q36 0 57.5 5t42 21t33.5 46.5t24 81.5l89 430h-57v54h67l26 142q15 84 50.5 116.5t94.5 32.5q27 0 50 -4t55 -13.5t36 -10.5l-23 -51q-92 29 -123 29q-26 0 -45 -17.5t-26 -50.5l-34 -173h129v-54z" />
    <glyph glyph-name="circumflex" unicode="&#x2c6;" horiz-adv-x="434" 
d="M248 706l112 -162h-41l-108 117l-108 -117h-41l112 162h74z" />
    <glyph glyph-name="caron" unicode="&#x2c7;" horiz-adv-x="434" 
d="M360 706l-112 -162h-74l-112 162h41l108 -117l108 117h41z" />
    <glyph glyph-name="breve" unicode="&#x2d8;" horiz-adv-x="432" 
d="M216 563q-47 0 -78 11t-74 37l24 46q38 -23 65 -32.5t63 -9.5t63 9.5t65 32.5l24 -46q-43 -26 -74 -37t-78 -11z" />
    <glyph glyph-name="dotaccent" unicode="&#x2d9;" horiz-adv-x="230" 
d="M114 566q-20 0 -35 14.5t-15 34.5q0 22 15 37t35 15q22 0 36.5 -15t14.5 -37q0 -20 -14.5 -34.5t-36.5 -14.5z" />
    <glyph glyph-name="ring" unicode="&#x2da;" horiz-adv-x="261" 
d="M50 622q0 34 23.5 57t57.5 23t57 -23t23 -57t-23 -57.5t-57 -23.5t-57.5 23.5t-23.5 57.5zM86 622q0 -18 12.5 -30.5t31.5 -12.5q18 0 30 12.5t12 30.5q0 19 -12 31t-30 12q-19 0 -31.5 -12t-12.5 -31z" />
    <glyph glyph-name="ogonek" unicode="&#x2db;" horiz-adv-x="222" 
d="M114 0h58q-89 -57 -89 -111q0 -37 42 -37q26 0 47 8v-32q-32 -21 -73 -21q-37 0 -54.5 22t-17.5 49q0 56 87 122z" />
    <glyph glyph-name="tilde" unicode="&#x2dc;" horiz-adv-x="436" 
d="M281 625q26 0 43.5 10.5t37.5 39.5l18 -43q-21 -30 -43.5 -44.5t-56.5 -14.5t-69 25t-56 25q-26 0 -43.5 -10.5t-37.5 -39.5l-18 43q21 30 43.5 44.5t56.5 14.5t69 -25t56 -25z" />
    <glyph glyph-name="hungarumlaut" unicode="&#x2dd;" horiz-adv-x="426" 
d="M177 544l89 162h86l-134 -162h-41zM53 544l89 162h86l-134 -162h-41z" />
    <glyph glyph-name="afii10023" unicode="&#x401;" horiz-adv-x="469" 
d="M339 762q-17 0 -29 12t-12 29t12 29.5t29 12.5t29.5 -12.5t12.5 -29.5t-12.5 -29t-29.5 -12zM159 762q-17 0 -29 12t-12 29t12 29.5t29 12.5t29.5 -12.5t12.5 -29.5t-12.5 -29t-29.5 -12zM391 392v-60h-249v-272h284v-60h-348v700h337v-60h-273v-248h249z" />
    <glyph glyph-name="afii10051" unicode="&#x402;" horiz-adv-x="676" 
d="M556 700v-60h-237v-244q7 6 19 15t48.5 24t71.5 15q73 0 121.5 -47.5t48.5 -149.5v-213q0 -245 -223 -245v60q80 0 119.5 39t39.5 146v209q0 66 -31 103t-89 37q-62 0 -125 -51v-338h-64v640h-237v60h538z" />
    <glyph glyph-name="afii10052" unicode="&#x403;" horiz-adv-x="424" 
d="M409 640h-267v-640h-64v700h331v-60zM358 934l-131 -162h-41l98 162h74z" />
    <glyph glyph-name="afii10053" unicode="&#x404;" horiz-adv-x="619" 
d="M370 715q104 0 197 -38l-24 -59q-99 37 -173 37q-112 0 -180.5 -72t-79.5 -191h343v-60h-345q5 -135 74 -211t188 -76q88 0 197 76l28 -51q-120 -85 -225 -85q-161 0 -245.5 101t-84.5 264q0 102 35 183t111.5 131.5t183.5 50.5z" />
    <glyph glyph-name="afii10054" unicode="&#x405;" horiz-adv-x="502" 
d="M468 186q0 -85 -59.5 -143t-168.5 -58q-94 0 -204 77l31 51q101 -68 182 -68q68 0 107.5 35.5t39.5 97.5q0 41 -24.5 72.5t-61.5 49.5l-80 39.5t-80 42.5t-61.5 58.5t-24.5 86.5q0 81 57 134.5t172 53.5q77 0 161 -39l-26 -59q-87 35 -151 35q-62 0 -103 -29t-41 -86
q0 -45 34.5 -77.5t83.5 -54t98.5 -46t84 -68t34.5 -105.5z" />
    <glyph glyph-name="afii10055" unicode="&#x406;" horiz-adv-x="216" 
d="M142 0h-64v700h64v-700z" />
    <glyph glyph-name="afii10056" unicode="&#x407;" horiz-adv-x="235" 
d="M148 0h-64v700h64v-700zM165 791q-14 0 -24.5 10.5t-10.5 24.5q0 15 10.5 26t24.5 11q15 0 25.5 -11t10.5 -26q0 -14 -10.5 -24.5t-25.5 -10.5zM69 791q-13 0 -24 10.5t-11 24.5q0 15 11 26t24 11q16 0 26.5 -11t10.5 -26q0 -14 -10.5 -24.5t-26.5 -10.5z" />
    <glyph glyph-name="afii10057" unicode="&#x408;" horiz-adv-x="246" 
d="M108 24v676h64v-676q0 -112 -50.5 -168.5t-161.5 -60.5v60q32 1 55 7t46 23t35 52t12 87z" />
    <glyph glyph-name="afii10058" unicode="&#x409;" horiz-adv-x="897" 
d="M557 700v-280h82q97 0 165 -53.5t68 -156.5t-68 -156.5t-165 -53.5h-146v640h-250q-4 -159 -12.5 -263t-22.5 -180.5t-38.5 -119.5t-57 -66t-81.5 -32l-18 56q34 6 58 21.5t42.5 50.5t29.5 81t19.5 123.5t13 166.5t7.5 222h374zM557 360v-300h83q79 0 122 43t43 107
t-43 107t-122 43h-83z" />
    <glyph glyph-name="afii10059" unicode="&#x40a;" horiz-adv-x="919" 
d="M580 700v-291h82q99 0 165.5 -46.5t66.5 -148.5q0 -104 -68 -159t-164 -55h-146v348h-374v-348h-64v700h64v-292h374v292h64zM580 349v-289h83q79 0 122 45t43 109q0 61 -42.5 98t-122.5 37h-83z" />
    <glyph glyph-name="afii10060" unicode="&#x40b;" horiz-adv-x="676" 
d="M555 700v-60h-237v-244q7 6 19 15t49 24t72 15q73 0 121 -48t48 -149v-253h-64v248q0 66 -30.5 103t-88.5 37q-60 0 -126 -50v-338h-63v640h-237v60h537z" />
    <glyph glyph-name="afii10061" unicode="&#x40c;" horiz-adv-x="567" 
d="M540 0h-79l-216 332h-103v-332h-64v700h64v-308h96l219 308h78l-238 -334zM389 934l-131 -162h-41l98 162h74z" />
    <glyph glyph-name="afii10062" unicode="&#x40e;" horiz-adv-x="580" 
d="M293 766q-19 0 -37.5 1.5t-37 5t-30 6t-30.5 8.5l-25 8t-26 9.5t-22 8.5l22 52q107 -47 186 -47q75 0 186 47l21 -52q-120 -47 -207 -47zM189 0l85 189l-262 511h70l226 -436l197 436h65l-316 -700h-65z" />
    <glyph glyph-name="afii10145" unicode="&#x40f;" horiz-adv-x="670" 
d="M528 700h64v-700h-217l-15 -185h-50l-15 185h-217v700h64v-640h386v640z" />
    <glyph glyph-name="afii10017" unicode="&#x410;" horiz-adv-x="590" 
d="M253 700h84l241 -700h-68l-70 203h-293l-71 -203h-64zM294 630l-127 -367h252z" />
    <glyph glyph-name="afii10018" unicode="&#x411;" horiz-adv-x="527" 
d="M142 640v-229h120q37 0 73.5 -10t71 -31.5t56 -61t21.5 -91.5q0 -105 -64 -161t-158 -56h-184v700h359v-60h-295zM142 351v-291h105q83 0 127 42t44 115q0 61 -44.5 97.5t-126.5 36.5h-105z" />
    <glyph glyph-name="afii10019" unicode="&#x412;" horiz-adv-x="528" 
d="M485 191q0 -92 -60 -141.5t-146 -49.5h-201v700h201q78 0 131 -43.5t53 -125.5q0 -56 -30.5 -102.5t-86.5 -64.5q61 -14 100 -61t39 -112zM421 191q0 67 -43 104t-112 37h-124v-272h124q71 0 113 32.5t42 98.5zM398 521q0 119 -140 119h-116v-248h116q67 0 103.5 33.5
t36.5 95.5z" />
    <glyph glyph-name="afii10020" unicode="&#x413;" horiz-adv-x="424" 
d="M409 640h-267v-640h-64v700h331v-60z" />
    <glyph glyph-name="afii10021" unicode="&#x414;" horiz-adv-x="697" 
d="M213 700h366v-640h78v-241h-50l-20 181h-486l-20 -181h-50v241h56q73 116 95.5 245.5t30.5 394.5zM515 60v580h-244q-11 -426 -117 -580h361z" />
    <glyph glyph-name="afii10022" unicode="&#x415;" horiz-adv-x="469" 
d="M391 392v-60h-249v-272h284v-60h-348v700h337v-60h-273v-248h249z" />
    <glyph glyph-name="afii10024" unicode="&#x416;" horiz-adv-x="866" 
d="M832 0h-80l-200 332h-88v-332h-64v332h-87l-201 -332h-79l226 366l-247 334h74l229 -308h85v308h64v-308h86l228 308h75l-247 -334z" />
    <glyph glyph-name="afii10025" unicode="&#x417;" horiz-adv-x="507" 
d="M464 188q0 -92 -61.5 -147.5t-152.5 -55.5q-121 0 -224 89l38 49q92 -78 184 -78q66 0 108 38t42 103q0 68 -46 107t-122 39h-59v60h59q73 0 114.5 37.5t41.5 102.5q0 59 -36 91.5t-99 32.5q-69 0 -158 -39l-19 59q95 39 186 39q83 0 136 -47.5t53 -130.5
q0 -59 -35.5 -108t-90.5 -67q61 -14 101 -61.5t40 -112.5z" />
    <glyph glyph-name="afii10026" unicode="&#x418;" horiz-adv-x="681" 
d="M142 99l389 601h72v-700h-64v601l-390 -601h-71v700h64v-601z" />
    <glyph glyph-name="afii10027" unicode="&#x419;" horiz-adv-x="681" 
d="M340 766q-19 0 -37 1.5t-36.5 5t-30.5 6t-30.5 8.5l-24.5 8t-26 9.5t-22 8.5l22 52q107 -47 185 -47q75 0 186 47l22 -52q-120 -47 -208 -47zM142 99l389 601h72v-700h-64v601l-390 -601h-71v700h64v-601z" />
    <glyph glyph-name="afii10028" unicode="&#x41a;" horiz-adv-x="567" 
d="M540 0h-79l-216 332h-103v-332h-64v700h64v-308h96l219 308h78l-238 -334z" />
    <glyph glyph-name="afii10029" unicode="&#x41b;" horiz-adv-x="651" 
d="M573 700v-700h-64v640h-266q-5 -210 -17 -332.5t-39.5 -194.5t-63.5 -97.5t-100 -36.5l-19 56q70 9 104 61t51 187t24 417h390z" />
    <glyph glyph-name="afii10030" unicode="&#x41c;" horiz-adv-x="843" 
d="M775 0h-65l-24 637l-240 -637h-52l-233 637l-31 -637h-62l38 700h100l217 -591l225 591h97z" />
    <glyph glyph-name="afii10031" unicode="&#x41d;" horiz-adv-x="670" 
d="M592 0h-64v332h-386v-332h-64v700h64v-308h386v308h64v-700z" />
    <glyph glyph-name="afii10032" unicode="&#x41e;" horiz-adv-x="736" 
d="M368 -15q-151 0 -239.5 107.5t-88.5 257.5t88.5 257.5t239.5 107.5t239.5 -107.5t88.5 -257.5t-88.5 -257.5t-239.5 -107.5zM368 45q114 0 189 84.5t75 220.5t-75 220.5t-189 84.5t-189 -84.5t-75 -220.5q0 -135 75.5 -220t188.5 -85z" />
    <glyph glyph-name="afii10033" unicode="&#x41f;" horiz-adv-x="670" 
d="M592 0h-64v640h-386v-640h-64v700h514v-700z" />
    <glyph glyph-name="afii10034" unicode="&#x420;" horiz-adv-x="495" 
d="M142 640v-297h90q79 0 122.5 39.5t43.5 107.5q0 69 -44 109.5t-122 40.5h-90zM142 283v-283h-64v700h172q88 0 153 -56.5t65 -153.5t-65 -152t-153 -55h-108z" />
    <glyph glyph-name="afii10035" unicode="&#x421;" horiz-adv-x="615" 
d="M370 715q106 0 191 -38l-24 -59q-50 20 -84 28.5t-83 8.5q-121 0 -191.5 -84t-70.5 -221q0 -143 69.5 -224t192.5 -81q49 0 92.5 19.5t98.5 56.5l28 -51q-110 -85 -219 -85q-161 0 -245.5 101t-84.5 264q0 102 35 183t111.5 131.5t183.5 50.5z" />
    <glyph glyph-name="afii10036" unicode="&#x422;" horiz-adv-x="558" 
d="M540 700v-60h-229v-640h-64v640h-229v60h522z" />
    <glyph glyph-name="afii10037" unicode="&#x423;" horiz-adv-x="580" 
d="M189 0l85 189l-262 511h70l226 -436l197 436h65l-316 -700h-65z" />
    <glyph glyph-name="afii10038" unicode="&#x424;" horiz-adv-x="738" 
d="M401 101v-101h-64v101q-135 0 -216 71.5t-81 205.5t81 205.5t216 71.5v90h64v-90q134 0 215.5 -72t81.5 -205q0 -134 -81.5 -205.5t-215.5 -71.5zM634 378q0 112 -62.5 164.5t-170.5 52.5v-434q108 0 170.5 52.5t62.5 164.5zM104 378q0 -113 62 -165t171 -52v434
q-109 0 -171 -52t-62 -165z" />
    <glyph glyph-name="afii10039" unicode="&#x425;" horiz-adv-x="573" 
d="M101 0h-71l218 348l-220 352h76l183 -292l184 292h71l-220 -348l222 -352h-76l-184 291z" />
    <glyph glyph-name="afii10040" unicode="&#x426;" horiz-adv-x="710" 
d="M592 60h78v-245h-50l-20 185h-522v700h64v-640h386v640h64v-640z" />
    <glyph glyph-name="afii10041" unicode="&#x427;" horiz-adv-x="561" 
d="M419 0v309q-95 -42 -197 -42q-32 0 -61 9t-56 28.5t-43 57t-16 89.5v249h64v-249q0 -60 32 -92t88 -32q36 0 94.5 11t94.5 29v333h64v-700h-64z" />
    <glyph glyph-name="afii10042" unicode="&#x428;" horiz-adv-x="912" 
d="M834 0h-756v700h64v-640h282v640h64v-640h282v640h64v-700z" />
    <glyph glyph-name="afii10043" unicode="&#x429;" horiz-adv-x="952" 
d="M842 0h-764v700h64v-640h282v640h64v-640h282v640h64v-640h78v-245h-50z" />
    <glyph glyph-name="afii10044" unicode="&#x42a;" horiz-adv-x="573" 
d="M166 640h-160v60h224v-280h85q97 0 165 -53.5t68 -156.5t-68 -156.5t-165 -53.5h-149v640zM230 360v-300h87q79 0 121.5 43t42.5 107t-42.5 107t-121.5 43h-87z" />
    <glyph glyph-name="afii10045" unicode="&#x42b;" horiz-adv-x="685" 
d="M607 700v-700h-64v700h64zM142 360v-300h87q79 0 122 43t43 107t-43 107t-122 43h-87zM142 700v-280h86q96 0 164 -53.5t68 -156.5t-68 -156.5t-164 -53.5h-150v700h64z" />
    <glyph glyph-name="afii10046" unicode="&#x42c;" horiz-adv-x="485" 
d="M142 360v-300h87q79 0 122 43t43 107t-43 107t-122 43h-87zM142 700v-280h86q96 0 164 -53.5t68 -156.5t-68 -156.5t-164 -53.5h-150v700h64z" />
    <glyph glyph-name="afii10047" unicode="&#x42d;" horiz-adv-x="624" 
d="M244 715q164 0 252 -102t88 -263q0 -163 -89 -264t-252 -101q-71 0 -128 27t-91 58l28 51q100 -76 191 -76q120 0 194 76.5t78 210.5h-339v60h337q-13 124 -86.5 192.5t-196.5 68.5q-75 0 -153 -34l-24 58q93 38 191 38z" />
    <glyph glyph-name="afii10048" unicode="&#x42e;" horiz-adv-x="937" 
d="M579 -15q-146 0 -229 100.5t-89 246.5h-119v-332h-64v700h64v-308h121q11 138 93.5 230.5t222.5 92.5q101 0 175 -52.5t108.5 -134t34.5 -178.5t-34.5 -178.5t-108.5 -134t-175 -52.5zM579 45q113 0 183.5 84t70.5 221t-70.5 221t-183.5 84t-183.5 -84t-70.5 -221
t71 -221t183 -84z" />
    <glyph glyph-name="afii10049" unicode="&#x42f;" horiz-adv-x="544" 
d="M402 0v289h-137l-167 -289h-74l173 300q-62 25 -98.5 72t-36.5 115q0 98 65 155.5t153 57.5h186v-700h-64zM402 349v291h-104q-79 0 -122.5 -42t-43.5 -111q0 -67 43 -102.5t123 -35.5h104z" />
    <glyph glyph-name="afii10065" unicode="&#x430;" horiz-adv-x="470" 
d="M348 0v75q-90 -86 -180 -86q-57 0 -93.5 34.5t-36.5 91.5q0 165 310 180q0 82 -31 110.5t-86 28.5q-63 0 -147 -30l-17 52q92 32 174 32q165 0 165 -201v-287h-58zM183 42q67 0 165 92v111q-72 -3 -126 -15.5t-90 -40.5t-36 -70q0 -35 23 -56t64 -21z" />
    <glyph glyph-name="afii10066" unicode="&#x431;" horiz-adv-x="532" 
d="M492 243q0 -116 -65 -187t-159 -71q-123 0 -175.5 77.5t-52.5 238.5q0 51 4.5 92.5t12 74.5t23.5 60t31 47t43.5 37.5t52.5 29.5t66.5 25t76 21.5t90.5 21.5l10 -54l-212 -61q-132 -39 -139 -215q92 88 189 88q83 0 143.5 -60.5t60.5 -164.5zM99 323v-50
q0 -134 42.5 -184.5t126.5 -50.5q80 0 122.5 58t42.5 134q0 77 -42.5 130.5t-120.5 53.5q-43 0 -90.5 -26.5t-80.5 -64.5z" />
    <glyph glyph-name="afii10067" unicode="&#x432;" horiz-adv-x="430" 
d="M235 51q48 0 73 22.5t25 60.5t-27.5 59.5t-76.5 21.5h-107v-164h113zM225 421h-103v-157h103q47 0 73 22t26 56q0 38 -21 58.5t-78 20.5zM287 244q103 -20 103 -115q0 -66 -43.5 -97.5t-110.5 -31.5h-172v472h166q41 0 72.5 -9t55.5 -36.5t24 -72.5q0 -93 -95 -110z" />
    <glyph glyph-name="afii10068" unicode="&#x433;" horiz-adv-x="354" 
d="M128 0h-58v472h272v-53h-214v-419z" />
    <glyph glyph-name="afii10069" unicode="&#x434;" horiz-adv-x="524" 
d="M377 53v366h-175q-9 -145 -28 -235.5t-57 -130.5h260zM442 0h-371l-15 -133h-41v186h39q49 54 67.5 148.5t25.5 270.5h288v-419h63v-186h-41z" />
    <glyph glyph-name="afii10070" unicode="&#x435;" horiz-adv-x="478" 
d="M446 241h-346q0 -201 175 -201q58 0 131 53q4 -9 13.5 -23.5t12.5 -21.5q-26 -19 -43.5 -30t-51 -22t-68.5 -11q-98 0 -163.5 61.5t-65.5 179.5q0 126 64.5 194t146.5 68q195 0 195 -247zM254 433q-124 0 -150 -145h282q-4 69 -34 107t-98 38z" />
    <glyph glyph-name="afii10072" unicode="&#x436;" horiz-adv-x="643" 
d="M350 472v-202h60l144 202h65l-158 -221l163 -251h-72l-139 217h-63v-217h-58v217h-64l-139 -217h-71l162 251l-158 221h65l144 -202h61v202h58z" />
    <glyph glyph-name="afii10073" unicode="&#x437;" horiz-adv-x="409" 
d="M194 -15q-55 0 -91 16t-79 49l28 45q74 -57 144 -57q49 0 82 20.5t33 68.5q0 37 -30 64.5t-81 27.5h-62v49h62q48 0 76 26t28 66q0 28 -24 51t-72 23q-78 0 -131 -24l-16 51q75 27 153 27q59 0 103.5 -30t44.5 -89q0 -46 -26.5 -81t-84.5 -43q64 -7 91 -41t27 -79
q0 -67 -50.5 -103.5t-124.5 -36.5z" />
    <glyph glyph-name="afii10074" unicode="&#x438;" horiz-adv-x="522" 
d="M122 472v-388l271 388h65v-472h-58v390l-273 -390h-63v472h58z" />
    <glyph glyph-name="afii10075" unicode="&#x439;" horiz-adv-x="522" 
d="M122 472v-388l271 388h65v-472h-58v390l-273 -390h-63v472h58zM261 556q-75 0 -175 40l21 50q47 -23 79 -32t75 -9q42 0 74 9t79 32l22 -50q-100 -40 -175 -40z" />
    <glyph glyph-name="afii10076" unicode="&#x43a;" horiz-adv-x="427" 
d="M122 472v-202h73l145 202h66l-158 -218l161 -254h-71l-135 217h-81v-217h-58v472h58z" />
    <glyph glyph-name="afii10077" unicode="&#x43b;" horiz-adv-x="493" 
d="M429 0h-58v419h-177q-3 -67 -5.5 -109.5t-8 -91.5t-13 -78.5t-19 -60t-28 -48t-39 -30t-52.5 -16.5l-15 53q73 11 97 105.5t28 328.5h290v-472z" />
    <glyph glyph-name="afii10078" unicode="&#x43c;" horiz-adv-x="615" 
d="M74 472h88l145 -387l147 387h88l16 -472h-58l-14 407l-154 -407h-53l-155 407l-14 -407h-53z" />
    <glyph glyph-name="afii10079" unicode="&#x43d;" horiz-adv-x="515" 
d="M122 472v-202h271v202h58v-472h-58v217h-271v-217h-58v472h58z" />
    <glyph glyph-name="afii10080" unicode="&#x43e;" horiz-adv-x="536" 
d="M268 -15q-101 0 -164.5 65.5t-63.5 185.5t63.5 185.5t164.5 65.5t164.5 -65.5t63.5 -185.5t-63.5 -185.5t-164.5 -65.5zM268 37q75 0 122.5 50t47.5 149t-47.5 149t-122.5 50t-122.5 -50t-47.5 -149q0 -98 47.5 -148.5t122.5 -50.5z" />
    <glyph glyph-name="afii10081" unicode="&#x43f;" horiz-adv-x="515" 
d="M122 419v-419h-58v472h387v-472h-58v419h-271z" />
    <glyph glyph-name="afii10082" unicode="&#x440;" horiz-adv-x="521" 
d="M64 472h58v-61q21 25 66 51t94 26q78 0 138.5 -62t60.5 -181q0 -65 -20.5 -117t-53.5 -82t-70 -45.5t-75 -15.5q-81 0 -140 35v-215h-58v667zM122 359v-285q47 -39 126 -39q28 0 55.5 10t55.5 31.5t45.5 65.5t17.5 103q0 99 -46.5 143.5t-112.5 44.5q-75 0 -141 -74z" />
    <glyph glyph-name="afii10083" unicode="&#x441;" horiz-adv-x="470" 
d="M421 98l27 -46q-96 -67 -179 -67q-102 0 -165.5 63t-63.5 188q0 116 68.5 184t169.5 68q66 0 142 -19l-13 -54q-71 19 -128 19q-84 0 -131 -50t-47 -148q0 -92 46 -144t122 -52q69 0 152 58z" />
    <glyph glyph-name="afii10084" unicode="&#x442;" horiz-adv-x="389" 
d="M377 419h-153v-419h-59v419h-153v53h365v-53z" />
    <glyph glyph-name="afii10085" unicode="&#x443;" horiz-adv-x="475" 
d="M12 472h63l163 -391l165 391h60l-282 -667h-60l86 202z" />
    <glyph glyph-name="afii10086" unicode="&#x444;" horiz-adv-x="638" 
d="M290 43v387q-192 0 -192 -192q0 -91 46.5 -143t145.5 -52zM290 -195v189q-122 0 -186 65.5t-64 178.5t64 177t186 64v162h58v-162q122 0 186 -64.5t64 -176.5q0 -113 -64.5 -178.5t-185.5 -65.5v-189h-58zM348 430v-387q99 0 145.5 52t46.5 143t-46.5 141.5t-145.5 50.5z
" />
    <glyph glyph-name="afii10087" unicode="&#x445;" horiz-adv-x="433" 
d="M337 0l-124 185l-129 -185h-64l162 232l-160 240h67l128 -190l132 190h64l-165 -236l160 -236h-71z" />
    <glyph glyph-name="afii10088" unicode="&#x446;" horiz-adv-x="540" 
d="M122 472v-419h271v419h58v-419h62v-186h-41l-15 133h-393v472h58z" />
    <glyph glyph-name="afii10089" unicode="&#x447;" horiz-adv-x="424" 
d="M25 309v163h58v-152q0 -52 21.5 -74.5t67.5 -22.5q70 0 130 27v222h58v-472h-58v202q-64 -31 -141 -31q-66 0 -101 35.5t-35 102.5z" />
    <glyph glyph-name="afii10090" unicode="&#x448;" horiz-adv-x="688" 
d="M624 0h-560v472h59v-419h192v419h58v-419h192v419h59v-472z" />
    <glyph glyph-name="afii10091" unicode="&#x449;" horiz-adv-x="712" 
d="M64 0v472h58v-419h193v419h58v-419h192v419h58v-419h63v-186h-41l-15 133h-566z" />
    <glyph glyph-name="afii10092" unicode="&#x44a;" horiz-adv-x="455" 
d="M6 472h174v-176h93q70 0 115 -39t45 -109t-45 -109t-115 -39h-151v419h-116v53zM376 148q0 43 -28 70t-80 27h-88v-194h88q55 0 81.5 26.5t26.5 70.5z" />
    <glyph glyph-name="afii10093" unicode="&#x44b;" horiz-adv-x="564" 
d="M64 472h58v-176h93q70 0 115 -39t45 -109t-45 -109t-115 -39h-151v472zM500 0h-59v472h59v-472zM318 148q0 43 -28 70t-80 27h-88v-194h88q55 0 81.5 26.5t26.5 70.5z" />
    <glyph glyph-name="afii10094" unicode="&#x44c;" horiz-adv-x="397" 
d="M64 472h58v-176h93q70 0 115 -39t45 -109t-45 -109t-115 -39h-151v472zM318 148q0 43 -28 70t-80 27h-88v-194h88q55 0 81.5 26.5t26.5 70.5z" />
    <glyph glyph-name="afii10095" unicode="&#x44d;" horiz-adv-x="480" 
d="M22 51l28 47q80 -58 146 -58q73 0 124.5 47.5t57.5 129.5h-260v53h259q-15 164 -173 164q-63 0 -133 -19l-13 55q79 18 147 18q108 0 171.5 -65t63.5 -187q0 -123 -73.5 -187t-178.5 -64q-78 0 -166 66z" />
    <glyph glyph-name="afii10096" unicode="&#x44e;" horiz-adv-x="698" 
d="M441 487q98 0 157.5 -67t59.5 -184t-59.5 -184t-157.5 -67q-94 0 -153 61.5t-63 170.5h-103v-217h-58v472h58v-202h103q9 102 67.5 159.5t148.5 57.5zM441 39q69 0 114 48.5t45 148.5t-45 148.5t-114 48.5t-114 -48.5t-45 -148.5t45 -148.5t114 -48.5z" />
    <glyph glyph-name="afii10097" unicode="&#x44f;" horiz-adv-x="438" 
d="M316 421h-100q-51 0 -75.5 -27.5t-24.5 -65.5q0 -37 25.5 -65t74.5 -28h100v186zM34 0l137 191q-57 10 -86.5 47.5t-29.5 89.5q0 40 15 69.5t40.5 45t52.5 22.5t56 7h155v-472h-58v184h-80l-132 -184h-70z" />
    <glyph glyph-name="afii10071" unicode="&#x451;" horiz-adv-x="478" 
d="M354 576q-18 0 -30.5 13t-12.5 30q0 18 12.5 31t30.5 13t31 -13t13 -31q0 -17 -13 -30t-31 -13zM446 241h-346q0 -101 45.5 -151t129.5 -50q58 0 131 53l26 -45q-26 -19 -43.5 -30t-51 -22t-68.5 -11q-98 0 -163.5 61.5t-65.5 179.5q0 126 64.5 194t146.5 68
q195 0 195 -247zM254 433q-124 0 -150 -145h282q-4 69 -34 107t-98 38zM168 576q-17 0 -30 13t-13 30q0 18 13 31t30 13q19 0 31.5 -13t12.5 -31q0 -17 -13 -30t-31 -13z" />
    <glyph glyph-name="afii10099" unicode="&#x452;" horiz-adv-x="521" 
d="M124 700v-101h163v-49h-163v-136q74 72 156 72q76 0 128.5 -53.5t52.5 -158.5v-268q0 -189 -170 -200v54q59 5 85 41t26 105v268q0 78 -38 117.5t-94 39.5q-34 0 -77.5 -22.5t-68.5 -52.5v-356h-58v550h-60v49h60v101h58z" />
    <glyph glyph-name="afii10100" unicode="&#x453;" horiz-adv-x="354" 
d="M128 0h-58v472h272v-53h-214v-419zM313 706l-131 -162h-41l98 162h74z" />
    <glyph glyph-name="afii10101" unicode="&#x454;" horiz-adv-x="468" 
d="M420 100l28 -48q-96 -67 -179 -67q-102 0 -165.5 63t-63.5 188q0 116 68.5 184t169.5 68q66 0 142 -19l-13 -54q-78 19 -128 19q-76 0 -122.5 -41.5t-53.5 -122.5h259v-53h-260q4 -84 49.5 -130.5t117.5 -46.5q68 0 151 60z" />
    <glyph glyph-name="afii10102" unicode="&#x455;" horiz-adv-x="410" 
d="M376 135q0 -45 -18.5 -77t-47.5 -46.5t-54 -20.5t-49 -6q-86 0 -173 66l26 48q78 -60 143 -60q114 0 114 86q0 33 -26.5 54.5t-64.5 33t-75.5 25t-64 41.5t-26.5 72q0 63 42 100.5t116 37.5q67 0 146 -33l-19 -51q-76 32 -137 32q-48 0 -70 -23t-22 -58q0 -31 27 -50
t65 -30.5t76 -25t65 -42t27 -73.5z" />
    <glyph glyph-name="afii10103" unicode="&#x456;" horiz-adv-x="191" 
d="M123 472v-472h-58v472h58zM92 592q-17 0 -30 13t-13 30q0 18 13 31t30 13q19 0 31.5 -13t12.5 -31q0 -17 -13 -30t-31 -13z" />
    <glyph glyph-name="afii10104" unicode="&#x457;" horiz-adv-x="198" 
d="M147 589q-14 0 -24.5 10.5t-10.5 24.5q0 15 10.5 26t24.5 11q15 0 25.5 -11t10.5 -26q0 -14 -10.5 -24.5t-25.5 -10.5zM50 589q-13 0 -24 10.5t-11 24.5q0 15 11 26t24 11q16 0 26.5 -11t10.5 -26q0 -14 -10.5 -24.5t-26.5 -10.5zM128 472v-472h-58v472h58z" />
    <glyph glyph-name="afii10105" unicode="&#x458;" horiz-adv-x="192" 
d="M128 472v-466q0 -190 -170 -200v54q60 5 86 40.5t26 105.5v466h58zM98 592q-17 0 -30 13t-13 30q0 18 13 31t30 13q19 0 31.5 -13t12.5 -31q0 -17 -13 -30t-31 -13z" />
    <glyph glyph-name="afii10106" unicode="&#x459;" horiz-adv-x="688" 
d="M137 472h280v-176h88q70 0 115.5 -39t45.5 -109t-45.5 -109t-115.5 -39h-146v419h-167q-3 -67 -5.5 -109.5t-8 -91.5t-13 -78.5t-19 -60t-28 -48t-39 -30t-52.5 -16.5l-15 53q73 11 97 105.5t28 328.5zM609 148q0 43 -28 70t-80 27h-84v-194h84q54 0 81 26.5t27 70.5z
" />
    <glyph glyph-name="afii10107" unicode="&#x45a;" horiz-adv-x="702" 
d="M122 234v-234h-58v472h58v-187h251v187h58v-187h88q71 0 116 -36.5t45 -105.5q0 -68 -45.5 -105.5t-115.5 -37.5h-146v234h-251zM623 143q0 91 -108 91h-84v-183h84q55 0 81.5 25t26.5 67z" />
    <glyph glyph-name="afii10108" unicode="&#x45b;" horiz-adv-x="549" 
d="M152 700v-100h163v-49h-163v-136q74 71 156 71q76 0 128.5 -53.5t52.5 -158.5v-274h-58v274q0 78 -38.5 117.5t-94.5 39.5q-35 0 -78 -22t-68 -53v-356h-58v551h-60v49h60v100h58z" />
    <glyph glyph-name="afii10109" unicode="&#x45c;" horiz-adv-x="427" 
d="M122 472v-202h73l145 202h66l-158 -218l161 -254h-71l-135 217h-81v-217h-58v472h58zM319 706l-131 -162h-41l98 162h74z" />
    <glyph glyph-name="afii10110" unicode="&#x45e;" horiz-adv-x="475" 
d="M12 472h63l163 -391l165 391h60l-282 -667h-60l86 202zM238 556q-74 0 -176 40l22 50q47 -23 79 -32t75 -9q42 0 74 9t79 32l22 -50q-102 -40 -175 -40z" />
    <glyph glyph-name="afii10193" unicode="&#x45f;" horiz-adv-x="515" 
d="M122 472v-419h271v419h58v-472h-160l-16 -133h-36l-15 133h-160v472h58z" />
    <glyph glyph-name="afii10050" unicode="&#x490;" horiz-adv-x="424" 
d="M409 640h-267v-640h-64v700h269l30 122h32v-182z" />
    <glyph glyph-name="afii10098" unicode="&#x491;" horiz-adv-x="348" 
d="M122 0h-58v472h226l15 96h31v-149h-214v-419z" />
    <glyph glyph-name="endash" unicode="&#x2013;" horiz-adv-x="540" 
d="M510 235h-480v46h480v-46z" />
    <glyph glyph-name="emdash" unicode="&#x2014;" horiz-adv-x="784" 
d="M754 235h-724v46h724v-46z" />
    <glyph glyph-name="quoteleft" unicode="&#x2018;" horiz-adv-x="214" 
d="M50 533q0 53 92 167l31 -17l-61 -114q20 -2 33.5 -16t13.5 -34t-15 -35.5t-36 -15.5q-25 0 -41.5 17.5t-16.5 47.5z" />
    <glyph glyph-name="quoteright" unicode="&#x2019;" horiz-adv-x="214" 
d="M164 635q0 -50 -92 -168l-31 18l61 114q-20 2 -33.5 16t-13.5 34t15.5 35.5t35.5 15.5q25 0 41.5 -17.5t16.5 -47.5z" />
    <glyph glyph-name="quotesinglbase" unicode="&#x201a;" horiz-adv-x="206" 
d="M160 31q0 -50 -92 -168l-31 18l61 114q-20 2 -33.5 16t-13.5 34t15.5 35.5t35.5 15.5q25 0 41.5 -17.5t16.5 -47.5z" />
    <glyph glyph-name="quotedblleft" unicode="&#x201c;" horiz-adv-x="356" 
d="M50 533q0 53 92 167l31 -17l-61 -114q20 -2 33.5 -16t13.5 -34t-15 -35.5t-36 -15.5q-25 0 -41.5 17.5t-16.5 47.5zM192 533q0 53 92 167l31 -17l-61 -114q20 -2 33.5 -16t13.5 -34t-15 -35.5t-36 -15.5q-25 0 -41.5 17.5t-16.5 47.5z" />
    <glyph glyph-name="quotedblright" unicode="&#x201d;" horiz-adv-x="356" 
d="M306 635q0 -50 -92 -168l-31 18l61 114q-20 2 -33.5 16t-13.5 34t15.5 35.5t35.5 15.5q25 0 41.5 -17.5t16.5 -47.5zM164 635q0 -50 -92 -168l-31 18l61 114q-20 2 -33.5 16t-13.5 34t15.5 35.5t35.5 15.5q25 0 41.5 -17.5t16.5 -47.5z" />
    <glyph glyph-name="quotedblbase" unicode="&#x201e;" horiz-adv-x="356" 
d="M306 31q0 -50 -92 -168l-31 18l61 114q-20 2 -33.5 16t-13.5 34t15.5 35.5t35.5 15.5q25 0 41.5 -17.5t16.5 -47.5zM164 31q0 -50 -92 -168l-31 18l61 114q-20 2 -33.5 16t-13.5 34t15.5 35.5t35.5 15.5q25 0 41.5 -17.5t16.5 -47.5z" />
    <glyph glyph-name="dagger" unicode="&#x2020;" horiz-adv-x="390" 
d="M162 700h66l-10 -171h122v-46h-122l27 -407l-50 -78l-50 78l27 407h-122v46h122z" />
    <glyph glyph-name="daggerdbl" unicode="&#x2021;" horiz-adv-x="390" 
d="M162 700h66l-10 -171h122v-46h-122v-76h122v-46h-122l27 -285l-50 -78l-50 78l27 285h-122v46h122v76h-122v46h122z" />
    <glyph glyph-name="bullet" unicode="&#x2022;" horiz-adv-x="284" 
d="M50 323q0 39 27 65.5t66 26.5q38 0 64.5 -26.5t26.5 -65.5q0 -38 -26.5 -65t-64.5 -27q-39 0 -66 27t-27 65z" />
    <glyph glyph-name="ellipsis" unicode="&#x2026;" horiz-adv-x="736" 
d="M585 45q0 20 15 35.5t36 15.5q20 0 35 -15.5t15 -35.5t-15 -35t-35 -15q-21 0 -36 15t-15 35zM317 45q0 20 15.5 35.5t35.5 15.5q21 0 35.5 -15t14.5 -36q0 -20 -14.5 -35t-35.5 -15q-20 0 -35.5 15t-15.5 35zM50 45q0 20 15.5 35.5t35.5 15.5t35 -15.5t15 -35.5t-15 -35
t-35 -15t-35.5 15t-15.5 35z" />
    <glyph glyph-name="perthousand" unicode="&#x2030;" horiz-adv-x="940" 
d="M759 -5q-60 0 -94.5 42t-34.5 111q0 72 34 112.5t95 40.5q60 0 95 -40.5t35 -112.5q0 -68 -35.5 -110.5t-94.5 -42.5zM759 259q-83 0 -83 -111t83 -111q85 0 85 111t-85 111zM453 -5q-60 0 -94.5 42t-34.5 111q0 72 34 112.5t95 40.5q60 0 95 -40.5t35 -112.5
q0 -68 -35.5 -110.5t-94.5 -42.5zM453 259q-83 0 -83 -111t83 -111q85 0 85 111t-85 111zM595 700l-493 -700h-52l492 700h53zM190 398q-60 0 -94.5 42t-34.5 111q0 72 34 112.5t95 40.5t96 -40.5t35 -112.5q0 -68 -35.5 -110.5t-95.5 -42.5zM190 662q-83 0 -83 -111
t83 -111q85 0 85 111t-85 111z" />
    <glyph glyph-name="guilsinglleft" unicode="&#x2039;" horiz-adv-x="328" 
d="M122 230l172 -205l-29 -26l-215 231l215 231l29 -26z" />
    <glyph glyph-name="guilsinglright" unicode="&#x203a;" horiz-adv-x="328" 
d="M34 25l172 205l-172 205l29 26l215 -231l-215 -231z" />
    <glyph glyph-name="fraction" unicode="&#x2044;" horiz-adv-x="645" 
d="M595 700l-493 -700h-52l493 700h52z" />
    <glyph glyph-name="Euro" unicode="&#x20ac;" 
d="M304 715q84 0 165 -38l-24 -59q-75 37 -141 37q-153 0 -174 -217h283l-17 -50h-269q-1 -9 -1 -38v-37h243l-16 -50h-224q8 -104 48.5 -161t126.5 -57q46 0 78.5 17t76.5 57l30 -49q-94 -85 -185 -85q-119 0 -174.5 73t-66.5 205h-42v50h38v37q0 25 1 38h-39v50h43
q14 127 72 202t168 75z" />
    <glyph glyph-name="afii61352" unicode="&#x2116;" horiz-adv-x="982" 
d="M934 170v-42h-261v42h261zM618 700v-700h-48l-432 574v-574h-60v700h47l433 -576v576h60zM803 225q-60 0 -94.5 42t-34.5 111q0 72 34 112.5t95 40.5t96 -40.5t35 -112.5q0 -68 -35.5 -110.5t-95.5 -42.5zM803 489q-83 0 -83 -111t83 -111q85 0 85 111t-85 111z" />
    <glyph glyph-name="trademark" unicode="&#x2122;" horiz-adv-x="794" 
d="M365 700h69l115 -303l115 303h68l14 -370h-45l-12 319l-121 -319h-42l-121 319l-11 -319h-42zM326 658h-120v-328h-46v328h-120v42h286v-42z" />
    <glyph glyph-name="partialdiff" unicode="&#x2202;" horiz-adv-x="518" 
d="M423 320q0 50 -9 87q-61 28 -114 28q-103 0 -154 -67t-51 -173q0 -72 41.5 -115t99.5 -43q82 0 134.5 82t52.5 201zM482 326q0 -149 -73 -245t-181 -96q-82 0 -137 53.5t-55 150.5q0 144 74.5 221.5t187.5 77.5q60 0 106 -24q-44 193 -273 208v52q175 -4 263 -111
t88 -287z" />
    <glyph glyph-name="uni2206" unicode="&#x2206;" horiz-adv-x="719" 
d="M669 0h-619l282 700h24zM345 597l-218 -547h463z" />
    <glyph glyph-name="minus" unicode="&#x2212;" horiz-adv-x="640" 
d="M50 317h540v-46h-540v46z" />
    <glyph glyph-name="radical" unicode="&#x221a;" horiz-adv-x="556" 
d="M556 739h-121l-165 -776h-47l-135 427h-88v46h123l118 -380l157 729h158v-46z" />
    <glyph glyph-name="infinity" unicode="&#x221e;" horiz-adv-x="816" 
d="M720 289q0 55 -35 87t-86 32q-42 0 -79 -29.5t-82 -89.5q44 -61 81 -90t80 -29q51 0 86 32t35 87zM766 289q0 -76 -47 -120.5t-124 -44.5q-91 0 -187 123q-96 -123 -187 -123q-77 0 -124 44.5t-47 120.5t47 120.5t124 44.5q51 0 95 -31.5t92 -92.5q48 61 92 92.5t95 31.5
q77 0 124 -44.5t47 -120.5zM96 289q0 -55 35 -87t86 -32q43 0 79 28.5t82 90.5q-45 59 -82 89t-79 30q-51 0 -86 -32t-35 -87z" />
    <glyph glyph-name="approxequal" unicode="&#x2248;" horiz-adv-x="712" 
d="M662 448v-56q-43 -38 -76.5 -56.5t-52 -21.5t-51.5 -3q-35 0 -123.5 36.5t-128.5 36.5q-87 0 -180 -80v56q46 40 87.5 55t92.5 15q40 0 128.5 -36.5t123.5 -36.5q43 0 79.5 17t100.5 74zM662 282v-56q-43 -38 -76.5 -56.5t-52 -21.5t-51.5 -3q-35 0 -123.5 36.5
t-128.5 36.5q-87 0 -180 -80v56q46 40 87.5 55t92.5 15q40 0 128.5 -36.5t123.5 -36.5q43 0 79.5 17t100.5 74z" />
    <glyph glyph-name="notequal" unicode="&#x2260;" horiz-adv-x="640" 
d="M590 347h-214l-63 -126h277v-46h-299l-72 -146l-19 10t-21 10l62 126h-191v46h213l62 126h-275v46h298l69 141q7 -3 21 -10t21 -10l-61 -121h192v-46z" />
    <glyph glyph-name="lessequal" unicode="&#x2264;" horiz-adv-x="525" 
d="M475 84l-455 262l455 262v-54l-361 -208l361 -208v-54zM28 231v54l447 -256v-54z" />
    <glyph glyph-name="greaterequal" unicode="&#x2265;" horiz-adv-x="525" 
d="M475 346l-455 -262v54l361 208l-361 208v54zM467 285v-54l-447 -256v54z" />
    <glyph glyph-name="lozenge" unicode="&#x25ca;" horiz-adv-x="519" 
d="M454 350l-201 -350l-202 350l202 350zM105 350l148 -257l148 257l-148 257z" />
    <glyph glyph-name="one.onum" 
d="M398 0h-264v60h100v332l-107 -69l-26 43l173 121h24v-427h100v-60z" />
    <glyph glyph-name="zero.onum" 
d="M32 236q0 107 56 179.5t162 72.5t162 -72.5t56 -179.5t-56 -179.5t-162 -72.5t-162 72.5t-56 179.5zM96 236q0 -87 40 -141t114 -54t114 54t40 141t-40 141t-114 54t-114 -54t-40 -141z" />
    <glyph glyph-name="two.onum" 
d="M436 0h-358v26q142 120 175 150q115 103 115 163q0 42 -26.5 64.5t-72.5 22.5q-88 0 -159 -77q-4 6 -37 46q92 92 193 92q79 0 122.5 -39.5t43.5 -98.5q0 -29 -15 -62t-32.5 -57t-56 -60.5t-58 -53.5l-66.5 -56h232v-60z" />
    <glyph glyph-name="three.onum" 
d="M275 487q43 0 75.5 -14t49 -37t24.5 -47.5t8 -50.5q0 -109 -141 -172q76 -10 120 -54t44 -110q0 -90 -60.5 -151t-170.5 -61q-92 0 -182 60l30 53q74 -53 149 -53q69 0 117.5 40t48.5 112q0 50 -40 82t-98 32q-34 0 -58 -12l-24 54q110 47 155.5 81.5t45.5 86.5
q0 42 -24.5 71.5t-82.5 29.5q-85 0 -152 -81l-40 45q45 46 91 71t115 25z" />
    <glyph glyph-name="four.onum" 
d="M491 56v-56h-99v-160l-64 -50v210h-302v26l343 446h23v-416h99zM112 56h216v284z" />
    <glyph glyph-name="five.onum" 
d="M218 -210q-87 0 -170 55l31 54q41 -26 69.5 -37.5t66.5 -11.5q30 0 58 8t55.5 25.5t44 52t16.5 82.5q0 67 -38.5 105t-108.5 38t-104 -35l-40 30l61 316h286v-60h-237l-40 -211q30 20 85 20q88 0 144 -52.5t56 -148.5q0 -36 -10.5 -72t-34.5 -73.5t-73 -61t-117 -23.5z
" />
    <glyph glyph-name="seven.onum" 
d="M174 -222l-56 25l250 609h-312v60h393v-22z" />
    <glyph glyph-name="eight.onum" 
d="M250 -15q-82 0 -144.5 51.5t-62.5 151.5q0 61 31 108t85 69q-43 19 -70 64t-27 92q0 90 53.5 142t134.5 52t134.5 -52t53.5 -142q0 -47 -27 -92t-70 -64q54 -22 85 -69t31 -108q0 -100 -62.5 -151.5t-144.5 -51.5zM250 333q-63 0 -103 -38.5t-40 -106.5q0 -36 10.5 -63
t25.5 -42t35.5 -24t37.5 -11.5t34 -2.5t34 2.5t37.5 11.5t35.5 24t25.5 42t10.5 63q0 68 -40 106.5t-103 38.5zM250 655q-57 0 -90.5 -35.5t-33.5 -98.5q0 -58 35.5 -93t88.5 -35t88.5 35t35.5 93q0 63 -33.5 98.5t-90.5 35.5z" />
    <glyph glyph-name="nine.onum" 
d="M46 255q0 107 56 169.5t145 62.5q49 0 85.5 -16.5t59.5 -44t36.5 -70.5t19 -90t5.5 -108q0 -63 -6 -113.5t-22 -99.5t-42 -82t-69 -53t-101 -20q-91 0 -146 46l31 52q47 -38 117 -38q89 0 127 59.5t44 190.5q-68 -62 -149 -62q-95 0 -143 59.5t-48 157.5zM108 256
q0 -161 137 -161q68 0 143 65v40q0 227 -140 227q-73 0 -106.5 -48.5t-33.5 -122.5z" />
    <glyph glyph-name="six.onum" 
d="M453 220q0 -108 -56.5 -171.5t-145.5 -63.5q-60 0 -101 23.5t-63 69t-31 101t-9 130.5q0 68 6 123.5t22 110t42 91t69.5 59t101.5 22.5q91 0 146 -46l-32 -52q-47 38 -116 38q-89 0 -126.5 -66t-45.5 -208q67 61 149 61q96 0 143 -61.5t47 -160.5zM392 219
q0 166 -137 166q-69 0 -144 -65v-36q0 -116 31.5 -177.5t107.5 -61.5q73 0 107.5 50t34.5 124z" />
    <glyph glyph-name="apple" horiz-adv-x="893" 
d="M816 587q-102 -72 -102 -174q0 -123 126 -188q-34 -97 -98.5 -171t-116.5 -74q-24 0 -69 17l-37 14q-24 8 -53 8q-41 -2 -67 -13l-39 -16q-24 -10 -52 -10q-55 0 -113 67.5t-95.5 167.5t-37.5 189q0 121 67.5 196.5t178.5 75.5q42 0 78 -15l34 -14q22 -9 38 -9q21 0 41 8
l39 15q37 15 90 15q117 0 188 -89zM632 883q1 -10 1 -24q0 -76 -56 -135t-132 -59q-2 22 -2 25q0 72 57 127t132 66z" />
    <glyph glyph-name="commaaccent" horiz-adv-x="275" 
d="M193 -100q0 -44 -80 -140l-27 15l50 92q-18 2 -30.5 14.5t-12.5 31.5q0 18 14 32.5t33 14.5q22 0 37.5 -16t15.5 -44z" />
    <glyph glyph-name="ogonek.001" horiz-adv-x="222" 
d="M121 0h51q-89 -57 -89 -111q0 -37 42 -37q26 0 47 8v-32q-32 -21 -73 -21q-37 0 -54.5 22t-17.5 49q0 62 94 122z" />
    </font>
</defs>
</svg>
