<?xml version="1.0" standalone="no"?>
<!DOCTYPE svg PUBLIC "-//W3C//DTD SVG 1.1//EN" "http://www.w3.org/Graphics/SVG/1.1/DTD/svg11.dtd" >
<svg xmlns="http://www.w3.org/2000/svg" xmlns:xlink="http://www.w3.org/1999/xlink" version="1.1">
<metadata>
Created by FontForge 20150318 at Sun Jul 26 09:28:26 2015
 By uniteet7
Copyright (c) 2010 by Letterhead Studio. All rights reserved.
</metadata>
<defs>
<font id="ConquerorSans" horiz-adv-x="500" >
  <font-face 
    font-family="ConquerorSans"
    font-weight="400"
    font-stretch="normal"
    units-per-em="1000"
    panose-1="2 0 5 3 2 0 0 2 0 3"
    ascent="750"
    descent="-250"
    x-height="472"
    cap-height="700"
    bbox="-55 -289 1020 934"
    underline-thickness="50"
    underline-position="-50"
    unicode-range="U+0020-FB02"
  />
<missing-glyph horiz-adv-x="275" 
 />
    <glyph glyph-name="fi" unicode="fi" horiz-adv-x="451" 
d="M235 715q71 0 113.5 -23t42.5 -73q0 -23 -17 -40t-42 -17q-23 0 -40.5 17t-17.5 40v12q-24 13 -39 13q-25 0 -44.5 -12.5t-19.5 -38.5v-121h207v-472h-90v392h-117v-392h-91v392h-60v80h60v94q0 42 14.5 72.5t38.5 46.5t49.5 23t52.5 7z" />
    <glyph glyph-name="fl" unicode="fl" horiz-adv-x="448" 
d="M378 700v-700h-90v392h-117v-392h-91v392h-60v80h60v94q0 81 37.5 115t91.5 34q52 0 112 -15h57zM171 472h117v158q-45 14 -73 14q-44 0 -44 -51v-121z" />
    <glyph glyph-name=".notdef" horiz-adv-x="275" 
 />
    <glyph glyph-name=".null" horiz-adv-x="0" 
 />
    <glyph glyph-name="nonmarkingreturn" horiz-adv-x="333" 
 />
    <glyph glyph-name="space" unicode=" " horiz-adv-x="275" 
 />
    <glyph glyph-name="exclam" unicode="!" horiz-adv-x="225" 
d="M144 195h-60l-26 505h110zM50 57q0 25 19 44t44 19t43.5 -18.5t18.5 -44.5q0 -25 -18.5 -43.5t-43.5 -18.5q-26 0 -44.5 18.5t-18.5 43.5z" />
    <glyph glyph-name="quotedbl" unicode="&#x22;" horiz-adv-x="448" 
d="M398 661q0 -26 -17 -47l-132 -168l-39 26l79 189q20 51 57 51q20 0 36 -13t16 -38zM238 661q0 -26 -17 -47l-132 -168l-39 26l79 189q20 51 57 51q20 0 36 -13t16 -38z" />
    <glyph glyph-name="numbersign" unicode="#" horiz-adv-x="718" 
d="M668 414h-144l-44 -128h146v-65h-167l-73 -221h-72l74 221h-143l-72 -221h-72l75 221h-126v65h148l42 128h-140v65h162l78 221h73l-79 -221h143l75 221h72l-78 -221h122v-65zM312 414l-44 -128h140l45 128h-141z" />
    <glyph glyph-name="dollar" unicode="$" horiz-adv-x="550" 
d="M500 198q0 -90 -59.5 -151t-172.5 -62l-10 -69h-67l11 77q-68 17 -152 78l48 77q59 -45 118 -63l35 241q-39 17 -63 31t-51.5 36.5t-41 53.5t-13.5 71q0 87 53.5 141t172.5 56l9 62h67l-10 -68q58 -10 113 -38l-39 -82q-47 20 -88 28l-32 -218q38 -17 63.5 -31.5t53 -38
t41.5 -56.5t14 -75zM406 184q0 38 -24 64t-69 49l-32 -222q58 0 91.5 28t33.5 81zM173 531q0 -35 24 -59t69 -45l29 198q-53 0 -87.5 -22.5t-34.5 -71.5z" />
    <glyph glyph-name="percent" unicode="%" horiz-adv-x="741" 
d="M609 148q0 43 -19.5 68.5t-59.5 25.5q-74 0 -74 -94q0 -93 74 -93q39 0 59 26t20 67zM673 148q0 -65 -41.5 -109t-101.5 -44q-62 0 -101 43.5t-39 109.5q0 75 38 114.5t102 39.5q63 0 103 -40t40 -114zM351 551q0 -65 -41.5 -109t-101.5 -44q-62 0 -101 43.5t-39 109.5
q0 75 38 114.5t102 39.5q63 0 103 -40t40 -114zM691 700l-560 -700h-81l560 700h81zM287 551q0 43 -19.5 68.5t-59.5 25.5q-74 0 -74 -94q0 -93 74 -93q39 0 59 26t20 67z" />
    <glyph glyph-name="ampersand" unicode="&#x26;" horiz-adv-x="707" 
d="M491 43l-8 9q-85 -67 -204 -67q-97 0 -163 60.5t-66 154.5q0 78 35 127.5t120 86.5q-61 84 -61 148q0 68 48 110.5t131 42.5q39 0 85 -12.5t72 -24.5l27 -12l-43 -79q-79 39 -162 39q-30 0 -46.5 -16t-16.5 -37q0 -19 11.5 -43.5t23 -40.5t34.5 -46l186 -236
q48 98 48 239h90q0 -195 -78 -315l103 -131h-133zM308 73q69 0 123 48l-173 225q-54 -21 -83 -61t-29 -85q0 -62 47 -94.5t115 -32.5z" />
    <glyph glyph-name="quotesingle" unicode="'" horiz-adv-x="288" 
d="M238 661q0 -26 -17 -47l-132 -168l-39 26l79 189q20 51 57 51q20 0 36 -13t16 -38z" />
    <glyph glyph-name="parenleft" unicode="(" horiz-adv-x="382" 
d="M140 280q0 -70 14 -125.5t45.5 -103t67.5 -85t95 -85.5l-38 -61q-141 87 -207.5 199t-66.5 261t66.5 261t207.5 199l38 -61q-59 -48 -95 -85.5t-67.5 -85t-45.5 -103t-14 -125.5z" />
    <glyph glyph-name="parenright" unicode=")" horiz-adv-x="382" 
d="M242 280q0 70 -14 125.5t-45.5 103t-67.5 85t-95 85.5l38 61q141 -87 207.5 -199t66.5 -261t-66.5 -261t-207.5 -199l-38 61q59 48 95 85.5t67.5 85t45.5 103t14 125.5z" />
    <glyph glyph-name="asterisk" unicode="*" horiz-adv-x="424" 
d="M384 550l-123 -34l80 -102l-57 -42l-71 109l-73 -109l-57 42l79 102l-122 34l21 68l121 -43l-6 125h70l-5 -125l122 43z" />
    <glyph glyph-name="plus" unicode="+" horiz-adv-x="640" 
d="M590 259h-235v-235h-70v235h-235v70h235v235h70v-235h235v-70z" />
    <glyph glyph-name="comma" unicode="," horiz-adv-x="228" 
d="M188 39q0 -60 -109 -198l-39 22l71 132q-24 2 -41 20t-17 42q0 25 19 44t44 19q31 0 51.5 -21.5t20.5 -59.5z" />
    <glyph glyph-name="hyphen" unicode="-" horiz-adv-x="290" 
d="M260 219h-230v70h230v-70z" />
    <glyph glyph-name="period" unicode="." horiz-adv-x="225" 
d="M50 57q0 25 19 44t44 19t43.5 -18.5t18.5 -44.5q0 -25 -18.5 -43.5t-43.5 -18.5q-26 0 -44.5 18.5t-18.5 43.5z" />
    <glyph glyph-name="slash" unicode="/" horiz-adv-x="497" 
d="M72 -160h-72l425 882h72z" />
    <glyph glyph-name="zero" unicode="0" 
d="M476 350q0 -79 -12 -143.5t-38 -115t-70.5 -78.5t-105.5 -28t-105.5 28t-70.5 78.5t-38 115t-12 143.5t12 143.5t38 115t70.5 78.5t105.5 28t105.5 -28t70.5 -78.5t38 -115t12 -143.5zM369 350q0 150 -25.5 212.5t-93.5 62.5t-93.5 -62.5t-25.5 -212.5t25.5 -212.5
t93.5 -62.5t93.5 62.5t25.5 212.5z" />
    <glyph glyph-name="one" unicode="1" 
d="M416 0h-300v90h100v485l-103 -54l-30 58l185 121h48v-610h100v-90z" />
    <glyph glyph-name="two" unicode="2" 
d="M448 0h-390v42l216 296q76 102 76 178q0 59 -30.5 83t-87.5 24q-34 0 -62 -17.5t-68 -54.5l-59 68q94 96 214 96q98 0 148.5 -51.5t50.5 -126.5q0 -101 -97 -234l-149 -204h238v-99z" />
    <glyph glyph-name="three" unicode="3" 
d="M275 715q84 0 124 -47t40 -105q0 -62 -36 -111t-100 -77q75 -10 117.5 -55.5t42.5 -111.5q0 -94 -65.5 -158.5t-179.5 -64.5q-92 0 -182 60l45 79q78 -49 127 -49q57 0 101.5 32.5t44.5 100.5q0 48 -33.5 72t-82.5 24q-24 0 -50 -11l-37 82q97 44 144 83t47 91
q0 35 -21 55.5t-60 20.5q-84 0 -145 -74l-59 68q94 96 218 96z" />
    <glyph glyph-name="four" unicode="4" 
d="M485 263v-85h-87v-178h-100v178h-284v50l337 486h47v-451h87zM132 263h166v240z" />
    <glyph glyph-name="five" unicode="5" 
d="M221 -15q-99 0 -182 55l43 79q74 -44 129 -44q58 0 104 35t46 109q0 65 -35.5 97.5t-99.5 32.5q-48 0 -83 -20l-49 44l62 327h298v-90h-225l-32 -176q32 4 52 4q88 0 150 -58.5t62 -155.5q0 -32 -6.5 -63t-23 -63.5t-42.5 -57t-69.5 -40t-98.5 -15.5z" />
    <glyph glyph-name="six" unicode="6" 
d="M462 220q0 -107 -59.5 -171t-149.5 -64q-62 0 -105 22t-66.5 66.5t-33.5 101t-10 134.5q0 200 57.5 303t193.5 103q93 0 154 -51l-49 -76q-46 37 -108 37q-67 0 -103 -47.5t-43 -177.5q66 43 128 43q96 0 145 -62.5t49 -160.5zM370 219q0 66 -33.5 103.5t-85.5 37.5
q-21 0 -55 -13.5t-57 -30.5v-32q0 -50 4 -83t15 -64.5t34.5 -46.5t59.5 -15q54 0 86 38.5t32 105.5z" />
    <glyph glyph-name="seven" unicode="7" 
d="M189 0h-99l249 610h-298v90h418v-40z" />
    <glyph glyph-name="eight" unicode="8" 
d="M250 -15q-92 0 -155.5 54t-63.5 156q0 114 103 173q-39 20 -61.5 61t-22.5 88q0 92 53.5 145t146.5 53t146.5 -53t53.5 -145q0 -47 -22.5 -88t-61.5 -61q103 -59 103 -173q0 -102 -63.5 -156t-155.5 -54zM250 317q-119 0 -119 -122q0 -120 119 -120t119 120
q0 122 -119 122zM250 625q-100 0 -100 -107q0 -54 28 -82.5t72 -28.5t72 28.5t28 82.5q0 107 -100 107z" />
    <glyph glyph-name="nine" unicode="9" 
d="M37 480q0 107 58 171t147 64q124 0 172 -86.5t48 -257.5q0 -190 -57 -288t-190 -98q-92 0 -155 51l48 76q47 -37 109 -37q68 0 103.5 48t40.5 177q-65 -43 -127 -43q-96 0 -146.5 63t-50.5 160zM129 481q0 -66 34.5 -103.5t86.5 -37.5q21 0 54.5 13.5t56.5 30.5
q0 38 -1 64t-5 56.5t-12 50t-20.5 37t-32 25.5t-46.5 8q-54 0 -84.5 -38.5t-30.5 -105.5z" />
    <glyph glyph-name="colon" unicode=":" horiz-adv-x="225" 
d="M50 337q0 25 19 44t44 19t43.5 -18.5t18.5 -44.5q0 -25 -18.5 -43.5t-43.5 -18.5q-26 0 -44.5 18.5t-18.5 43.5zM50 57q0 25 19 44t44 19t43.5 -18.5t18.5 -44.5q0 -25 -18.5 -43.5t-43.5 -18.5q-26 0 -44.5 18.5t-18.5 43.5z" />
    <glyph glyph-name="semicolon" unicode=";" horiz-adv-x="248" 
d="M63 337q0 25 18.5 44t44.5 19q25 0 43.5 -18.5t18.5 -44.5q0 -25 -18 -43.5t-44 -18.5t-44.5 18.5t-18.5 43.5zM198 39q0 -60 -109 -198l-39 22l71 132q-24 2 -41 20t-17 42q0 25 19 44t44 19q31 0 51.5 -21.5t20.5 -59.5z" />
    <glyph glyph-name="less" unicode="&#x3c;" horiz-adv-x="519" 
d="M30 296l439 253v-81l-298 -172l298 -172v-81z" />
    <glyph glyph-name="equal" unicode="=" horiz-adv-x="640" 
d="M590 163h-540v70h540v-70zM590 335h-540v70h540v-70z" />
    <glyph glyph-name="greater" unicode="&#x3e;" horiz-adv-x="519" 
d="M489 296l-439 -253v81l298 172l-298 172v81z" />
    <glyph glyph-name="question" unicode="?" horiz-adv-x="439" 
d="M389 538q0 -46 -20 -80.5t-48 -55t-56 -39.5t-48 -48t-20 -67q0 -25 7 -53h-60q-24 42 -24 83q0 46 28 83.5t61.5 59t61.5 51.5t28 63q0 39 -27.5 57t-61.5 18q-60 0 -128 -31l-32 84q85 37 158 37q45 0 79.5 -12.5t53 -30.5t30 -42t15 -42t3.5 -35zM111 57q0 25 18.5 44
t44.5 19q25 0 43.5 -18.5t18.5 -44.5q0 -25 -18 -43.5t-44 -18.5t-44.5 18.5t-18.5 43.5z" />
    <glyph glyph-name="at" unicode="@" horiz-adv-x="824" 
d="M488 326q-89 0 -151 -68.5t-62 -127.5q0 -35 8.5 -46t28.5 -11q51 0 112.5 88.5t63.5 164.5zM779 282q0 -76 -27 -133t-71.5 -88t-93 -46t-98.5 -15v158q-96 -163 -196 -163q-42 0 -70 31.5t-28 103.5q0 108 103 192.5t269 84.5v-323q51 8 96 69t45 127q0 95 -68 139
t-170 44q-66 0 -127.5 -19.5t-113.5 -57.5t-83 -101.5t-31 -143.5q0 -70 21 -121.5t57 -79.5t77.5 -41t88.5 -13q60 0 132 17t124 47l22 -67q-63 -32 -138.5 -49.5t-136.5 -17.5q-151 0 -234 87.5t-83 237.5q0 113 61.5 204.5t158 139.5t205.5 48q144 0 226.5 -67.5
t82.5 -183.5z" />
    <glyph glyph-name="A" unicode="A" horiz-adv-x="633" 
d="M256 700h121l241 -700h-105l-65 188h-272l-65 -188h-96zM313 583l-106 -305h210z" />
    <glyph glyph-name="B" unicode="B" horiz-adv-x="565" 
d="M515 197q0 -66 -34.5 -112.5t-81.5 -65.5t-99 -19h-210v700h210q77 0 135 -41.5t58 -127.5q0 -60 -31 -103.5t-89 -61.5q65 -14 103.5 -57t38.5 -112zM415 203q0 114 -134 114h-91v-227h91q134 0 134 113zM392 509q0 53 -29.5 77t-89.5 24h-83v-203h83q60 0 89.5 24.5
t29.5 77.5z" />
    <glyph glyph-name="C" unicode="C" horiz-adv-x="661" 
d="M391 715q127 0 223 -43l-35 -87q-105 40 -188 40q-106 0 -173.5 -74.5t-67.5 -200.5q0 -132 66.5 -203.5t174.5 -71.5q86 0 207 81l43 -77q-5 -4 -13.5 -10t-36 -22.5t-55.5 -29t-68 -22.5t-77 -10q-170 0 -260.5 99t-90.5 266q0 162 91 263.5t260 101.5z" />
    <glyph glyph-name="D" unicode="D" horiz-adv-x="666" 
d="M90 700h213q69 0 125 -20.5t92 -54.5t60.5 -80t35 -94.5t10.5 -100.5t-10.5 -100.5t-35 -94.5t-60.5 -80t-92 -54.5t-125 -20.5h-213v700zM288 90q121 0 174.5 65.5t53.5 194.5t-53.5 194.5t-174.5 65.5h-98v-520h98z" />
    <glyph glyph-name="E" unicode="E" horiz-adv-x="499" 
d="M424 407v-90h-234v-227h269v-90h-369v700h358v-90h-258v-203h234z" />
    <glyph glyph-name="F" unicode="F" horiz-adv-x="459" 
d="M449 610h-259v-206h234v-90h-234v-314h-100v700h359v-90z" />
    <glyph glyph-name="G" unicode="G" horiz-adv-x="671" 
d="M391 715q127 0 223 -43l-35 -87q-105 40 -188 40q-106 0 -173.5 -74.5t-67.5 -200.5q0 -132 66.5 -203.5t174.5 -71.5q69 0 150 45v217h100v-258q-5 -4 -13.5 -10t-36 -22.5t-55.5 -29t-68 -22.5t-77 -10q-170 0 -260.5 99t-90.5 266q0 162 91 263.5t260 101.5z" />
    <glyph glyph-name="H" unicode="H" horiz-adv-x="730" 
d="M640 0h-100v317h-350v-317h-100v700h100v-293h350v293h100v-700z" />
    <glyph glyph-name="I" unicode="I" horiz-adv-x="280" 
d="M190 0h-100v700h100v-700z" />
    <glyph glyph-name="J" unicode="J" horiz-adv-x="280" 
d="M90 49v651h100v-651q0 -122 -59.5 -183t-185.5 -61v90q32 0 53.5 4.5t44.5 19t35 47t12 83.5z" />
    <glyph glyph-name="K" unicode="K" horiz-adv-x="623" 
d="M594 0h-126l-201 317h-77v-317h-100v700h100v-293h71l207 293h120l-237 -334z" />
    <glyph glyph-name="L" unicode="L" horiz-adv-x="512" 
d="M492 90v-90h-402v700h100v-610h302z" />
    <glyph glyph-name="M" unicode="M" horiz-adv-x="914" 
d="M834 0h-101l-23 590l-217 -590h-83l-209 590l-30 -590h-91l37 700h151l188 -536l204 536h144z" />
    <glyph glyph-name="N" unicode="N" horiz-adv-x="750" 
d="M660 700v-700h-70l-410 510v-510h-90v700h70l410 -511v511h90z" />
    <glyph glyph-name="O" unicode="O" horiz-adv-x="754" 
d="M377 -15q-156 0 -246.5 105.5t-90.5 259.5t90.5 259.5t246.5 105.5t246.5 -105.5t90.5 -259.5t-90.5 -259.5t-246.5 -105.5zM377 75q104 0 170.5 74t66.5 201t-66.5 201t-170.5 74t-170.5 -74t-66.5 -201t66.5 -201t170.5 -74z" />
    <glyph glyph-name="P" unicode="P" horiz-adv-x="540" 
d="M190 610v-246h69q145 0 145 123t-145 123h-69zM190 274v-274h-100v700h187q96 0 164.5 -54.5t68.5 -158.5t-68.5 -158.5t-164.5 -54.5h-87z" />
    <glyph glyph-name="Q" unicode="Q" horiz-adv-x="773" 
d="M50 350q0 160 90 262.5t247 102.5t247 -102.5t90 -262.5q0 -122 -54 -213t-152 -129l263 -100l-35 -84l-455 173q-114 29 -177.5 124.5t-63.5 228.5zM624 350q0 133 -65.5 204t-171.5 71t-171.5 -71t-65.5 -204t65.5 -204t171.5 -71t171.5 71t65.5 204z" />
    <glyph glyph-name="R" unicode="R" horiz-adv-x="590" 
d="M180 274v-274h-100v700h197q96 0 164.5 -54.5t68.5 -158.5q0 -73 -35.5 -122t-93.5 -72l169 -293h-115l-159 274h-96zM180 610v-246h79q145 0 145 123t-145 123h-79z" />
    <glyph glyph-name="S" unicode="S" horiz-adv-x="540" 
d="M510 198q0 -89 -69.5 -151t-186.5 -62q-105 0 -224 86l48 77q35 -26 89 -49.5t102 -23.5q60 0 98.5 28.5t38.5 80.5q0 42 -35.5 72t-86 50.5t-101 44t-86 65.5t-35.5 102q0 87 60 142t185 55q44 0 94.5 -13t85.5 -31l-39 -82q-79 36 -163 36q-53 0 -87.5 -22.5
t-34.5 -71.5q0 -35 35.5 -61.5t86.5 -47t102.5 -45.5t87 -70.5t35.5 -108.5z" />
    <glyph glyph-name="T" unicode="T" horiz-adv-x="575" 
d="M560 700v-90h-223v-610h-99v610h-223v90h545z" />
    <glyph glyph-name="U" unicode="U" horiz-adv-x="715" 
d="M358 75q88 0 127.5 44t39.5 117v464h100v-464q0 -121 -71.5 -186t-195.5 -65t-196 65t-72 186v464h100v-464q0 -73 40 -117t128 -44z" />
    <glyph glyph-name="V" unicode="V" horiz-adv-x="670" 
d="M15 700h112l210 -523l215 523h103l-287 -700h-66z" />
    <glyph glyph-name="W" unicode="W" horiz-adv-x="922" 
d="M495 700l171 -485l147 485h94l-212 -700h-60l-174 498l-174 -498h-60l-212 700h105l146 -487l169 487h60z" />
    <glyph glyph-name="X" unicode="X" horiz-adv-x="608" 
d="M577 700l-217 -345l223 -355h-119l-164 260l-163 -260h-106l216 345l-222 355h118l164 -261l164 261h106z" />
    <glyph glyph-name="Y" unicode="Y" horiz-adv-x="598" 
d="M348 253v-253h-99v255l-234 445h111l177 -340l179 340h101z" />
    <glyph glyph-name="Z" unicode="Z" horiz-adv-x="597" 
d="M549 0h-509v35l360 575h-334v90h491v-36l-360 -574h352v-90z" />
    <glyph glyph-name="bracketleft" unicode="[" horiz-adv-x="251" 
d="M231 -180h-181v920h181v-70h-101v-780h101v-70z" />
    <glyph glyph-name="backslash" unicode="\" horiz-adv-x="497" 
d="M0 722h72l425 -882h-72z" />
    <glyph glyph-name="bracketright" unicode="]" horiz-adv-x="251" 
d="M20 740h181v-920h-181v70h101v780h-101v70z" />
    <glyph glyph-name="asciicircum" unicode="^" horiz-adv-x="454" 
d="M429 549h-82l-120 125l-120 -125h-82l183 191h38z" />
    <glyph glyph-name="underscore" unicode="_" horiz-adv-x="532" 
d="M532 -96h-532v70h532v-70z" />
    <glyph glyph-name="grave" unicode="`" horiz-adv-x="296" 
d="M181 544l-131 162h98l98 -162h-65z" />
    <glyph glyph-name="a" unicode="a" horiz-adv-x="485" 
d="M335 0v70q-86 -81 -165 -81q-60 0 -97.5 32t-37.5 94q0 91 76.5 131t223.5 47q0 41 -7 66t-23.5 35t-29.5 12t-40 2q-64 0 -153 -36l-26 77q99 39 199 39q170 0 170 -201v-287h-90zM193 66q55 0 142 83v74q-100 -4 -155 -26.5t-55 -74.5q0 -56 68 -56z" />
    <glyph glyph-name="b" unicode="b" horiz-adv-x="563" 
d="M268 -15q-97 0 -198 68v647h90v-266q71 54 149 54q88 0 151 -66.5t63 -169.5q0 -129 -73.5 -198t-181.5 -69zM258 65q25 0 43.5 2t45 12t43 28.5t29 54.5t12.5 87q0 44 -16 76.5t-40.5 49.5t-47 24.5t-41.5 7.5q-65 0 -126 -54v-257q42 -31 98 -31z" />
    <glyph glyph-name="c" unicode="c" horiz-adv-x="490" 
d="M425 125l40 -66q-105 -74 -190 -74q-100 0 -167.5 61.5t-67.5 189.5q0 83 38 142t92 84.5t114 25.5q72 0 161 -23l-21 -77q-79 21 -130 21q-157 0 -157 -173q0 -84 41 -126t115 -42q43 0 132 57z" />
    <glyph glyph-name="d" unicode="d" horiz-adv-x="571" 
d="M501 0h-91v67q-75 -82 -160 -82q-87 0 -148.5 63t-61.5 189q0 63 21.5 112.5t55.5 79t73 44.5t79 15q72 0 141 -38v250h91v-700zM410 149v216q-62 43 -127 43q-25 0 -48.5 -7.5t-48 -24.5t-39.5 -53t-15 -86q0 -168 139 -168q69 0 139 80z" />
    <glyph glyph-name="e" unicode="e" horiz-adv-x="492" 
d="M40 226q0 123 65.5 192.5t151.5 69.5q203 0 203 -255h-328q2 -91 42 -128t116 -37q56 0 135 57l37 -65q-103 -75 -187 -75q-99 0 -167 62t-68 179zM260 408q-44 0 -73.5 -25.5t-47.5 -84.5h234q-3 54 -28 82t-85 28z" />
    <glyph glyph-name="f" unicode="f" horiz-adv-x="301" 
d="M171 0h-91v392h-60v80h60v94q0 81 37.5 115t91.5 34q61 0 142 -23l-25 -74q-73 26 -111 26q-44 0 -44 -51v-121h117v-80h-117v-392z" />
    <glyph glyph-name="g" unicode="g" horiz-adv-x="505" 
d="M480 430l-71 -27q32 -40 32 -94q0 -41 -15 -73.5t-36.5 -53t-58.5 -37t-68.5 -25t-79.5 -18.5v-6q138 -5 206 -44.5t68 -98.5q0 -71 -68 -117t-167 -46q-104 0 -150.5 36.5t-46.5 89.5q0 70 125 129l-93 13v61q62 16 115 34q-64 23 -93 59t-29 97q0 81 54.5 130t140.5 49
q57 0 102 -25l133 50v-83zM140 309q0 -50 27.5 -80.5t77.5 -30.5q51 0 78.5 30.5t27.5 80.5q0 45 -28 76t-78 31t-77.5 -31t-27.5 -76zM222 -140q70 0 109 23t39 62q0 61 -125 79q-41 -14 -70 -30t-42.5 -30.5t-19 -25t-5.5 -20.5q0 -26 30 -42t84 -16z" />
    <glyph glyph-name="h" unicode="h" horiz-adv-x="563" 
d="M160 700v-286q74 72 156 72q78 0 132.5 -53.5t54.5 -158.5v-274h-91v274q0 69 -31.5 100t-82.5 31q-32 0 -74.5 -18.5t-63.5 -44.5v-342h-90v700h90z" />
    <glyph glyph-name="i" unicode="i" horiz-adv-x="230" 
d="M160 472v-472h-90v472h90zM114 562q-23 0 -40.5 17t-17.5 40q0 25 17.5 42.5t40.5 17.5q25 0 42 -17.5t17 -42.5q0 -23 -17 -40t-42 -17z" />
    <glyph glyph-name="j" unicode="j" horiz-adv-x="230" 
d="M160 472v-457q0 -59 -18 -101.5t-48.5 -65.5t-64 -33t-70.5 -10v80q57 0 84 36.5t27 93.5v457h90zM114 562q-23 0 -40.5 17t-17.5 40q0 25 17.5 42.5t40.5 17.5q25 0 42 -17.5t17 -42.5q0 -23 -17 -40t-42 -17z" />
    <glyph glyph-name="k" unicode="k" horiz-adv-x="485" 
d="M470 472l-187 -194l181 -278h-107l-139 211l-58 -61v-150h-90v700h90v-446l203 218h107z" />
    <glyph glyph-name="l" unicode="l" horiz-adv-x="230" 
d="M160 700v-700h-90v700h90z" />
    <glyph glyph-name="m" unicode="m" horiz-adv-x="823" 
d="M462 337v-337h-91v285q0 70 -26.5 94.5t-72.5 24.5q-33 0 -64.5 -20.5t-47.5 -51.5v-332h-90v472h90v-60q20 28 54.5 52t77.5 24q88 0 141 -78q82 78 160 78q77 0 123.5 -53.5t46.5 -149.5v-285h-91v285q0 70 -26.5 94.5t-72.5 24.5q-26 0 -61.5 -22t-49.5 -45z" />
    <glyph glyph-name="n" unicode="n" horiz-adv-x="563" 
d="M160 472v-58q74 72 156 72q78 0 132.5 -53.5t54.5 -158.5v-274h-91v274q0 69 -31.5 100t-82.5 31q-32 0 -74.5 -18.5t-63.5 -44.5v-342h-90v472h90z" />
    <glyph glyph-name="o" unicode="o" horiz-adv-x="560" 
d="M280 -15q-105 0 -172.5 65.5t-67.5 186.5t67 186t173 65q105 0 172.5 -65.5t67.5 -186.5t-67 -186t-173 -65zM280 60q69 0 109.5 46t40.5 130t-40.5 130.5t-109.5 46.5t-109.5 -46t-40.5 -130t40.5 -130.5t109.5 -46.5z" />
    <glyph glyph-name="p" unicode="p" horiz-adv-x="559" 
d="M427 245q0 50 -15 84.5t-39.5 49t-45.5 20t-44 5.5q-62 0 -123 -63v-243q39 -39 116 -39q151 0 151 186zM70 -195v667h90v-61q20 25 65.5 51t94.5 26q80 0 139.5 -61t59.5 -182q0 -65 -20.5 -117t-53.5 -82t-70 -45.5t-75 -15.5q-81 0 -140 35v-215h-90z" />
    <glyph glyph-name="q" unicode="q" horiz-adv-x="545" 
d="M385 110v283q-24 15 -69 15q-36 0 -66 -7.5t-58 -25.5t-44 -53.5t-16 -86.5q0 -54 15 -91.5t39 -54t42.5 -22.5t35.5 -6q70 0 121 49zM385 -195v229q-54 -49 -129 -49q-87 0 -151.5 66.5t-64.5 183.5q0 82 42 141.5t101 85.5t125 26q39 0 77 -16l90 47v-714h-90z" />
    <glyph glyph-name="r" unicode="r" horiz-adv-x="365" 
d="M160 472v-148q20 72 60 109t113 55l22 -77q-103 -31 -149 -88t-46 -148v-175h-90v472h90z" />
    <glyph glyph-name="s" unicode="s" horiz-adv-x="446" 
d="M406 142q0 -47 -19 -80.5t-50 -49t-58.5 -21.5t-55.5 -6q-96 0 -183 66l38 70q82 -56 147 -56q93 0 93 61q0 30 -26.5 48t-63.5 28.5t-74.5 23.5t-64 44t-26.5 80q0 63 44.5 101t121.5 38q81 0 165 -33l-28 -75q-79 30 -151 30q-32 0 -49 -16.5t-17 -40.5
q0 -27 26.5 -43.5t64.5 -26.5t75.5 -23.5t64 -43t26.5 -75.5z" />
    <glyph glyph-name="t" unicode="t" horiz-adv-x="361" 
d="M312 108l29 -71q-86 -42 -140 -42q-101 0 -101 138v259h-80v10l165 189h6v-119h147v-80h-147v-255q0 -55 39 -55q24 0 82 26z" />
    <glyph glyph-name="u" unicode="u" horiz-adv-x="539" 
d="M469 472v-472h-90v76q-76 -87 -156 -87q-79 0 -121 48t-42 159v276h90v-276q0 -71 27 -94t80 -23q61 0 122 75v318h90z" />
    <glyph glyph-name="v" unicode="v" horiz-adv-x="509" 
d="M15 472h102l145 -351l149 351h88l-207 -472h-73z" />
    <glyph glyph-name="w" unicode="w" horiz-adv-x="717" 
d="M15 472h95l119 -318l100 318h69l115 -315l96 315h93l-156 -472h-68l-116 307l-104 -307h-69z" />
    <glyph glyph-name="x" unicode="x" horiz-adv-x="467" 
d="M337 0l-108 161l-112 -161h-97l162 232l-160 240h106l109 -161l112 161h97l-162 -232l163 -240h-110z" />
    <glyph glyph-name="y" unicode="y" horiz-adv-x="510" 
d="M261 120l145 352h89l-282 -667h-89l86 202l-195 465h97z" />
    <glyph glyph-name="z" unicode="z" horiz-adv-x="467" 
d="M420 0h-380v40l249 352h-241v80h379v-40l-249 -352h242v-80z" />
    <glyph glyph-name="braceleft" unicode="{" horiz-adv-x="333" 
d="M113 280q66 -26 87 -70.5t21 -128.5v-96q0 -62 19.5 -79t72.5 -17v-70q-91 0 -132 42.5t-41 145.5v114q0 40 -9 67.5t-25 39.5t-27.5 16.5t-28.5 6.5v58q17 2 28.5 6.5t27.5 16.5t25 39.5t9 67.5v114q0 103 41 145.5t132 42.5v-70q-53 0 -72.5 -17t-19.5 -79v-96
q0 -84 -21 -128.5t-87 -70.5z" />
    <glyph glyph-name="bar" unicode="|" horiz-adv-x="170" 
d="M120 -195h-70v935h70v-935z" />
    <glyph glyph-name="braceright" unicode="}" horiz-adv-x="333" 
d="M220 280q-66 26 -87 70.5t-21 128.5v96q0 62 -19.5 79t-72.5 17v70q91 0 132 -42.5t41 -145.5v-114q0 -40 9 -67.5t25 -39.5t27.5 -16.5t28.5 -6.5v-58q-17 -2 -28.5 -6.5t-27.5 -16.5t-25 -39.5t-9 -67.5v-114q0 -103 -41 -145.5t-132 -42.5v70q53 0 72.5 17t19.5 79v96
q0 84 21 128.5t87 70.5z" />
    <glyph glyph-name="asciitilde" unicode="~" horiz-adv-x="651" 
d="M606 300q-69 -45 -98.5 -59t-71.5 -14q-40 0 -111.5 35t-110.5 35q-42 0 -72.5 -13t-96.5 -58v68q56 41 91.5 57t78.5 16q40 0 111.5 -35t110.5 -35q42 0 72.5 13t96.5 58v-68z" />
    <glyph glyph-name="uni00A0" unicode="&#xa0;" horiz-adv-x="275" 
 />
    <glyph glyph-name="exclamdown" unicode="&#xa1;" horiz-adv-x="225" 
d="M81 500h60l26 -505h-110zM175 638q0 -26 -18.5 -44.5t-44.5 -18.5q-25 0 -43.5 18.5t-18.5 44.5t18 44t44 18t44.5 -18.5t18.5 -43.5z" />
    <glyph glyph-name="cent" unicode="&#xa2;" horiz-adv-x="490" 
d="M425 125l40 -66q-105 -74 -191 -74l-10 -69h-67l11 77q-76 18 -122 78t-46 165q0 82 37.5 141t90.5 84.5t113 26.5l10 69h67l-11 -73q39 -5 98 -19l-21 -77q-59 15 -88 18l-50 -338h7q43 0 132 57zM137 236q0 -121 84 -156l48 328q-132 -13 -132 -172z" />
    <glyph glyph-name="sterling" unicode="&#xa3;" horiz-adv-x="531" 
d="M52 284v80h68l25 127q22 110 68 167t142 57q60 0 156 -16l-19 -89q-119 21 -164 21q-29 0 -51.5 -33.5t-40.5 -123.5l-22 -110h183v-80h-199l-39 -192q61 29 135 29q31 0 71 -7l144 -23l-18 -103l-205 33q-42 6 -66 6q-62 0 -110 -27h-60l55 284h-53z" />
    <glyph glyph-name="currency" unicode="&#xa4;" horiz-adv-x="823" 
d="M94 351q0 111 69 198l-108 109l49 49l108 -109q89 71 200 71q112 0 199 -71l109 109l49 -49l-109 -109q69 -88 69 -198q0 -113 -70 -199l110 -110l-49 -49l-111 110q-87 -69 -197 -69q-111 0 -198 69l-110 -110l-49 49l109 109q-70 87 -70 200zM194 351q0 -89 64 -153
t154 -64q88 0 151 64t63 153t-62.5 152t-151.5 63q-90 0 -154 -63t-64 -152z" />
    <glyph glyph-name="yen" unicode="&#xa5;" horiz-adv-x="598" 
d="M569 134h-221v-134h-99v134h-220v70h220v51l-15 29h-205v70h168l-182 346h111l177 -340l179 340h101l-182 -346h168v-70h-205l-16 -31v-49h221v-70z" />
    <glyph glyph-name="brokenbar" unicode="&#xa6;" horiz-adv-x="170" 
d="M120 -195h-70v340h70v-340zM120 400h-70v340h70v-340z" />
    <glyph glyph-name="section" unicode="&#xa7;" horiz-adv-x="470" 
d="M420 283q0 -79 -70 -139q31 -41 31 -82q0 -76 -51.5 -126.5t-142.5 -50.5q-58 0 -137 57l43 70q74 -47 112 -47q44 0 69 19.5t25 53.5q0 30 -25 58t-60 52.5t-70.5 51.5t-60.5 66.5t-25 86.5q0 81 66 135q-27 28 -27 85q0 64 43 103t115 39q58 0 142 -32l-35 -76
q-69 28 -112 28q-71 0 -71 -47q0 -25 25 -50.5t60.5 -49.5t70.5 -51.5t60 -67.5t25 -86zM183 440q-39 -31 -39 -68q0 -13 3.5 -25t7 -21t14 -21.5t17 -19.5t23 -21t24.5 -20.5t30 -23t32 -24.5q39 31 39 68q0 13 -3.5 25t-7 21t-14 21.5t-17 19.5t-23 21t-24.5 20.5t-30 23
t-32 24.5z" />
    <glyph glyph-name="dieresis" unicode="&#xa8;" horiz-adv-x="492" 
d="M174 562q-23 0 -40 17t-17 40q0 25 17 42.5t40 17.5q25 0 42.5 -17.5t17.5 -42.5q0 -23 -17.5 -40t-42.5 -17zM369 562q-23 0 -40.5 17t-17.5 40q0 25 17.5 42.5t40.5 17.5q25 0 42 -17.5t17 -42.5q0 -23 -17 -40t-42 -17z" />
    <glyph glyph-name="copyright" unicode="&#xa9;" horiz-adv-x="823" 
d="M50 351q0 150 106 256t256 106q149 0 255 -106t106 -256q0 -149 -106 -255t-255 -106q-150 0 -256 106t-106 255zM419 578q72 0 132 -27l-22 -54q-65 25 -110 25q-66 0 -108 -46.5t-42 -124.5q0 -82 41.5 -126t108.5 -44q54 0 128 50l27 -48q-8 -6 -22.5 -16t-55.5 -26
t-77 -16q-106 0 -162 61t-56 165q0 101 56.5 164t161.5 63zM98 351q0 -129 92 -221t222 -92q129 0 221 92t92 221q0 130 -92 222t-221 92q-130 0 -222 -92t-92 -222z" />
    <glyph glyph-name="ordfeminine" unicode="&#xaa;" horiz-adv-x="405" 
d="M276 335v51q-62 -59 -123 -59q-46 0 -74.5 24t-28.5 71q0 68 58 98.5t168 35.5q0 29 -5 46.5t-16.5 24.5t-21 8.5t-28.5 1.5q-53 0 -118 -27l-20 60q72 31 157 31q131 0 131 -149v-217h-79zM177 389q38 0 99 57v56q-71 -3 -109.5 -19t-38.5 -53q0 -41 49 -41z" />
    <glyph glyph-name="guillemotleft" unicode="&#xab;" horiz-adv-x="416" 
d="M314 230l92 -114l-37 -36l-140 150l140 150l37 -36zM159 230l150 -192l-44 -39l-215 231l215 231l44 -39z" />
    <glyph glyph-name="logicalnot" unicode="&#xac;" horiz-adv-x="639" 
d="M589 89h-70v120h-469v70h539v-190z" />
    <glyph glyph-name="uni00AD" unicode="&#xad;" horiz-adv-x="290" 
d="M260 219h-230v70h230v-70z" />
    <glyph glyph-name="registered" unicode="&#xae;" horiz-adv-x="478" 
d="M438 520q0 -82 -58 -140.5t-141 -58.5t-141 58.5t-58 140.5t58 140.5t141 58.5t141 -58.5t58 -140.5zM213 497v-97h-37v247h69q36 0 61.5 -19.5t25.5 -56.5q0 -51 -49 -68l64 -103h-43l-60 97h-31zM213 615v-86h26q53 0 53 42q0 44 -53 44h-26zM405 520q0 70 -48 118
t-118 48t-118 -48t-48 -118t48 -118t118 -48t118 48t48 118z" />
    <glyph glyph-name="macron" unicode="&#xaf;" horiz-adv-x="360" 
d="M310 589h-260v70h260v-70z" />
    <glyph glyph-name="degree" unicode="&#xb0;" horiz-adv-x="296" 
d="M40 632q0 45 31.5 76.5t76.5 31.5t76.5 -31.5t31.5 -76.5t-31.5 -76.5t-76.5 -31.5t-76.5 31.5t-31.5 76.5zM82 632q0 -26 19 -44.5t46 -18.5q26 0 44.5 18.5t18.5 44.5q0 27 -18.5 46t-44.5 19q-27 0 -46 -19t-19 -46z" />
    <glyph glyph-name="plusminus" unicode="&#xb1;" horiz-adv-x="640" 
d="M355 554v-174h235v-70h-235v-175h-70v175h-235v70h235v174h70zM590 22h-540v70h540v-70z" />
    <glyph glyph-name="twosuperior" unicode="&#xb2;" horiz-adv-x="350" 
d="M299 335h-237v26l120 148q36 44 36 77q0 48 -59 48q-32 0 -68 -31l-41 45q59 52 133 52q57 0 87 -27.5t30 -66.5q0 -56 -47 -113l-78 -95h124v-63z" />
    <glyph glyph-name="threesuperior" unicode="&#xb3;" horiz-adv-x="354" 
d="M192 700q52 0 75 -24.5t23 -55.5q0 -66 -80 -95q44 -4 69 -26t25 -57q0 -47 -39 -81t-110 -34q-56 0 -105 31l27 50q42 -21 71 -21t52.5 14t23.5 43q0 41 -57 41q-15 0 -30 -5l-19 47q51 19 74.5 36.5t23.5 40.5q0 35 -42 35q-40 0 -76 -33l-37 42q55 52 131 52z" />
    <glyph glyph-name="acute" unicode="&#xb4;" horiz-adv-x="395" 
d="M356 706l-131 -162h-65l98 162h98z" />
    <glyph glyph-name="uni00B5" unicode="&#xb5;" horiz-adv-x="275" 
d="M29 204h61v80h-61v70h61v346h187q96 0 164.5 -54.5t68.5 -158.5q0 -70 -35 -117.5t-85.5 -66.5t-112.5 -19h-87v-80h214v-70h-214v-134h-100v134h-61v70zM259 354q70 0 107.5 35.5t37.5 97.5q0 123 -145 123h-69v-256h69z" />
    <glyph glyph-name="paragraph" unicode="&#xb6;" horiz-adv-x="546" 
d="M256 -146v517q-95 0 -155.5 41.5t-60.5 125.5q0 45 22 78t56.5 50.5t69 25.5t68.5 8h210v-846h-70v756h-70v-756h-70z" />
    <glyph glyph-name="periodcentered" unicode="&#xb7;" horiz-adv-x="225" 
d="M50 277q0 25 19 44t44 19t43.5 -18.5t18.5 -44.5q0 -25 -18.5 -43.5t-43.5 -18.5q-26 0 -44.5 18.5t-18.5 43.5z" />
    <glyph glyph-name="cedilla" unicode="&#xb8;" horiz-adv-x="235" 
d="M40 -203v40q16 -4 45 -4q25 0 37.5 9.5t12.5 22.5q0 29 -45 34l-29 3l36 98h71l-28 -66q29 -5 48.5 -22t19.5 -41q0 -34 -30.5 -57t-80.5 -23q-33 0 -57 6z" />
    <glyph glyph-name="onesuperior" unicode="&#xb9;" horiz-adv-x="310" 
d="M260 335h-187v57h55v221l-53 -27l-25 41l117 73h38v-308h55v-57z" />
    <glyph glyph-name="ordmasculine" unicode="&#xba;" horiz-adv-x="470" 
d="M235 324q-81 0 -133 49.5t-52 139.5t52 139t133 49t133 -49.5t52 -139.5t-52 -139t-133 -49zM235 384q49 0 77.5 33.5t28.5 94.5t-28.5 95t-77.5 34t-77.5 -33.5t-28.5 -94.5t28.5 -95t77.5 -34z" />
    <glyph glyph-name="guillemotright" unicode="&#xbb;" horiz-adv-x="416" 
d="M102 230l-92 114l37 36l140 -150l-140 -150l-37 36zM257 230l-150 192l44 39l215 -231l-215 -231l-44 39z" />
    <glyph glyph-name="onequarter" unicode="&#xbc;" horiz-adv-x="741" 
d="M691 700l-560 -700h-81l560 700h81zM272 335h-187v57h55v221l-53 -27l-25 41l117 73h38v-308h55v-57zM670 136v-54h-49v-82h-76v82h-161v34l186 249h51v-229h49zM460 136h85v112z" />
    <glyph glyph-name="onehalf" unicode="&#xbd;" horiz-adv-x="791" 
d="M691 700l-560 -700h-81l560 700h81zM272 335h-187v57h55v221l-53 -27l-25 41l117 73h38v-308h55v-57zM740 0h-237v26l120 148q36 44 36 77q0 48 -59 48q-32 0 -68 -31l-41 45q59 52 133 52q57 0 87 -27.5t30 -66.5q0 -56 -47 -113l-78 -95h124v-63z" />
    <glyph glyph-name="threequarters" unicode="&#xbe;" horiz-adv-x="751" 
d="M680 136v-54h-49v-82h-76v82h-161v34l186 249h51v-229h49zM470 136h85v112zM701 700l-560 -700h-81l560 700h81zM192 700q52 0 75 -24.5t23 -55.5q0 -66 -80 -95q44 -4 69 -26t25 -57q0 -47 -39 -81t-110 -34q-56 0 -105 31l27 50q42 -21 71 -21t52.5 14t23.5 43
q0 41 -57 41q-15 0 -30 -5l-19 47q51 19 74.5 36.5t23.5 40.5q0 35 -42 35q-40 0 -76 -33l-37 42q55 52 131 52z" />
    <glyph glyph-name="questiondown" unicode="&#xbf;" horiz-adv-x="439" 
d="M50 157q0 46 20 80.5t48 55t56 39.5t48 48t20 67q0 25 -7 53h60q24 -42 24 -83q0 -46 -28 -83.5t-61.5 -59t-61.5 -51.5t-28 -63q0 -39 27.5 -57t61.5 -18q60 0 128 31l32 -84q-85 -37 -158 -37q-45 0 -79.5 12.5t-53 30.5t-30 42t-15 42t-3.5 35zM328 638
q0 -26 -19 -44.5t-44 -18.5t-43.5 18.5t-18.5 44.5t18.5 44t43.5 18q26 0 44.5 -18.5t18.5 -43.5z" />
    <glyph glyph-name="Agrave" unicode="&#xc0;" horiz-adv-x="633" 
d="M256 700h121l241 -700h-105l-65 188h-272l-65 -188h-96zM313 583l-106 -305h210zM349 772l-131 162h98l98 -162h-65z" />
    <glyph glyph-name="Aacute" unicode="&#xc1;" horiz-adv-x="633" 
d="M256 700h121l241 -700h-105l-65 188h-272l-65 -188h-96zM313 583l-106 -305h210zM454 934l-131 -162h-65l98 162h98z" />
    <glyph glyph-name="Acircumflex" unicode="&#xc2;" horiz-adv-x="633" 
d="M256 700h121l241 -700h-105l-65 188h-272l-65 -188h-96zM313 583l-106 -305h210zM365 934l118 -162h-65l-102 101l-102 -101h-65l118 162h98z" />
    <glyph glyph-name="Atilde" unicode="&#xc3;" horiz-adv-x="633" 
d="M256 700h121l241 -700h-105l-65 188h-272l-65 -188h-96zM313 583l-106 -305h210zM379 865q27 0 44.5 13.5t40.5 47.5l20 -64q-42 -67 -106 -67q-34 0 -69 25t-56 25q-27 0 -44.5 -13.5t-40.5 -47.5l-20 64q42 67 106 67q34 0 69 -25t56 -25z" />
    <glyph glyph-name="Adieresis" unicode="&#xc4;" horiz-adv-x="633" 
d="M256 700h121l241 -700h-105l-65 188h-272l-65 -188h-96zM313 583l-106 -305h210zM218 790q-23 0 -40 17t-17 40q0 25 17 42.5t40 17.5q25 0 42.5 -17.5t17.5 -42.5q0 -23 -17.5 -40t-42.5 -17zM413 790q-23 0 -40.5 17t-17.5 40q0 25 17.5 42.5t40.5 17.5q25 0 42 -17.5
t17 -42.5q0 -23 -17 -40t-42 -17z" />
    <glyph glyph-name="Aring" unicode="&#xc5;" horiz-adv-x="633" 
d="M256 700h121l241 -700h-105l-65 188h-272l-65 -188h-96zM313 583l-106 -305h210zM236 850q0 34 23.5 57t57.5 23t57 -23t23 -57t-23 -57.5t-57 -23.5t-57.5 23.5t-23.5 57.5zM277 850q0 -16 11.5 -27t27.5 -11t26.5 11t10.5 27t-10.5 27t-26.5 11q-17 0 -28 -11t-11 -27z
" />
    <glyph glyph-name="AE" unicode="&#xc6;" horiz-adv-x="892" 
d="M817 407v-90h-266l46 -227h255v-90h-341l-37 188h-271l-92 -188h-96l341 700h485v-90h-347l39 -203h284zM396 583l-149 -305h209z" />
    <glyph glyph-name="Ccedilla" unicode="&#xc7;" horiz-adv-x="661" 
d="M273 -203v40q16 -4 45 -4q25 0 37.5 9.5t12.5 22.5q0 29 -45 34l-29 3l32 88q-140 18 -213 114t-73 246q0 162 91 263.5t260 101.5q127 0 223 -43l-35 -87q-105 40 -188 40q-106 0 -173.5 -74.5t-67.5 -200.5q0 -132 66.5 -203.5t174.5 -71.5q86 0 207 81l43 -77
q-5 -4 -13.5 -10t-35.5 -22t-54.5 -28.5t-67 -22.5t-76.5 -11l-21 -51q29 -5 48.5 -22t19.5 -41q0 -34 -30.5 -57t-80.5 -23q-33 0 -57 6z" />
    <glyph glyph-name="Egrave" unicode="&#xc8;" horiz-adv-x="499" 
d="M424 407v-90h-234v-227h269v-90h-369v700h358v-90h-258v-203h234zM292 772l-131 162h98l98 -162h-65z" />
    <glyph glyph-name="Eacute" unicode="&#xc9;" horiz-adv-x="499" 
d="M424 407v-90h-234v-227h269v-90h-369v700h358v-90h-258v-203h234zM408 934l-131 -162h-65l98 162h98z" />
    <glyph glyph-name="Ecircumflex" unicode="&#xca;" horiz-adv-x="499" 
d="M424 407v-90h-234v-227h269v-90h-369v700h358v-90h-258v-203h234zM298 934l118 -162h-65l-102 101l-102 -101h-65l118 162h98z" />
    <glyph glyph-name="Edieresis" unicode="&#xcb;" horiz-adv-x="499" 
d="M424 407v-90h-234v-227h269v-90h-369v700h358v-90h-258v-203h234zM171 790q-23 0 -40 17t-17 40q0 25 17 42.5t40 17.5q25 0 42.5 -17.5t17.5 -42.5q0 -23 -17.5 -40t-42.5 -17zM366 790q-23 0 -40.5 17t-17.5 40q0 25 17.5 42.5t40.5 17.5q25 0 42 -17.5t17 -42.5
q0 -23 -17 -40t-42 -17z" />
    <glyph glyph-name="Igrave" unicode="&#xcc;" horiz-adv-x="280" 
d="M190 0h-100v700h100v-700zM173 772l-131 162h98l98 -162h-65z" />
    <glyph glyph-name="Iacute" unicode="&#xcd;" horiz-adv-x="280" 
d="M190 0h-100v700h100v-700zM238 934l-131 -162h-65l98 162h98z" />
    <glyph glyph-name="Icircumflex" unicode="&#xce;" horiz-adv-x="280" 
d="M190 0h-100v700h100v-700zM189 934l118 -162h-65l-102 101l-102 -101h-65l118 162h98z" />
    <glyph glyph-name="Idieresis" unicode="&#xcf;" horiz-adv-x="280" 
d="M190 0h-100v700h100v-700zM198 794q-18 0 -31.5 15.5t-13.5 37.5t13.5 39t31.5 17q20 0 33.5 -16.5t13.5 -39.5t-13.5 -38t-33.5 -15zM80 794q-18 0 -31.5 15.5t-13.5 37.5t14 39t31 17q20 0 34 -16.5t14 -39.5q0 -22 -14 -37.5t-34 -15.5z" />
    <glyph glyph-name="Eth" unicode="&#xd0;" horiz-adv-x="666" 
d="M90 700h213q69 0 125 -20.5t92 -54.5t60.5 -80t35 -94.5t10.5 -100.5t-10.5 -100.5t-35 -94.5t-60.5 -80t-92 -54.5t-125 -20.5h-213v315h-60v70h60v315zM290 315h-100v-225h98q121 0 174.5 65.5t53.5 194.5t-53.5 194.5t-174.5 65.5h-98v-225h100v-70z" />
    <glyph glyph-name="Ntilde" unicode="&#xd1;" horiz-adv-x="750" 
d="M660 700v-700h-70l-410 510v-510h-90v700h70l410 -511v511h90zM439 865q27 0 44.5 13.5t40.5 47.5l20 -64q-42 -67 -106 -67q-34 0 -69 25t-56 25q-27 0 -44.5 -13.5t-40.5 -47.5l-20 64q42 67 106 67q34 0 69 -25t56 -25z" />
    <glyph glyph-name="Ograve" unicode="&#xd2;" horiz-adv-x="754" 
d="M377 -15q-156 0 -246.5 105.5t-90.5 259.5t90.5 259.5t246.5 105.5t246.5 -105.5t90.5 -259.5t-90.5 -259.5t-246.5 -105.5zM377 75q104 0 170.5 74t66.5 201t-66.5 201t-170.5 74t-170.5 -74t-66.5 -201t66.5 -201t170.5 -74zM410 772l-131 162h98l98 -162h-65z" />
    <glyph glyph-name="Oacute" unicode="&#xd3;" horiz-adv-x="754" 
d="M377 -15q-156 0 -246.5 105.5t-90.5 259.5t90.5 259.5t246.5 105.5t246.5 -105.5t90.5 -259.5t-90.5 -259.5t-246.5 -105.5zM377 75q104 0 170.5 74t66.5 201t-66.5 201t-170.5 74t-170.5 -74t-66.5 -201t66.5 -201t170.5 -74zM475 934l-131 -162h-65l98 162h98z" />
    <glyph glyph-name="Ocircumflex" unicode="&#xd4;" horiz-adv-x="754" 
d="M377 -15q-156 0 -246.5 105.5t-90.5 259.5t90.5 259.5t246.5 105.5t246.5 -105.5t90.5 -259.5t-90.5 -259.5t-246.5 -105.5zM377 75q104 0 170.5 74t66.5 201t-66.5 201t-170.5 74t-170.5 -74t-66.5 -201t66.5 -201t170.5 -74zM426 934l118 -162h-65l-102 101l-102 -101
h-65l118 162h98z" />
    <glyph glyph-name="Otilde" unicode="&#xd5;" horiz-adv-x="754" 
d="M377 -15q-156 0 -246.5 105.5t-90.5 259.5t90.5 259.5t246.5 105.5t246.5 -105.5t90.5 -259.5t-90.5 -259.5t-246.5 -105.5zM377 75q104 0 170.5 74t66.5 201t-66.5 201t-170.5 74t-170.5 -74t-66.5 -201t66.5 -201t170.5 -74zM440 865q27 0 44.5 13.5t40.5 47.5l20 -64
q-42 -67 -106 -67q-33 0 -68 25t-57 25q-27 0 -44.5 -13.5t-40.5 -47.5l-20 64q42 67 106 67q33 0 68 -25t57 -25z" />
    <glyph glyph-name="Odieresis" unicode="&#xd6;" horiz-adv-x="754" 
d="M377 -15q-156 0 -246.5 105.5t-90.5 259.5t90.5 259.5t246.5 105.5t246.5 -105.5t90.5 -259.5t-90.5 -259.5t-246.5 -105.5zM377 75q104 0 170.5 74t66.5 201t-66.5 201t-170.5 74t-170.5 -74t-66.5 -201t66.5 -201t170.5 -74zM278 790q-23 0 -40 17t-17 40q0 25 17 42.5
t40 17.5q25 0 42.5 -17.5t17.5 -42.5q0 -23 -17.5 -40t-42.5 -17zM473 790q-23 0 -40.5 17t-17.5 40q0 25 17.5 42.5t40.5 17.5q25 0 42 -17.5t17 -42.5q0 -23 -17 -40t-42 -17z" />
    <glyph glyph-name="multiply" unicode="&#xd7;" horiz-adv-x="640" 
d="M516 48l-196 197l-196 -197l-50 50l197 196l-197 196l50 50l196 -197l196 197l50 -50l-197 -196l197 -196z" />
    <glyph glyph-name="Oslash" unicode="&#xd8;" horiz-adv-x="754" 
d="M377 -15q-91 0 -163 39l-14 -24h-72l35 58q-59 51 -91 127t-32 165q0 154 90.5 259.5t246.5 105.5q90 0 162 -39l14 24h72l-35 -58q60 -51 92 -127.5t32 -164.5q0 -154 -90.5 -259.5t-246.5 -105.5zM377 75q104 0 170.5 74t66.5 201q0 133 -74 209l-278 -456
q50 -28 115 -28zM140 350q0 -134 73 -209l277 456q-51 28 -113 28q-104 0 -170.5 -74t-66.5 -201z" />
    <glyph glyph-name="Ugrave" unicode="&#xd9;" horiz-adv-x="715" 
d="M358 75q88 0 127.5 44t39.5 117v464h100v-464q0 -121 -71.5 -186t-195.5 -65t-196 65t-72 186v464h100v-464q0 -73 40 -117t128 -44zM390 772l-131 162h98l98 -162h-65z" />
    <glyph glyph-name="Uacute" unicode="&#xda;" horiz-adv-x="715" 
d="M358 75q88 0 127.5 44t39.5 117v464h100v-464q0 -121 -71.5 -186t-195.5 -65t-196 65t-72 186v464h100v-464q0 -73 40 -117t128 -44zM455 934l-131 -162h-65l98 162h98z" />
    <glyph glyph-name="Ucircumflex" unicode="&#xdb;" horiz-adv-x="715" 
d="M358 75q88 0 127.5 44t39.5 117v464h100v-464q0 -121 -71.5 -186t-195.5 -65t-196 65t-72 186v464h100v-464q0 -73 40 -117t128 -44zM406 934l118 -162h-65l-102 101l-102 -101h-65l118 162h98z" />
    <glyph glyph-name="Udieresis" unicode="&#xdc;" horiz-adv-x="715" 
d="M358 75q88 0 127.5 44t39.5 117v464h100v-464q0 -121 -71.5 -186t-195.5 -65t-196 65t-72 186v464h100v-464q0 -73 40 -117t128 -44zM259 790q-23 0 -40 17t-17 40q0 25 17 42.5t40 17.5q25 0 42.5 -17.5t17.5 -42.5q0 -23 -17.5 -40t-42.5 -17zM454 790q-23 0 -40.5 17
t-17.5 40q0 25 17.5 42.5t40.5 17.5q25 0 42 -17.5t17 -42.5q0 -23 -17 -40t-42 -17z" />
    <glyph glyph-name="Yacute" unicode="&#xdd;" horiz-adv-x="598" 
d="M348 253v-253h-99v255l-234 445h111l177 -340l179 340h101zM397 934l-131 -162h-65l98 162h98z" />
    <glyph glyph-name="Thorn" unicode="&#xde;" horiz-adv-x="540" 
d="M190 147v-147h-100v715h100v-142h87q96 0 164.5 -54.5t68.5 -158.5t-68.5 -158.5t-164.5 -54.5h-87zM190 483v-246h69q145 0 145 123t-145 123h-69z" />
    <glyph glyph-name="germandbls" unicode="&#xdf;" horiz-adv-x="541" 
d="M70 0v501q0 89 58 151.5t140 62.5q55 0 93.5 -15t55.5 -39.5t24 -46.5t7 -46q0 -37 -17 -64.5t-41 -43t-48 -29.5t-41 -33t-17 -44q0 -22 22.5 -38t54 -28.5t63.5 -29t54.5 -48t22.5 -77.5q0 -69 -47.5 -108.5t-125.5 -39.5q-82 0 -153 66l43 66q36 -32 58.5 -43.5
t53.5 -11.5q36 0 59.5 17.5t23.5 46.5q0 25 -15 42.5t-38 25.5t-49.5 19.5t-49.5 24.5t-38 42t-15 70q0 32 11.5 56t29 37.5t38 27t38 24.5t29 29.5t11.5 42.5q0 15 -3 26.5t-12.5 24t-30 19.5t-51.5 7q-47 0 -77 -34t-30 -110v-500h-91z" />
    <glyph glyph-name="agrave" unicode="&#xe0;" horiz-adv-x="485" 
d="M335 0v70q-86 -81 -165 -81q-60 0 -97.5 32t-37.5 94q0 91 76.5 131t223.5 47q0 41 -7 66t-23.5 35t-29.5 12t-40 2q-64 0 -153 -36l-26 77q99 39 199 39q170 0 170 -201v-287h-90zM193 66q55 0 142 83v74q-100 -4 -155 -26.5t-55 -74.5q0 -56 68 -56zM265 544l-131 162
h98l98 -162h-65z" />
    <glyph glyph-name="aacute" unicode="&#xe1;" horiz-adv-x="485" 
d="M335 0v70q-86 -81 -165 -81q-60 0 -97.5 32t-37.5 94q0 91 76.5 131t223.5 47q0 41 -7 66t-23.5 35t-29.5 12t-40 2q-64 0 -153 -36l-26 77q99 39 199 39q170 0 170 -201v-287h-90zM193 66q55 0 142 83v74q-100 -4 -155 -26.5t-55 -74.5q0 -56 68 -56zM341 706l-131 -162
h-65l98 162h98z" />
    <glyph glyph-name="acircumflex" unicode="&#xe2;" horiz-adv-x="485" 
d="M335 0v70q-86 -81 -165 -81q-60 0 -97.5 32t-37.5 94q0 91 76.5 131t223.5 47q0 41 -7 66t-23.5 35t-29.5 12t-40 2q-64 0 -153 -36l-26 77q99 39 199 39q170 0 170 -201v-287h-90zM193 66q55 0 142 83v74q-100 -4 -155 -26.5t-55 -74.5q0 -56 68 -56zM291 706l118 -162
h-65l-102 101l-102 -101h-65l118 162h98z" />
    <glyph glyph-name="atilde" unicode="&#xe3;" horiz-adv-x="485" 
d="M335 0v70q-86 -81 -165 -81q-60 0 -97.5 32t-37.5 94q0 91 76.5 131t223.5 47q0 41 -7 66t-23.5 35t-29.5 12t-40 2q-64 0 -153 -36l-26 77q99 39 199 39q170 0 170 -201v-287h-90zM193 66q55 0 142 83v74q-100 -4 -155 -26.5t-55 -74.5q0 -56 68 -56zM305 637
q27 0 44.5 13.5t40.5 47.5l20 -64q-42 -67 -106 -67q-34 0 -69 25t-56 25q-27 0 -44.5 -13.5t-40.5 -47.5l-20 64q42 67 106 67q34 0 69 -25t56 -25z" />
    <glyph glyph-name="adieresis" unicode="&#xe4;" horiz-adv-x="485" 
d="M335 0v70q-86 -81 -165 -81q-60 0 -97.5 32t-37.5 94q0 91 76.5 131t223.5 47q0 41 -7 66t-23.5 35t-29.5 12t-40 2q-64 0 -153 -36l-26 77q99 39 199 39q170 0 170 -201v-287h-90zM193 66q55 0 142 83v74q-100 -4 -155 -26.5t-55 -74.5q0 -56 68 -56zM144 562
q-23 0 -40 17t-17 40q0 25 17 42.5t40 17.5q25 0 42.5 -17.5t17.5 -42.5q0 -23 -17.5 -40t-42.5 -17zM339 562q-23 0 -40.5 17t-17.5 40q0 25 17.5 42.5t40.5 17.5q25 0 42 -17.5t17 -42.5q0 -23 -17 -40t-42 -17z" />
    <glyph glyph-name="aring" unicode="&#xe5;" horiz-adv-x="485" 
d="M335 0v70q-86 -81 -165 -81q-60 0 -97.5 32t-37.5 94q0 91 76.5 131t223.5 47q0 41 -7 66t-23.5 35t-29.5 12t-40 2q-64 0 -153 -36l-26 77q99 39 199 39q170 0 170 -201v-287h-90zM193 66q55 0 142 83v74q-100 -4 -155 -26.5t-55 -74.5q0 -56 68 -56zM162 622
q0 34 23.5 57t57.5 23t57 -23t23 -57t-23 -57.5t-57 -23.5t-57.5 23.5t-23.5 57.5zM203 622q0 -16 11.5 -27t27.5 -11t26.5 11t10.5 27t-10.5 27t-26.5 11q-17 0 -28 -11t-11 -27z" />
    <glyph glyph-name="ae" unicode="&#xe6;" horiz-adv-x="787" 
d="M255 488q101 0 144 -77q60 77 153 77q203 0 203 -255h-330q2 -91 43 -128t117 -37q56 0 135 57l37 -65q-103 -75 -187 -75q-126 0 -189 101q-44 -49 -100.5 -73t-100.5 -24q-67 0 -106 32t-39 94q0 91 76.5 131t223.5 47q0 41 -7 66t-23.5 35t-29.5 12t-40 2
q-64 0 -153 -36l-26 77q99 39 199 39zM193 66q33 0 77.5 23.5t74.5 60.5q-10 32 -10 73q-100 -4 -155 -26.5t-55 -74.5q0 -56 68 -56zM555 408q-97 0 -130 -110h243q-3 54 -28 82t-85 28z" />
    <glyph glyph-name="ccedilla" unicode="&#xe7;" horiz-adv-x="490" 
d="M177 -203v40q16 -4 45 -4q25 0 37.5 9.5t12.5 22.5q0 29 -45 34l-29 3l32 87q-84 12 -137 73t-53 174q0 83 38 142t92 84.5t114 25.5q72 0 161 -23l-21 -77q-79 21 -130 21q-157 0 -157 -173q0 -84 41 -126t115 -42q43 0 132 57l40 -66q-90 -64 -166 -72l-22 -53
q29 -5 48.5 -22t19.5 -41q0 -34 -30.5 -57t-80.5 -23q-33 0 -57 6z" />
    <glyph glyph-name="egrave" unicode="&#xe8;" horiz-adv-x="492" 
d="M40 226q0 123 65.5 192.5t151.5 69.5q203 0 203 -255h-328q2 -91 42 -128t116 -37q56 0 135 57l37 -65q-103 -75 -187 -75q-99 0 -167 62t-68 179zM260 408q-44 0 -73.5 -25.5t-47.5 -84.5h234q-3 54 -28 82t-85 28zM279 544l-131 162h98l98 -162h-65z" />
    <glyph glyph-name="eacute" unicode="&#xe9;" horiz-adv-x="492" 
d="M40 226q0 123 65.5 192.5t151.5 69.5q203 0 203 -255h-328q2 -91 42 -128t116 -37q56 0 135 57l37 -65q-103 -75 -187 -75q-99 0 -167 62t-68 179zM260 408q-44 0 -73.5 -25.5t-47.5 -84.5h234q-3 54 -28 82t-85 28zM344 706l-131 -162h-65l98 162h98z" />
    <glyph glyph-name="ecircumflex" unicode="&#xea;" horiz-adv-x="492" 
d="M40 226q0 123 65.5 192.5t151.5 69.5q203 0 203 -255h-328q2 -91 42 -128t116 -37q56 0 135 57l37 -65q-103 -75 -187 -75q-99 0 -167 62t-68 179zM260 408q-44 0 -73.5 -25.5t-47.5 -84.5h234q-3 54 -28 82t-85 28zM305 706l118 -162h-65l-102 101l-102 -101h-65
l118 162h98z" />
    <glyph glyph-name="edieresis" unicode="&#xeb;" horiz-adv-x="492" 
d="M40 226q0 123 65.5 192.5t151.5 69.5q203 0 203 -255h-328q2 -91 42 -128t116 -37q56 0 135 57l37 -65q-103 -75 -187 -75q-99 0 -167 62t-68 179zM260 408q-44 0 -73.5 -25.5t-47.5 -84.5h234q-3 54 -28 82t-85 28zM148 562q-23 0 -40 17t-17 40q0 25 17 42.5t40 17.5
q25 0 42.5 -17.5t17.5 -42.5q0 -23 -17.5 -40t-42.5 -17zM343 562q-23 0 -40.5 17t-17.5 40q0 25 17.5 42.5t40.5 17.5q25 0 42 -17.5t17 -42.5q0 -23 -17 -40t-42 -17z" />
    <glyph glyph-name="igrave" unicode="&#xec;" horiz-adv-x="230" 
d="M160 472v-472h-90v472h90zM148 544l-131 162h98l98 -162h-65z" />
    <glyph glyph-name="iacute" unicode="&#xed;" horiz-adv-x="230" 
d="M160 472v-472h-90v472h90zM213 706l-131 -162h-65l98 162h98z" />
    <glyph glyph-name="icircumflex" unicode="&#xee;" horiz-adv-x="230" 
d="M160 472v-472h-90v472h90zM164 706l118 -162h-65l-102 101l-102 -101h-65l118 162h98z" />
    <glyph glyph-name="idieresis" unicode="&#xef;" horiz-adv-x="230" 
d="M173 563q-18 0 -31.5 15.5t-13.5 37.5t13.5 39t31.5 17q20 0 33.5 -16.5t13.5 -39.5t-13.5 -38t-33.5 -15zM55 563q-18 0 -31.5 15.5t-13.5 37.5t14 39t31 17q20 0 34 -16.5t14 -39.5q0 -22 -14 -37.5t-34 -15.5zM160 472v-472h-90v472h90z" />
    <glyph glyph-name="eth" unicode="&#xf0;" horiz-adv-x="548" 
d="M286 754l-21 -65q121 -43 182 -147.5t61 -257.5q0 -131 -69 -215t-171 -84q-103 0 -165.5 62t-62.5 179q0 125 73 193.5t180 68.5q52 0 90 -13q-29 93 -143 139l-25 -79l-67 21l25 77q-34 7 -69 7v75q50 -1 93 -9l22 69zM417 280q0 70 -19 115q-47 14 -96 14
q-79 0 -125 -53t-46 -134q0 -77 37.5 -119.5t103.5 -42.5t105.5 63t39.5 157z" />
    <glyph glyph-name="ntilde" unicode="&#xf1;" horiz-adv-x="563" 
d="M160 472v-58q74 72 156 72q78 0 132.5 -53.5t54.5 -158.5v-274h-91v274q0 69 -31.5 100t-82.5 31q-32 0 -74.5 -18.5t-63.5 -44.5v-342h-90v472h90zM344 637q27 0 44.5 13.5t40.5 47.5l20 -64q-42 -67 -106 -67q-33 0 -68 25t-57 25q-27 0 -44.5 -13.5t-40.5 -47.5
l-20 64q42 67 106 67q33 0 68 -25t57 -25z" />
    <glyph glyph-name="ograve" unicode="&#xf2;" horiz-adv-x="560" 
d="M280 -15q-105 0 -172.5 65.5t-67.5 186.5t67 186t173 65q105 0 172.5 -65.5t67.5 -186.5t-67 -186t-173 -65zM280 60q69 0 109.5 46t40.5 130t-40.5 130.5t-109.5 46.5t-109.5 -46t-40.5 -130t40.5 -130.5t109.5 -46.5zM313 544l-131 162h98l98 -162h-65z" />
    <glyph glyph-name="oacute" unicode="&#xf3;" horiz-adv-x="560" 
d="M280 -15q-105 0 -172.5 65.5t-67.5 186.5t67 186t173 65q105 0 172.5 -65.5t67.5 -186.5t-67 -186t-173 -65zM280 60q69 0 109.5 46t40.5 130t-40.5 130.5t-109.5 46.5t-109.5 -46t-40.5 -130t40.5 -130.5t109.5 -46.5zM378 706l-131 -162h-65l98 162h98z" />
    <glyph glyph-name="ocircumflex" unicode="&#xf4;" horiz-adv-x="560" 
d="M280 -15q-105 0 -172.5 65.5t-67.5 186.5t67 186t173 65q105 0 172.5 -65.5t67.5 -186.5t-67 -186t-173 -65zM280 60q69 0 109.5 46t40.5 130t-40.5 130.5t-109.5 46.5t-109.5 -46t-40.5 -130t40.5 -130.5t109.5 -46.5zM329 706l118 -162h-65l-102 101l-102 -101h-65
l118 162h98z" />
    <glyph glyph-name="otilde" unicode="&#xf5;" horiz-adv-x="560" 
d="M280 -15q-105 0 -172.5 65.5t-67.5 186.5t67 186t173 65q105 0 172.5 -65.5t67.5 -186.5t-67 -186t-173 -65zM280 60q69 0 109.5 46t40.5 130t-40.5 130.5t-109.5 46.5t-109.5 -46t-40.5 -130t40.5 -130.5t109.5 -46.5zM343 637q27 0 44.5 13.5t40.5 47.5l20 -64
q-42 -67 -106 -67q-34 0 -69 25t-56 25q-27 0 -44.5 -13.5t-40.5 -47.5l-20 64q42 67 106 67q34 0 69 -25t56 -25z" />
    <glyph glyph-name="odieresis" unicode="&#xf6;" horiz-adv-x="560" 
d="M280 -15q-105 0 -172.5 65.5t-67.5 186.5t67 186t173 65q105 0 172.5 -65.5t67.5 -186.5t-67 -186t-173 -65zM280 60q69 0 109.5 46t40.5 130t-40.5 130.5t-109.5 46.5t-109.5 -46t-40.5 -130t40.5 -130.5t109.5 -46.5zM181 562q-23 0 -40 17t-17 40q0 25 17 42.5
t40 17.5q25 0 42.5 -17.5t17.5 -42.5q0 -23 -17.5 -40t-42.5 -17zM376 562q-23 0 -40.5 17t-17.5 40q0 25 17.5 42.5t40.5 17.5q25 0 42 -17.5t17 -42.5q0 -23 -17 -40t-42 -17z" />
    <glyph glyph-name="divide" unicode="&#xf7;" horiz-adv-x="640" 
d="M383 128q0 -26 -18 -43.5t-45 -17.5q-25 0 -43 18t-18 43q0 26 18 44.5t43 18.5q27 0 45 -18.5t18 -44.5zM383 439q0 -26 -18 -43.5t-45 -17.5q-25 0 -43 18t-18 43q0 26 18 44.5t43 18.5q27 0 45 -18.5t18 -44.5zM590 249h-540v70h540v-70z" />
    <glyph glyph-name="oslash" unicode="&#xf8;" horiz-adv-x="560" 
d="M280 -15q-85 0 -145 42l-23 -27h-82l60 70q-50 66 -50 167q0 121 67 186t173 65q80 0 139 -38l19 22h82l-55 -64q55 -66 55 -172q0 -121 -67 -186t-173 -65zM280 60q69 0 109.5 46t40.5 130q0 62 -23 105l-218 -252q37 -29 91 -29zM130 237q0 -57 20 -99l215 250
q-36 25 -85 25q-69 0 -109.5 -46t-40.5 -130z" />
    <glyph glyph-name="ugrave" unicode="&#xf9;" horiz-adv-x="539" 
d="M469 472v-472h-90v76q-76 -87 -156 -87q-79 0 -121 48t-42 159v276h90v-276q0 -71 27 -94t80 -23q61 0 122 75v318h90zM302 544l-131 162h98l98 -162h-65z" />
    <glyph glyph-name="uacute" unicode="&#xfa;" horiz-adv-x="539" 
d="M469 472v-472h-90v76q-76 -87 -156 -87q-79 0 -121 48t-42 159v276h90v-276q0 -71 27 -94t80 -23q61 0 122 75v318h90zM367 706l-131 -162h-65l98 162h98z" />
    <glyph glyph-name="ucircumflex" unicode="&#xfb;" horiz-adv-x="539" 
d="M469 472v-472h-90v76q-76 -87 -156 -87q-79 0 -121 48t-42 159v276h90v-276q0 -71 27 -94t80 -23q61 0 122 75v318h90zM318 706l118 -162h-65l-102 101l-102 -101h-65l118 162h98z" />
    <glyph glyph-name="udieresis" unicode="&#xfc;" horiz-adv-x="539" 
d="M469 472v-472h-90v76q-76 -87 -156 -87q-79 0 -121 48t-42 159v276h90v-276q0 -71 27 -94t80 -23q61 0 122 75v318h90zM171 562q-23 0 -40 17t-17 40q0 25 17 42.5t40 17.5q25 0 42.5 -17.5t17.5 -42.5q0 -23 -17.5 -40t-42.5 -17zM366 562q-23 0 -40.5 17t-17.5 40
q0 25 17.5 42.5t40.5 17.5q25 0 42 -17.5t17 -42.5q0 -23 -17 -40t-42 -17z" />
    <glyph glyph-name="yacute" unicode="&#xfd;" horiz-adv-x="510" 
d="M261 120l145 352h89l-282 -667h-89l86 202l-195 465h97zM353 706l-131 -162h-65l98 162h98z" />
    <glyph glyph-name="thorn" unicode="&#xfe;" horiz-adv-x="559" 
d="M427 245q0 83 -45.5 122.5t-95.5 39.5q-65 0 -126 -54v-255q39 -39 116 -39q151 0 151 186zM519 245q0 -65 -20.5 -117t-53.5 -82t-70 -45.5t-75 -15.5q-81 0 -140 35v-215h-90v895h90v-266q71 54 149 54q87 0 148.5 -69.5t61.5 -173.5z" />
    <glyph glyph-name="ydieresis" unicode="&#xff;" horiz-adv-x="510" 
d="M261 120l145 352h89l-282 -667h-89l86 202l-195 465h97zM157 562q-23 0 -40 17t-17 40q0 25 17 42.5t40 17.5q25 0 42.5 -17.5t17.5 -42.5q0 -23 -17.5 -40t-42.5 -17zM352 562q-23 0 -40.5 17t-17.5 40q0 25 17.5 42.5t40.5 17.5q25 0 42 -17.5t17 -42.5q0 -23 -17 -40
t-42 -17z" />
    <glyph glyph-name="Amacron" unicode="&#x100;" horiz-adv-x="633" 
d="M447 789h-261v70h261v-70zM256 700h121l241 -700h-105l-65 188h-272l-65 -188h-96zM313 583l-106 -305h210z" />
    <glyph glyph-name="amacron" unicode="&#x101;" horiz-adv-x="485" 
d="M370 589h-260v70h260v-70zM335 0v70q-86 -81 -165 -81q-60 0 -97.5 32t-37.5 94q0 91 76.5 131t223.5 47q0 41 -7 66t-23.5 35t-29.5 12t-40 2q-64 0 -153 -36l-26 77q99 39 199 39q170 0 170 -201v-287h-90zM193 66q55 0 142 83v74q-100 -4 -155 -26.5t-55 -74.5
q0 -56 68 -56z" />
    <glyph glyph-name="Aogonek" unicode="&#x104;" horiz-adv-x="633" 
d="M550 0h-37l-65 188h-272l-65 -188h-96l241 700h121l241 -700q-86 -56 -86 -110q0 -42 50 -42q21 0 36 4v-37q-36 -24 -80 -24q-39 0 -59 25t-20 53q0 32 24 67t67 64zM313 583l-106 -305h210z" />
    <glyph glyph-name="aogonek" unicode="&#x105;" horiz-adv-x="485" 
d="M335 0v70q-86 -81 -165 -81q-60 0 -97.5 32t-37.5 94q0 91 76.5 131t223.5 47q0 41 -7 66t-23.5 35t-29.5 12t-40 2q-64 0 -153 -36l-26 77q99 39 199 39q170 0 170 -201v-287q-86 -56 -86 -110q0 -42 50 -42q21 0 36 4v-37q-36 -24 -80 -24q-39 0 -59 25t-20 53
q0 32 24 67t67 64h-22zM193 66q55 0 142 83v74q-100 -4 -155 -26.5t-55 -74.5q0 -56 68 -56z" />
    <glyph glyph-name="Cacute" unicode="&#x106;" horiz-adv-x="661" 
d="M391 715q127 0 223 -43l-35 -87q-105 40 -188 40q-106 0 -173.5 -74.5t-67.5 -200.5q0 -132 66.5 -203.5t174.5 -71.5q86 0 207 81l43 -77q-5 -4 -13.5 -10t-36 -22.5t-55.5 -29t-68 -22.5t-77 -10q-170 0 -260.5 99t-90.5 266q0 162 91 263.5t260 101.5zM428 934
l-131 -162h-65l98 162h98z" />
    <glyph glyph-name="cacute" unicode="&#x107;" horiz-adv-x="490" 
d="M425 125l40 -66q-105 -74 -190 -74q-100 0 -167.5 61.5t-67.5 189.5q0 83 38 142t92 84.5t114 25.5q72 0 161 -23l-21 -77q-79 21 -130 21q-157 0 -157 -173q0 -84 41 -126t115 -42q43 0 132 57zM343 706l-131 -162h-65l98 162h98z" />
    <glyph glyph-name="Ccaron" unicode="&#x10c;" horiz-adv-x="661" 
d="M391 715q127 0 223 -43l-35 -87q-105 40 -188 40q-106 0 -173.5 -74.5t-67.5 -200.5q0 -132 66.5 -203.5t174.5 -71.5q86 0 207 81l43 -77q-5 -4 -13.5 -10t-36 -22.5t-55.5 -29t-68 -22.5t-77 -10q-170 0 -260.5 99t-90.5 266q0 162 91 263.5t260 101.5zM497 934
l-118 -162h-98l-118 162h65l102 -101l102 101h65z" />
    <glyph glyph-name="ccaron" unicode="&#x10d;" horiz-adv-x="490" 
d="M425 125l40 -66q-105 -74 -190 -74q-100 0 -167.5 61.5t-67.5 189.5q0 83 38 142t92 84.5t114 25.5q72 0 161 -23l-21 -77q-79 21 -130 21q-157 0 -157 -173q0 -84 41 -126t115 -42q43 0 132 57zM412 706l-118 -162h-98l-118 162h65l102 -101l102 101h65z" />
    <glyph glyph-name="Dcaron" unicode="&#x10e;" horiz-adv-x="666" 
d="M303 700q69 0 125 -20.5t92 -54.5t60.5 -80t35 -94.5t10.5 -100.5t-10.5 -100.5t-35 -94.5t-60.5 -80t-92 -54.5t-125 -20.5h-213v700h213zM288 90q121 0 174.5 65.5t53.5 194.5t-53.5 194.5t-174.5 65.5h-98v-520h98zM500 934l-118 -162h-98l-118 162h65l102 -101
l102 101h65z" />
    <glyph glyph-name="dcaron" unicode="&#x10f;" horiz-adv-x="699" 
d="M501 0h-91v67q-75 -82 -160 -82q-87 0 -148.5 63t-61.5 189q0 63 21.5 112.5t55.5 79t73 44.5t79 15q72 0 141 -38v250h91v-700zM410 149v216q-62 43 -127 43q-25 0 -48.5 -7.5t-48 -24.5t-39.5 -53t-15 -86q0 -168 139 -168q69 0 139 80zM689 619q0 -57 -94 -168l-39 22
l56 102q-24 2 -41 20t-17 42q0 25 19 44t44 19q31 0 51.5 -21.5t20.5 -59.5z" />
    <glyph glyph-name="Dcroat" unicode="&#x110;" horiz-adv-x="666" 
d="M90 700h213q69 0 125 -20.5t92 -54.5t60.5 -80t35 -94.5t10.5 -100.5t-10.5 -100.5t-35 -94.5t-60.5 -80t-92 -54.5t-125 -20.5h-213v315h-60v70h60v315zM290 315h-100v-225h98q121 0 174.5 65.5t53.5 194.5t-53.5 194.5t-174.5 65.5h-98v-225h100v-70z" />
    <glyph glyph-name="dcroat" unicode="&#x111;" horiz-adv-x="571" 
d="M410 610v90h91v-90h59v-70h-59v-540h-91v67q-75 -82 -160 -82q-87 0 -148.5 63t-61.5 189q0 63 21.5 112.5t55.5 79t73 44.5t79 15q72 0 141 -38v90h-143v70h143zM410 149v216q-62 43 -127 43q-25 0 -48.5 -7.5t-48 -24.5t-39.5 -53t-15 -86q0 -168 139 -168q69 0 139 80
z" />
    <glyph glyph-name="Emacron" unicode="&#x112;" horiz-adv-x="499" 
d="M407 789h-261v70h261v-70zM424 407v-90h-234v-227h269v-90h-369v700h358v-90h-258v-203h234z" />
    <glyph glyph-name="emacron" unicode="&#x113;" horiz-adv-x="492" 
d="M410 589h-260v70h260v-70zM40 226q0 123 65.5 192.5t151.5 69.5q203 0 203 -255h-328q2 -91 42 -128t116 -37q56 0 135 57l37 -65q-103 -75 -187 -75q-99 0 -167 62t-68 179zM260 408q-44 0 -73.5 -25.5t-47.5 -84.5h234q-3 54 -28 82t-85 28z" />
    <glyph glyph-name="Edotaccent" unicode="&#x116;" horiz-adv-x="499" 
d="M424 407v-90h-234v-227h269v-90h-369v700h358v-90h-258v-203h234zM279 790q-23 0 -40.5 17t-17.5 40q0 25 17.5 42.5t40.5 17.5q25 0 42 -17.5t17 -42.5q0 -23 -17 -40t-42 -17z" />
    <glyph glyph-name="edotaccent" unicode="&#x117;" horiz-adv-x="492" 
d="M40 226q0 123 65.5 192.5t151.5 69.5q203 0 203 -255h-328q2 -91 42 -128t116 -37q56 0 135 57l37 -65q-103 -75 -187 -75q-99 0 -167 62t-68 179zM260 408q-44 0 -73.5 -25.5t-47.5 -84.5h234q-3 54 -28 82t-85 28zM245 562q-23 0 -40.5 17t-17.5 40q0 25 17.5 42.5
t40.5 17.5q25 0 42 -17.5t17 -42.5q0 -23 -17 -40t-42 -17z" />
    <glyph glyph-name="Eogonek" unicode="&#x118;" horiz-adv-x="499" 
d="M391 0h-301v700h358v-90h-258v-203h234v-90h-234v-227h269v-90q-86 -56 -86 -110q0 -42 50 -42q21 0 36 4v-37q-36 -24 -80 -24q-39 0 -59 25t-20 53q0 32 24 67t67 64z" />
    <glyph glyph-name="eogonek" unicode="&#x119;" horiz-adv-x="492" 
d="M40 226q0 123 65.5 192.5t151.5 69.5q203 0 203 -255h-328q2 -91 42 -128t116 -37q56 0 135 57l37 -65q-61 -45 -106 -60q-85 -57 -85 -110q0 -42 50 -42q21 0 36 4v-37q-36 -24 -80 -24q-39 0 -59 25t-20 53q0 59 70 116q-96 2 -162 64t-66 177zM260 408
q-44 0 -73.5 -25.5t-47.5 -84.5h234q-3 54 -28 82t-85 28z" />
    <glyph glyph-name="Ecaron" unicode="&#x11a;" horiz-adv-x="499" 
d="M424 407v-90h-234v-227h269v-90h-369v700h358v-90h-258v-203h234zM416 934l-118 -162h-98l-118 162h65l102 -101l102 101h65z" />
    <glyph glyph-name="ecaron" unicode="&#x11b;" horiz-adv-x="492" 
d="M40 226q0 123 65.5 192.5t151.5 69.5q203 0 203 -255h-328q2 -91 42 -128t116 -37q56 0 135 57l37 -65q-103 -75 -187 -75q-99 0 -167 62t-68 179zM260 408q-44 0 -73.5 -25.5t-47.5 -84.5h234q-3 54 -28 82t-85 28zM413 706l-118 -162h-98l-118 162h65l102 -101l102 101
h65z" />
    <glyph glyph-name="Gcommaaccent" unicode="&#x122;" horiz-adv-x="671" 
d="M458 -111q0 -58 -94 -158l-39 22l56 92q-24 2 -41 20t-17 42q0 25 19 44t44 19q31 0 51.5 -21.5t20.5 -59.5zM391 715q127 0 223 -43l-35 -87q-105 40 -188 40q-106 0 -173.5 -74.5t-67.5 -200.5q0 -132 66.5 -203.5t174.5 -71.5q69 0 150 45v217h100v-258
q-5 -4 -13.5 -10t-36 -22.5t-55.5 -29t-68 -22.5t-77 -10q-170 0 -260.5 99t-90.5 266q0 162 91 263.5t260 101.5z" />
    <glyph glyph-name="gcommaaccent" unicode="&#x123;" horiz-adv-x="505" 
d="M480 430l-71 -27q32 -40 32 -94q0 -41 -15 -73.5t-36.5 -53t-58.5 -37t-68.5 -25t-79.5 -18.5v-6q138 -5 206 -44.5t68 -98.5q0 -71 -68 -117t-167 -46q-104 0 -150.5 36.5t-46.5 89.5q0 70 125 129l-93 13v61q62 16 115 34q-64 23 -93 59t-29 97q0 81 54.5 130t140.5 49
q57 0 102 -25l133 50v-83zM140 309q0 -50 27.5 -80.5t77.5 -30.5q51 0 78.5 30.5t27.5 80.5q0 45 -28 76t-78 31t-77.5 -31t-27.5 -76zM222 -140q70 0 109 23t39 62q0 61 -125 79q-41 -14 -70 -30t-42.5 -30.5t-19 -25t-5.5 -20.5q0 -26 30 -42t84 -16zM183 631q0 57 94 168
l39 -22l-56 -102q24 -2 41 -20t17 -42q0 -25 -19 -44t-44 -19q-31 0 -51.5 21.5t-20.5 59.5z" />
    <glyph glyph-name="Imacron" unicode="&#x12a;" horiz-adv-x="280" 
d="M240 789h-200v70h200v-70zM190 0h-100v700h100v-700z" />
    <glyph glyph-name="imacron" unicode="&#x12b;" horiz-adv-x="230" 
d="M200 589h-170v70h170v-70zM160 472v-472h-90v472h90z" />
    <glyph glyph-name="Iogonek" unicode="&#x12e;" horiz-adv-x="280" 
d="M136 0h-46v700h100v-700q-63 -42 -63 -78q0 -10 9 -18t29 -8q4 0 20 2v-34q-28 -18 -55 -18q-31 0 -46.5 18t-15.5 40q0 49 68 96z" />
    <glyph glyph-name="iogonek" unicode="&#x12f;" horiz-adv-x="230" 
d="M106 0h-36v472h90v-472q-63 -42 -63 -78q0 -10 9 -18t29 -8q4 0 20 2v-34q-28 -18 -55 -18q-31 0 -46.5 18t-15.5 40q0 49 68 96zM114 562q-23 0 -40.5 17t-17.5 40q0 25 17.5 42.5t40.5 17.5q25 0 42 -17.5t17 -42.5q0 -23 -17 -40t-42 -17z" />
    <glyph glyph-name="dotlessi" unicode="&#x131;" horiz-adv-x="230" 
d="M160 472v-472h-90v472h90z" />
    <glyph glyph-name="Kcommaaccent" unicode="&#x136;" horiz-adv-x="623" 
d="M378 -121q0 -57 -94 -168l-39 22l56 102q-24 2 -41 20t-17 42q0 25 19 44t44 19q31 0 51.5 -21.5t20.5 -59.5zM594 0h-126l-201 317h-77v-317h-100v700h100v-293h71l207 293h120l-237 -334z" />
    <glyph glyph-name="kcommaaccent" unicode="&#x137;" horiz-adv-x="485" 
d="M314 -121q0 -57 -94 -168l-39 22l56 102q-24 2 -41 20t-17 42q0 25 19 44t44 19q31 0 51.5 -21.5t20.5 -59.5zM470 472l-187 -194l181 -278h-107l-139 211l-58 -61v-150h-90v700h90v-446l203 218h107z" />
    <glyph glyph-name="Lacute" unicode="&#x139;" horiz-adv-x="512" 
d="M492 90v-90h-402v700h100v-610h302zM374 934l-131 -162h-65l98 162h98z" />
    <glyph glyph-name="lacute" unicode="&#x13a;" horiz-adv-x="230" 
d="M160 700v-700h-90v700h90zM223 934l-131 -162h-65l98 162h98z" />
    <glyph glyph-name="Lcommaaccent" unicode="&#x13b;" horiz-adv-x="512" 
d="M378 -121q0 -57 -94 -168l-39 22l56 102q-24 2 -41 20t-17 42q0 25 19 44t44 19q31 0 51.5 -21.5t20.5 -59.5zM492 90v-90h-402v700h100v-610h302z" />
    <glyph glyph-name="lcommaaccent" unicode="&#x13c;" horiz-adv-x="230" 
d="M188 -121q0 -57 -94 -168l-39 22l56 102q-24 2 -41 20t-17 42q0 25 19 44t44 19q31 0 51.5 -21.5t20.5 -59.5zM160 700v-700h-90v700h90z" />
    <glyph glyph-name="Lcaron" unicode="&#x13d;" horiz-adv-x="512" 
d="M492 90v-90h-402v700h100v-610h302zM391 619q0 -57 -94 -168l-39 22l56 102q-24 2 -41 20t-17 42q0 25 19 44t44 19q31 0 51.5 -21.5t20.5 -59.5z" />
    <glyph glyph-name="lcaron" unicode="&#x13e;" horiz-adv-x="358" 
d="M160 700v-700h-90v700h90zM348 619q0 -57 -94 -168l-39 22l56 102q-24 2 -41 20t-17 42q0 25 19 44t44 19q31 0 51.5 -21.5t20.5 -59.5z" />
    <glyph glyph-name="Lslash" unicode="&#x141;" horiz-adv-x="512" 
d="M308 383l-118 -69v-224h302v-90h-402v256l-55 -32l-35 60l90 52v364h100v-306l83 49z" />
    <glyph glyph-name="lslash" unicode="&#x142;" horiz-adv-x="230" 
d="M254 298l-94 -54v-244h-90v192l-59 -34l-35 60l94 54v428h90v-376l59 34z" />
    <glyph glyph-name="Nacute" unicode="&#x143;" horiz-adv-x="750" 
d="M660 700v-700h-70l-410 510v-510h-90v700h70l410 -511v511h90zM473 934l-131 -162h-65l98 162h98z" />
    <glyph glyph-name="nacute" unicode="&#x144;" horiz-adv-x="563" 
d="M160 472v-58q74 72 156 72q78 0 132.5 -53.5t54.5 -158.5v-274h-91v274q0 69 -31.5 100t-82.5 31q-32 0 -74.5 -18.5t-63.5 -44.5v-342h-90v472h90zM379 706l-131 -162h-65l98 162h98z" />
    <glyph glyph-name="Ncommaaccent" unicode="&#x145;" horiz-adv-x="750" 
d="M434 -121q0 -57 -94 -168l-39 22l56 102q-24 2 -41 20t-17 42q0 25 19 44t44 19q31 0 51.5 -21.5t20.5 -59.5zM660 700v-700h-70l-410 510v-510h-90v700h70l410 -511v511h90z" />
    <glyph glyph-name="ncommaaccent" unicode="&#x146;" horiz-adv-x="563" 
d="M348 -121q0 -57 -94 -168l-39 22l56 102q-24 2 -41 20t-17 42q0 25 19 44t44 19q31 0 51.5 -21.5t20.5 -59.5zM160 472v-58q74 72 156 72q78 0 132.5 -53.5t54.5 -158.5v-274h-91v274q0 69 -31.5 100t-82.5 31q-32 0 -74.5 -18.5t-63.5 -44.5v-342h-90v472h90z" />
    <glyph glyph-name="Ncaron" unicode="&#x147;" horiz-adv-x="750" 
d="M660 700v-700h-70l-410 510v-510h-90v700h70l410 -511v511h90zM542 934l-118 -162h-98l-118 162h65l102 -101l102 101h65z" />
    <glyph glyph-name="ncaron" unicode="&#x148;" horiz-adv-x="563" 
d="M160 472v-58q74 72 156 72q78 0 132.5 -53.5t54.5 -158.5v-274h-91v274q0 69 -31.5 100t-82.5 31q-32 0 -74.5 -18.5t-63.5 -44.5v-342h-90v472h90zM448 706l-118 -162h-98l-118 162h65l102 -101l102 101h65z" />
    <glyph glyph-name="Omacron" unicode="&#x14c;" horiz-adv-x="754" 
d="M507 789h-261v70h261v-70zM377 -15q-156 0 -246.5 105.5t-90.5 259.5t90.5 259.5t246.5 105.5t246.5 -105.5t90.5 -259.5t-90.5 -259.5t-246.5 -105.5zM377 75q104 0 170.5 74t66.5 201t-66.5 201t-170.5 74t-170.5 -74t-66.5 -201t66.5 -201t170.5 -74z" />
    <glyph glyph-name="omacron" unicode="&#x14d;" horiz-adv-x="560" 
d="M410 589h-260v70h260v-70zM280 -15q-105 0 -172.5 65.5t-67.5 186.5t67 186t173 65q105 0 172.5 -65.5t67.5 -186.5t-67 -186t-173 -65zM280 60q69 0 109.5 46t40.5 130t-40.5 130.5t-109.5 46.5t-109.5 -46t-40.5 -130t40.5 -130.5t109.5 -46.5z" />
    <glyph glyph-name="Ohungarumlaut" unicode="&#x150;" horiz-adv-x="754" 
d="M377 -15q-156 0 -246.5 105.5t-90.5 259.5t90.5 259.5t246.5 105.5t246.5 -105.5t90.5 -259.5t-90.5 -259.5t-246.5 -105.5zM377 75q104 0 170.5 74t66.5 201t-66.5 201t-170.5 74t-170.5 -74t-66.5 -201t66.5 -201t170.5 -74zM540 934l-131 -162h-65l98 162h98zM410 934
l-131 -162h-65l98 162h98z" />
    <glyph glyph-name="ohungarumlaut" unicode="&#x151;" horiz-adv-x="560" 
d="M280 -15q-105 0 -172.5 65.5t-67.5 186.5t67 186t173 65q105 0 172.5 -65.5t67.5 -186.5t-67 -186t-173 -65zM280 60q69 0 109.5 46t40.5 130t-40.5 130.5t-109.5 46.5t-109.5 -46t-40.5 -130t40.5 -130.5t109.5 -46.5zM443 706l-131 -162h-65l98 162h98zM313 706
l-131 -162h-65l98 162h98z" />
    <glyph glyph-name="OE" unicode="&#x152;" horiz-adv-x="1022" 
d="M947 407v-90h-234v-227h269v-90h-369v79q-92 -94 -236 -94q-156 0 -246.5 105.5t-90.5 259.5t90.5 259.5t246.5 105.5q144 0 236 -95v80h358v-90h-258v-203h234zM377 75q104 0 170.5 74t66.5 201t-66.5 201t-170.5 74t-170.5 -74t-66.5 -201t66.5 -201t170.5 -74z" />
    <glyph glyph-name="oe" unicode="&#x153;" horiz-adv-x="883" 
d="M280 -15q-105 0 -172.5 65.5t-67.5 186.5t67 186t173 65q129 0 195 -92q30 45 76.5 68.5t96.5 23.5q203 0 203 -255h-331q2 -91 43.5 -128t117.5 -37q56 0 135 57l37 -65q-103 -75 -187 -75q-123 0 -189 94q-64 -94 -197 -94zM280 60q69 0 109.5 46t40.5 130t-40.5 130.5
t-109.5 46.5t-109.5 -46t-40.5 -130t40.5 -130.5t109.5 -46.5zM651 408q-90 0 -124 -110h237q-3 54 -28 82t-85 28z" />
    <glyph glyph-name="Racute" unicode="&#x154;" horiz-adv-x="590" 
d="M180 274v-274h-100v700h197q96 0 164.5 -54.5t68.5 -158.5q0 -73 -35.5 -122t-93.5 -72l169 -293h-115l-159 274h-96zM180 610v-246h79q145 0 145 123t-145 123h-79zM393 934l-131 -162h-65l98 162h98z" />
    <glyph glyph-name="racute" unicode="&#x155;" horiz-adv-x="365" 
d="M160 472v-148q20 72 60 109t113 55l22 -77q-103 -31 -149 -88t-46 -148v-175h-90v472h90zM281 706l-131 -162h-65l98 162h98z" />
    <glyph glyph-name="Rcommaaccent" unicode="&#x156;" horiz-adv-x="590" 
d="M358 -121q0 -57 -94 -168l-39 22l56 102q-24 2 -41 20t-17 42q0 25 19 44t44 19q31 0 51.5 -21.5t20.5 -59.5zM80 0v700h197q96 0 164.5 -54.5t68.5 -158.5q0 -73 -35.5 -122t-93.5 -72l169 -293h-115l-159 274h-96v-274h-100zM259 610h-79v-246h79q145 0 145 123
t-145 123z" />
    <glyph glyph-name="rcommaaccent" unicode="&#x157;" horiz-adv-x="365" 
d="M185 -121q0 -57 -94 -168l-39 22l56 102q-24 2 -41 20t-17 42q0 25 19 44t44 19q31 0 51.5 -21.5t20.5 -59.5zM160 472v-148q20 72 60 109t113 55l22 -77q-103 -31 -149 -88t-46 -148v-175h-90v472h90z" />
    <glyph glyph-name="Rcaron" unicode="&#x158;" horiz-adv-x="590" 
d="M180 274v-274h-100v700h197q96 0 164.5 -54.5t68.5 -158.5q0 -73 -35.5 -122t-93.5 -72l169 -293h-115l-159 274h-96zM180 610v-246h79q145 0 145 123t-145 123h-79zM462 934l-118 -162h-98l-118 162h65l102 -101l102 101h65z" />
    <glyph glyph-name="rcaron" unicode="&#x159;" horiz-adv-x="365" 
d="M160 472v-148q20 72 60 109t113 55l22 -77q-103 -31 -149 -88t-46 -148v-175h-90v472h90zM350 706l-118 -162h-98l-118 162h65l102 -101l102 101h65z" />
    <glyph glyph-name="Sacute" unicode="&#x15a;" horiz-adv-x="540" 
d="M363 934l-131 -162h-65l98 162h98zM510 198q0 -89 -69.5 -151t-186.5 -62q-105 0 -224 86l48 77q35 -26 89 -49.5t102 -23.5q60 0 98.5 28.5t38.5 80.5q0 42 -35.5 72t-86 50.5t-101 44t-86 65.5t-35.5 102q0 87 60 142t185 55q44 0 94.5 -13t85.5 -31l-39 -82
q-79 36 -163 36q-53 0 -87.5 -22.5t-34.5 -71.5q0 -35 35.5 -61.5t86.5 -47t102.5 -45.5t87 -70.5t35.5 -108.5z" />
    <glyph glyph-name="sacute" unicode="&#x15b;" horiz-adv-x="446" 
d="M406 142q0 -47 -19 -80.5t-50 -49t-58.5 -21.5t-55.5 -6q-96 0 -183 66l38 70q82 -56 147 -56q93 0 93 61q0 30 -26.5 48t-63.5 28.5t-74.5 23.5t-64 44t-26.5 80q0 63 44.5 101t121.5 38q81 0 165 -33l-28 -75q-79 30 -151 30q-32 0 -49 -16.5t-17 -40.5
q0 -27 26.5 -43.5t64.5 -26.5t75.5 -23.5t64 -43t26.5 -75.5zM321 706l-131 -162h-65l98 162h98z" />
    <glyph glyph-name="Scaron" unicode="&#x160;" horiz-adv-x="540" 
d="M432 934l-118 -162h-98l-118 162h65l102 -101l102 101h65zM510 198q0 -89 -69.5 -151t-186.5 -62q-105 0 -224 86l48 77q35 -26 89 -49.5t102 -23.5q60 0 98.5 28.5t38.5 80.5q0 42 -35.5 72t-86 50.5t-101 44t-86 65.5t-35.5 102q0 87 60 142t185 55q44 0 94.5 -13
t85.5 -31l-39 -82q-79 36 -163 36q-53 0 -87.5 -22.5t-34.5 -71.5q0 -35 35.5 -61.5t86.5 -47t102.5 -45.5t87 -70.5t35.5 -108.5z" />
    <glyph glyph-name="scaron" unicode="&#x161;" horiz-adv-x="446" 
d="M406 142q0 -47 -19 -80.5t-50 -49t-58.5 -21.5t-55.5 -6q-96 0 -183 66l38 70q82 -56 147 -56q93 0 93 61q0 30 -26.5 48t-63.5 28.5t-74.5 23.5t-64 44t-26.5 80q0 63 44.5 101t121.5 38q81 0 165 -33l-28 -75q-79 30 -151 30q-32 0 -49 -16.5t-17 -40.5
q0 -27 26.5 -43.5t64.5 -26.5t75.5 -23.5t64 -43t26.5 -75.5zM390 706l-118 -162h-98l-118 162h65l102 -101l102 101h65z" />
    <glyph glyph-name="Tcaron" unicode="&#x164;" horiz-adv-x="575" 
d="M560 700v-90h-223v-610h-99v610h-223v90h545zM454 934l-118 -162h-98l-118 162h65l102 -101l102 101h65z" />
    <glyph glyph-name="tcaron" unicode="&#x165;" horiz-adv-x="481" 
d="M312 108l29 -71q-86 -42 -140 -42q-101 0 -101 138v259h-80v10l165 189h6v-119h147v-80h-147v-255q0 -55 39 -55q24 0 82 26zM491 619q0 -57 -94 -168l-39 22l56 102q-24 2 -41 20t-17 42q0 25 19 44t44 19q31 0 51.5 -21.5t20.5 -59.5z" />
    <glyph glyph-name="Umacron" unicode="&#x16a;" horiz-adv-x="715" 
d="M488 789h-261v70h261v-70zM358 75q88 0 127.5 44t39.5 117v464h100v-464q0 -121 -71.5 -186t-195.5 -65t-196 65t-72 186v464h100v-464q0 -73 40 -117t128 -44z" />
    <glyph glyph-name="umacron" unicode="&#x16b;" horiz-adv-x="539" 
d="M404 589h-259v70h259v-70zM469 472v-472h-90v76q-76 -87 -156 -87q-79 0 -121 48t-42 159v276h90v-276q0 -71 27 -94t80 -23q61 0 122 75v318h90z" />
    <glyph glyph-name="Uring" unicode="&#x16e;" horiz-adv-x="715" 
d="M358 75q88 0 127.5 44t39.5 117v464h100v-464q0 -121 -71.5 -186t-195.5 -65t-196 65t-72 186v464h100v-464q0 -73 40 -117t128 -44zM277 850q0 34 23.5 57t57.5 23t57 -23t23 -57t-23 -57.5t-57 -23.5t-57.5 23.5t-23.5 57.5zM318 850q0 -16 11.5 -27t27.5 -11t26.5 11
t10.5 27t-10.5 27t-26.5 11q-17 0 -28 -11t-11 -27z" />
    <glyph glyph-name="uring" unicode="&#x16f;" horiz-adv-x="539" 
d="M469 472v-472h-90v76q-76 -87 -156 -87q-79 0 -121 48t-42 159v276h90v-276q0 -71 27 -94t80 -23q61 0 122 75v318h90zM189 622q0 34 23.5 57t57.5 23t57 -23t23 -57t-23 -57.5t-57 -23.5t-57.5 23.5t-23.5 57.5zM230 622q0 -16 11.5 -27t27.5 -11t26.5 11t10.5 27
t-10.5 27t-26.5 11q-17 0 -28 -11t-11 -27z" />
    <glyph glyph-name="Uhungarumlaut" unicode="&#x170;" horiz-adv-x="715" 
d="M358 75q88 0 127.5 44t39.5 117v464h100v-464q0 -121 -71.5 -186t-195.5 -65t-196 65t-72 186v464h100v-464q0 -73 40 -117t128 -44zM520 934l-131 -162h-65l98 162h98zM390 934l-131 -162h-65l98 162h98z" />
    <glyph glyph-name="uhungarumlaut" unicode="&#x171;" horiz-adv-x="539" 
d="M469 472v-472h-90v76q-76 -87 -156 -87q-79 0 -121 48t-42 159v276h90v-276q0 -71 27 -94t80 -23q61 0 122 75v318h90zM432 706l-131 -162h-65l98 162h98zM302 706l-131 -162h-65l98 162h98z" />
    <glyph glyph-name="Uogonek" unicode="&#x172;" horiz-adv-x="715" 
d="M358 75q88 0 127.5 44t39.5 117v464h100v-464q0 -93 -42.5 -153t-119.5 -83q-85 -57 -85 -110q0 -42 50 -42q21 0 36 4v-37q-36 -24 -80 -24q-39 0 -59 25t-20 53q0 59 71 116h-18q-124 0 -196 65t-72 186v464h100v-464q0 -73 40 -117t128 -44z" />
    <glyph glyph-name="uogonek" unicode="&#x173;" horiz-adv-x="539" 
d="M401 0h-22v76q-76 -87 -156 -87q-79 0 -121 48t-42 159v276h90v-276q0 -71 27 -94t80 -23q61 0 122 75v318h90v-472q-86 -56 -86 -110q0 -42 50 -42q21 0 36 4v-37q-36 -24 -80 -24q-39 0 -59 25t-20 53q0 32 24 67t67 64z" />
    <glyph glyph-name="Ydieresis" unicode="&#x178;" horiz-adv-x="598" 
d="M348 253v-253h-99v255l-234 445h111l177 -340l179 340h101zM200 790q-23 0 -40 17t-17 40q0 25 17 42.5t40 17.5q25 0 42.5 -17.5t17.5 -42.5q0 -23 -17.5 -40t-42.5 -17zM395 790q-23 0 -40.5 17t-17.5 40q0 25 17.5 42.5t40.5 17.5q25 0 42 -17.5t17 -42.5
q0 -23 -17 -40t-42 -17z" />
    <glyph glyph-name="Zacute" unicode="&#x179;" horiz-adv-x="597" 
d="M549 0h-509v35l360 575h-334v90h491v-36l-360 -574h352v-90zM436 934l-131 -162h-65l98 162h98z" />
    <glyph glyph-name="zacute" unicode="&#x17a;" horiz-adv-x="467" 
d="M420 0h-380v40l249 352h-241v80h379v-40l-249 -352h242v-80zM332 706l-131 -162h-65l98 162h98z" />
    <glyph glyph-name="Zdotaccent" unicode="&#x17b;" horiz-adv-x="597" 
d="M549 0h-509v35l360 575h-334v90h491v-36l-360 -574h352v-90zM298 790q-23 0 -40.5 17t-17.5 40q0 25 17.5 42.5t40.5 17.5q25 0 42 -17.5t17 -42.5q0 -23 -17 -40t-42 -17z" />
    <glyph glyph-name="zdotaccent" unicode="&#x17c;" horiz-adv-x="467" 
d="M420 0h-380v40l249 352h-241v80h379v-40l-249 -352h242v-80zM233 562q-23 0 -40.5 17t-17.5 40q0 25 17.5 42.5t40.5 17.5q25 0 42 -17.5t17 -42.5q0 -23 -17 -40t-42 -17z" />
    <glyph glyph-name="Zcaron" unicode="&#x17d;" horiz-adv-x="597" 
d="M549 0h-509v35l360 575h-334v90h491v-36l-360 -574h352v-90zM465 934l-118 -162h-98l-118 162h65l102 -101l102 101h65z" />
    <glyph glyph-name="zcaron" unicode="&#x17e;" horiz-adv-x="467" 
d="M420 0h-380v40l249 352h-241v80h379v-40l-249 -352h242v-80zM400 706l-118 -162h-98l-118 162h65l102 -101l102 101h65z" />
    <glyph glyph-name="florin" unicode="&#x192;" horiz-adv-x="428" 
d="M390 392h-134l-77 -377q-26 -123 -79.5 -166.5t-152.5 -43.5v80q47 1 70 8t41.5 35t30.5 87l77 377h-42v80h57l24 129q28 149 160 149q21 0 44.5 -3.5t38.5 -7.5t39 -10.5t31 -8.5l-31 -73q-84 33 -124 33q-51 0 -60 -48l-31 -160h118v-80z" />
    <glyph glyph-name="circumflex" unicode="&#x2c6;" horiz-adv-x="434" 
d="M266 706l118 -162h-65l-102 101l-102 -101h-65l118 162h98z" />
    <glyph glyph-name="caron" unicode="&#x2c7;" horiz-adv-x="434" 
d="M384 706l-118 -162h-98l-118 162h65l102 -101l102 101h65z" />
    <glyph glyph-name="breve" unicode="&#x2d8;" horiz-adv-x="432" 
d="M216 556q-52 0 -86 13t-80 43l32 61q40 -25 68 -35.5t66 -10.5t66 10.5t68 35.5l32 -61q-46 -30 -80 -43t-86 -13z" />
    <glyph glyph-name="dotaccent" unicode="&#x2d9;" horiz-adv-x="230" 
d="M114 562q-23 0 -40.5 17t-17.5 40q0 25 17.5 42.5t40.5 17.5q25 0 42 -17.5t17 -42.5q0 -23 -17 -40t-42 -17z" />
    <glyph glyph-name="ring" unicode="&#x2da;" horiz-adv-x="261" 
d="M50 622q0 34 23.5 57t57.5 23t57 -23t23 -57t-23 -57.5t-57 -23.5t-57.5 23.5t-23.5 57.5zM91 622q0 -16 11.5 -27t27.5 -11t26.5 11t10.5 27t-10.5 27t-26.5 11q-17 0 -28 -11t-11 -27z" />
    <glyph glyph-name="ogonek" unicode="&#x2db;" horiz-adv-x="222" 
d="M104 0h68q-86 -56 -86 -110q0 -42 50 -42q21 0 36 4v-37q-36 -24 -80 -24q-39 0 -59 25t-20 53q0 32 24 67t67 64z" />
    <glyph glyph-name="tilde" unicode="&#x2dc;" horiz-adv-x="436" 
d="M281 637q27 0 44.5 13.5t40.5 47.5l20 -64q-42 -67 -106 -67q-34 0 -69 25t-56 25q-27 0 -44.5 -13.5t-40.5 -47.5l-20 64q42 67 106 67q34 0 69 -25t56 -25z" />
    <glyph glyph-name="hungarumlaut" unicode="&#x2dd;" horiz-adv-x="426" 
d="M376 706l-131 -162h-65l98 162h98zM246 706l-131 -162h-65l98 162h98z" />
    <glyph glyph-name="afii10023" unicode="&#x401;" horiz-adv-x="499" 
d="M424 407v-90h-234v-227h269v-90h-369v700h358v-90h-258v-203h234zM171 790q-23 0 -40 17t-17 40q0 25 17 42.5t40 17.5q25 0 42.5 -17.5t17.5 -42.5q0 -23 -17.5 -40t-42.5 -17zM366 790q-23 0 -40.5 17t-17.5 40q0 25 17.5 42.5t40.5 17.5q25 0 42 -17.5t17 -42.5
q0 -23 -17 -40t-42 -17z" />
    <glyph glyph-name="afii10051" unicode="&#x402;" horiz-adv-x="723" 
d="M600 700v-90h-243v-214q7 6 20 15t51 24t73 15q73 0 125 -49.5t52 -146.5v-203q0 -118 -61 -181.5t-186 -63.5v90q27 0 43 1.5t38.5 9.5t35 24t21.5 46t9 74v193q0 58 -33 84.5t-79 26.5q-48 0 -109 -47v-308h-99v610h-243v90h585z" />
    <glyph glyph-name="afii10052" unicode="&#x403;" horiz-adv-x="464" 
d="M190 610v-610h-100v700h359v-90h-259zM380 934l-131 -162h-65l98 162h98z" />
    <glyph glyph-name="afii10053" unicode="&#x404;" horiz-adv-x="656" 
d="M391 715q127 0 223 -43l-35 -87q-105 40 -188 40q-93 0 -157.5 -58t-79.5 -160h342v-90h-345q9 -117 74 -179.5t166 -62.5q86 0 207 81l43 -77q-5 -4 -13.5 -10t-36 -22.5t-55.5 -29t-68 -22.5t-77 -10q-170 0 -260.5 99t-90.5 266q0 162 91 263.5t260 101.5z" />
    <glyph glyph-name="afii10054" unicode="&#x405;" horiz-adv-x="540" 
d="M510 198q0 -89 -69.5 -151t-186.5 -62q-105 0 -224 86l48 77q35 -26 89 -49.5t102 -23.5q60 0 98.5 28.5t38.5 80.5q0 42 -35.5 72t-86 50.5t-101 44t-86 65.5t-35.5 102q0 87 60 142t185 55q44 0 94.5 -13t85.5 -31l-39 -82q-79 36 -163 36q-53 0 -87.5 -22.5
t-34.5 -71.5q0 -35 35.5 -61.5t86.5 -47t102.5 -45.5t87 -70.5t35.5 -108.5z" />
    <glyph glyph-name="afii10055" unicode="&#x406;" horiz-adv-x="270" 
d="M190 0h-100v700h100v-700z" />
    <glyph glyph-name="afii10056" unicode="&#x407;" horiz-adv-x="280" 
d="M190 0h-100v700h100v-700zM198 794q-18 0 -31.5 15.5t-13.5 37.5t13.5 39t31.5 17q20 0 33.5 -16.5t13.5 -39.5t-13.5 -38t-33.5 -15zM80 794q-18 0 -31.5 15.5t-13.5 37.5t14 39t31 17q20 0 34 -16.5t14 -39.5q0 -22 -14 -37.5t-34 -15.5z" />
    <glyph glyph-name="afii10057" unicode="&#x408;" horiz-adv-x="270" 
d="M90 51v649h100v-649q0 -122 -59.5 -183.5t-185.5 -61.5v90q32 0 53.5 4.5t44.5 19t35 47.5t12 84z" />
    <glyph glyph-name="afii10058" unicode="&#x409;" horiz-adv-x="905" 
d="M570 700v-274h77q96 0 164.5 -54.5t68.5 -158.5t-68.5 -158.5t-164.5 -54.5h-177v610h-196q-11 -332 -58 -468.5t-172 -162.5l-29 86q34 7 59.5 27.5t43 61.5t29 86.5t19 123.5t11 150t7.5 186h386zM570 336v-246h59q145 0 145 123t-145 123h-59z" />
    <glyph glyph-name="afii10059" unicode="&#x40a;" horiz-adv-x="945" 
d="M610 700v-286h77q97 0 165 -52t68 -155t-68 -155t-165 -52h-177v322h-320v-322h-100v700h100v-288h320v288h100zM610 324v-234h59q145 0 145 117t-145 117h-59z" />
    <glyph glyph-name="afii10060" unicode="&#x40b;" horiz-adv-x="723" 
d="M678 0h-100v244q0 58 -33 84.5t-79 26.5q-48 0 -109 -47v-308h-99v610h-243v90h585v-90h-243v-214q7 6 20 15t51 24t73 15q73 0 125 -49.5t52 -146.5v-254z" />
    <glyph glyph-name="afii10061" unicode="&#x40c;" horiz-adv-x="623" 
d="M594 0h-126l-201 317h-77v-317h-100v700h100v-293h71l207 293h120l-237 -334zM459 934l-131 -162h-65l98 162h98z" />
    <glyph glyph-name="afii10062" unicode="&#x40e;" horiz-adv-x="624" 
d="M307 767q-106 0 -236 51l32 76q114 -51 204 -51t204 51l32 -76q-130 -51 -236 -51zM201 0l81 180l-267 520h109l210 -405l183 405h97l-316 -700h-97z" />
    <glyph glyph-name="afii10145" unicode="&#x40f;" horiz-adv-x="730" 
d="M90 700h100v-610h350v610h100v-700h-220l-15 -177h-80l-15 177h-220v700z" />
    <glyph glyph-name="afii10017" unicode="&#x410;" horiz-adv-x="633" 
d="M256 700h121l241 -700h-105l-65 188h-272l-65 -188h-96zM313 583l-106 -305h210z" />
    <glyph glyph-name="afii10018" unicode="&#x411;" horiz-adv-x="550" 
d="M190 610v-184h87q96 0 164.5 -54.5t68.5 -158.5t-68.5 -158.5t-164.5 -54.5h-187v700h359v-90h-259zM190 336v-246h69q145 0 145 123t-145 123h-69z" />
    <glyph glyph-name="afii10019" unicode="&#x412;" horiz-adv-x="555" 
d="M515 197q0 -66 -34.5 -112.5t-81.5 -65.5t-99 -19h-210v700h210q77 0 135 -41.5t58 -127.5q0 -60 -31 -103.5t-89 -61.5q65 -14 103.5 -57t38.5 -112zM415 203q0 114 -134 114h-91v-227h91q134 0 134 113zM392 509q0 53 -29.5 77t-89.5 24h-83v-203h83q60 0 89.5 24.5
t29.5 77.5z" />
    <glyph glyph-name="afii10020" unicode="&#x413;" horiz-adv-x="464" 
d="M190 610v-610h-100v700h359v-90h-259z" />
    <glyph glyph-name="afii10021" unicode="&#x414;" horiz-adv-x="741" 
d="M219 700h402v-610h80v-267h-80l-20 177h-476l-20 -177h-80v267h68q33 59 55 114.5t34.5 100.5t20 117t10 122t6.5 156zM521 90v520h-214q-12 -367 -117 -520h331z" />
    <glyph glyph-name="afii10022" unicode="&#x415;" horiz-adv-x="499" 
d="M424 407v-90h-234v-227h269v-90h-369v700h358v-90h-258v-203h234z" />
    <glyph glyph-name="afii10024" unicode="&#x416;" horiz-adv-x="946" 
d="M917 0h-124l-191 317h-79v-317h-100v317h-79l-191 -317h-124l233 366l-227 334h112l200 -293h76v293h100v-293h77l199 293h112l-227 -334z" />
    <glyph glyph-name="afii10025" unicode="&#x417;" horiz-adv-x="524" 
d="M484 193q0 -98 -67 -153t-165 -55q-66 0 -127.5 26.5t-104.5 67.5l55 70q88 -74 172 -74q55 0 93.5 31.5t38.5 86.5q0 124 -156 124h-62v90h62q76 0 118.5 30t42.5 91q0 45 -29 71t-78 26q-86 0 -174 -38l-28 86q97 42 201 42q92 0 147.5 -44t55.5 -134q0 -67 -41.5 -111
t-100.5 -64q65 -14 106 -57t41 -112z" />
    <glyph glyph-name="afii10026" unicode="&#x418;" horiz-adv-x="742" 
d="M190 150l352 550h110v-700h-100v550l-352 -550h-110v700h100v-550z" />
    <glyph glyph-name="afii10027" unicode="&#x419;" horiz-adv-x="742" 
d="M371 767q-106 0 -236 51l32 76q114 -51 204 -51t204 51l32 -76q-130 -51 -236 -51zM190 150l352 550h110v-700h-100v550l-352 -550h-110v700h100v-550z" />
    <glyph glyph-name="afii10028" unicode="&#x41a;" horiz-adv-x="623" 
d="M594 0h-126l-201 317h-77v-317h-100v700h100v-293h71l207 293h120l-237 -334z" />
    <glyph glyph-name="afii10029" unicode="&#x41b;" horiz-adv-x="700" 
d="M610 700v-700h-100v610h-236q-4 -134 -11.5 -230t-22 -164.5t-32.5 -111t-47 -69t-60 -38t-77 -18.5l-29 86q45 6 72.5 22.5t50 54.5t35 110.5t20 178t11.5 269.5h426z" />
    <glyph glyph-name="afii10030" unicode="&#x41c;" horiz-adv-x="914" 
d="M834 0h-101l-23 590l-217 -590h-83l-209 590l-30 -590h-92l38 700h151l188 -536l204 536h144z" />
    <glyph glyph-name="afii10031" unicode="&#x41d;" horiz-adv-x="730" 
d="M640 0h-100v317h-350v-317h-100v700h100v-293h350v293h100v-700z" />
    <glyph glyph-name="afii10032" unicode="&#x41e;" horiz-adv-x="754" 
d="M377 -15q-156 0 -246.5 105.5t-90.5 259.5t90.5 259.5t246.5 105.5t246.5 -105.5t90.5 -259.5t-90.5 -259.5t-246.5 -105.5zM377 75q104 0 170.5 74t66.5 201t-66.5 201t-170.5 74t-170.5 -74t-66.5 -201t66.5 -201t170.5 -74z" />
    <glyph glyph-name="afii10033" unicode="&#x41f;" horiz-adv-x="730" 
d="M640 0h-100v610h-350v-610h-100v700h550v-700z" />
    <glyph glyph-name="afii10034" unicode="&#x420;" horiz-adv-x="540" 
d="M190 610v-246h69q145 0 145 123t-145 123h-69zM190 274v-274h-100v700h187q96 0 164.5 -54.5t68.5 -158.5t-68.5 -158.5t-164.5 -54.5h-87z" />
    <glyph glyph-name="afii10035" unicode="&#x421;" horiz-adv-x="661" 
d="M391 715q127 0 223 -43l-35 -87q-105 40 -188 40q-106 0 -173.5 -74.5t-67.5 -200.5q0 -132 66.5 -203.5t174.5 -71.5q86 0 207 81l43 -77q-5 -4 -13.5 -10t-36 -22.5t-55.5 -29t-68 -22.5t-77 -10q-170 0 -260.5 99t-90.5 266q0 162 91 263.5t260 101.5z" />
    <glyph glyph-name="afii10036" unicode="&#x422;" horiz-adv-x="575" 
d="M560 700v-90h-223v-610h-99v610h-223v90h545z" />
    <glyph glyph-name="afii10037" unicode="&#x423;" horiz-adv-x="624" 
d="M201 0l81 180l-267 520h109l210 -405l183 405h97l-316 -700h-97z" />
    <glyph glyph-name="afii10038" unicode="&#x424;" horiz-adv-x="786" 
d="M443 745v-90q143 0 223 -70t80 -207t-80 -207t-223 -70v-101h-100v101q-143 0 -223 70t-80 207t80 207t223 70v90h100zM443 565v-374q49 0 83 7.5t63 27t43 57.5t14 95t-14 95t-43 57.5t-63 27t-83 7.5zM343 191v374q-49 0 -83 -7.5t-63 -27t-43 -57.5t-14 -95t14 -95
t43 -57.5t63 -27t83 -7.5z" />
    <glyph glyph-name="afii10039" unicode="&#x425;" horiz-adv-x="608" 
d="M577 700l-217 -345l223 -355h-119l-164 260l-163 -260h-106l216 345l-222 355h118l164 -261l164 261h106z" />
    <glyph glyph-name="afii10040" unicode="&#x426;" horiz-adv-x="760" 
d="M640 90h80v-267h-80l-20 177h-530v700h100v-610h350v610h100v-610z" />
    <glyph glyph-name="afii10041" unicode="&#x427;" horiz-adv-x="615" 
d="M425 0v292q-96 -42 -191 -42q-88 0 -141 49t-53 152v249h100v-249q0 -59 28.5 -85.5t85.5 -26.5q33 0 83.5 11.5t87.5 29.5v320h100v-700h-100z" />
    <glyph glyph-name="afii10042" unicode="&#x428;" horiz-adv-x="1020" 
d="M930 0h-840v700h100v-610h270v610h100v-610h270v610h100v-700z" />
    <glyph glyph-name="afii10043" unicode="&#x429;" horiz-adv-x="1050" 
d="M1010 -177h-80l-20 177h-820v700h100v-610h270v610h100v-610h270v610h100v-610h80v-267z" />
    <glyph glyph-name="afii10044" unicode="&#x42a;" horiz-adv-x="605" 
d="M260 700v-274h87q96 0 164.5 -54.5t68.5 -158.5t-68.5 -158.5t-164.5 -54.5h-187v610h-160v90h260zM260 336v-246h69q145 0 145 123t-145 123h-69z" />
    <glyph glyph-name="afii10045" unicode="&#x42b;" horiz-adv-x="775" 
d="M685 700v-700h-100v700h100zM190 336v-246h69q145 0 145 123t-145 123h-69zM190 700v-274h87q96 0 164.5 -54.5t68.5 -158.5t-68.5 -158.5t-164.5 -54.5h-187v700h100z" />
    <glyph glyph-name="afii10046" unicode="&#x42c;" horiz-adv-x="535" 
d="M190 336v-246h69q145 0 145 123t-145 123h-69zM190 700v-274h87q96 0 164.5 -54.5t68.5 -158.5t-68.5 -158.5t-164.5 -54.5h-187v700h100z" />
    <glyph glyph-name="afii10047" unicode="&#x42d;" horiz-adv-x="656" 
d="M265 715q175 0 263 -100.5t88 -264.5q0 -167 -90.5 -266t-260.5 -99q-59 0 -121.5 23.5t-95.5 47.5l-33 23l43 77q121 -81 207 -81q101 0 166 62.5t74 179.5h-345v90h342q-15 104 -76.5 161t-160.5 57q-83 0 -188 -40l-35 87q96 43 223 43z" />
    <glyph glyph-name="afii10048" unicode="&#x42e;" horiz-adv-x="1009" 
d="M642 -15q-146 0 -231.5 94t-94.5 238h-126v-317h-100v700h100v-293h128q16 135 100 221.5t224 86.5q104 0 179.5 -51t111.5 -132t36 -182t-36 -182t-111.5 -132t-179.5 -51zM642 75q103 0 165 73.5t62 201.5t-62 201.5t-165 73.5t-165 -73.5t-62 -201.5t62 -201.5
t165 -73.5z" />
    <glyph glyph-name="afii10049" unicode="&#x42f;" horiz-adv-x="600" 
d="M410 0v274h-107l-158 -274h-115l168 293q-58 23 -93 72t-35 122q0 104 68.5 158.5t164.5 54.5h207v-700h-100zM410 364v246h-89q-145 0 -145 -123t145 -123h89z" />
    <glyph glyph-name="afii10065" unicode="&#x430;" horiz-adv-x="495" 
d="M335 0v70q-86 -81 -165 -81q-60 0 -97.5 32t-37.5 94q0 91 76.5 131t223.5 47q0 41 -7 66t-23.5 35t-29.5 12t-40 2q-64 0 -153 -36l-26 77q99 39 199 39q170 0 170 -201v-287h-90zM193 66q55 0 142 83v74q-100 -4 -155 -26.5t-55 -74.5q0 -56 68 -56z" />
    <glyph glyph-name="afii10066" unicode="&#x431;" horiz-adv-x="564" 
d="M524 243q0 -115 -71 -186.5t-167 -71.5q-124 0 -185 85t-61 244q0 64 10 113.5t23.5 85t46 64t58.5 46t80.5 35t92 26.5t113.5 26l14 -81l-232 -63q-107 -28 -113 -174q83 76 189 76q83 0 142.5 -60.5t59.5 -164.5zM133 285q0 -120 38.5 -170t114.5 -50q68 0 106.5 44.5
t38.5 114.5q0 75 -36 118t-109 43q-40 0 -82.5 -19t-70.5 -50v-31z" />
    <glyph glyph-name="afii10067" unicode="&#x432;" horiz-adv-x="468" 
d="M267 75q32 0 51.5 17t19.5 49q0 63 -71 63h-107v-129h107zM257 397h-97v-123h97q72 0 72 61q0 62 -72 62zM325 246q103 -20 103 -117q0 -66 -46 -97.5t-114 -31.5h-198v472h198q41 0 72.5 -9t55.5 -36.5t24 -72.5q0 -91 -95 -108z" />
    <glyph glyph-name="afii10068" unicode="&#x433;" horiz-adv-x="395" 
d="M160 0h-90v472h310v-80h-220v-392z" />
    <glyph glyph-name="afii10069" unicode="&#x434;" horiz-adv-x="547" 
d="M370 80v312h-143q-11 -128 -28.5 -200t-55.5 -112h227zM447 0h-357l-15 -133h-65v213h44q50 55 68.5 138.5t24.5 253.5h314v-392h66v-213h-65z" />
    <glyph glyph-name="afii10070" unicode="&#x435;" horiz-adv-x="492" 
d="M40 226q0 123 65.5 192.5t151.5 69.5q203 0 203 -255h-328q2 -91 42 -128t116 -37q56 0 135 57l37 -65q-103 -75 -187 -75q-99 0 -167 62t-68 179zM260 408q-44 0 -73.5 -25.5t-47.5 -84.5h234q-3 54 -28 82t-85 28z" />
    <glyph glyph-name="afii10072" unicode="&#x436;" horiz-adv-x="726" 
d="M24 472h98l132 -188h64v188h90v-188h63l133 188h98l-158 -223l167 -249h-109l-137 204h-57v-204h-90v204h-57l-137 -204h-109l166 249z" />
    <glyph glyph-name="afii10073" unicode="&#x437;" horiz-adv-x="435" 
d="M212 -15q-90 0 -182 71l41 67q82 -59 143 -59q45 0 68 15.5t23 53.5q0 34 -28 55t-68 21h-62v70h62q43 0 65.5 20.5t22.5 49.5q0 25 -21 42t-53 17q-81 0 -135 -25l-20 77q84 28 167 28q66 0 109.5 -29.5t43.5 -89.5q0 -45 -30 -80t-89 -43q126 -14 126 -121
q0 -66 -54 -103t-129 -37z" />
    <glyph glyph-name="afii10074" unicode="&#x438;" horiz-adv-x="556" 
d="M160 125l231 347h95v-472h-90v347l-231 -347h-95v472h90v-347z" />
    <glyph glyph-name="afii10075" unicode="&#x439;" horiz-adv-x="556" 
d="M278 627q79 0 154 46l32 -71q-102 -46 -186 -46t-186 46l32 71q75 -46 154 -46zM160 125l231 347h95v-472h-90v347l-231 -347h-95v472h90v-347z" />
    <glyph glyph-name="afii10076" unicode="&#x43a;" horiz-adv-x="480" 
d="M160 472v-188h65l135 188h99l-156 -217l162 -255h-107l-127 204h-71v-204h-90v472h90z" />
    <glyph glyph-name="afii10077" unicode="&#x43b;" horiz-adv-x="525" 
d="M455 0h-90v392h-153q-4 -89 -9.5 -145.5t-17.5 -108t-31.5 -80t-50 -47.5t-74.5 -26l-23 79q76 10 99.5 99t27.5 309h322v-472z" />
    <glyph glyph-name="afii10078" unicode="&#x43c;" horiz-adv-x="670" 
d="M610 0h-88l-13 367l-138 -367h-83l-138 365l-12 -365h-78l16 472h126l133 -355l134 355h125z" />
    <glyph glyph-name="afii10079" unicode="&#x43d;" horiz-adv-x="553" 
d="M393 0v204h-233v-204h-90v472h90v-188h233v188h90v-472h-90z" />
    <glyph glyph-name="afii10080" unicode="&#x43e;" horiz-adv-x="560" 
d="M280 -15q-105 0 -172.5 65.5t-67.5 186.5t67 186t173 65q105 0 172.5 -65.5t67.5 -186.5t-67 -186t-173 -65zM280 60q69 0 109.5 46t40.5 130t-40.5 130.5t-109.5 46.5t-109.5 -46t-40.5 -130t40.5 -130.5t109.5 -46.5z" />
    <glyph glyph-name="afii10081" unicode="&#x43f;" horiz-adv-x="553" 
d="M393 0v392h-233v-392h-90v472h413v-472h-90z" />
    <glyph glyph-name="afii10082" unicode="&#x440;" horiz-adv-x="559" 
d="M427 245q0 50 -15 84.5t-39.5 49t-45.5 20t-44 5.5q-62 0 -123 -63v-243q39 -39 116 -39q151 0 151 186zM70 -195v667h90v-61q20 25 65.5 51t94.5 26q80 0 139.5 -61t59.5 -182q0 -65 -20.5 -117t-53.5 -82t-70 -45.5t-75 -15.5q-81 0 -140 35v-215h-90z" />
    <glyph glyph-name="afii10083" unicode="&#x441;" horiz-adv-x="490" 
d="M425 125l40 -66q-105 -74 -190 -74q-100 0 -167.5 61.5t-67.5 189.5q0 83 38 142t92 84.5t114 25.5q72 0 161 -23l-21 -77q-79 21 -130 21q-157 0 -157 -173q0 -84 41 -126t115 -42q43 0 132 57z" />
    <glyph glyph-name="afii10084" unicode="&#x442;" horiz-adv-x="451" 
d="M436 392h-165v-392h-91v392h-165v80h421v-80z" />
    <glyph glyph-name="afii10085" unicode="&#x443;" horiz-adv-x="510" 
d="M259 122l147 350h89l-282 -667h-89l86 202l-195 465h97z" />
    <glyph glyph-name="afii10086" unicode="&#x444;" horiz-adv-x="682" 
d="M386 641v-162q122 0 189 -63.5t67 -175.5t-67 -179t-189 -67v-189h-90v189q-122 0 -189 66.5t-67 179.5q0 112 66.5 175.5t189.5 63.5v162h90zM130 240q0 -88 38.5 -132t127.5 -44v345q-90 0 -128 -41t-38 -128zM552 240q0 87 -38 128t-128 41v-345q89 0 127.5 44
t38.5 132z" />
    <glyph glyph-name="afii10087" unicode="&#x445;" horiz-adv-x="467" 
d="M337 0l-108 161l-112 -161h-97l162 232l-160 240h106l109 -161l112 161h97l-162 -232l163 -240h-110z" />
    <glyph glyph-name="afii10088" unicode="&#x446;" horiz-adv-x="569" 
d="M469 0h-399v472h90v-392h233v392h90v-392h66v-213h-65z" />
    <glyph glyph-name="afii10089" unicode="&#x447;" horiz-adv-x="476" 
d="M25 309v163h90v-152q0 -43 18.5 -64t61.5 -21q53 0 121 29v208h90v-472h-90v196q-76 -37 -155 -37q-65 0 -100.5 41t-35.5 109z" />
    <glyph glyph-name="afii10090" unicode="&#x448;" horiz-adv-x="750" 
d="M680 0h-610v472h90v-392h170v392h90v-392h170v392h90v-472z" />
    <glyph glyph-name="afii10091" unicode="&#x449;" horiz-adv-x="766" 
d="M666 0h-596v472h90v-392h170v392h90v-392h170v392h90v-392h66v-213h-65z" />
    <glyph glyph-name="afii10092" unicode="&#x44a;" horiz-adv-x="495" 
d="M0 472h211v-169h98q70 0 115.5 -40.5t45.5 -110.5t-45.5 -111t-115.5 -41h-189v392h-120v80zM380 152q0 38 -24 57t-59 19h-86v-153h86q83 0 83 77z" />
    <glyph glyph-name="afii10093" unicode="&#x44b;" horiz-adv-x="638" 
d="M70 472h90v-169h98q70 0 115.5 -40.5t45.5 -110.5t-45.5 -111t-115.5 -41h-188v472zM568 0h-91v472h91v-472zM329 152q0 38 -24 57t-59 19h-86v-153h86q83 0 83 77z" />
    <glyph glyph-name="afii10094" unicode="&#x44c;" horiz-adv-x="444" 
d="M70 472h90v-169h98q70 0 115.5 -40.5t45.5 -110.5t-45.5 -111t-115.5 -41h-188v472zM329 152q0 38 -24 57t-59 19h-86v-153h86q83 0 83 77z" />
    <glyph glyph-name="afii10095" unicode="&#x44d;" horiz-adv-x="491" 
d="M25 56l41 68q78 -56 132 -56q138 0 154 136h-242v80h241q-7 65 -41 94.5t-98 29.5q-73 0 -145 -19l-20 77q85 22 175 22q100 0 164.5 -63.5t64.5 -188.5q0 -65 -22.5 -115.5t-60 -79t-81 -42.5t-91.5 -14q-43 0 -91.5 22.5t-79.5 48.5z" />
    <glyph glyph-name="afii10096" unicode="&#x44e;" horiz-adv-x="756" 
d="M489 488q106 0 166.5 -69t60.5 -182q0 -114 -60.5 -183t-166.5 -69q-98 0 -157.5 59.5t-68.5 159.5h-103v-204h-90v472h90v-188h105q12 93 71 148.5t153 55.5zM489 65q137 0 137 172q0 171 -137 171t-137 -171q0 -172 137 -172z" />
    <glyph glyph-name="afii10097" unicode="&#x44f;" horiz-adv-x="473" 
d="M25 0l137 185q-98 28 -98 137q0 80 50.5 115t121.5 35h167v-472h-90v172h-54l-127 -172h-107zM313 397h-75q-83 0 -83 -75q0 -34 21.5 -54.5t61.5 -20.5h75v150z" />
    <glyph glyph-name="afii10071" unicode="&#x451;" horiz-adv-x="492" 
d="M174 562q-23 0 -40 17t-17 40q0 25 17 42.5t40 17.5q25 0 42.5 -17.5t17.5 -42.5q0 -23 -17.5 -40t-42.5 -17zM369 562q-23 0 -40.5 17t-17.5 40q0 25 17.5 42.5t40.5 17.5q25 0 42 -17.5t17 -42.5q0 -23 -17 -40t-42 -17zM40 226q0 123 65.5 192.5t151.5 69.5
q203 0 203 -255h-328q2 -91 42 -128t116 -37q56 0 135 57l37 -65q-103 -75 -187 -75q-99 0 -167 62t-68 179zM260 408q-44 0 -73.5 -25.5t-47.5 -84.5h234q-3 54 -28 82t-85 28z" />
    <glyph glyph-name="afii10099" unicode="&#x452;" horiz-adv-x="553" 
d="M493 274v-259q0 -59 -18.5 -101.5t-49 -65.5t-64 -33t-70.5 -10v80q57 0 84 36.5t27 93.5v259q0 69 -31.5 100t-82.5 31q-32 0 -74.5 -18.5t-63.5 -44.5v-342h-90v540h-60v70h60v90h90v-90h143v-70h-143v-126q74 72 156 72q78 0 132.5 -53.5t54.5 -158.5z" />
    <glyph glyph-name="afii10100" unicode="&#x453;" horiz-adv-x="395" 
d="M356 706l-131 -162h-65l98 162h98zM160 0h-90v472h310v-80h-220v-392z" />
    <glyph glyph-name="afii10101" unicode="&#x454;" horiz-adv-x="485" 
d="M423 129l42 -70q-105 -74 -190 -74q-100 0 -167.5 61.5t-67.5 189.5q0 83 38 142t92 84.5t114 25.5q72 0 161 -23l-21 -78q-83 22 -130 22q-134 0 -154 -125h241v-80h-242q15 -136 154 -136q45 0 130 61z" />
    <glyph glyph-name="afii10102" unicode="&#x455;" horiz-adv-x="446" 
d="M406 142q0 -47 -19 -80.5t-50 -49t-58.5 -21.5t-55.5 -6q-96 0 -183 66l38 70q82 -56 147 -56q93 0 93 61q0 30 -26.5 48t-63.5 28.5t-74.5 23.5t-64 44t-26.5 80q0 63 44.5 101t121.5 38q81 0 165 -33l-28 -75q-79 30 -151 30q-32 0 -49 -16.5t-17 -40.5
q0 -27 26.5 -43.5t64.5 -26.5t75.5 -23.5t64 -43t26.5 -75.5z" />
    <glyph glyph-name="afii10103" unicode="&#x456;" horiz-adv-x="243" 
d="M160 472v-472h-90v472h90zM114 562q-23 0 -40.5 17t-17.5 40q0 25 17.5 42.5t40.5 17.5q25 0 42 -17.5t17 -42.5q0 -23 -17 -40t-42 -17z" />
    <glyph glyph-name="afii10104" unicode="&#x457;" horiz-adv-x="230" 
d="M160 472v-472h-90v472h90zM173 563q-18 0 -31.5 15.5t-13.5 37.5t13.5 39t31.5 17q20 0 33.5 -16.5t13.5 -39.5t-13.5 -38t-33.5 -15zM55 563q-18 0 -31.5 15.5t-13.5 37.5t14 39t31 17q20 0 34 -16.5t14 -39.5q0 -22 -14 -37.5t-34 -15.5z" />
    <glyph glyph-name="afii10105" unicode="&#x458;" horiz-adv-x="230" 
d="M160 472v-457q0 -59 -18 -101.5t-48.5 -65.5t-64 -33t-70.5 -10v80q57 0 84 36.5t27 93.5v457h90zM114 562q-23 0 -40.5 17t-17.5 40q0 25 17.5 42.5t40.5 17.5q25 0 42 -17.5t17 -42.5q0 -23 -17 -40t-42 -17z" />
    <glyph glyph-name="afii10106" unicode="&#x459;" horiz-adv-x="728" 
d="M142 472h312v-169h88q70 0 115.5 -40.5t45.5 -110.5t-45.5 -111t-115.5 -41h-178v392h-143q-4 -89 -9.5 -145.5t-17.5 -108t-31.5 -80t-50 -47.5t-74.5 -26l-23 79q76 10 99.5 99t27.5 309zM613 152q0 38 -24 57t-59 19h-76v-153h76q83 0 83 77z" />
    <glyph glyph-name="afii10107" unicode="&#x45a;" horiz-adv-x="737" 
d="M373 0v218h-213v-218h-90v472h90v-179h213v179h90v-179h88q70 0 115.5 -38t45.5 -108q0 -67 -46 -107t-115 -40h-178zM622 147q0 71 -83 71h-76v-143h76q83 0 83 72z" />
    <glyph glyph-name="afii10108" unicode="&#x45b;" horiz-adv-x="623" 
d="M220 700v-90h143v-70h-143v-126q74 72 156 72q78 0 132.5 -53.5t54.5 -158.5v-274h-91v274q0 69 -31.5 100t-82.5 31q-32 0 -74.5 -18.5t-63.5 -44.5v-342h-90v540h-60v70h60v90h90z" />
    <glyph glyph-name="afii10109" unicode="&#x45c;" horiz-adv-x="480" 
d="M406 706l-131 -162h-65l98 162h98zM160 472v-188h65l135 188h99l-156 -217l162 -255h-107l-127 204h-71v-204h-90v472h90z" />
    <glyph glyph-name="afii10110" unicode="&#x45e;" horiz-adv-x="510" 
d="M256 627q79 0 154 46l32 -71q-102 -46 -186 -46t-186 46l32 71q75 -46 154 -46zM259 122l147 350h89l-282 -667h-89l86 202l-195 465h97z" />
    <glyph glyph-name="afii10193" unicode="&#x45f;" horiz-adv-x="553" 
d="M160 472v-392h233v392h90v-472h-161l-16 -133h-60l-16 133h-160v472h90z" />
    <glyph glyph-name="afii10050" unicode="&#x490;" horiz-adv-x="464" 
d="M190 610v-610h-100v700h269l30 122h60v-212h-259z" />
    <glyph glyph-name="afii10098" unicode="&#x491;" horiz-adv-x="395" 
d="M160 0h-90v472h240l15 96h55v-176h-220v-392z" />
    <glyph glyph-name="endash" unicode="&#x2013;" horiz-adv-x="540" 
d="M510 223h-480v70h480v-70z" />
    <glyph glyph-name="emdash" unicode="&#x2014;" horiz-adv-x="784" 
d="M754 223h-724v70h724v-70z" />
    <glyph glyph-name="quoteleft" unicode="&#x2018;" horiz-adv-x="248" 
d="M50 503q0 60 109 198l39 -22l-71 -132q24 -2 41 -20t17 -42q0 -25 -19 -44t-44 -19q-31 0 -51.5 21.5t-20.5 59.5z" />
    <glyph glyph-name="quoteright" unicode="&#x2019;" horiz-adv-x="248" 
d="M198 619q0 -60 -109 -198l-39 22l71 132q-24 2 -41 20t-17 42q0 25 19 44t44 19q31 0 51.5 -21.5t20.5 -59.5z" />
    <glyph glyph-name="quotesinglbase" unicode="&#x201a;" horiz-adv-x="228" 
d="M188 39q0 -60 -109 -198l-39 22l71 132q-24 2 -41 20t-17 42q0 25 19 44t44 19q31 0 51.5 -21.5t20.5 -59.5z" />
    <glyph glyph-name="quotedblleft" unicode="&#x201c;" horiz-adv-x="408" 
d="M50 503q0 60 109 198l39 -22l-71 -132q24 -2 41 -20t17 -42q0 -25 -19 -44t-44 -19q-31 0 -51.5 21.5t-20.5 59.5zM210 503q0 60 109 198l39 -22l-71 -132q24 -2 41 -20t17 -42q0 -25 -19 -44t-44 -19q-31 0 -51.5 21.5t-20.5 59.5z" />
    <glyph glyph-name="quotedblright" unicode="&#x201d;" horiz-adv-x="408" 
d="M358 619q0 -60 -109 -198l-39 22l71 132q-24 2 -41 20t-17 42q0 25 19 44t44 19q31 0 51.5 -21.5t20.5 -59.5zM198 619q0 -60 -109 -198l-39 22l71 132q-24 2 -41 20t-17 42q0 25 19 44t44 19q31 0 51.5 -21.5t20.5 -59.5z" />
    <glyph glyph-name="quotedblbase" unicode="&#x201e;" horiz-adv-x="408" 
d="M358 39q0 -60 -109 -198l-39 22l71 132q-24 2 -41 20t-17 42q0 25 19 44t44 19q31 0 51.5 -21.5t20.5 -59.5zM198 39q0 -60 -109 -198l-39 22l71 132q-24 2 -41 20t-17 42q0 25 19 44t44 19q31 0 51.5 -21.5t20.5 -59.5z" />
    <glyph glyph-name="dagger" unicode="&#x2020;" horiz-adv-x="414" 
d="M162 700h90l-10 -158h122v-70h-122l30 -396l-65 -78l-65 78l30 396h-122v70h122z" />
    <glyph glyph-name="daggerdbl" unicode="&#x2021;" horiz-adv-x="414" 
d="M172 394v78h-122v70h122l-10 158h90l-10 -158h122v-70h-122v-78h122v-70h-122l30 -248l-65 -78l-65 78l30 248h-122v70h122z" />
    <glyph glyph-name="bullet" unicode="&#x2022;" horiz-adv-x="357" 
d="M50 323q0 54 37.5 91.5t91.5 37.5q53 0 90.5 -37.5t37.5 -91.5q0 -53 -37.5 -90.5t-90.5 -37.5q-54 0 -91.5 37.5t-37.5 90.5z" />
    <glyph glyph-name="ellipsis" unicode="&#x2026;" horiz-adv-x="725" 
d="M550 57q0 25 19 44t44 19t43.5 -18.5t18.5 -44.5q0 -25 -18.5 -43.5t-43.5 -18.5q-26 0 -44.5 18.5t-18.5 43.5zM300 57q0 25 19 44t44 19t43.5 -18.5t18.5 -44.5q0 -25 -18.5 -43.5t-43.5 -18.5q-26 0 -44.5 18.5t-18.5 43.5zM50 57q0 25 19 44t44 19t43.5 -18.5
t18.5 -44.5q0 -25 -18.5 -43.5t-43.5 -18.5q-26 0 -44.5 18.5t-18.5 43.5z" />
    <glyph glyph-name="perthousand" unicode="&#x2030;" horiz-adv-x="1063" 
d="M949 148q0 43 -19.5 68.5t-59.5 25.5q-74 0 -74 -94q0 -93 74 -93q39 0 59 26t20 67zM1013 148q0 -65 -41.5 -109t-101.5 -44q-62 0 -101 43.5t-39 109.5q0 75 38 114.5t102 39.5q63 0 103 -40t40 -114zM609 148q0 43 -19.5 68.5t-59.5 25.5q-74 0 -74 -94q0 -93 74 -93
q39 0 59 26t20 67zM673 148q0 -65 -41.5 -109t-101.5 -44q-62 0 -101 43.5t-39 109.5q0 75 38 114.5t102 39.5q63 0 103 -40t40 -114zM351 551q0 -65 -41.5 -109t-101.5 -44q-62 0 -101 43.5t-39 109.5q0 75 38 114.5t102 39.5q63 0 103 -40t40 -114zM691 700l-560 -700h-81
l560 700h81zM287 551q0 43 -19.5 68.5t-59.5 25.5q-74 0 -74 -94q0 -93 74 -93q39 0 59 26t20 67z" />
    <glyph glyph-name="guilsinglleft" unicode="&#x2039;" horiz-adv-x="319" 
d="M159 230l150 -192l-44 -39l-215 231l215 231l44 -39z" />
    <glyph glyph-name="guilsinglright" unicode="&#x203a;" horiz-adv-x="319" 
d="M160 230l-150 192l44 39l215 -231l-215 -231l-44 39z" />
    <glyph glyph-name="fraction" unicode="&#x2044;" horiz-adv-x="741" 
d="M691 700l-560 -700h-81l560 700h81z" />
    <glyph glyph-name="Euro" unicode="&#x20ac;" horiz-adv-x="691" 
d="M421 715q117 0 213 -43l-35 -87q-40 15 -59.5 21.5t-51.5 12.5t-67 6q-80 0 -139.5 -43t-85.5 -121h365l-27 -80h-353q-1 -10 -1 -31q0 -20 1 -29h336l-27 -80h-295q24 -81 83.5 -123.5t142.5 -42.5q86 0 207 81l43 -77q-5 -4 -13.5 -10t-36 -22.5t-55.5 -29t-68 -22.5
t-77 -10q-140 0 -226.5 68t-113.5 188h-51v80h41q-1 9 -1 29t1 31h-41v80h52q28 117 115 185.5t224 68.5z" />
    <glyph glyph-name="afii61352" unicode="&#x2116;" horiz-adv-x="1060" 
d="M660 700v-700h-70l-410 510v-510h-90v700h70l410 -511v511h90zM1020 110h-293v60h293v-60zM951 378q0 43 -19.5 68.5t-59.5 25.5q-74 0 -74 -94q0 -93 74 -93q39 0 59 26t20 67zM1015 378q0 -65 -41.5 -109t-101.5 -44q-62 0 -101 43.5t-39 109.5q0 75 38 114.5t102 39.5
q63 0 103 -40t40 -114z" />
    <glyph glyph-name="trademark" unicode="&#x2122;" horiz-adv-x="865" 
d="M356 637h-130v-307h-71v307h-130v63h331v-63zM820 330h-69l-10 288l-109 -288h-65l-108 286l-10 -286h-61l12 370h99l105 -279l105 279h98z" />
    <glyph glyph-name="partialdiff" unicode="&#x2202;" horiz-adv-x="549" 
d="M422 316q0 47 -11 79q-46 14 -95 14q-85 0 -137 -61t-52 -151q0 -66 34 -101.5t94 -35.5q73 0 120 75t47 181zM513 326q0 -147 -79.5 -244t-189.5 -97q-94 0 -151 52t-57 150q0 143 82 222t197 79q48 0 84 -13q-31 150 -252 174v75q177 -4 271.5 -112t94.5 -286z" />
    <glyph glyph-name="uni2206" unicode="&#x2206;" horiz-adv-x="731" 
d="M681 0h-631l282 700h36zM352 566l-199 -496h420z" />
    <glyph glyph-name="minus" unicode="&#x2212;" horiz-adv-x="640" 
d="M590 259h-540v70h540v-70z" />
    <glyph glyph-name="radical" unicode="&#x221a;" horiz-adv-x="568" 
d="M568 715h-114l-160 -752h-83l-128 403h-83v70h135l111 -356l152 705h170v-70z" />
    <glyph glyph-name="infinity" unicode="&#x221e;" horiz-adv-x="816" 
d="M696 289q0 46 -28.5 70.5t-72.5 24.5q-39 0 -66 -20.5t-74 -74.5q30 -35 47.5 -51.5t42 -30t50.5 -13.5q44 0 72.5 24.5t28.5 70.5zM766 289q0 -76 -47 -120.5t-124 -44.5q-96 0 -187 111q-91 -111 -187 -111q-77 0 -124 44.5t-47 120.5t47 120.5t124 44.5q96 0 187 -111
q91 111 187 111q77 0 124 -44.5t47 -120.5zM120 289q0 -46 28.5 -70.5t72.5 -24.5q40 0 66.5 20t73.5 75q-31 35 -47.5 51.5t-41 30t-51.5 13.5q-44 0 -72.5 -24.5t-28.5 -70.5z" />
    <glyph glyph-name="approxequal" unicode="&#x2248;" horiz-adv-x="712" 
d="M662 460v-80q-43 -38 -76.5 -56.5t-52 -21.5t-51.5 -3q-35 0 -123.5 36.5t-128.5 36.5q-87 0 -180 -80v80q46 40 87.5 55t92.5 15q40 0 128.5 -36.5t123.5 -36.5q43 0 79.5 17t100.5 74zM662 294v-80q-43 -38 -76.5 -56.5t-52 -21.5t-51.5 -3q-35 0 -123.5 36.5
t-128.5 36.5q-87 0 -180 -80v80q46 40 87.5 55t92.5 15q40 0 128.5 -36.5t123.5 -36.5q43 0 79.5 17t100.5 74z" />
    <glyph glyph-name="notequal" unicode="&#x2260;" horiz-adv-x="640" 
d="M341 405l66 135l64 -31l-52 -104h171v-70h-205l-51 -102h256v-70h-290l-69 -139l-62 31l53 108h-172v70h206l50 102h-256v70h291z" />
    <glyph glyph-name="lessequal" unicode="&#x2264;" horiz-adv-x="525" 
d="M475 84l-455 262l455 262v-81l-314 -181l314 -181v-81zM28 217v81l447 -256v-81z" />
    <glyph glyph-name="greaterequal" unicode="&#x2265;" horiz-adv-x="525" 
d="M475 346l-455 -262v81l314 181l-314 181v81zM467 298v-81l-447 -256v81z" />
    <glyph glyph-name="lozenge" unicode="&#x25ca;" horiz-adv-x="506" 
d="M253 700l203 -350l-203 -350l-203 350zM253 125l132 225l-132 225l-132 -225z" />
    <glyph glyph-name="one.onum" 
d="M217 362l-104 -54l-30 58l185 121h48v-397h100v-90h-299v90h100v272z" />
    <glyph glyph-name="zero.onum" 
d="M28 236q0 47 12 89.5t36.5 80t69 59.5t104.5 22t104.5 -22t69 -59.5t36.5 -80t12 -89.5t-12 -89.5t-36.5 -80t-69 -59.5t-104.5 -22t-104.5 22t-69 59.5t-36.5 80t-12 89.5zM128 236q0 -161 122 -161t122 161t-122 161t-122 -161z" />
    <glyph glyph-name="two.onum" 
d="M442 0h-370v50q161 124 209 175t48 93q0 32 -19 55.5t-55 23.5q-55 0 -143 -75l-54 71q101 94 207 94q80 0 123 -43t43 -99q0 -63 -37.5 -119t-141.5 -136h190v-90z" />
    <glyph glyph-name="three.onum" 
d="M275 487q85 0 124.5 -43t39.5 -99q0 -116 -136 -177q75 -10 117.5 -55.5t42.5 -111.5q0 -92 -65 -151.5t-180 -59.5q-92 0 -182 60l45 79q78 -49 127 -49q37 0 67 8.5t54.5 37t24.5 75.5q0 43 -30 69.5t-76 26.5q-34 0 -60 -11l-37 82q14 7 40 19t37.5 17.5t31.5 15.5
t29 16.5t21.5 17t18 20t9.5 21.5t4 26q0 35 -21 55.5t-60 20.5q-84 0 -145 -74l-59 68q94 96 218 96z" />
    <glyph glyph-name="four.onum" 
d="M485 85v-85h-87v-136l-100 -74v210h-284v50l337 422h47v-387h87zM132 85h166v208z" />
    <glyph glyph-name="five.onum" 
d="M221 -210q-99 0 -182 55l43 79q74 -44 129 -44q37 0 69 10t58 41.5t26 82.5q0 65 -35.5 97.5t-99.5 32.5q-48 0 -83 -20l-49 44l59 304h298v-90h-225l-29 -153q32 4 52 4q88 0 150 -60t62 -157q0 -41 -11.5 -78t-37.5 -71.5t-76 -55.5t-118 -21z" />
    <glyph glyph-name="seven.onum" 
d="M189 -228l-85 37l235 573h-298v90h418v-40z" />
    <glyph glyph-name="eight.onum" 
d="M250 -15q-92 0 -155.5 54t-63.5 156q0 114 103 173q-39 20 -61.5 61t-22.5 88q0 92 53.5 145t146.5 53t146.5 -53t53.5 -145q0 -47 -22.5 -88t-61.5 -61q103 -59 103 -173q0 -102 -63.5 -156t-155.5 -54zM250 317q-119 0 -119 -122q0 -120 119 -120t119 120
q0 122 -119 122zM250 625q-100 0 -100 -107q0 -54 28 -82.5t72 -28.5t72 28.5t28 82.5q0 107 -100 107z" />
    <glyph glyph-name="nine.onum" 
d="M37 252q0 107 58 171t147 64q124 0 172 -86.5t48 -257.5q0 -353 -247 -353q-92 0 -155 51l48 76q47 -37 109 -37q67 0 103 41.5t41 150.5q-65 -43 -127 -43q-96 0 -146.5 63t-50.5 160zM129 253q0 -66 34.5 -103.5t86.5 -37.5q21 0 54.5 13.5t56.5 30.5q0 38 -1 64
t-5 56.5t-12 50t-20.5 37t-32 25.5t-46.5 8q-54 0 -84.5 -38.5t-30.5 -105.5z" />
    <glyph glyph-name="six.onum" 
d="M462 220q0 -107 -59.5 -171t-149.5 -64q-62 0 -105 22t-66.5 66.5t-33.5 101t-10 134.5q0 200 57.5 303t193.5 103q93 0 154 -51l-49 -76q-46 37 -108 37q-67 0 -103 -47.5t-43 -177.5q66 43 128 43q96 0 145 -62.5t49 -160.5zM370 219q0 66 -33.5 103.5t-85.5 37.5
q-21 0 -55 -13.5t-57 -30.5v-32q0 -50 4 -83t15 -64.5t34.5 -46.5t59.5 -15q54 0 86 38.5t32 105.5z" />
    <glyph glyph-name="apple" horiz-adv-x="893" 
d="M816 587q-102 -72 -102 -174q0 -123 126 -188q-34 -97 -98.5 -171t-116.5 -74q-24 0 -69 17l-37 14q-24 8 -53 8q-41 -2 -67 -13l-39 -16q-24 -10 -52 -10q-55 0 -113 67.5t-95.5 167.5t-37.5 189q0 121 67.5 196.5t178.5 75.5q42 0 78 -15l34 -14q22 -9 38 -9q21 0 41 8
l39 15q37 15 90 15q117 0 188 -89zM632 883q1 -10 1 -24q0 -76 -56 -135t-132 -59q-2 22 -2 25q0 72 57 127t132 66z" />
    <glyph glyph-name="commaaccent" horiz-adv-x="275" 
d="M211 -121q0 -57 -94 -168l-39 22l56 102q-24 2 -41 20t-17 42q0 25 19 44t44 19q31 0 51.5 -21.5t20.5 -59.5z" />
    </font>
</defs>
</svg>
